<svg width="65" height="65" viewBox="0 0 65 65" fill="none" xmlns="http://www.w3.org/2000/svg">
<path fill-rule="evenodd" clip-rule="evenodd" d="M28.9295 24.4202C22.8958 19.4604 18.0067 13.5539 14.3328 6.67238C13.598 5.30172 11.8883 4.77889 10.5035 5.51367C9.13284 6.24845 8.60992 7.95827 9.3447 9.34305C13.386 16.8746 18.7274 23.3463 25.3405 28.7865C26.5415 29.7757 28.336 29.6061 29.3252 28.405C30.3143 27.1898 30.1306 25.4093 28.9295 24.4202Z" fill="#FF9515"/>
<path fill-rule="evenodd" clip-rule="evenodd" d="M25.7127 5.1042C26.0236 10.8129 26.3063 16.5216 26.6595 22.2303C26.7584 23.7846 28.1008 24.9716 29.6552 24.8727C31.2095 24.7738 32.3965 23.4314 32.2976 21.877C31.9443 16.1825 31.6616 10.4879 31.3508 4.77922C31.266 3.22911 29.9236 2.03508 28.3693 2.12269C26.8149 2.2103 25.6138 3.54561 25.7127 5.1042Z" fill="#FF9515"/>
<path fill-rule="evenodd" clip-rule="evenodd" d="M46.6907 6.26258C43.0734 11.7169 38.9757 16.7473 34.8496 21.8343C33.8605 23.0495 34.0441 24.83 35.2593 25.805C36.4745 26.7941 38.255 26.6104 39.23 25.3952C43.4691 20.181 47.68 14.9951 51.4104 9.38535C52.2724 8.08535 51.9049 6.33324 50.6049 5.47128C49.319 4.60933 47.5527 4.96258 46.6907 6.26258Z" fill="#FF9515"/>
<path fill-rule="evenodd" clip-rule="evenodd" d="M60.7044 26.5401C50.8978 26.9781 40.4837 26.9923 30.6772 26.3705C29.1228 26.2857 27.7805 27.4586 27.6815 29.0271C27.5826 30.5814 28.7696 31.9238 30.3239 32.0227C40.3283 32.6444 50.9544 32.6303 60.9588 32.1923C62.5131 32.1216 63.7282 30.7934 63.6576 29.2391C63.5869 27.6847 62.2587 26.4694 60.7044 26.5401Z" fill="#FF9515"/>
<path fill-rule="evenodd" clip-rule="evenodd" d="M25.3338 28.3341C31.3816 35.7384 37.6414 43.0015 43.2512 50.745C44.1697 52.0026 45.9361 52.2852 47.2078 51.3667C48.4654 50.4482 48.7479 48.6818 47.8295 47.4242C42.149 39.596 35.8187 32.2482 29.7002 24.759C28.711 23.558 26.9305 23.3743 25.7294 24.3634C24.5142 25.3526 24.3446 27.133 25.3338 28.3341Z" fill="#FF9515"/>
<path fill-rule="evenodd" clip-rule="evenodd" d="M27.1654 30.4826C28.748 38.1978 29.186 45.574 29.2991 53.3881C29.3132 54.9424 30.5991 56.1859 32.1534 56.1717C33.7219 56.1435 34.9653 54.8717 34.9371 53.3032C34.824 45.1217 34.3578 37.4207 32.7045 29.3381C32.3795 27.812 30.8959 26.8228 29.3556 27.1478C27.8296 27.4586 26.8404 28.9565 27.1654 30.4826Z" fill="#FF9515"/>
<path fill-rule="evenodd" clip-rule="evenodd" d="M27.4215 29.8611C22.8432 39.0177 20.4834 49.1916 15.5801 58.1503C14.8312 59.5068 15.3398 61.2307 16.7105 61.9796C18.0811 62.7285 19.791 62.2197 20.5399 60.8632C25.4715 51.848 27.8594 41.6176 32.4801 32.3905C33.1725 30.9915 32.6072 29.2959 31.2225 28.5894C29.8235 27.897 28.128 28.4622 27.4215 29.8611Z" fill="#FF9515"/>
<path fill-rule="evenodd" clip-rule="evenodd" d="M29.9401 27.7839C20.826 29.3948 11.726 30.1296 2.55532 31.2176C1.00097 31.4013 -0.101199 32.8003 0.0824966 34.3546C0.266192 35.909 1.66524 37.0111 3.21958 36.8274C12.4891 35.7394 21.7022 34.9763 30.9293 33.3513C32.4554 33.0687 33.4869 31.5991 33.2185 30.0731C32.9359 28.5328 31.4803 27.5013 29.9401 27.7839Z" fill="#FF9515"/>
<path fill-rule="evenodd" clip-rule="evenodd" d="M36.2813 23.4891C34.402 23.4043 32.6215 23.2771 30.7846 23.0086C29.2302 22.7825 27.803 23.8564 27.5769 25.3966C27.3509 26.9368 28.4247 28.3782 29.9649 28.6043C31.9997 28.901 33.9639 29.0423 36.0269 29.1271C37.5813 29.1977 38.9095 27.9966 38.966 26.4281C39.0366 24.8738 37.8357 23.5597 36.2813 23.4891Z" fill="#FF9515"/>
</svg>
