<svg width="18" height="18" viewBox="0 0 18 18" fill="none" xmlns="http://www.w3.org/2000/svg">
<path d="M16.2003 16.2015V10.9275C16.2003 8.33547 15.6423 6.35547 12.6183 6.35547C11.1603 6.35547 10.1883 7.14747 9.79229 7.90347H9.75629V6.58947H6.89429V16.2015H9.88229V11.4315C9.88229 10.1715 10.1163 8.96547 11.6643 8.96547C13.1943 8.96547 13.2123 10.3875 13.2123 11.5035V16.1835H16.2003V16.2015Z" fill="white"/>
<path d="M2.03394 6.58789H5.02194V16.1999H2.03394V6.58789Z" fill="white"/>
<path d="M3.52829 1.80078C2.57429 1.80078 1.80029 2.57478 1.80029 3.52878C1.80029 4.48278 2.57429 5.27478 3.52829 5.27478C4.48229 5.27478 5.25629 4.48278 5.25629 3.52878C5.25629 2.57478 4.48229 1.80078 3.52829 1.80078Z" fill="white"/>
</svg>
