<svg width="32" height="32" viewBox="0 0 32 32" fill="none" xmlns="http://www.w3.org/2000/svg">
<g clip-path="url(#clip0_875_11529)">
<path d="M29.7344 4.75H3.35938C1.81175 4.75 0.546875 6.00931 0.546875 7.5625V24.4375C0.546875 25.9912 1.81256 27.25 3.35938 27.25H29.7344C31.282 27.25 32.5469 25.9907 32.5469 24.4375V7.5625C32.5469 6.00894 31.2814 4.75 29.7344 4.75ZM29.3025 6.625C28.3932 7.53731 17.7122 18.2531 17.2734 18.6934C16.9069 19.061 16.1871 19.0612 15.8204 18.6934L3.79125 6.625H29.3025ZM2.42188 24.0928V7.90719L10.4884 16L2.42188 24.0928ZM3.79125 25.375L11.8121 17.328L14.4924 20.0171C15.5908 21.119 17.5034 21.1186 18.6014 20.0171L21.2817 17.3281L29.3025 25.375H3.79125ZM30.6719 24.0928L22.6053 16L30.6719 7.90719V24.0928Z" fill="#050505"/>
</g>
<defs>
<clipPath id="clip0_875_11529">
<rect width="32" height="32" fill="white"/>
</clipPath>
</defs>
</svg>
