<svg width="32" height="32" viewBox="0 0 32 32" fill="none" xmlns="http://www.w3.org/2000/svg">
<path d="M27.235 7.80007C25.265 3.67007 21.205 1.06007 16.635 1.00007C12.055 0.940071 7.99499 3.46007 5.95499 7.60007C3.83499 11.8901 4.33499 16.8601 7.27499 20.5901L14.865 30.2301C15.255 30.7201 15.835 31.0001 16.455 31.0001C17.075 31.0001 17.655 30.7201 18.045 30.2301L25.835 20.3301C28.665 16.7301 29.195 11.9401 27.235 7.81007V7.80007ZM24.275 19.0901L16.445 28.9901L8.85499 19.3501C6.40499 16.2401 5.98499 12.0701 7.75499 8.49007C9.45499 5.05007 12.705 3.01007 16.465 3.01007H16.615C20.475 3.07007 23.775 5.18007 25.435 8.67007C27.095 12.1601 26.665 16.0501 24.275 19.0901Z" fill="#050505"/>
<path d="M16.4561 7.16016C13.4461 7.16016 10.9961 9.61016 10.9961 12.6202C10.9961 15.6302 13.4461 18.0802 16.4561 18.0802C19.4661 18.0802 21.9161 15.6302 21.9161 12.6202C21.9161 9.61016 19.4661 7.16016 16.4561 7.16016ZM16.4561 16.0702C14.5461 16.0702 12.9961 14.5202 12.9961 12.6102C12.9961 10.7002 14.5461 9.15016 16.4561 9.15016C18.3661 9.15016 19.9161 10.7002 19.9161 12.6102C19.9161 14.5202 18.3661 16.0702 16.4561 16.0702Z" fill="#050505"/>
</svg>
