<svg width="32" height="32" viewBox="0 0 32 32" fill="none" xmlns="http://www.w3.org/2000/svg">
<g clip-path="url(#clip0_875_11518)">
<path d="M25.8371 19.8225C25.182 19.1404 24.3918 18.7757 23.5543 18.7757C22.7236 18.7757 21.9267 19.1336 21.2445 19.8157L19.1103 21.9432C18.9347 21.8486 18.7591 21.7608 18.5903 21.673C18.3471 21.5515 18.1175 21.4367 17.9217 21.3151C15.9225 20.0454 14.1057 18.3907 12.3633 16.2497C11.519 15.1826 10.9517 14.2844 10.5397 13.3726C11.0935 12.8661 11.6068 12.3393 12.1066 11.8327C12.2957 11.6436 12.4848 11.4478 12.6739 11.2587C14.0922 9.84035 14.0922 8.00331 12.6739 6.58501L10.8301 4.74122C10.6208 4.53185 10.4046 4.31573 10.202 4.09961C9.79681 3.68087 9.37132 3.24863 8.93232 2.8434C8.2772 2.19503 7.49375 1.85059 6.66979 1.85059C5.84582 1.85059 5.04887 2.19503 4.37349 2.8434C4.36673 2.85015 4.36673 2.85015 4.35998 2.8569L2.06368 5.17347C1.19919 6.03795 0.706165 7.09155 0.598103 8.31399C0.436012 10.2861 1.01684 12.1231 1.46259 13.3253C2.55671 16.2767 4.19114 19.012 6.62926 21.9432C9.58744 25.4754 13.1467 28.2648 17.2125 30.2301C18.7659 30.9663 20.8393 31.8375 23.1559 31.9861C23.2977 31.9929 23.4463 31.9996 23.5814 31.9996C25.1415 31.9996 26.4517 31.4391 27.4783 30.3247C27.4851 30.3112 27.4986 30.3044 27.5053 30.2909C27.8565 29.8654 28.2617 29.4805 28.6872 29.0685C28.9777 28.7916 29.2748 28.5012 29.5652 28.1972C30.2339 27.5016 30.5851 26.6911 30.5851 25.8604C30.5851 25.0229 30.2271 24.2192 29.545 23.5438L25.8371 19.8225ZM28.255 26.9343C28.2482 26.9343 28.2482 26.941 28.255 26.9343C27.9916 27.2179 27.7214 27.4746 27.431 27.7582C26.992 28.177 26.5463 28.616 26.1275 29.109C25.4454 29.8384 24.6417 30.1829 23.5881 30.1829C23.4868 30.1829 23.3787 30.1829 23.2774 30.1761C21.2715 30.0478 19.4075 29.2643 18.0095 28.5957C14.1868 26.7452 10.8301 24.1179 8.04081 20.7883C5.73776 18.0125 4.19789 15.446 3.17806 12.6905C2.54996 11.0088 2.32033 9.69852 2.42163 8.46257C2.48917 7.67238 2.79309 7.01726 3.35366 6.45669L5.65671 4.15364C5.98765 3.84296 6.33885 3.67412 6.6833 3.67412C7.10879 3.67412 7.45323 3.93076 7.66935 4.14688C7.67611 4.15364 7.68286 4.16039 7.68961 4.16715C8.1016 4.55211 8.49332 4.95059 8.9053 5.37608C9.11467 5.5922 9.33079 5.80832 9.54691 6.0312L11.3907 7.87499C12.1066 8.5909 12.1066 9.25277 11.3907 9.96868C11.1948 10.1645 11.0057 10.3604 10.8099 10.5495C10.2426 11.1303 9.70225 11.6706 9.11467 12.1974C9.10116 12.2109 9.08766 12.2177 9.0809 12.2312C8.50007 12.812 8.60813 13.3794 8.7297 13.7643C8.73646 13.7846 8.74321 13.8048 8.74996 13.8251C9.22948 14.9868 9.90487 16.0809 10.9314 17.3844L10.9382 17.3911C12.8023 19.6874 14.7676 21.4772 16.9356 22.8482C17.2125 23.0238 17.4962 23.1656 17.7663 23.3007C18.0094 23.4223 18.2391 23.5371 18.4349 23.6587C18.462 23.6722 18.489 23.6924 18.516 23.7059C18.7456 23.8208 18.9617 23.8748 19.1846 23.8748C19.7452 23.8748 20.0964 23.5236 20.2112 23.4088L22.521 21.099C22.7506 20.8693 23.1153 20.5924 23.5408 20.5924C23.9596 20.5924 24.304 20.8558 24.5134 21.0855C24.5201 21.0922 24.5201 21.0922 24.5269 21.099L28.2482 24.8203C28.9439 25.5092 28.9439 26.2184 28.255 26.9343Z" fill="#050505"/>
<path d="M17.8403 7.61146C19.6098 7.90863 21.2173 8.7461 22.5005 10.0293C23.7837 11.3125 24.6144 12.92 24.9183 14.6895C24.9926 15.1352 25.3776 15.4459 25.8166 15.4459C25.8706 15.4459 25.9179 15.4391 25.9719 15.4324C26.4717 15.3513 26.8027 14.8786 26.7216 14.3788C26.3569 12.2378 25.3438 10.286 23.7972 8.73935C22.2506 7.19272 20.2987 6.17965 18.1578 5.81494C17.658 5.7339 17.192 6.06483 17.1042 6.55786C17.0164 7.05089 17.3406 7.53041 17.8403 7.61146Z" fill="#050505"/>
<path d="M32.5106 14.1159C31.9095 10.5904 30.2481 7.38232 27.6952 4.82937C25.1422 2.27643 21.9341 0.61499 18.4087 0.0139004C17.9156 -0.0738993 17.4496 0.263792 17.3618 0.756821C17.2808 1.2566 17.6117 1.72262 18.1115 1.81042C21.2588 2.34397 24.1291 3.83656 26.4119 6.1126C28.6947 8.39539 30.1806 11.2658 30.7141 14.413C30.7884 14.8588 31.1734 15.1695 31.6124 15.1695C31.6664 15.1695 31.7137 15.1627 31.7677 15.156C32.2607 15.0817 32.5984 14.6089 32.5106 14.1159Z" fill="#050505"/>
</g>
<defs>
<clipPath id="clip0_875_11518">
<rect width="32" height="32" fill="white"/>
</clipPath>
</defs>
</svg>
