<svg width="1751" height="1551" viewBox="0 0 1751 1551" fill="none" xmlns="http://www.w3.org/2000/svg">
<g opacity="0.18" filter="url(#filter0_f_2045_1719)">
<path d="M842.778 573.628C730.471 604.849 522.441 544.331 698.315 478.553C662.257 401.203 601.141 335.79 713.449 304.568C825.756 273.347 1129.05 424.091 1165.1 501.441C1201.16 578.791 955.086 542.407 842.778 573.628Z" fill="#FFDE38"/>
</g>
<g opacity="0.18" filter="url(#filter1_f_2045_1719)">
<path d="M1204.48 613.051C1269.26 675.051 1291.55 902.869 1089.43 1028.8C534.428 1150.1 995.005 711.917 534.867 1014.1C470.087 952.1 485.854 837.847 687.967 711.913C890.081 585.978 1139.7 551.051 1204.48 613.051Z" fill="url(#paint0_linear_2045_1719)"/>
</g>
<defs>
<filter id="filter0_f_2045_1719" x="330.339" y="0.373047" width="1138.34" height="881.712" filterUnits="userSpaceOnUse" color-interpolation-filters="sRGB">
<feFlood flood-opacity="0" result="BackgroundImageFix"/>
<feBlend mode="normal" in="SourceGraphic" in2="BackgroundImageFix" result="shape"/>
<feGaussianBlur stdDeviation="150" result="effect1_foregroundBlur_2045_1719"/>
</filter>
<filter id="filter1_f_2045_1719" x="0.851562" y="83.1104" width="1749.35" height="1467.5" filterUnits="userSpaceOnUse" color-interpolation-filters="sRGB">
<feFlood flood-opacity="0" result="BackgroundImageFix"/>
<feBlend mode="normal" in="SourceGraphic" in2="BackgroundImageFix" result="shape"/>
<feGaussianBlur stdDeviation="250" result="effect1_foregroundBlur_2045_1719"/>
</filter>
<linearGradient id="paint0_linear_2045_1719" x1="728.379" y1="686.732" x2="1182.09" y2="1388.98" gradientUnits="userSpaceOnUse">
<stop stop-color="#79F152"/>
<stop offset="1" stop-color="#E5DB26"/>
</linearGradient>
</defs>
</svg>
