<svg width="14" height="14" viewBox="0 0 14 14" fill="none" xmlns="http://www.w3.org/2000/svg">
<path d="M12.5998 12.6004V8.49838C12.5998 6.48238 12.1658 4.94238 9.81382 4.94238C8.67982 4.94238 7.92382 5.55838 7.61582 6.14638H7.58782V5.12438H5.36182V12.6004H7.68582V8.89038C7.68582 7.91038 7.86782 6.97238 9.07182 6.97238C10.2618 6.97238 10.2758 8.07838 10.2758 8.94638V12.5864H12.5998V12.6004Z" fill="#050505"/>
<path d="M1.58203 5.12402H3.90603V12.6H1.58203V5.12402Z" fill="#050505"/>
<path d="M2.7439 1.40039C2.0019 1.40039 1.3999 2.00239 1.3999 2.74439C1.3999 3.48639 2.0019 4.10239 2.7439 4.10239C3.4859 4.10239 4.0879 3.48639 4.0879 2.74439C4.0879 2.00239 3.4859 1.40039 2.7439 1.40039Z" fill="#050505"/>
</svg>
