<svg width="434" height="463" viewBox="0 0 434 463" fill="none" xmlns="http://www.w3.org/2000/svg">
<path d="M39.5162 315.352C39.5085 315.367 39.5085 315.383 39.5162 315.397C39.5237 315.405 39.535 315.409 39.5502 315.409H42.97C43.0456 315.409 43.0836 315.446 43.0836 315.523V316.239C43.0836 316.315 43.0456 316.353 42.97 316.353H38.2096C38.1338 316.353 38.096 316.315 38.096 316.239V315.545C38.096 315.492 38.1149 315.446 38.1528 315.409C38.4103 315.113 39.001 314.419 39.9252 313.327L40.7091 312.383C41.4135 311.541 41.7657 310.889 41.7657 310.426C41.7657 310.07 41.6445 309.786 41.4021 309.573C41.1673 309.353 40.8529 309.243 40.4591 309.243C40.0652 309.243 39.7509 309.353 39.5162 309.573C39.2813 309.793 39.1677 310.081 39.1753 310.438V310.779C39.1753 310.855 39.1374 310.893 39.0617 310.893H38.1869C38.1111 310.893 38.0733 310.855 38.0733 310.779V310.29C38.0884 309.895 38.1982 309.547 38.4027 309.243C38.6148 308.939 38.8988 308.708 39.2548 308.549C39.6108 308.382 40.0122 308.299 40.4591 308.299C40.9438 308.299 41.368 308.39 41.7316 308.572C42.0952 308.754 42.3753 309.004 42.5723 309.323C42.7692 309.641 42.8677 310.002 42.8677 310.403C42.8677 311.032 42.5269 311.776 41.8452 312.633C41.5422 313.02 41.1824 313.456 40.7659 313.941C40.3493 314.419 39.9327 314.889 39.5162 315.352ZM46.8662 316.467C46.1013 316.467 45.4915 316.251 45.037 315.818C44.5902 315.378 44.3667 314.791 44.3667 314.055V310.688C44.3667 309.952 44.5902 309.368 45.037 308.936C45.4915 308.504 46.1013 308.287 46.8662 308.287C47.6312 308.287 48.2409 308.504 48.6954 308.936C49.1574 309.368 49.3884 309.952 49.3884 310.688V314.055C49.3884 314.791 49.1574 315.378 48.6954 315.818C48.2409 316.251 47.6312 316.467 46.8662 316.467ZM46.8662 315.523C47.3055 315.523 47.6539 315.397 47.9114 315.147C48.169 314.889 48.2977 314.548 48.2977 314.123V310.642C48.2977 310.218 48.169 309.88 47.9114 309.63C47.6539 309.372 47.3055 309.243 46.8662 309.243C46.4421 309.243 46.1013 309.372 45.8437 309.63C45.5861 309.88 45.4574 310.218 45.4574 310.642V314.123C45.4574 314.548 45.5861 314.889 45.8437 315.147C46.1013 315.397 46.4421 315.523 46.8662 315.523Z" fill="white"/>
<path d="M48.4917 373.534C47.7266 373.534 47.117 373.318 46.6625 372.886C46.2155 372.445 45.9922 371.858 45.9922 371.122V367.755C45.9922 367.019 46.2155 366.435 46.6625 366.003C47.117 365.571 47.7266 365.355 48.4917 365.355C49.2566 365.355 49.8664 365.571 50.3208 366.003C50.7828 366.435 51.0139 367.019 51.0139 367.755V371.122C51.0139 371.858 50.7828 372.445 50.3208 372.886C49.8664 373.318 49.2566 373.534 48.4917 373.534ZM48.4917 372.59C48.9309 372.59 49.2793 372.465 49.5369 372.214C49.7943 371.956 49.9232 371.615 49.9232 371.191V367.71C49.9232 367.285 49.7943 366.947 49.5369 366.697C49.2793 366.439 48.9309 366.31 48.4917 366.31C48.0674 366.31 47.7266 366.439 47.4692 366.697C47.2116 366.947 47.0829 367.285 47.0829 367.71V371.191C47.0829 371.615 47.2116 371.956 47.4692 372.214C47.7266 372.465 48.0674 372.59 48.4917 372.59Z" fill="white"/>
<path d="M42.233 259.398C42.3087 259.398 42.3466 259.436 42.3466 259.512V260.263C42.3466 260.338 42.3087 260.377 42.233 260.377H41.7444C41.7141 260.377 41.699 260.391 41.699 260.422V262.402C41.699 262.477 41.6612 262.515 41.5854 262.515H40.7219C40.6461 262.515 40.6083 262.477 40.6083 262.402V260.422C40.6083 260.391 40.5932 260.377 40.5629 260.377H37.109C37.0333 260.377 36.9954 260.338 36.9954 260.263V259.649C36.9954 259.61 37.0068 259.564 37.0295 259.512L39.2677 254.632C39.2904 254.578 39.3321 254.552 39.3927 254.552H40.3016C40.3394 254.552 40.366 254.567 40.3811 254.598C40.4038 254.62 40.4076 254.65 40.3924 254.689L38.2565 259.341C38.2489 259.356 38.2489 259.371 38.2565 259.387C38.2641 259.394 38.2755 259.398 38.2906 259.398H40.5629C40.5932 259.398 40.6083 259.382 40.6083 259.353V257.658C40.6083 257.582 40.6461 257.544 40.7219 257.544H41.5854C41.6612 257.544 41.699 257.582 41.699 257.658V259.353C41.699 259.382 41.7141 259.398 41.7444 259.398H42.233ZM46.1902 262.629C45.4253 262.629 44.8155 262.413 44.361 261.981C43.9142 261.54 43.6907 260.952 43.6907 260.217V256.85C43.6907 256.114 43.9142 255.531 44.361 255.098C44.8155 254.666 45.4253 254.45 46.1902 254.45C46.9553 254.45 47.5649 254.666 48.0194 255.098C48.4814 255.531 48.7124 256.114 48.7124 256.85V260.217C48.7124 260.952 48.4814 261.54 48.0194 261.981C47.5649 262.413 46.9553 262.629 46.1902 262.629ZM46.1902 261.685C46.6295 261.685 46.978 261.56 47.2354 261.309C47.493 261.051 47.6217 260.71 47.6217 260.286V256.805C47.6217 256.379 47.493 256.042 47.2354 255.792C46.978 255.534 46.6295 255.405 46.1902 255.405C45.7661 255.405 45.4253 255.534 45.1677 255.792C44.9103 256.042 44.7814 256.379 44.7814 256.805V260.286C44.7814 260.71 44.9103 261.051 45.1677 261.309C45.4253 261.56 45.7661 261.685 46.1902 261.685Z" fill="white"/>
<path d="M41.6308 203.677C41.8429 204.079 41.9489 204.561 41.9489 205.122C41.9489 205.585 41.8732 205.991 41.7217 206.339C41.5475 206.771 41.2749 207.105 40.9037 207.34C40.5401 207.567 40.0971 207.681 39.5744 207.681C39.014 207.681 38.5368 207.553 38.1429 207.294C37.7566 207.037 37.484 206.673 37.3249 206.202C37.2113 205.884 37.1545 205.516 37.1545 205.099V201.595C37.1545 200.974 37.3704 200.477 37.8021 200.105C38.2338 199.734 38.7981 199.547 39.4949 199.547C39.9417 199.547 40.3356 199.632 40.6765 199.798C41.0249 199.965 41.2937 200.2 41.4831 200.503C41.6725 200.799 41.7672 201.14 41.7672 201.527V201.754C41.7672 201.83 41.7293 201.868 41.6535 201.868H40.7901C40.7143 201.868 40.6765 201.83 40.6765 201.754V201.652C40.6765 201.311 40.5666 201.034 40.347 200.821C40.1274 200.61 39.8434 200.503 39.4949 200.503C39.1237 200.503 38.8208 200.613 38.586 200.833C38.3588 201.053 38.2452 201.345 38.2452 201.709V203.142C38.2452 203.158 38.2489 203.169 38.2565 203.176C38.2716 203.176 38.2869 203.169 38.302 203.153C38.6277 202.789 39.101 202.607 39.7221 202.607C40.6159 202.607 41.2522 202.965 41.6308 203.677ZM40.6878 205.997C40.8015 205.755 40.8583 205.463 40.8583 205.122C40.8583 204.735 40.7901 204.424 40.6538 204.189C40.4341 203.75 40.063 203.529 39.5404 203.529C39.2753 203.529 39.0481 203.59 38.8587 203.711C38.6693 203.825 38.5255 203.992 38.427 204.211C38.3057 204.462 38.2452 204.785 38.2452 205.178C38.2452 205.497 38.2944 205.767 38.3929 205.986C38.4914 206.23 38.6391 206.415 38.836 206.544C39.0328 206.665 39.2714 206.726 39.5517 206.726C40.1047 206.726 40.4833 206.483 40.6878 205.997ZM45.6577 207.715C44.8928 207.715 44.283 207.499 43.8285 207.067C43.3817 206.628 43.1582 206.04 43.1582 205.304V201.936C43.1582 201.201 43.3817 200.617 43.8285 200.184C44.283 199.752 44.8928 199.536 45.6577 199.536C46.4227 199.536 47.0324 199.752 47.4869 200.184C47.9489 200.617 48.1799 201.201 48.1799 201.936V205.304C48.1799 206.04 47.9489 206.628 47.4869 207.067C47.0324 207.499 46.4227 207.715 45.6577 207.715ZM45.6577 206.771C46.097 206.771 46.4454 206.646 46.7029 206.396C46.9605 206.139 47.0892 205.797 47.0892 205.372V201.891C47.0892 201.466 46.9605 201.129 46.7029 200.878C46.4454 200.621 46.097 200.492 45.6577 200.492C45.2336 200.492 44.8928 200.621 44.6352 200.878C44.3776 201.129 44.2489 201.466 44.2489 201.891V205.372C44.2489 205.797 44.3776 206.139 44.6352 206.396C44.8928 206.646 45.2336 206.771 45.6577 206.771Z" fill="white"/>
<path d="M41.6649 149.286C41.824 149.605 41.9035 149.984 41.9035 150.424C41.9035 150.908 41.7975 151.334 41.5854 151.698C41.4036 152.039 41.1309 152.304 40.7674 152.494C40.4114 152.683 39.9911 152.779 39.5063 152.779C39.0215 152.779 38.5936 152.683 38.2224 152.494C37.8513 152.296 37.5711 152.016 37.3817 151.652C37.1772 151.295 37.075 150.882 37.075 150.412C37.075 149.995 37.1582 149.612 37.3249 149.263C37.4916 148.914 37.7377 148.653 38.0634 148.479C38.1012 148.463 38.1012 148.444 38.0634 148.422C37.8211 148.24 37.6393 148.05 37.5181 147.853C37.3059 147.534 37.1999 147.17 37.1999 146.761C37.1999 146.313 37.3287 145.903 37.5862 145.532C37.7756 145.243 38.0369 145.016 38.3701 144.85C38.711 144.682 39.0897 144.599 39.5063 144.599C39.9304 144.599 40.3053 144.682 40.631 144.85C40.9568 145.016 41.2142 145.243 41.4036 145.532C41.6535 145.903 41.7785 146.313 41.7785 146.761C41.7785 147.17 41.6725 147.541 41.4604 147.876C41.3241 148.087 41.146 148.269 40.9264 148.422C40.8886 148.444 40.8886 148.463 40.9264 148.479C41.2445 148.653 41.4907 148.922 41.6649 149.286ZM38.4383 146.181C38.3323 146.377 38.2793 146.571 38.2793 146.761C38.2793 147.063 38.3512 147.318 38.4951 147.523C38.6996 147.864 39.0328 148.035 39.4949 148.035C39.9494 148.035 40.2864 147.86 40.5061 147.512C40.6348 147.33 40.6992 147.075 40.6992 146.749C40.6992 146.537 40.65 146.343 40.5515 146.169C40.453 145.979 40.3129 145.828 40.1311 145.714C39.9494 145.6 39.7335 145.544 39.4835 145.544C39.2487 145.544 39.0405 145.6 38.8587 145.714C38.6769 145.828 38.5368 145.983 38.4383 146.181ZM40.5401 151.311C40.7143 151.068 40.8015 150.742 40.8015 150.333C40.8015 149.969 40.737 149.668 40.6083 149.434C40.3962 149.039 40.0251 148.843 39.4949 148.843C38.9799 148.843 38.6163 149.028 38.4042 149.4C38.2603 149.642 38.1884 149.957 38.1884 150.344C38.1884 150.723 38.2679 151.034 38.427 151.277C38.6466 151.641 39.0064 151.823 39.5063 151.823C39.9758 151.823 40.3205 151.652 40.5401 151.311ZM45.7021 152.801C44.9371 152.801 44.3274 152.585 43.873 152.153C43.426 151.713 43.2027 151.125 43.2027 150.39V147.022C43.2027 146.286 43.426 145.703 43.873 145.271C44.3274 144.838 44.9371 144.622 45.7021 144.622C46.4671 144.622 47.0768 144.838 47.5313 145.271C47.9932 145.703 48.2243 146.286 48.2243 147.022V150.39C48.2243 151.125 47.9932 151.713 47.5313 152.153C47.0768 152.585 46.4671 152.801 45.7021 152.801ZM45.7021 151.857C46.1414 151.857 46.4898 151.732 46.7474 151.482C47.0048 151.224 47.1337 150.882 47.1337 150.458V146.977C47.1337 146.551 47.0048 146.215 46.7474 145.964C46.4898 145.706 46.1414 145.578 45.7021 145.578C45.2779 145.578 44.9371 145.706 44.6796 145.964C44.4221 146.215 44.2933 146.551 44.2933 146.977V150.458C44.2933 150.882 44.4221 151.224 44.6796 151.482C44.9371 151.732 45.2779 151.857 45.7021 151.857Z" fill="white"/>
<path d="M72.269 406.211C71.7312 406.211 71.2578 406.109 70.8488 405.904C70.4474 405.699 70.1368 405.412 69.9172 405.04C69.6976 404.668 69.5877 404.24 69.5877 403.754V402.947C69.5877 402.87 69.6255 402.833 69.7013 402.833H70.5648C70.6405 402.833 70.6784 402.87 70.6784 402.947V403.754C70.6784 404.209 70.8223 404.577 71.1101 404.858C71.3979 405.131 71.7842 405.267 72.269 405.267C72.7385 405.267 73.1211 405.131 73.4164 404.858C73.7118 404.577 73.8595 404.209 73.8595 403.754V398.271C73.8595 398.195 73.8974 398.157 73.9731 398.157H74.8366C74.9124 398.157 74.9502 398.195 74.9502 398.271V403.754C74.9502 404.24 74.8366 404.668 74.6094 405.04C74.3898 405.412 74.0754 405.699 73.6664 405.904C73.2574 406.109 72.7916 406.211 72.269 406.211ZM78.7915 400.239C79.2535 400.239 79.6549 400.322 79.9957 400.489C80.3442 400.649 80.6093 400.876 80.791 401.172C80.9804 401.46 81.0751 401.79 81.0751 402.162V406.007C81.0751 406.083 81.0372 406.12 80.9615 406.12H80.098C80.0222 406.12 79.9844 406.083 79.9844 406.007V405.597C79.9844 405.56 79.9654 405.552 79.9276 405.574C79.7307 405.779 79.4882 405.938 79.2005 406.052C78.9202 406.158 78.6059 406.211 78.2575 406.211C77.697 406.211 77.2312 406.071 76.86 405.79C76.4965 405.503 76.3147 405.07 76.3147 404.494C76.3147 403.902 76.5192 403.439 76.9282 403.106C77.3448 402.765 77.9242 402.594 78.6665 402.594H79.9389C79.9693 402.594 79.9844 402.579 79.9844 402.548V402.241C79.9844 401.908 79.8859 401.65 79.689 401.468C79.4996 401.278 79.2081 401.183 78.8142 401.183C78.4961 401.183 78.2348 401.248 78.0302 401.377C77.8334 401.498 77.7121 401.664 77.6667 401.877C77.644 401.953 77.5985 401.988 77.5304 401.98L76.6101 401.854C76.5343 401.84 76.5002 401.809 76.5078 401.763C76.5684 401.316 76.807 400.952 77.2236 400.671C77.6402 400.384 78.1628 400.239 78.7915 400.239ZM78.4961 405.29C78.8975 405.29 79.2459 405.184 79.5413 404.971C79.8367 404.759 79.9844 404.49 79.9844 404.164V403.493C79.9844 403.462 79.9693 403.447 79.9389 403.447H78.871C78.4241 403.447 78.0681 403.535 77.803 403.709C77.538 403.883 77.4054 404.126 77.4054 404.437C77.4054 404.718 77.5039 404.929 77.7008 405.074C77.9053 405.218 78.1703 405.29 78.4961 405.29ZM85.1265 400.25C85.7476 400.25 86.2399 400.432 86.6034 400.796C86.967 401.153 87.1488 401.638 87.1488 402.253V406.007C87.1488 406.083 87.111 406.12 87.0352 406.12H86.1717C86.0961 406.12 86.0581 406.083 86.0581 406.007V402.469C86.0581 402.09 85.9484 401.783 85.7286 401.547C85.509 401.312 85.2174 401.195 84.8538 401.195C84.4979 401.195 84.2062 401.312 83.979 401.547C83.7518 401.783 83.6382 402.085 83.6382 402.457V406.007C83.6382 406.083 83.6003 406.12 83.5246 406.12H82.6611C82.5854 406.12 82.5475 406.083 82.5475 406.007V400.444C82.5475 400.368 82.5854 400.33 82.6611 400.33H83.5246C83.6003 400.33 83.6382 400.368 83.6382 400.444V400.853C83.6382 400.868 83.642 400.88 83.6495 400.887C83.6647 400.895 83.6761 400.891 83.6836 400.876C84.0093 400.459 84.4903 400.25 85.1265 400.25Z" fill="white"/>
<path d="M118.951 398.988C118.951 399.064 118.913 399.101 118.838 399.101H114.816C114.785 399.101 114.77 399.116 114.77 399.147V401.593C114.77 401.623 114.785 401.638 114.816 401.638H117.577C117.651 401.638 117.69 401.676 117.69 401.752V402.469C117.69 402.545 117.651 402.583 117.577 402.583H114.816C114.785 402.583 114.77 402.597 114.77 402.628V406.007C114.77 406.083 114.732 406.12 114.657 406.12H113.793C113.717 406.12 113.68 406.083 113.68 406.007V398.271C113.68 398.195 113.717 398.157 113.793 398.157H118.838C118.913 398.157 118.951 398.195 118.951 398.271V398.988ZM124.115 402.503C124.146 402.813 124.157 403.163 124.149 403.549C124.149 403.626 124.112 403.663 124.035 403.663H120.411C120.382 403.663 120.366 403.678 120.366 403.709C120.366 403.967 120.388 404.164 120.434 404.3C120.518 404.604 120.684 404.843 120.934 405.017C121.192 405.184 121.513 405.267 121.899 405.267C122.461 405.267 122.892 405.036 123.195 404.573C123.233 404.497 123.282 404.486 123.342 404.539L123.99 404.971C124.043 405.017 124.055 405.066 124.024 405.119C123.813 405.461 123.509 405.73 123.115 405.927C122.729 406.124 122.29 406.223 121.797 406.223C121.245 406.223 120.779 406.101 120.4 405.859C120.021 405.616 119.737 405.271 119.548 404.824C119.366 404.376 119.275 403.834 119.275 403.197C119.275 402.643 119.317 402.222 119.4 401.934C119.536 401.411 119.809 400.998 120.218 400.694C120.627 400.39 121.123 400.239 121.706 400.239C122.472 400.239 123.044 400.432 123.422 400.819C123.801 401.198 124.032 401.76 124.115 402.503ZM121.706 401.183C121.381 401.183 121.112 401.266 120.9 401.434C120.688 401.593 120.544 401.809 120.468 402.082C120.416 402.249 120.382 402.461 120.366 402.719C120.366 402.75 120.382 402.764 120.411 402.764H123.013C123.044 402.764 123.058 402.75 123.058 402.719C123.044 402.469 123.021 402.283 122.99 402.162C122.915 401.866 122.763 401.63 122.536 401.456C122.316 401.274 122.04 401.183 121.706 401.183ZM130.195 401.832C130.316 402.218 130.377 402.677 130.377 403.208C130.377 403.777 130.305 404.263 130.161 404.664C129.994 405.157 129.73 405.54 129.366 405.813C129.009 406.078 128.559 406.211 128.014 406.211C127.748 406.211 127.503 406.158 127.276 406.052C127.048 405.946 126.851 405.798 126.685 405.608C126.669 405.594 126.654 405.589 126.639 405.597C126.631 405.605 126.628 405.616 126.628 405.631V406.007C126.628 406.083 126.589 406.12 126.514 406.12H125.651C125.575 406.12 125.537 406.083 125.537 406.007V398.271C125.537 398.195 125.575 398.157 125.651 398.157H126.514C126.589 398.157 126.628 398.195 126.628 398.271V400.808C126.628 400.823 126.631 400.834 126.639 400.842C126.654 400.85 126.669 400.845 126.685 400.831C126.851 400.641 127.048 400.497 127.276 400.398C127.51 400.293 127.756 400.239 128.014 400.239C128.582 400.239 129.048 400.379 129.412 400.66C129.775 400.941 130.036 401.331 130.195 401.832ZM128.991 404.642C129.18 404.285 129.275 403.814 129.275 403.231C129.275 402.609 129.154 402.108 128.912 401.729C128.691 401.365 128.355 401.183 127.9 401.183C127.476 401.183 127.154 401.377 126.935 401.763C126.737 402.113 126.639 402.597 126.639 403.22C126.639 403.842 126.73 404.32 126.912 404.653C127.139 405.062 127.472 405.267 127.912 405.267C128.412 405.267 128.771 405.059 128.991 404.642Z" fill="white"/>
<path d="M162.271 398.226C162.308 398.18 162.353 398.157 162.407 398.157H163.27C163.345 398.157 163.384 398.195 163.384 398.271V406.007C163.384 406.083 163.345 406.12 163.27 406.12H162.407C162.331 406.12 162.293 406.083 162.293 406.007V400.182C162.293 400.159 162.285 400.145 162.271 400.137C162.255 400.129 162.243 400.137 162.236 400.159L160.612 402.639C160.581 402.685 160.536 402.708 160.475 402.708H160.044C159.99 402.708 159.945 402.685 159.907 402.639L158.271 400.182C158.263 400.159 158.252 400.151 158.237 400.159C158.221 400.167 158.215 400.182 158.215 400.205V406.007C158.215 406.083 158.176 406.12 158.101 406.12H157.238C157.161 406.12 157.124 406.083 157.124 406.007V398.271C157.124 398.195 157.161 398.157 157.238 398.157H158.101C158.161 398.157 158.207 398.18 158.237 398.226L160.226 401.206C160.232 401.214 160.244 401.217 160.26 401.217C160.274 401.217 160.286 401.214 160.294 401.206L162.271 398.226ZM167.222 400.239C167.684 400.239 168.085 400.322 168.426 400.489C168.775 400.649 169.04 400.876 169.221 401.172C169.411 401.46 169.505 401.79 169.505 402.162V406.007C169.505 406.083 169.468 406.12 169.392 406.12H168.528C168.453 406.12 168.415 406.083 168.415 406.007V405.597C168.415 405.56 168.397 405.552 168.358 405.574C168.161 405.779 167.919 405.938 167.631 406.052C167.351 406.158 167.037 406.211 166.688 406.211C166.128 406.211 165.662 406.071 165.29 405.79C164.927 405.503 164.745 405.07 164.745 404.494C164.745 403.902 164.95 403.439 165.359 403.106C165.776 402.765 166.355 402.594 167.097 402.594H168.369C168.4 402.594 168.415 402.579 168.415 402.548V402.241C168.415 401.908 168.317 401.65 168.119 401.468C167.931 401.278 167.639 401.183 167.245 401.183C166.926 401.183 166.665 401.248 166.461 401.377C166.264 401.498 166.142 401.664 166.097 401.877C166.074 401.953 166.029 401.988 165.961 401.98L165.04 401.854C164.965 401.84 164.931 401.809 164.938 401.763C165 401.316 165.238 400.952 165.654 400.671C166.071 400.384 166.594 400.239 167.222 400.239ZM166.926 405.29C167.329 405.29 167.676 405.184 167.972 404.971C168.267 404.759 168.415 404.49 168.415 404.164V403.493C168.415 403.462 168.4 403.447 168.369 403.447H167.301C166.855 403.447 166.499 403.535 166.233 403.709C165.969 403.883 165.836 404.126 165.836 404.437C165.836 404.718 165.935 404.929 166.131 405.074C166.336 405.218 166.601 405.29 166.926 405.29ZM173.511 400.273C173.755 400.273 173.974 400.322 174.17 400.421C174.224 400.444 174.243 400.489 174.227 400.558L174.045 401.411C174.039 401.479 173.993 401.502 173.909 401.479C173.781 401.426 173.63 401.399 173.455 401.399L173.296 401.411C172.94 401.426 172.645 401.551 172.409 401.786C172.182 402.014 172.069 402.313 172.069 402.685V406.007C172.069 406.083 172.031 406.12 171.955 406.12H171.091C171.016 406.12 170.978 406.083 170.978 406.007V400.444C170.978 400.368 171.016 400.33 171.091 400.33H171.955C172.031 400.33 172.069 400.368 172.069 400.444V401.047C172.069 401.07 172.073 401.084 172.08 401.092C172.096 401.092 172.107 401.084 172.114 401.069C172.455 400.538 172.921 400.273 173.511 400.273ZM177.423 406.211C176.847 406.211 176.355 406.067 175.946 405.779C175.537 405.483 175.256 405.085 175.105 404.585C174.992 404.235 174.935 403.777 174.935 403.208C174.935 402.685 174.992 402.226 175.105 401.832C175.256 401.346 175.537 400.959 175.946 400.671C176.363 400.384 176.855 400.239 177.423 400.239C177.991 400.239 178.488 400.384 178.911 400.671C179.335 400.959 179.612 401.323 179.741 401.763C179.786 401.885 179.817 402.01 179.832 402.139C179.832 402.199 179.798 402.238 179.729 402.253L178.877 402.378H178.855C178.801 402.378 178.764 402.344 178.741 402.275L178.707 402.093C178.647 401.835 178.499 401.619 178.264 401.445C178.029 401.271 177.745 401.183 177.412 401.183C177.086 401.183 176.81 401.271 176.582 401.445C176.355 401.619 176.207 401.851 176.139 402.139C176.071 402.412 176.037 402.772 176.037 403.22C176.037 403.66 176.071 404.016 176.139 404.289C176.215 404.593 176.363 404.831 176.582 405.006C176.81 405.18 177.086 405.267 177.412 405.267C177.745 405.267 178.029 405.18 178.264 405.006C178.506 404.831 178.658 404.604 178.718 404.323C178.726 404.315 178.726 404.308 178.718 404.3C178.718 404.285 178.722 404.274 178.73 404.266V404.221C178.752 404.16 178.794 404.138 178.855 404.152L179.707 404.289C179.767 404.304 179.798 404.334 179.798 404.38V404.425C179.798 404.494 179.778 404.577 179.741 404.676C179.612 405.139 179.335 405.51 178.911 405.79C178.488 406.071 177.991 406.211 177.423 406.211Z" fill="white"/>
<path d="M205.397 406.12C205.329 406.12 205.283 406.09 205.26 406.029L204.851 404.698C204.843 404.676 204.829 404.664 204.806 404.664H201.613C201.591 404.664 201.575 404.676 201.568 404.698L201.159 406.029C201.136 406.09 201.091 406.12 201.023 406.12H200.102C200.018 406.12 199.989 406.078 200.012 405.995L202.5 398.248C202.522 398.188 202.568 398.157 202.636 398.157H203.772C203.84 398.157 203.886 398.188 203.908 398.248L206.419 405.995L206.431 406.041C206.431 406.094 206.397 406.12 206.328 406.12H205.397ZM201.852 403.743C201.844 403.758 201.844 403.774 201.852 403.788C201.867 403.796 201.882 403.8 201.897 403.8H204.511C204.525 403.8 204.537 403.796 204.545 403.788C204.559 403.774 204.563 403.758 204.556 403.743L203.238 399.522C203.23 399.508 203.219 399.5 203.204 399.5C203.188 399.5 203.177 399.508 203.17 399.522L201.852 403.743ZM212.279 401.786C212.424 402.196 212.495 402.681 212.495 403.242C212.495 403.774 212.435 404.232 212.313 404.619C212.154 405.127 211.893 405.521 211.53 405.802C211.166 406.075 210.7 406.211 210.132 406.211C209.875 406.211 209.629 406.163 209.394 406.064C209.166 405.958 208.97 405.81 208.803 405.62C208.788 405.605 208.773 405.601 208.757 405.608C208.751 405.616 208.746 405.628 208.746 405.643V408.179C208.746 408.256 208.709 408.293 208.632 408.293H207.769C207.694 408.293 207.655 408.256 207.655 408.179V400.444C207.655 400.368 207.694 400.33 207.769 400.33H208.632C208.709 400.33 208.746 400.368 208.746 400.444V400.819C208.746 400.834 208.751 400.845 208.757 400.853C208.773 400.861 208.788 400.857 208.803 400.842C208.97 400.652 209.166 400.504 209.394 400.398C209.621 400.293 209.867 400.239 210.132 400.239C210.677 400.239 211.129 400.376 211.484 400.649C211.848 400.914 212.114 401.294 212.279 401.786ZM211.03 404.721C211.273 404.357 211.393 403.857 211.393 403.22C211.393 402.636 211.299 402.165 211.109 401.809C210.89 401.391 210.53 401.183 210.03 401.183C209.591 401.183 209.257 401.388 209.03 401.798C208.848 402.124 208.757 402.602 208.757 403.231C208.757 403.868 208.856 404.354 209.053 404.687C209.273 405.074 209.595 405.267 210.018 405.267C210.473 405.267 210.81 405.085 211.03 404.721ZM216.457 400.273C216.699 400.273 216.918 400.322 217.116 400.421C217.168 400.444 217.187 400.489 217.173 400.558L216.991 401.411C216.983 401.479 216.938 401.502 216.855 401.479C216.725 401.426 216.574 401.399 216.4 401.399L216.241 401.411C215.884 401.426 215.589 401.551 215.355 401.786C215.128 402.014 215.014 402.313 215.014 402.685V406.007C215.014 406.083 214.975 406.12 214.9 406.12H214.037C213.961 406.12 213.923 406.083 213.923 406.007V400.444C213.923 400.368 213.961 400.33 214.037 400.33H214.9C214.975 400.33 215.014 400.368 215.014 400.444V401.047C215.014 401.07 215.017 401.084 215.025 401.092C215.04 401.092 215.052 401.084 215.06 401.069C215.4 400.538 215.866 400.273 216.457 400.273Z" fill="white"/>
<path d="M249.159 398.226C249.197 398.18 249.242 398.157 249.296 398.157H250.159C250.234 398.157 250.273 398.195 250.273 398.271V406.007C250.273 406.083 250.234 406.12 250.159 406.12H249.296C249.219 406.12 249.182 406.083 249.182 406.007V400.182C249.182 400.159 249.174 400.145 249.159 400.137C249.143 400.129 249.132 400.137 249.125 400.159L247.5 402.639C247.47 402.685 247.424 402.708 247.364 402.708H246.932C246.879 402.708 246.834 402.685 246.796 402.639L245.16 400.182C245.152 400.159 245.141 400.151 245.126 400.159C245.11 400.167 245.103 400.182 245.103 400.205V406.007C245.103 406.083 245.065 406.12 244.99 406.12H244.126C244.05 406.12 244.013 406.083 244.013 406.007V398.271C244.013 398.195 244.05 398.157 244.126 398.157H244.99C245.05 398.157 245.095 398.18 245.126 398.226L247.114 401.206C247.121 401.214 247.132 401.217 247.148 401.217C247.163 401.217 247.174 401.214 247.182 401.206L249.159 398.226ZM254.11 400.239C254.573 400.239 254.974 400.322 255.315 400.489C255.663 400.649 255.928 400.876 256.11 401.172C256.3 401.46 256.394 401.79 256.394 402.162V406.007C256.394 406.083 256.357 406.12 256.28 406.12H255.417C255.341 406.12 255.303 406.083 255.303 406.007V405.597C255.303 405.56 255.284 405.552 255.247 405.574C255.05 405.779 254.807 405.938 254.519 406.052C254.239 406.158 253.925 406.211 253.576 406.211C253.016 406.211 252.551 406.071 252.179 405.79C251.815 405.503 251.634 405.07 251.634 404.494C251.634 403.902 251.838 403.439 252.247 403.106C252.664 402.765 253.244 402.594 253.985 402.594H255.258C255.289 402.594 255.303 402.579 255.303 402.548V402.241C255.303 401.908 255.204 401.65 255.008 401.468C254.818 401.278 254.527 401.183 254.133 401.183C253.815 401.183 253.554 401.248 253.349 401.377C253.153 401.498 253.031 401.664 252.986 401.877C252.963 401.953 252.917 401.988 252.849 401.98L251.929 401.854C251.853 401.84 251.819 401.809 251.827 401.763C251.887 401.316 252.126 400.952 252.543 400.671C252.96 400.384 253.482 400.239 254.11 400.239ZM253.815 405.29C254.216 405.29 254.565 405.184 254.86 404.971C255.156 404.759 255.303 404.49 255.303 404.164V403.493C255.303 403.462 255.289 403.447 255.258 403.447H254.19C253.743 403.447 253.387 403.535 253.122 403.709C252.857 403.883 252.724 404.126 252.724 404.437C252.724 404.718 252.823 404.929 253.02 405.074C253.224 405.218 253.489 405.29 253.815 405.29ZM257.596 408.384C257.543 408.384 257.517 408.347 257.517 408.27V407.599C257.517 407.523 257.554 407.486 257.63 407.486H257.653C257.956 407.478 258.195 407.44 258.369 407.372C258.542 407.304 258.687 407.175 258.8 406.985C258.914 406.803 259.024 406.527 259.13 406.155C259.138 406.147 259.138 406.135 259.13 406.12C259.13 406.098 259.13 406.086 259.13 406.086L257.232 400.455L257.221 400.41C257.221 400.356 257.255 400.33 257.323 400.33H258.244C258.312 400.33 258.357 400.361 258.38 400.421L259.664 404.71C259.672 404.725 259.683 404.733 259.698 404.733C259.713 404.733 259.724 404.725 259.732 404.71L261.004 400.421C261.027 400.361 261.073 400.33 261.141 400.33H262.038C262.121 400.33 262.152 400.372 262.129 400.455L260.061 406.519C259.888 407.042 259.713 407.429 259.539 407.679C259.365 407.937 259.138 408.119 258.857 408.225C258.577 408.331 258.183 408.384 257.676 408.384H257.596Z" fill="white"/>
<path d="M289.489 406.211C288.952 406.211 288.478 406.109 288.069 405.904C287.668 405.699 287.358 405.412 287.138 405.04C286.918 404.668 286.808 404.24 286.808 403.754V402.947C286.808 402.87 286.847 402.833 286.922 402.833H287.785C287.861 402.833 287.899 402.87 287.899 402.947V403.754C287.899 404.209 288.043 404.577 288.331 404.858C288.619 405.131 289.005 405.267 289.489 405.267C289.96 405.267 290.341 405.131 290.637 404.858C290.932 404.577 291.08 404.209 291.08 403.754V398.271C291.08 398.195 291.119 398.157 291.194 398.157H292.057C292.133 398.157 292.171 398.195 292.171 398.271V403.754C292.171 404.24 292.057 404.668 291.83 405.04C291.611 405.412 291.296 405.699 290.887 405.904C290.478 406.109 290.012 406.211 289.489 406.211ZM297.341 400.444C297.341 400.368 297.38 400.33 297.455 400.33H298.307C298.383 400.33 298.42 400.368 298.42 400.444V406.007C298.42 406.083 298.383 406.12 298.307 406.12H297.455C297.38 406.12 297.341 406.083 297.341 406.007V405.586C297.341 405.571 297.334 405.563 297.318 405.563C297.312 405.555 297.3 405.56 297.284 405.574C296.982 405.992 296.516 406.2 295.887 406.2C295.517 406.2 295.171 406.128 294.853 405.984C294.543 405.839 294.293 405.628 294.103 405.347C293.915 405.066 293.819 404.725 293.819 404.323V400.444C293.819 400.368 293.858 400.33 293.933 400.33H294.785C294.861 400.33 294.898 400.368 294.898 400.444V403.982C294.898 404.376 295.001 404.687 295.205 404.915C295.418 405.142 295.713 405.256 296.091 405.256C296.471 405.256 296.773 405.142 297 404.915C297.228 404.679 297.341 404.369 297.341 403.982V400.444ZM302.591 400.25C303.213 400.25 303.705 400.432 304.068 400.796C304.432 401.153 304.613 401.638 304.613 402.253V406.007C304.613 406.083 304.576 406.12 304.5 406.12H303.636C303.561 406.12 303.523 406.083 303.523 406.007V402.469C303.523 402.09 303.414 401.783 303.193 401.547C302.974 401.312 302.682 401.195 302.319 401.195C301.963 401.195 301.671 401.312 301.444 401.547C301.216 401.783 301.103 402.085 301.103 402.457V406.007C301.103 406.083 301.065 406.12 300.989 406.12H300.126C300.051 406.12 300.012 406.083 300.012 406.007V400.444C300.012 400.368 300.051 400.33 300.126 400.33H300.989C301.065 400.33 301.103 400.368 301.103 400.444V400.853C301.103 400.868 301.107 400.88 301.114 400.887C301.13 400.895 301.141 400.891 301.148 400.876C301.474 400.459 301.955 400.25 302.591 400.25Z" fill="white"/>
<path d="M332.934 406.211C332.396 406.211 331.923 406.109 331.514 405.904C331.112 405.699 330.801 405.412 330.582 405.04C330.363 404.668 330.252 404.24 330.252 403.754V402.947C330.252 402.87 330.29 402.833 330.366 402.833H331.229C331.306 402.833 331.343 402.87 331.343 402.947V403.754C331.343 404.209 331.487 404.577 331.775 404.858C332.062 405.131 332.449 405.267 332.934 405.267C333.403 405.267 333.786 405.131 334.081 404.858C334.377 404.577 334.524 404.209 334.524 403.754V398.271C334.524 398.195 334.562 398.157 334.638 398.157H335.501C335.577 398.157 335.615 398.195 335.615 398.271V403.754C335.615 404.24 335.501 404.668 335.274 405.04C335.055 405.412 334.74 405.699 334.331 405.904C333.922 406.109 333.456 406.211 332.934 406.211ZM340.785 400.444C340.785 400.368 340.823 400.33 340.899 400.33H341.751C341.827 400.33 341.865 400.368 341.865 400.444V406.007C341.865 406.083 341.827 406.12 341.751 406.12H340.899C340.823 406.12 340.785 406.083 340.785 406.007V405.586C340.785 405.571 340.777 405.563 340.763 405.563C340.755 405.555 340.743 405.56 340.729 405.574C340.425 405.992 339.959 406.2 339.331 406.2C338.96 406.2 338.615 406.128 338.297 405.984C337.987 405.839 337.737 405.628 337.547 405.347C337.358 405.066 337.263 404.725 337.263 404.323V400.444C337.263 400.368 337.301 400.33 337.377 400.33H338.229C338.305 400.33 338.343 400.368 338.343 400.444V403.982C338.343 404.376 338.445 404.687 338.65 404.915C338.862 405.142 339.157 405.256 339.536 405.256C339.914 405.256 340.217 405.142 340.445 404.915C340.672 404.679 340.785 404.369 340.785 403.982V400.444ZM343.57 406.12C343.494 406.12 343.456 406.083 343.456 406.007V398.271C343.456 398.195 343.494 398.157 343.57 398.157H344.434C344.51 398.157 344.547 398.195 344.547 398.271V406.007C344.547 406.083 344.51 406.12 344.434 406.12H343.57ZM345.959 408.384C345.907 408.384 345.88 408.347 345.88 408.27V407.599C345.88 407.523 345.918 407.486 345.993 407.486H346.016C346.32 407.478 346.558 407.44 346.732 407.372C346.907 407.304 347.05 407.175 347.164 406.985C347.277 406.803 347.387 406.527 347.493 406.155C347.501 406.147 347.501 406.135 347.493 406.12C347.493 406.098 347.493 406.086 347.493 406.086L345.596 400.455L345.584 400.41C345.584 400.356 345.619 400.33 345.687 400.33H346.607C346.675 400.33 346.721 400.361 346.743 400.421L348.027 404.71C348.035 404.725 348.046 404.733 348.061 404.733C348.077 404.733 348.088 404.725 348.095 404.71L349.368 400.421C349.39 400.361 349.436 400.33 349.504 400.33H350.402C350.486 400.33 350.515 400.372 350.492 400.455L348.425 406.519C348.251 407.042 348.077 407.429 347.902 407.679C347.728 407.937 347.501 408.119 347.22 408.225C346.941 408.331 346.547 408.384 346.039 408.384H345.959Z" fill="white"/>
<path d="M379.173 406.12C379.105 406.12 379.059 406.09 379.036 406.029L378.627 404.698C378.62 404.676 378.605 404.664 378.582 404.664H375.39C375.367 404.664 375.352 404.676 375.344 404.698L374.935 406.029C374.912 406.09 374.867 406.12 374.799 406.12H373.878C373.796 406.12 373.765 406.078 373.788 405.995L376.276 398.248C376.298 398.188 376.344 398.157 376.412 398.157H377.548C377.616 398.157 377.662 398.188 377.685 398.248L380.195 405.995L380.207 406.041C380.207 406.094 380.173 406.12 380.104 406.12H379.173ZM375.628 403.743C375.62 403.758 375.62 403.774 375.628 403.788C375.643 403.796 375.659 403.8 375.674 403.8H378.287C378.301 403.8 378.313 403.796 378.321 403.788C378.335 403.774 378.34 403.758 378.332 403.743L377.014 399.522C377.006 399.508 376.995 399.5 376.98 399.5C376.965 399.5 376.954 399.508 376.946 399.522L375.628 403.743ZM384.807 400.444C384.807 400.368 384.844 400.33 384.92 400.33H385.773C385.849 400.33 385.886 400.368 385.886 400.444V406.007C385.886 406.083 385.849 406.12 385.773 406.12H384.92C384.844 406.12 384.807 406.083 384.807 406.007V405.586C384.807 405.571 384.799 405.563 384.784 405.563C384.776 405.555 384.765 405.56 384.75 405.574C384.447 405.992 383.981 406.2 383.353 406.2C382.981 406.2 382.637 406.128 382.319 405.984C382.009 405.839 381.759 405.628 381.569 405.347C381.379 405.066 381.285 404.725 381.285 404.323V400.444C381.285 400.368 381.322 400.33 381.398 400.33H382.251C382.327 400.33 382.364 400.368 382.364 400.444V403.982C382.364 404.376 382.466 404.687 382.671 404.915C382.883 405.142 383.179 405.256 383.557 405.256C383.935 405.256 384.239 405.142 384.466 404.915C384.693 404.679 384.807 404.369 384.807 403.982V400.444ZM391.034 400.444C391.034 400.368 391.071 400.33 391.148 400.33H392.011C392.086 400.33 392.125 400.368 392.125 400.444V405.825C392.125 406.743 391.863 407.398 391.341 407.793C390.825 408.187 390.132 408.384 389.262 408.384C389.14 408.384 388.95 408.376 388.694 408.361C388.617 408.353 388.58 408.313 388.58 408.236L388.614 407.451C388.614 407.421 388.625 407.395 388.648 407.372C388.671 407.349 388.7 407.341 388.739 407.349C388.845 407.357 389 407.36 389.205 407.36C389.848 407.36 390.314 407.239 390.602 406.996C390.89 406.761 391.034 406.359 391.034 405.79V405.586C391.034 405.571 391.026 405.56 391.011 405.552C391.003 405.544 390.992 405.548 390.977 405.563C390.659 405.935 390.193 406.12 389.58 406.12C389.087 406.12 388.64 405.992 388.239 405.734C387.845 405.475 387.572 405.097 387.421 404.596C387.322 404.263 387.273 403.8 387.273 403.208C387.273 402.579 387.33 402.093 387.444 401.752C387.587 401.297 387.841 400.933 388.205 400.66C388.575 400.379 389.012 400.239 389.512 400.239C390.132 400.239 390.62 400.429 390.977 400.808C390.992 400.823 391.003 400.831 391.011 400.831C391.026 400.823 391.034 400.811 391.034 400.796V400.444ZM390.966 404.266C390.989 404.144 391.003 404.016 391.011 403.879C391.026 403.743 391.034 403.515 391.034 403.197C391.034 402.878 391.026 402.654 391.011 402.526C391.003 402.389 390.984 402.261 390.954 402.139C390.893 401.858 390.757 401.63 390.545 401.456C390.333 401.274 390.068 401.183 389.75 401.183C389.432 401.183 389.166 401.274 388.955 401.456C388.742 401.63 388.591 401.858 388.5 402.139C388.416 402.366 388.375 402.719 388.375 403.197C388.375 403.72 388.413 404.076 388.489 404.266C388.564 404.547 388.712 404.778 388.932 404.96C389.159 405.134 389.432 405.222 389.75 405.222C390.083 405.222 390.352 405.134 390.557 404.96C390.768 404.778 390.904 404.547 390.966 404.266Z" fill="white"/>
<path d="M392.087 146.331H70.2172C69.9202 146.331 69.6795 146.572 69.6795 146.869C69.6795 147.166 69.9202 147.407 70.2172 147.407H392.087C392.384 147.407 392.624 147.166 392.624 146.869C392.624 146.572 392.384 146.331 392.087 146.331Z" fill="black" fill-opacity="0.06"/>
<path d="M392.087 202.322H70.2172C69.9202 202.322 69.6795 202.563 69.6795 202.86C69.6795 203.158 69.9202 203.399 70.2172 203.399H392.087C392.384 203.399 392.624 203.158 392.624 202.86C392.624 202.563 392.384 202.322 392.087 202.322Z" fill="black" fill-opacity="0.06"/>
<path d="M392.087 257.235H70.2172C69.9202 257.235 69.6795 257.476 69.6795 257.773C69.6795 258.07 69.9202 258.311 70.2172 258.311H392.087C392.384 258.311 392.624 258.07 392.624 257.773C392.624 257.476 392.384 257.235 392.087 257.235Z" fill="black" fill-opacity="0.06"/>
<path d="M392.087 312.15H70.2172C69.9202 312.15 69.6795 312.391 69.6795 312.688C69.6795 312.985 69.9202 313.226 70.2172 313.226H392.087C392.384 313.226 392.624 312.985 392.624 312.688C392.624 312.391 392.384 312.15 392.087 312.15Z" fill="black" fill-opacity="0.06"/>
<path d="M392.087 367.062H70.2172C69.9202 367.062 69.6795 367.303 69.6795 367.601C69.6795 367.898 69.9202 368.139 70.2172 368.139H392.087C392.384 368.139 392.624 367.898 392.624 367.601C392.624 367.303 392.384 367.062 392.087 367.062Z" fill="black" fill-opacity="0.06"/>
<path d="M75.6455 203.817H75.6455C72.143 203.817 69.3037 206.66 69.3037 210.167V362.208C69.3037 365.715 72.143 368.558 75.6455 368.558C79.148 368.558 81.9874 365.715 81.9874 362.208V210.167C81.9874 206.66 79.148 203.817 75.6455 203.817Z" fill="#4288D8"/>
<path d="M120.846 146.749H120.846C117.344 146.749 114.504 149.592 114.504 153.099V362.208C114.504 365.715 117.344 368.558 120.846 368.558C124.349 368.558 127.188 365.715 127.188 362.208V153.099C127.188 149.592 124.349 146.749 120.846 146.749Z" fill="#FF8F20"/>
<path d="M166.046 258.732H166.046C162.543 258.732 159.704 261.575 159.704 265.082V362.21C159.704 365.717 162.543 368.56 166.046 368.56C169.548 368.56 172.388 365.717 172.388 362.21V265.082C172.388 261.575 169.548 258.732 166.046 258.732Z" fill="#4288D8"/>
<path d="M217 248.902C217 242.329 214.314 237 211 237C207.686 237 205 242.329 205 248.902V357.098C205 363.671 207.686 369 211 369C214.314 369 217 363.671 217 357.098V248.902Z" fill="#FF8F20"/>
<path d="M262.415 215.552C262.415 212.097 259.618 209.295 256.167 209.295C252.716 209.295 249.918 212.097 249.918 215.552V362.301C249.918 365.757 252.716 368.558 256.167 368.558C259.618 368.558 262.415 365.757 262.415 362.301V215.552Z" fill="#4288D8"/>
<path d="M309 184.023C309 179.04 305.866 175 302 175C298.134 175 295 179.04 295 184.023V359.977C295 364.96 298.134 369 302 369C305.866 369 309 364.96 309 359.977V184.023Z" fill="#FF8F20"/>
<path d="M347.424 203.817H347.424C343.921 203.817 341.082 206.66 341.082 210.167V362.208C341.082 365.715 343.921 368.558 347.424 368.558C350.926 368.558 353.766 365.715 353.766 362.208V210.167C353.766 206.66 350.926 203.817 347.424 203.817Z" fill="#4288D8"/>
<path d="M398.78 313.385C398.78 309.929 395.982 307.128 392.531 307.128C389.08 307.128 386.283 309.929 386.283 313.385V362.301C386.283 365.757 389.08 368.558 392.531 368.558C395.982 368.558 398.78 365.757 398.78 362.301V313.385Z" fill="#FF8F20"/>
<path d="M343.678 50.3096H288.008C280.165 50.3096 273.806 56.676 273.806 64.5295C273.806 72.3829 280.165 78.7494 288.008 78.7494H343.678C351.521 78.7494 357.88 72.3829 357.88 64.5295C357.88 56.676 351.521 50.3096 343.678 50.3096Z" fill="black" fill-opacity="0.01"/>
<path d="M343.678 50.5371H288.008C280.29 50.5371 274.034 56.8017 274.034 64.5295C274.034 72.2572 280.29 78.5218 288.008 78.5218H343.678C351.396 78.5218 357.652 72.2572 357.652 64.5295C357.652 56.8017 351.396 50.5371 343.678 50.5371Z" stroke="black" stroke-opacity="0.04" stroke-width="0.4"/>
<path d="M44.9659 76.017V74.4545H55.875V76.017H51.3011V89H49.5398V76.017H44.9659ZM60.092 89.2557C59.4007 89.2557 58.7733 89.1255 58.2099 88.8651C57.6464 88.5999 57.199 88.2188 56.8675 87.7216C56.5361 87.2197 56.3704 86.6136 56.3704 85.9034C56.3704 85.2784 56.4935 84.7718 56.7397 84.3835C56.9859 83.9905 57.315 83.6828 57.7269 83.4602C58.1388 83.2377 58.5934 83.072 59.0906 82.9631C59.5924 82.8494 60.0967 82.7595 60.6033 82.6932C61.2662 82.608 61.8036 82.544 62.2156 82.5014C62.6322 82.4541 62.9353 82.3759 63.1246 82.267C63.3188 82.1581 63.4158 81.9687 63.4158 81.6989V81.642C63.4158 80.9413 63.2241 80.3968 62.8406 80.0085C62.4618 79.6203 61.8865 79.4261 61.1147 79.4261C60.3145 79.4261 59.6871 79.6013 59.2326 79.9517C58.7781 80.3021 58.4585 80.6761 58.2738 81.0739L56.6829 80.5057C56.967 79.8428 57.3458 79.3267 57.8192 78.9574C58.2975 78.5833 58.8183 78.3229 59.3817 78.1761C59.9499 78.0246 60.5086 77.9489 61.0579 77.9489C61.4083 77.9489 61.8107 77.9915 62.2653 78.0767C62.7246 78.1572 63.1673 78.3253 63.5934 78.581C64.0243 78.8366 64.3817 79.2225 64.6658 79.7386C64.9499 80.2547 65.092 80.946 65.092 81.8125V89H63.4158V87.5227H63.3306C63.217 87.7595 63.0276 88.0128 62.7624 88.2827C62.4973 88.5526 62.1445 88.7822 61.7042 88.9716C61.2638 89.161 60.7264 89.2557 60.092 89.2557ZM60.3477 87.75C61.0105 87.75 61.5692 87.6198 62.0238 87.3594C62.4831 87.099 62.8287 86.7628 63.0607 86.3509C63.2975 85.9389 63.4158 85.5057 63.4158 85.0511V83.517C63.3448 83.6023 63.1886 83.6804 62.9471 83.7514C62.7103 83.8177 62.4357 83.8769 62.1232 83.929C61.8155 83.9763 61.5148 84.0189 61.2212 84.0568C60.9324 84.09 60.698 84.1184 60.5181 84.142C60.0825 84.1989 59.6753 84.2912 59.2965 84.419C58.9225 84.5421 58.6194 84.7292 58.3874 84.9801C58.1602 85.2263 58.0465 85.5625 58.0465 85.9886C58.0465 86.571 58.262 87.0114 58.6928 87.3097C59.1284 87.6032 59.68 87.75 60.3477 87.75ZM75.8786 80.5341L74.3729 80.9602C74.2782 80.7093 74.1385 80.4654 73.9538 80.2287C73.7739 79.9872 73.5277 79.7884 73.2152 79.6321C72.9027 79.4759 72.5026 79.3977 72.0149 79.3977C71.3473 79.3977 70.791 79.5516 70.3459 79.8594C69.9055 80.1624 69.6854 80.5483 69.6854 81.017C69.6854 81.4337 69.8369 81.7628 70.1399 82.0043C70.4429 82.2457 70.9164 82.447 71.5604 82.608L73.1797 83.0057C74.1551 83.2424 74.8819 83.6046 75.3601 84.0923C75.8383 84.5753 76.0774 85.1979 76.0774 85.9602C76.0774 86.5852 75.8975 87.1439 75.5376 87.6364C75.1825 88.1288 74.6854 88.517 74.0462 88.8011C73.407 89.0852 72.6636 89.2273 71.8161 89.2273C70.7034 89.2273 69.7824 88.9858 69.0533 88.5028C68.3241 88.0199 67.8625 87.3144 67.6683 86.3864L69.2592 85.9886C69.4107 86.5758 69.6972 87.0161 70.1186 87.3097C70.5447 87.6032 71.1011 87.75 71.7876 87.75C72.5689 87.75 73.1892 87.5843 73.6484 87.2528C74.1125 86.9167 74.3445 86.5142 74.3445 86.0455C74.3445 85.6667 74.2119 85.3494 73.9467 85.0938C73.6816 84.8333 73.2744 84.6392 72.7251 84.5114L70.907 84.0852C69.9079 83.8485 69.174 83.4815 68.7053 82.9844C68.2412 82.4825 68.0092 81.8551 68.0092 81.1023C68.0092 80.4867 68.1821 79.9422 68.5277 79.4688C68.8781 78.9953 69.3539 78.6236 69.9553 78.3537C70.5613 78.0838 71.2479 77.9489 72.0149 77.9489C73.0945 77.9489 73.942 78.1856 74.5575 78.6591C75.1778 79.1326 75.6181 79.7576 75.8786 80.5341ZM80.163 85.0227L80.1346 82.9489H80.4755L85.2482 78.0909H87.3221L82.2369 83.233H82.0948L80.163 85.0227ZM78.6005 89V74.4545H80.2766V89H78.6005ZM85.5323 89L81.271 83.6023L82.4641 82.4375L87.663 89H85.5323ZM97.2067 80.5341L95.701 80.9602C95.6063 80.7093 95.4666 80.4654 95.282 80.2287C95.102 79.9872 94.8558 79.7884 94.5433 79.6321C94.2308 79.4759 93.8307 79.3977 93.343 79.3977C92.6754 79.3977 92.1191 79.5516 91.674 79.8594C91.2337 80.1624 91.0135 80.5483 91.0135 81.017C91.0135 81.4337 91.165 81.7628 91.468 82.0043C91.7711 82.2457 92.2446 82.447 92.8885 82.608L94.5078 83.0057C95.4832 83.2424 96.21 83.6046 96.6882 84.0923C97.1664 84.5753 97.4055 85.1979 97.4055 85.9602C97.4055 86.5852 97.2256 87.1439 96.8658 87.6364C96.5107 88.1288 96.0135 88.517 95.3743 88.8011C94.7351 89.0852 93.9917 89.2273 93.1442 89.2273C92.0315 89.2273 91.1106 88.9858 90.3814 88.5028C89.6522 88.0199 89.1906 87.3144 88.9964 86.3864L90.5874 85.9886C90.7389 86.5758 91.0253 87.0161 91.4467 87.3097C91.8729 87.6032 92.4292 87.75 93.1158 87.75C93.897 87.75 94.5173 87.5843 94.9766 87.2528C95.4406 86.9167 95.6726 86.5142 95.6726 86.0455C95.6726 85.6667 95.54 85.3494 95.2749 85.0938C95.0097 84.8333 94.6025 84.6392 94.0533 84.5114L92.2351 84.0852C91.236 83.8485 90.5021 83.4815 90.0334 82.9844C89.5694 82.4825 89.3374 81.8551 89.3374 81.1023C89.3374 80.4867 89.5102 79.9422 89.8558 79.4688C90.2062 78.9953 90.6821 78.6236 91.2834 78.3537C91.8894 78.0838 92.576 77.9489 93.343 77.9489C94.4226 77.9489 95.2701 78.1856 95.8857 78.6591C96.5059 79.1326 96.9463 79.7576 97.2067 80.5341ZM106.377 89H104.531L109.872 74.4545H111.69L117.031 89H115.184L110.838 76.7557H110.724L106.377 89ZM107.059 83.3182H114.502V84.8807H107.059V83.3182ZM125.944 84.5398V78.0909H127.62V89H125.944V87.1534H125.831C125.575 87.7074 125.177 88.1785 124.637 88.5668C124.098 88.9503 123.416 89.142 122.592 89.142C121.91 89.142 121.304 88.9929 120.774 88.6946C120.243 88.3916 119.827 87.937 119.524 87.331C119.221 86.7202 119.069 85.9508 119.069 85.0227V78.0909H120.745V84.9091C120.745 85.7045 120.968 86.339 121.413 86.8125C121.863 87.286 122.436 87.5227 123.132 87.5227C123.548 87.5227 123.972 87.4162 124.403 87.2031C124.839 86.9901 125.203 86.6634 125.497 86.223C125.795 85.7827 125.944 85.2216 125.944 84.5398ZM135.435 78.0909V79.5114H129.781V78.0909H135.435ZM131.429 75.4773H133.105V85.875C133.105 86.3485 133.174 86.7036 133.311 86.9403C133.453 87.1723 133.633 87.3286 133.851 87.4091C134.073 87.4848 134.308 87.5227 134.554 87.5227C134.739 87.5227 134.89 87.5133 135.009 87.4943C135.127 87.4706 135.222 87.4517 135.293 87.4375L135.634 88.9432C135.52 88.9858 135.361 89.0284 135.158 89.071C134.954 89.1184 134.696 89.142 134.384 89.142C133.91 89.142 133.446 89.0402 132.991 88.8366C132.542 88.633 132.168 88.3229 131.869 87.9062C131.576 87.4896 131.429 86.964 131.429 86.3295V75.4773ZM142.271 89.2273C141.286 89.2273 140.422 88.9929 139.678 88.5241C138.94 88.0554 138.362 87.3996 137.945 86.5568C137.533 85.714 137.327 84.7292 137.327 83.6023C137.327 82.4659 137.533 81.474 137.945 80.6264C138.362 79.7789 138.94 79.1207 139.678 78.652C140.422 78.1832 141.286 77.9489 142.271 77.9489C143.255 77.9489 144.117 78.1832 144.856 78.652C145.599 79.1207 146.177 79.7789 146.589 80.6264C147.005 81.474 147.214 82.4659 147.214 83.6023C147.214 84.7292 147.005 85.714 146.589 86.5568C146.177 87.3996 145.599 88.0554 144.856 88.5241C144.117 88.9929 143.255 89.2273 142.271 89.2273ZM142.271 87.7216C143.019 87.7216 143.634 87.5298 144.117 87.1463C144.6 86.7628 144.958 86.2585 145.19 85.6335C145.422 85.0085 145.538 84.3314 145.538 83.6023C145.538 82.8731 145.422 82.1937 145.19 81.5639C144.958 80.9342 144.6 80.4252 144.117 80.0369C143.634 79.6487 143.019 79.4545 142.271 79.4545C141.522 79.4545 140.907 79.6487 140.424 80.0369C139.941 80.4252 139.584 80.9342 139.352 81.5639C139.12 82.1937 139.004 82.8731 139.004 83.6023C139.004 84.3314 139.12 85.0085 139.352 85.6335C139.584 86.2585 139.941 86.7628 140.424 87.1463C140.907 87.5298 141.522 87.7216 142.271 87.7216ZM149.772 89V78.0909H151.392V79.7955H151.534C151.761 79.2131 152.128 78.7609 152.635 78.4389C153.141 78.1122 153.75 77.9489 154.46 77.9489C155.18 77.9489 155.779 78.1122 156.257 78.4389C156.74 78.7609 157.116 79.2131 157.386 79.7955H157.5C157.779 79.232 158.198 78.7846 158.757 78.4531C159.315 78.117 159.985 77.9489 160.767 77.9489C161.742 77.9489 162.54 78.2543 163.16 78.8651C163.78 79.4711 164.091 80.4157 164.091 81.6989V89H162.414V81.6989C162.414 80.8939 162.194 80.3187 161.754 79.973C161.314 79.6274 160.795 79.4545 160.199 79.4545C159.431 79.4545 158.837 79.6866 158.416 80.1506C157.994 80.6098 157.784 81.1922 157.784 81.8977V89H156.079V81.5284C156.079 80.9081 155.878 80.4086 155.475 80.0298C155.073 79.6463 154.555 79.4545 153.92 79.4545C153.484 79.4545 153.077 79.5705 152.699 79.8026C152.324 80.0346 152.021 80.3565 151.789 80.7685C151.562 81.1757 151.449 81.6468 151.449 82.1818V89H149.772ZM170.365 89.2557C169.674 89.2557 169.047 89.1255 168.483 88.8651C167.92 88.5999 167.472 88.2188 167.141 87.7216C166.81 87.2197 166.644 86.6136 166.644 85.9034C166.644 85.2784 166.767 84.7718 167.013 84.3835C167.259 83.9905 167.588 83.6828 168 83.4602C168.412 83.2377 168.867 83.072 169.364 82.9631C169.866 82.8494 170.37 82.7595 170.877 82.6932C171.54 82.608 172.077 82.544 172.489 82.5014C172.906 82.4541 173.209 82.3759 173.398 82.267C173.592 82.1581 173.689 81.9687 173.689 81.6989V81.642C173.689 80.9413 173.498 80.3968 173.114 80.0085C172.735 79.6203 172.16 79.4261 171.388 79.4261C170.588 79.4261 169.961 79.6013 169.506 79.9517C169.051 80.3021 168.732 80.6761 168.547 81.0739L166.956 80.5057C167.24 79.8428 167.619 79.3267 168.093 78.9574C168.571 78.5833 169.092 78.3229 169.655 78.1761C170.223 78.0246 170.782 77.9489 171.331 77.9489C171.682 77.9489 172.084 77.9915 172.539 78.0767C172.998 78.1572 173.441 78.3253 173.867 78.581C174.298 78.8366 174.655 79.2225 174.939 79.7386C175.223 80.2547 175.365 80.946 175.365 81.8125V89H173.689V87.5227H173.604C173.49 87.7595 173.301 88.0128 173.036 88.2827C172.771 88.5526 172.418 88.7822 171.978 88.9716C171.537 89.161 171 89.2557 170.365 89.2557ZM170.621 87.75C171.284 87.75 171.843 87.6198 172.297 87.3594C172.757 87.099 173.102 86.7628 173.334 86.3509C173.571 85.9389 173.689 85.5057 173.689 85.0511V83.517C173.618 83.6023 173.462 83.6804 173.221 83.7514C172.984 83.8177 172.709 83.8769 172.397 83.929C172.089 83.9763 171.788 84.0189 171.495 84.0568C171.206 84.09 170.971 84.1184 170.792 84.142C170.356 84.1989 169.949 84.2912 169.57 84.419C169.196 84.5421 168.893 84.7292 168.661 84.9801C168.434 85.2263 168.32 85.5625 168.32 85.9886C168.32 86.571 168.535 87.0114 168.966 87.3097C169.402 87.6032 169.953 87.75 170.621 87.75ZM183.169 78.0909V79.5114H177.516V78.0909H183.169ZM179.163 75.4773H180.839V85.875C180.839 86.3485 180.908 86.7036 181.045 86.9403C181.188 87.1723 181.367 87.3286 181.585 87.4091C181.808 87.4848 182.042 87.5227 182.288 87.5227C182.473 87.5227 182.625 87.5133 182.743 87.4943C182.861 87.4706 182.956 87.4517 183.027 87.4375L183.368 88.9432C183.254 88.9858 183.096 89.0284 182.892 89.071C182.688 89.1184 182.43 89.142 182.118 89.142C181.644 89.142 181.18 89.0402 180.726 88.8366C180.276 88.633 179.902 88.3229 179.604 87.9062C179.31 87.4896 179.163 86.964 179.163 86.3295V75.4773ZM190.147 89.2273C189.096 89.2273 188.189 88.9953 187.427 88.5312C186.669 88.0625 186.085 87.4091 185.673 86.571C185.265 85.7282 185.062 84.7481 185.062 83.6307C185.062 82.5133 185.265 81.5284 185.673 80.6761C186.085 79.8191 186.657 79.1515 187.391 78.6733C188.13 78.1903 188.992 77.9489 189.977 77.9489C190.545 77.9489 191.106 78.0436 191.66 78.233C192.214 78.4223 192.718 78.7301 193.173 79.1562C193.627 79.5777 193.989 80.1364 194.259 80.8324C194.529 81.5284 194.664 82.3854 194.664 83.4034V84.1136H186.255V82.6648H192.96C192.96 82.0492 192.836 81.5 192.59 81.017C192.349 80.5341 192.003 80.1529 191.553 79.8736C191.108 79.5942 190.583 79.4545 189.977 79.4545C189.309 79.4545 188.731 79.6203 188.244 79.9517C187.761 80.2784 187.389 80.7045 187.129 81.2301C186.868 81.7557 186.738 82.3191 186.738 82.9205V83.8864C186.738 84.7102 186.88 85.4086 187.164 85.9815C187.453 86.5497 187.853 86.983 188.364 87.2812C188.876 87.5748 189.47 87.7216 190.147 87.7216C190.587 87.7216 190.985 87.66 191.34 87.5369C191.7 87.4091 192.01 87.2197 192.271 86.9688C192.531 86.7131 192.732 86.3958 192.874 86.017L194.494 86.4716C194.323 87.0208 194.037 87.5038 193.634 87.9205C193.232 88.3324 192.735 88.6544 192.143 88.8864C191.551 89.1136 190.886 89.2273 190.147 89.2273ZM201.333 89.2273C200.424 89.2273 199.621 88.9976 198.925 88.5384C198.229 88.0743 197.685 87.4209 197.292 86.5781C196.899 85.7306 196.702 84.7292 196.702 83.5739C196.702 82.428 196.899 81.4337 197.292 80.5909C197.685 79.7481 198.232 79.0971 198.933 78.6378C199.633 78.1785 200.443 77.9489 201.362 77.9489C202.072 77.9489 202.633 78.0672 203.045 78.304C203.461 78.536 203.779 78.8011 203.996 79.0994C204.219 79.393 204.392 79.6345 204.515 79.8239H204.657V74.4545H206.333V89H204.714V87.3239H204.515C204.392 87.5227 204.217 87.7737 203.989 88.0767C203.762 88.375 203.438 88.6425 203.016 88.8793C202.595 89.1113 202.034 89.2273 201.333 89.2273ZM201.56 87.7216C202.233 87.7216 202.801 87.5464 203.265 87.196C203.729 86.8409 204.082 86.3509 204.323 85.7259C204.565 85.0961 204.685 84.3693 204.685 83.5455C204.685 82.7311 204.567 82.0185 204.33 81.4077C204.094 80.7921 203.743 80.3139 203.279 79.973C202.815 79.6274 202.242 79.4545 201.56 79.4545C200.85 79.4545 200.258 79.6368 199.785 80.0014C199.316 80.3613 198.963 80.8513 198.727 81.4716C198.495 82.0871 198.379 82.7784 198.379 83.5455C198.379 84.322 198.497 85.0275 198.734 85.6619C198.975 86.2917 199.33 86.7936 199.799 87.1676C200.272 87.5369 200.86 87.7216 201.56 87.7216ZM215.488 89V74.4545H217.164V79.8239H217.306C217.429 79.6345 217.6 79.393 217.817 79.0994C218.04 78.8011 218.357 78.536 218.769 78.304C219.186 78.0672 219.749 77.9489 220.46 77.9489C221.378 77.9489 222.188 78.1785 222.888 78.6378C223.589 79.0971 224.136 79.7481 224.529 80.5909C224.922 81.4337 225.119 82.428 225.119 83.5739C225.119 84.7292 224.922 85.7306 224.529 86.5781C224.136 87.4209 223.592 88.0743 222.896 88.5384C222.2 88.9976 221.397 89.2273 220.488 89.2273C219.787 89.2273 219.226 89.1113 218.805 88.8793C218.383 88.6425 218.059 88.375 217.832 88.0767C217.604 87.7737 217.429 87.5227 217.306 87.3239H217.107V89H215.488ZM217.136 83.5455C217.136 84.3693 217.256 85.0961 217.498 85.7259C217.739 86.3509 218.092 86.8409 218.556 87.196C219.02 87.5464 219.588 87.7216 220.261 87.7216C220.961 87.7216 221.546 87.5369 222.015 87.1676C222.488 86.7936 222.844 86.2917 223.08 85.6619C223.322 85.0275 223.442 84.322 223.442 83.5455C223.442 82.7784 223.324 82.0871 223.087 81.4716C222.855 80.8513 222.503 80.3613 222.029 80.0014C221.56 79.6368 220.971 79.4545 220.261 79.4545C219.579 79.4545 219.006 79.6274 218.542 79.973C218.078 80.3139 217.728 80.7921 217.491 81.4077C217.254 82.0185 217.136 82.7311 217.136 83.5455ZM228.371 93.0909C228.087 93.0909 227.834 93.0672 227.612 93.0199C227.389 92.9773 227.235 92.9347 227.15 92.892L227.576 91.4148C227.983 91.5189 228.343 91.5568 228.656 91.5284C228.968 91.5 229.245 91.3603 229.487 91.1094C229.733 90.8632 229.958 90.4631 230.161 89.9091L230.474 89.0568L226.44 78.0909H228.258L231.269 86.7841H231.383L234.394 78.0909H236.212L231.582 90.5909C231.373 91.1544 231.115 91.6207 230.808 91.9901C230.5 92.3641 230.142 92.6411 229.735 92.821C229.333 93.0009 228.878 93.0909 228.371 93.0909ZM244.277 74.4545H246.379L251.322 86.5284H251.493L256.436 74.4545H258.538V89H256.891V77.9489H256.749L252.203 89H250.612L246.067 77.9489H245.925V89H244.277V74.4545ZM266.275 89.2273C265.29 89.2273 264.426 88.9929 263.682 88.5241C262.944 88.0554 262.366 87.3996 261.949 86.5568C261.537 85.714 261.331 84.7292 261.331 83.6023C261.331 82.4659 261.537 81.474 261.949 80.6264C262.366 79.7789 262.944 79.1207 263.682 78.652C264.426 78.1832 265.29 77.9489 266.275 77.9489C267.259 77.9489 268.121 78.1832 268.86 78.652C269.603 79.1207 270.181 79.7789 270.593 80.6264C271.009 81.474 271.218 82.4659 271.218 83.6023C271.218 84.7292 271.009 85.714 270.593 86.5568C270.181 87.3996 269.603 88.0554 268.86 88.5241C268.121 88.9929 267.259 89.2273 266.275 89.2273ZM266.275 87.7216C267.023 87.7216 267.638 87.5298 268.121 87.1463C268.604 86.7628 268.962 86.2585 269.194 85.6335C269.426 85.0085 269.542 84.3314 269.542 83.6023C269.542 82.8731 269.426 82.1937 269.194 81.5639C268.962 80.9342 268.604 80.4252 268.121 80.0369C267.638 79.6487 267.023 79.4545 266.275 79.4545C265.526 79.4545 264.911 79.6487 264.428 80.0369C263.945 80.4252 263.587 80.9342 263.355 81.5639C263.123 82.1937 263.007 82.8731 263.007 83.6023C263.007 84.3314 263.123 85.0085 263.355 85.6335C263.587 86.2585 263.945 86.7628 264.428 87.1463C264.911 87.5298 265.526 87.7216 266.275 87.7216ZM275.452 82.4375V89H273.776V78.0909H275.396V79.7955H275.538C275.793 79.2415 276.182 78.7964 276.702 78.4602C277.223 78.1193 277.896 77.9489 278.719 77.9489C279.458 77.9489 280.104 78.1004 280.658 78.4034C281.212 78.7017 281.643 79.1562 281.951 79.767C282.259 80.3731 282.413 81.1402 282.413 82.0682V89H280.737V82.1818C280.737 81.3248 280.514 80.6572 280.069 80.179C279.624 79.696 279.013 79.4545 278.237 79.4545C277.701 79.4545 277.223 79.5705 276.802 79.8026C276.385 80.0346 276.056 80.3731 275.815 80.8182C275.573 81.2633 275.452 81.803 275.452 82.4375ZM290.22 78.0909V79.5114H284.566V78.0909H290.22ZM286.214 75.4773H287.89V85.875C287.89 86.3485 287.959 86.7036 288.096 86.9403C288.238 87.1723 288.418 87.3286 288.636 87.4091C288.859 87.4848 289.093 87.5227 289.339 87.5227C289.524 87.5227 289.675 87.5133 289.794 87.4943C289.912 87.4706 290.007 87.4517 290.078 87.4375L290.419 88.9432C290.305 88.9858 290.146 89.0284 289.943 89.071C289.739 89.1184 289.481 89.142 289.169 89.142C288.695 89.142 288.231 89.0402 287.777 88.8366C287.327 88.633 286.953 88.3229 286.654 87.9062C286.361 87.4896 286.214 86.964 286.214 86.3295V75.4773ZM294.652 82.4375V89H292.975V74.4545H294.652V79.7955H294.794C295.049 79.232 295.433 78.7846 295.944 78.4531C296.46 78.117 297.147 77.9489 298.004 77.9489C298.747 77.9489 299.398 78.098 299.957 78.3963C300.516 78.6899 300.949 79.142 301.257 79.7528C301.569 80.3589 301.725 81.1307 301.725 82.0682V89H300.049V82.1818C300.049 81.3153 299.824 80.6454 299.375 80.1719C298.93 79.6937 298.312 79.4545 297.521 79.4545C296.972 79.4545 296.479 79.5705 296.044 79.8026C295.613 80.0346 295.272 80.3731 295.021 80.8182C294.775 81.2633 294.652 81.803 294.652 82.4375Z" fill="white"/>
</svg>
