<svg width="181" height="175" viewBox="0 0 181 175" fill="none" xmlns="http://www.w3.org/2000/svg">
<g clip-path="url(#clip0_1_15)">
<path d="M36.9446 0.651367H11.2929C5.6261 0.651367 1.03223 5.24524 1.03223 10.9121V46.8245C1.03223 52.4913 5.6261 57.0852 11.2929 57.0852H36.9446C42.6115 57.0852 47.2053 52.4913 47.2053 46.8245V10.9121C47.2053 5.24524 42.6115 0.651367 36.9446 0.651367Z" fill="#FF8F20"/>
<path d="M26.5687 136.292C14.9567 137.076 0.176758 122.532 0.176758 122.532V174.228H180.594V100.602C162.177 114.54 154.806 99.1541 131.704 100.602C115.438 101.622 111.197 128.936 96.2262 122.532C79.2181 115.257 69.9585 95.7563 52.0954 100.602C35.4966 105.105 43.7351 135.133 26.5687 136.292Z" fill="url(#paint0_linear_1_15)"/>
<path d="M1.03223 122.402C1.03223 122.402 15.637 136.862 27.1115 136.083C44.0745 134.93 35.9336 105.075 52.3357 100.598C69.9872 95.7798 79.137 115.168 95.9436 122.402C110.737 128.769 114.928 101.611 131.001 100.598C153.83 99.158 161.113 114.455 179.312 100.598" stroke="#FF8F20" stroke-width="1.71012" stroke-linecap="round"/>
<mask id="mask0_1_15" style="mask-type:luminance" maskUnits="userSpaceOnUse" x="13" y="18" width="22" height="22">
<path d="M34.3798 18.6084H13.8584V39.1298H34.3798V18.6084Z" fill="white"/>
</mask>
<g mask="url(#mask0_1_15)">
<path d="M30.9592 37.4201H17.2783V35.71C17.2783 34.5761 17.7288 33.4887 18.5305 32.6869C19.3323 31.8851 20.4197 31.4347 21.5536 31.4347H26.684C27.8178 31.4347 28.9053 31.8851 29.707 32.6869C30.5088 33.4887 30.9592 34.5761 30.9592 35.71V37.4201ZM24.1188 29.7246C23.4451 29.7246 22.7779 29.5919 22.1555 29.334C21.533 29.0762 20.9675 28.6983 20.4911 28.2219C20.0147 27.7455 19.6368 27.18 19.379 26.5575C19.1211 25.9351 18.9884 25.2679 18.9884 24.5942C18.9884 23.9205 19.1211 23.2534 19.379 22.6309C19.6368 22.0085 20.0147 21.4429 20.4911 20.9665C20.9675 20.4901 21.533 20.1122 22.1555 19.8544C22.7779 19.5966 23.4451 19.4639 24.1188 19.4639C25.4794 19.4639 26.7844 20.0044 27.7465 20.9665C28.7086 21.9286 29.2491 23.2336 29.2491 24.5942C29.2491 25.9549 28.7086 27.2598 27.7465 28.2219C26.7844 29.184 25.4794 29.7246 24.1188 29.7246Z" fill="white"/>
</g>
<path d="M58.669 6.72727V14H57.6605L53.9638 8.66619H53.8963V14H52.799V6.72727H53.8146L57.5149 12.0682H57.5824V6.72727H58.669ZM62.5353 14.1101C61.9979 14.1101 61.5351 13.9953 61.1468 13.7656C60.7609 13.5336 60.4627 13.2081 60.252 12.7891C60.0436 12.3677 59.9395 11.8741 59.9395 11.3082C59.9395 10.7495 60.0436 10.2571 60.252 9.83097C60.4627 9.40483 60.7562 9.07221 61.1326 8.8331C61.5114 8.59399 61.9541 8.47443 62.4608 8.47443C62.7685 8.47443 63.0668 8.52533 63.3556 8.62713C63.6445 8.72893 63.9037 8.88873 64.1333 9.10653C64.363 9.32434 64.5441 9.60724 64.6767 9.95526C64.8092 10.3009 64.8755 10.7211 64.8755 11.2159V11.5923H60.5396V10.7969H63.835C63.835 10.5175 63.7782 10.2701 63.6646 10.0547C63.551 9.83688 63.3912 9.66525 63.1852 9.53977C62.9816 9.4143 62.7425 9.35156 62.4679 9.35156C62.1696 9.35156 61.9092 9.42495 61.6866 9.57173C61.4664 9.71615 61.296 9.90554 61.1752 10.1399C61.0569 10.3719 60.9977 10.6241 60.9977 10.8963V11.5178C60.9977 11.8823 61.0616 12.1925 61.1895 12.4482C61.3197 12.7038 61.5008 12.8991 61.7328 13.0341C61.9648 13.1667 62.2359 13.233 62.546 13.233C62.7472 13.233 62.9307 13.2045 63.0964 13.1477C63.2621 13.0885 63.4054 13.0009 63.5261 12.8849C63.6468 12.7689 63.7392 12.6257 63.8031 12.4553L64.8081 12.6364C64.7276 12.9323 64.5832 13.1915 64.3748 13.4141C64.1689 13.6342 63.9096 13.8059 63.5971 13.929C63.287 14.0497 62.9331 14.1101 62.5353 14.1101ZM67.2264 14L65.6213 8.54545H66.7186L67.7875 12.5511H67.8407L68.9132 8.54545H70.0105L71.0758 12.5334H71.1291L72.1909 8.54545H73.2882L71.6866 14H70.6035L69.4956 10.0618H69.4139L68.3059 14H67.2264ZM83.068 9.09233H81.96C81.9174 8.85559 81.8381 8.64725 81.7221 8.46733C81.6061 8.28741 81.4641 8.13471 81.296 8.00923C81.1279 7.88376 80.9397 7.78906 80.7314 7.72514C80.5254 7.66122 80.3064 7.62926 80.0744 7.62926C79.6554 7.62926 79.2801 7.73461 78.9487 7.94531C78.6196 8.15601 78.3592 8.46496 78.1674 8.87216C77.978 9.27936 77.8833 9.77652 77.8833 10.3636C77.8833 10.9555 77.978 11.455 78.1674 11.8622C78.3592 12.2694 78.6208 12.5772 78.9522 12.7855C79.2837 12.9938 79.6565 13.098 80.0708 13.098C80.3005 13.098 80.5183 13.0672 80.7243 13.0057C80.9326 12.9418 81.1208 12.8482 81.2889 12.7251C81.457 12.602 81.599 12.4517 81.715 12.2741C81.8334 12.0942 81.9151 11.8883 81.96 11.6562L83.068 11.6598C83.0088 12.0173 82.894 12.3464 82.7235 12.647C82.5555 12.9453 82.3388 13.2034 82.0737 13.4212C81.8109 13.6366 81.5102 13.8035 81.1717 13.9219C80.8332 14.0402 80.4638 14.0994 80.0637 14.0994C79.434 14.0994 78.8729 13.9503 78.3805 13.652C77.8881 13.3513 77.4998 12.9216 77.2157 12.3629C76.934 11.8042 76.7931 11.1378 76.7931 10.3636C76.7931 9.58712 76.9352 8.92069 77.2193 8.36435C77.5034 7.80563 77.8916 7.37713 78.3841 7.07884C78.8765 6.77817 79.4364 6.62784 80.0637 6.62784C80.4496 6.62784 80.8095 6.68348 81.1433 6.79474C81.4795 6.90365 81.7813 7.06463 82.0488 7.2777C82.3163 7.4884 82.5377 7.74645 82.7129 8.05185C82.8881 8.35488 83.0065 8.7017 83.068 9.09233ZM86.5934 14.1101C86.082 14.1101 85.6358 13.9929 85.2546 13.7585C84.8735 13.5241 84.5775 13.1963 84.3668 12.7749C84.1561 12.3535 84.0508 11.861 84.0508 11.2976C84.0508 10.7318 84.1561 10.237 84.3668 9.81321C84.5775 9.38944 84.8735 9.06037 85.2546 8.82599C85.6358 8.59162 86.082 8.47443 86.5934 8.47443C87.1048 8.47443 87.551 8.59162 87.9322 8.82599C88.3133 9.06037 88.6093 9.38944 88.82 9.81321C89.0307 10.237 89.136 10.7318 89.136 11.2976C89.136 11.861 89.0307 12.3535 88.82 12.7749C88.6093 13.1963 88.3133 13.5241 87.9322 13.7585C87.551 13.9929 87.1048 14.1101 86.5934 14.1101ZM86.5969 13.2188C86.9284 13.2188 87.203 13.1312 87.4208 12.956C87.6386 12.7808 87.7996 12.5476 87.9038 12.2564C88.0103 11.9652 88.0636 11.6444 88.0636 11.294C88.0636 10.946 88.0103 10.6264 87.9038 10.3352C87.7996 10.0417 87.6386 9.80611 87.4208 9.62855C87.203 9.45099 86.9284 9.36222 86.5969 9.36222C86.2631 9.36222 85.9862 9.45099 85.766 9.62855C85.5482 9.80611 85.386 10.0417 85.2795 10.3352C85.1753 10.6264 85.1232 10.946 85.1232 11.294C85.1232 11.6444 85.1753 11.9652 85.2795 12.2564C85.386 12.5476 85.5482 12.7808 85.766 12.956C85.9862 13.1312 86.2631 13.2188 86.5969 13.2188ZM91.9086 14.1207C91.5629 14.1207 91.2504 14.0568 90.9711 13.929C90.6917 13.7988 90.4703 13.6106 90.307 13.3643C90.146 13.1181 90.0655 12.8163 90.0655 12.4588C90.0655 12.151 90.1247 11.8977 90.2431 11.6989C90.3614 11.5 90.5212 11.3426 90.7225 11.2266C90.9237 11.1106 91.1486 11.023 91.3972 10.9638C91.6458 10.9046 91.8991 10.8596 92.1571 10.8288C92.4838 10.791 92.749 10.7602 92.9526 10.7365C93.1562 10.7105 93.3042 10.669 93.3965 10.6122C93.4888 10.5554 93.535 10.4631 93.535 10.3352V10.3104C93.535 10.0002 93.4474 9.75994 93.2722 9.58949C93.0994 9.41903 92.8413 9.33381 92.498 9.33381C92.1406 9.33381 91.8588 9.41312 91.6529 9.57173C91.4493 9.72798 91.3084 9.90199 91.2303 10.0938L90.2324 9.86648C90.3508 9.53504 90.5236 9.26752 90.7509 9.06392C90.9805 8.85795 91.2445 8.70881 91.5428 8.61648C91.8411 8.52178 92.1548 8.47443 92.4838 8.47443C92.7016 8.47443 92.9325 8.50047 93.1763 8.55256C93.4225 8.60227 93.6522 8.6946 93.8652 8.82955C94.0807 8.96449 94.257 9.15743 94.3944 9.40838C94.5317 9.65696 94.6003 9.98011 94.6003 10.3778V14H93.5634V13.2543H93.5208C93.4521 13.3916 93.3491 13.5265 93.2118 13.6591C93.0745 13.7917 92.8981 13.9018 92.6827 13.9893C92.4673 14.0769 92.2092 14.1207 91.9086 14.1207ZM92.1394 13.2685C92.4329 13.2685 92.6839 13.2105 92.8922 13.0945C93.1029 12.9785 93.2627 12.8269 93.3716 12.6399C93.4829 12.4505 93.5385 12.2481 93.5385 12.0327V11.3295C93.5007 11.3674 93.4273 11.4029 93.3184 11.4361C93.2118 11.4669 93.0899 11.4941 92.9526 11.5178C92.8153 11.5391 92.6815 11.5592 92.5513 11.5781C92.4211 11.5947 92.3122 11.6089 92.2246 11.6207C92.0186 11.6468 91.8304 11.6906 91.66 11.7521C91.4919 11.8137 91.3569 11.9025 91.2551 12.0185C91.1557 12.1321 91.106 12.2836 91.106 12.473C91.106 12.7358 91.2031 12.9347 91.3972 13.0696C91.5913 13.2022 91.8387 13.2685 92.1394 13.2685ZM98.3121 14.1101C97.7842 14.1101 97.3297 13.9905 96.9485 13.7514C96.5697 13.5099 96.2785 13.1773 96.0749 12.7536C95.8713 12.3298 95.7695 11.8445 95.7695 11.2976C95.7695 10.7436 95.8737 10.2547 96.082 9.83097C96.2904 9.40483 96.5839 9.07221 96.9627 8.8331C97.3415 8.59399 97.7878 8.47443 98.3015 8.47443C98.7158 8.47443 99.0851 8.55137 99.4094 8.70526C99.7338 8.85677 99.9954 9.06984 100.194 9.34446C100.395 9.61908 100.515 9.93987 100.553 10.3068H99.5195C99.4627 10.0511 99.3325 9.83097 99.1289 9.64631C98.9277 9.46165 98.6578 9.36932 98.3192 9.36932C98.0233 9.36932 97.7641 9.44744 97.5415 9.60369C97.3214 9.75758 97.1497 9.97775 97.0266 10.2642C96.9035 10.5483 96.842 10.8845 96.842 11.2727C96.842 11.6705 96.9023 12.0137 97.0231 12.3026C97.1438 12.5914 97.3143 12.8151 97.5344 12.9737C97.757 13.1323 98.0186 13.2116 98.3192 13.2116C98.5205 13.2116 98.7028 13.175 98.8661 13.1016C99.0318 13.0258 99.1703 12.9181 99.2816 12.7784C99.3952 12.6387 99.4746 12.4706 99.5195 12.2741H100.553C100.515 12.6269 100.4 12.9418 100.208 13.2188C100.017 13.4957 99.7598 13.7135 99.4379 13.8722C99.1183 14.0308 98.743 14.1101 98.3121 14.1101ZM102.75 10.7614V14H101.688V6.72727H102.736V9.43324H102.803C102.931 9.13968 103.127 8.90649 103.389 8.73366C103.652 8.56084 103.995 8.47443 104.419 8.47443C104.793 8.47443 105.12 8.55137 105.399 8.70526C105.681 8.85914 105.899 9.08878 106.053 9.39418C106.209 9.69721 106.287 10.076 106.287 10.5305V14H105.225V10.6584C105.225 10.2583 105.122 9.94815 104.916 9.72798C104.71 9.50544 104.424 9.39418 104.057 9.39418C103.806 9.39418 103.581 9.44744 103.382 9.55398C103.186 9.66051 103.031 9.81676 102.917 10.0227C102.806 10.2263 102.75 10.4725 102.75 10.7614ZM111.533 6.72727V14H110.436V6.72727H111.533ZM114.108 10.7614V14H113.046V8.54545H114.065V9.43324H114.132C114.258 9.14441 114.454 8.91241 114.722 8.73722C114.992 8.56203 115.332 8.47443 115.741 8.47443C116.113 8.47443 116.438 8.55256 116.718 8.70881C116.997 8.86269 117.214 9.09233 117.368 9.39773C117.521 9.70312 117.598 10.0807 117.598 10.5305V14H116.537V10.6584C116.537 10.263 116.434 9.95407 116.228 9.73153C116.022 9.50663 115.739 9.39418 115.379 9.39418C115.133 9.39418 114.914 9.44744 114.722 9.55398C114.533 9.66051 114.382 9.81676 114.271 10.0227C114.162 10.2263 114.108 10.4725 114.108 10.7614ZM121.569 8.54545V9.39773H118.589V8.54545H121.569ZM119.388 7.23864H120.45V12.3984C120.45 12.6044 120.481 12.7595 120.542 12.8636C120.604 12.9654 120.683 13.0353 120.78 13.0732C120.88 13.1087 120.987 13.1264 121.103 13.1264C121.189 13.1264 121.263 13.1205 121.327 13.1087C121.391 13.0968 121.441 13.0874 121.476 13.0803L121.668 13.9574C121.606 13.9811 121.519 14.0047 121.405 14.0284C121.292 14.0545 121.15 14.0687 120.979 14.071C120.7 14.0758 120.439 14.026 120.198 13.9219C119.956 13.8177 119.761 13.6567 119.612 13.4389C119.463 13.2211 119.388 12.9477 119.388 12.6186V7.23864ZM125.035 14.1101C124.498 14.1101 124.035 13.9953 123.647 13.7656C123.261 13.5336 122.963 13.2081 122.752 12.7891C122.544 12.3677 122.439 11.8741 122.439 11.3082C122.439 10.7495 122.544 10.2571 122.752 9.83097C122.963 9.40483 123.256 9.07221 123.633 8.8331C124.011 8.59399 124.454 8.47443 124.961 8.47443C125.269 8.47443 125.567 8.52533 125.856 8.62713C126.144 8.72893 126.404 8.88873 126.633 9.10653C126.863 9.32434 127.044 9.60724 127.177 9.95526C127.309 10.3009 127.376 10.7211 127.376 11.2159V11.5923H123.04V10.7969H126.335C126.335 10.5175 126.278 10.2701 126.165 10.0547C126.051 9.83688 125.891 9.66525 125.685 9.53977C125.482 9.4143 125.242 9.35156 124.968 9.35156C124.67 9.35156 124.409 9.42495 124.187 9.57173C123.966 9.71615 123.796 9.90554 123.675 10.1399C123.557 10.3719 123.498 10.6241 123.498 10.8963V11.5178C123.498 11.8823 123.562 12.1925 123.689 12.4482C123.82 12.7038 124.001 12.8991 124.233 13.0341C124.465 13.1667 124.736 13.233 125.046 13.233C125.247 13.233 125.431 13.2045 125.596 13.1477C125.762 13.0885 125.905 13.0009 126.026 12.8849C126.147 12.7689 126.239 12.6257 126.303 12.4553L127.308 12.6364C127.228 12.9323 127.083 13.1915 126.875 13.4141C126.669 13.6342 126.41 13.8059 126.097 13.929C125.787 14.0497 125.433 14.1101 125.035 14.1101ZM128.554 14V8.54545H129.58V9.41193H129.637C129.736 9.11837 129.911 8.88755 130.162 8.71946C130.416 8.54901 130.702 8.46378 131.022 8.46378C131.088 8.46378 131.166 8.46615 131.256 8.47088C131.348 8.47562 131.421 8.48153 131.473 8.48864V9.50426C131.43 9.49242 131.354 9.4794 131.245 9.4652C131.136 9.44863 131.028 9.44034 130.919 9.44034C130.668 9.44034 130.444 9.49361 130.248 9.60014C130.053 9.70431 129.9 9.84991 129.786 10.0369C129.672 10.2216 129.615 10.4323 129.615 10.669V14H128.554ZM133.93 14.1207C133.584 14.1207 133.272 14.0568 132.993 13.929C132.713 13.7988 132.492 13.6106 132.328 13.3643C132.167 13.1181 132.087 12.8163 132.087 12.4588C132.087 12.151 132.146 11.8977 132.265 11.6989C132.383 11.5 132.543 11.3426 132.744 11.2266C132.945 11.1106 133.17 11.023 133.419 10.9638C133.667 10.9046 133.921 10.8596 134.179 10.8288C134.505 10.791 134.77 10.7602 134.974 10.7365C135.178 10.7105 135.326 10.669 135.418 10.6122C135.51 10.5554 135.556 10.4631 135.556 10.3352V10.3104C135.556 10.0002 135.469 9.75994 135.294 9.58949C135.121 9.41903 134.863 9.33381 134.52 9.33381C134.162 9.33381 133.88 9.41312 133.674 9.57173C133.471 9.72798 133.33 9.90199 133.252 10.0938L132.254 9.86648C132.372 9.53504 132.545 9.26752 132.772 9.06392C133.002 8.85795 133.266 8.70881 133.564 8.61648C133.863 8.52178 134.176 8.47443 134.505 8.47443C134.723 8.47443 134.954 8.50047 135.198 8.55256C135.444 8.60227 135.674 8.6946 135.887 8.82955C136.102 8.96449 136.279 9.15743 136.416 9.40838C136.553 9.65696 136.622 9.98011 136.622 10.3778V14H135.585V13.2543H135.542C135.474 13.3916 135.371 13.5265 135.233 13.6591C135.096 13.7917 134.92 13.9018 134.704 13.9893C134.489 14.0769 134.231 14.1207 133.93 14.1207ZM134.161 13.2685C134.454 13.2685 134.705 13.2105 134.914 13.0945C135.124 12.9785 135.284 12.8269 135.393 12.6399C135.504 12.4505 135.56 12.2481 135.56 12.0327V11.3295C135.522 11.3674 135.449 11.4029 135.34 11.4361C135.233 11.4669 135.111 11.4941 134.974 11.5178C134.837 11.5391 134.703 11.5592 134.573 11.5781C134.443 11.5947 134.334 11.6089 134.246 11.6207C134.04 11.6468 133.852 11.6906 133.681 11.7521C133.513 11.8137 133.378 11.9025 133.277 12.0185C133.177 12.1321 133.127 12.2836 133.127 12.473C133.127 12.7358 133.225 12.9347 133.419 13.0696C133.613 13.2022 133.86 13.2685 134.161 13.2685ZM140.334 14.1101C139.806 14.1101 139.351 13.9905 138.97 13.7514C138.591 13.5099 138.3 13.1773 138.096 12.7536C137.893 12.3298 137.791 11.8445 137.791 11.2976C137.791 10.7436 137.895 10.2547 138.104 9.83097C138.312 9.40483 138.605 9.07221 138.984 8.8331C139.363 8.59399 139.809 8.47443 140.323 8.47443C140.737 8.47443 141.107 8.55137 141.431 8.70526C141.755 8.85677 142.017 9.06984 142.216 9.34446C142.417 9.61908 142.537 9.93987 142.574 10.3068H141.541C141.484 10.0511 141.354 9.83097 141.15 9.64631C140.949 9.46165 140.679 9.36932 140.341 9.36932C140.045 9.36932 139.786 9.44744 139.563 9.60369C139.343 9.75758 139.171 9.97775 139.048 10.2642C138.925 10.5483 138.863 10.8845 138.863 11.2727C138.863 11.6705 138.924 12.0137 139.045 12.3026C139.165 12.5914 139.336 12.8151 139.556 12.9737C139.778 13.1323 140.04 13.2116 140.341 13.2116C140.542 13.2116 140.724 13.175 140.888 13.1016C141.053 13.0258 141.192 12.9181 141.303 12.7784C141.417 12.6387 141.496 12.4706 141.541 12.2741H142.574C142.537 12.6269 142.422 12.9418 142.23 13.2188C142.038 13.4957 141.781 13.7135 141.459 13.8722C141.14 14.0308 140.765 14.1101 140.334 14.1101ZM146.256 8.54545V9.39773H143.277V8.54545H146.256ZM144.076 7.23864H145.137V12.3984C145.137 12.6044 145.168 12.7595 145.23 12.8636C145.291 12.9654 145.371 13.0353 145.468 13.0732C145.567 13.1087 145.675 13.1264 145.791 13.1264C145.876 13.1264 145.951 13.1205 146.015 13.1087C146.078 13.0968 146.128 13.0874 146.164 13.0803L146.355 13.9574C146.294 13.9811 146.206 14.0047 146.093 14.0284C145.979 14.0545 145.837 14.0687 145.667 14.071C145.387 14.0758 145.127 14.026 144.885 13.9219C144.644 13.8177 144.449 13.6567 144.299 13.4389C144.15 13.2211 144.076 12.9477 144.076 12.6186V7.23864ZM147.431 14V8.54545H148.492V14H147.431ZM147.967 7.70384C147.782 7.70384 147.624 7.64228 147.491 7.51918C147.361 7.3937 147.296 7.24455 147.296 7.07173C147.296 6.89654 147.361 6.7474 147.491 6.62429C147.624 6.49882 147.782 6.43608 147.967 6.43608C148.151 6.43608 148.309 6.49882 148.439 6.62429C148.572 6.7474 148.638 6.89654 148.638 7.07173C148.638 7.24455 148.572 7.3937 148.439 7.51918C148.309 7.64228 148.151 7.70384 147.967 7.70384ZM152.218 14.1101C151.707 14.1101 151.261 13.9929 150.88 13.7585C150.498 13.5241 150.203 13.1963 149.992 12.7749C149.781 12.3535 149.676 11.861 149.676 11.2976C149.676 10.7318 149.781 10.237 149.992 9.81321C150.203 9.38944 150.498 9.06037 150.88 8.82599C151.261 8.59162 151.707 8.47443 152.218 8.47443C152.73 8.47443 153.176 8.59162 153.557 8.82599C153.938 9.06037 154.234 9.38944 154.445 9.81321C154.656 10.237 154.761 10.7318 154.761 11.2976C154.761 11.861 154.656 12.3535 154.445 12.7749C154.234 13.1963 153.938 13.5241 153.557 13.7585C153.176 13.9929 152.73 14.1101 152.218 14.1101ZM152.222 13.2188C152.553 13.2188 152.828 13.1312 153.046 12.956C153.264 12.7808 153.425 12.5476 153.529 12.2564C153.635 11.9652 153.689 11.6444 153.689 11.294C153.689 10.946 153.635 10.6264 153.529 10.3352C153.425 10.0417 153.264 9.80611 153.046 9.62855C152.828 9.45099 152.553 9.36222 152.222 9.36222C151.888 9.36222 151.611 9.45099 151.391 9.62855C151.173 9.80611 151.011 10.0417 150.904 10.3352C150.8 10.6264 150.748 10.946 150.748 11.294C150.748 11.6444 150.8 11.9652 150.904 12.2564C151.011 12.5476 151.173 12.7808 151.391 12.956C151.611 13.1312 151.888 13.2188 152.222 13.2188ZM157.008 10.7614V14H155.946V8.54545H156.965V9.43324H157.033C157.158 9.14441 157.355 8.91241 157.622 8.73722C157.892 8.56203 158.232 8.47443 158.642 8.47443C159.013 8.47443 159.339 8.55256 159.618 8.70881C159.897 8.86269 160.114 9.09233 160.268 9.39773C160.422 9.70312 160.499 10.0807 160.499 10.5305V14H159.437V10.6584C159.437 10.263 159.334 9.95407 159.128 9.73153C158.922 9.50663 158.639 9.39418 158.279 9.39418C158.033 9.39418 157.814 9.44744 157.622 9.55398C157.433 9.66051 157.283 9.81676 157.171 10.0227C157.062 10.2263 157.008 10.4725 157.008 10.7614ZM166.01 9.87713L165.048 10.0476C165.008 9.92448 164.944 9.80729 164.856 9.69602C164.771 9.58475 164.655 9.49361 164.508 9.42259C164.361 9.35156 164.178 9.31605 163.958 9.31605C163.657 9.31605 163.406 9.38352 163.205 9.51847C163.003 9.65104 162.903 9.82268 162.903 10.0334C162.903 10.2157 162.97 10.3625 163.105 10.4737C163.24 10.585 163.458 10.6761 163.759 10.7472L164.625 10.946C165.127 11.062 165.501 11.2408 165.747 11.4822C165.994 11.7237 166.117 12.0374 166.117 12.4233C166.117 12.75 166.022 13.0412 165.833 13.2969C165.646 13.5502 165.384 13.7491 165.048 13.8935C164.714 14.0379 164.327 14.1101 163.887 14.1101C163.276 14.1101 162.777 13.9799 162.392 13.7195C162.006 13.4567 161.769 13.0838 161.681 12.6009L162.708 12.4446C162.771 12.7121 162.903 12.9145 163.102 13.0518C163.301 13.1868 163.56 13.2543 163.879 13.2543C164.227 13.2543 164.506 13.1821 164.714 13.0376C164.922 12.8909 165.026 12.7121 165.026 12.5014C165.026 12.331 164.963 12.1877 164.835 12.0717C164.709 11.9557 164.516 11.8681 164.256 11.8089L163.333 11.6065C162.824 11.4905 162.447 11.3059 162.203 11.0526C161.962 10.7992 161.841 10.4785 161.841 10.0902C161.841 9.76823 161.931 9.48651 162.111 9.24503C162.291 9.00355 162.539 8.81534 162.857 8.6804C163.174 8.54309 163.537 8.47443 163.947 8.47443C164.536 8.47443 165 8.60227 165.339 8.85795C165.677 9.11127 165.901 9.45099 166.01 9.87713Z" fill="white"/>
<path d="M68.8438 43.0682V31.5455H71.1364V43.0682H68.8438ZM64.233 38.4489V36.1648H75.7557V38.4489H64.233ZM78.9602 46V44.0909L84.8665 37.9716C85.4972 37.3068 86.017 36.7244 86.4261 36.2244C86.8409 35.7187 87.1506 35.2386 87.3551 34.7841C87.5597 34.3295 87.6619 33.8466 87.6619 33.3352C87.6619 32.7557 87.5256 32.2557 87.2528 31.8352C86.9801 31.4091 86.608 31.0824 86.1364 30.8551C85.6648 30.6222 85.1335 30.5057 84.5426 30.5057C83.9176 30.5057 83.3722 30.6335 82.9062 30.8892C82.4403 31.1449 82.0824 31.5057 81.8324 31.9716C81.5824 32.4375 81.4574 32.983 81.4574 33.608H78.9432C78.9432 32.5455 79.1875 31.6165 79.6761 30.821C80.1648 30.0256 80.8352 29.4091 81.6875 28.9716C82.5398 28.5284 83.5085 28.3068 84.5938 28.3068C85.6903 28.3068 86.6563 28.5256 87.4915 28.9631C88.3324 29.3949 88.9886 29.9858 89.4602 30.7358C89.9318 31.4801 90.1676 32.321 90.1676 33.2585C90.1676 33.9062 90.0455 34.5398 89.8011 35.1591C89.5625 35.7784 89.1449 36.4687 88.5483 37.2301C87.9517 37.9858 87.1222 38.9034 86.0597 39.983L82.5909 43.6136V43.7415H90.4489V46H78.9602ZM99.5767 46.2386C98.3551 46.2386 97.2756 46.0284 96.3381 45.608C95.4063 45.1875 94.6761 44.608 94.1477 43.8693C93.6193 43.1307 93.358 42.2898 93.3636 41.3466C93.358 40.608 93.5085 39.929 93.8153 39.3097C94.1278 38.6847 94.5511 38.1648 95.0852 37.75C95.6193 37.3295 96.2159 37.0625 96.875 36.9489V36.8466C96.0057 36.6364 95.3097 36.1705 94.7869 35.4489C94.2642 34.7273 94.0057 33.8977 94.0114 32.9602C94.0057 32.0682 94.2415 31.2727 94.7188 30.5739C95.2017 29.8693 95.8636 29.3153 96.7045 28.9119C97.5455 28.5085 98.5028 28.3068 99.5767 28.3068C100.639 28.3068 101.588 28.5114 102.423 28.9205C103.264 29.3239 103.926 29.8778 104.409 30.5824C104.892 31.2812 105.136 32.0739 105.142 32.9602C105.136 33.8977 104.869 34.7273 104.341 35.4489C103.813 36.1705 103.125 36.6364 102.278 36.8466V36.9489C102.932 37.0625 103.52 37.3295 104.043 37.75C104.571 38.1648 104.991 38.6847 105.304 39.3097C105.622 39.929 105.784 40.608 105.79 41.3466C105.784 42.2898 105.517 43.1307 104.989 43.8693C104.46 44.608 103.727 45.1875 102.79 45.608C101.858 46.0284 100.787 46.2386 99.5767 46.2386ZM99.5767 44.0824C100.298 44.0824 100.923 43.9631 101.452 43.7244C101.98 43.4801 102.389 43.142 102.679 42.7102C102.969 42.2727 103.116 41.7614 103.122 41.1761C103.116 40.5682 102.957 40.0312 102.645 39.5653C102.338 39.0994 101.92 38.733 101.392 38.4659C100.864 38.1989 100.259 38.0653 99.5767 38.0653C98.8892 38.0653 98.2784 38.1989 97.7443 38.4659C97.2102 38.733 96.7898 39.0994 96.483 39.5653C96.1761 40.0312 96.0256 40.5682 96.0312 41.1761C96.0256 41.7614 96.1648 42.2727 96.4489 42.7102C96.7386 43.142 97.1506 43.4801 97.6847 43.7244C98.2188 43.9631 98.8494 44.0824 99.5767 44.0824ZM99.5767 35.9602C100.156 35.9602 100.67 35.8437 101.119 35.6108C101.568 35.3778 101.92 35.054 102.176 34.6392C102.438 34.2244 102.571 33.7386 102.577 33.1818C102.571 32.6364 102.44 32.1591 102.185 31.75C101.935 31.3409 101.585 31.0256 101.136 30.804C100.688 30.5767 100.168 30.4631 99.5767 30.4631C98.9744 30.4631 98.446 30.5767 97.9915 30.804C97.5426 31.0256 97.1932 31.3409 96.9432 31.75C96.6932 32.1591 96.571 32.6364 96.5767 33.1818C96.571 33.7386 96.696 34.2244 96.9517 34.6392C97.2074 35.054 97.5597 35.3778 98.0085 35.6108C98.4631 35.8437 98.9858 35.9602 99.5767 35.9602ZM114.937 46.2386C114.158 46.2273 113.391 46.0852 112.636 45.8125C111.886 45.5398 111.204 45.0852 110.59 44.4489C109.977 43.8125 109.485 42.9574 109.116 41.8835C108.752 40.8097 108.57 39.4687 108.57 37.8608C108.57 36.3381 108.721 34.9858 109.022 33.804C109.329 32.6222 109.769 31.625 110.343 30.8125C110.917 29.9943 111.61 29.3722 112.423 28.946C113.235 28.5199 114.147 28.3068 115.158 28.3068C116.198 28.3068 117.121 28.5114 117.928 28.9205C118.735 29.3295 119.388 29.8949 119.888 30.6165C120.394 31.3381 120.715 32.1591 120.852 33.0795H118.252C118.076 32.3523 117.727 31.7585 117.204 31.2983C116.681 30.8381 115.999 30.608 115.158 30.608C113.88 30.608 112.883 31.1648 112.167 32.2784C111.457 33.392 111.099 34.9403 111.093 36.9233H111.221C111.522 36.429 111.891 36.0085 112.329 35.6619C112.772 35.3097 113.266 35.0398 113.812 34.8523C114.363 34.6591 114.942 34.5625 115.55 34.5625C116.562 34.5625 117.477 34.8097 118.295 35.304C119.119 35.7926 119.775 36.4687 120.263 37.3324C120.752 38.196 120.996 39.1847 120.996 40.2983C120.996 41.4119 120.744 42.4205 120.238 43.3239C119.738 44.2273 119.033 44.9432 118.124 45.4716C117.215 45.9943 116.153 46.25 114.937 46.2386ZM114.928 44.0227C115.599 44.0227 116.198 43.858 116.727 43.5284C117.255 43.1989 117.673 42.7557 117.979 42.1989C118.286 41.642 118.44 41.0199 118.44 40.3324C118.44 39.6619 118.289 39.0511 117.988 38.5C117.692 37.9489 117.283 37.5114 116.761 37.1875C116.244 36.8636 115.653 36.7017 114.988 36.7017C114.482 36.7017 114.013 36.7983 113.582 36.9915C113.156 37.1847 112.781 37.4517 112.457 37.7926C112.133 38.1335 111.877 38.5256 111.69 38.9688C111.508 39.4062 111.417 39.8693 111.417 40.358C111.417 41.0114 111.567 41.6165 111.869 42.1733C112.175 42.7301 112.593 43.179 113.121 43.5199C113.656 43.8551 114.258 44.0227 114.928 44.0227Z" fill="white"/>
</g>
<defs>
<linearGradient id="paint0_linear_1_15" x1="90.3854" y1="-22.5" x2="90.3854" y2="174.228" gradientUnits="userSpaceOnUse">
<stop stop-color="#FF8F20"/>
<stop offset="1" stop-color="#FF8F20" stop-opacity="0"/>
</linearGradient>
<clipPath id="clip0_1_15">
<rect width="181" height="175" fill="white"/>
</clipPath>
</defs>
</svg>
