<svg width="104" height="16" viewBox="0 0 104 16" fill="none" xmlns="http://www.w3.org/2000/svg">
<g clip-path="url(#clip0_791_4749)">
<path d="M15.9583 6.13748C15.8536 5.81349 15.5662 5.58339 15.2262 5.55275L10.6082 5.13342L8.78208 0.859266C8.64744 0.546026 8.34079 0.343262 8.00008 0.343262C7.65938 0.343262 7.35273 0.546026 7.21808 0.859999L5.39198 5.13342L0.773211 5.55275C0.433847 5.58412 0.147219 5.81349 0.0418692 6.13748C-0.0634802 6.46146 0.0338123 6.81682 0.290533 7.04082L3.78122 10.1022L2.7519 14.6364C2.67658 14.9697 2.80598 15.3143 3.0826 15.5143C3.23128 15.6217 3.40524 15.6764 3.58066 15.6764C3.73191 15.6764 3.88193 15.6356 4.01658 15.5551L8.00008 13.1743L11.9821 15.5551C12.2735 15.7304 12.6408 15.7144 12.9168 15.5143C13.1936 15.3137 13.3229 14.969 13.2475 14.6364L12.2182 10.1022L15.7089 7.04143C15.9656 6.81682 16.0636 6.46207 15.9583 6.13748Z" fill="#FF8707"/>
</g>
<g clip-path="url(#clip1_791_4749)">
<path d="M37.9583 6.13748C37.8536 5.81349 37.5662 5.58339 37.2262 5.55275L32.6082 5.13342L30.7821 0.859266C30.6474 0.546026 30.3408 0.343262 30.0001 0.343262C29.6594 0.343262 29.3527 0.546026 29.2181 0.859999L27.392 5.13342L22.7732 5.55275C22.4338 5.58412 22.1472 5.81349 22.0419 6.13748C21.9365 6.46146 22.0338 6.81682 22.2905 7.04082L25.7812 10.1022L24.7519 14.6364C24.6766 14.9697 24.806 15.3143 25.0826 15.5143C25.2313 15.6217 25.4052 15.6764 25.5807 15.6764C25.7319 15.6764 25.8819 15.6356 26.0166 15.5551L30.0001 13.1743L33.9821 15.5551C34.2735 15.7304 34.6408 15.7144 34.9168 15.5143C35.1936 15.3137 35.3229 14.969 35.2475 14.6364L34.2182 10.1022L37.7089 7.04143C37.9656 6.81682 38.0636 6.46207 37.9583 6.13748Z" fill="#FF8707"/>
</g>
<g clip-path="url(#clip2_791_4749)">
<path d="M59.9583 6.13748C59.8536 5.81349 59.5662 5.58339 59.2262 5.55275L54.6082 5.13342L52.7821 0.859266C52.6474 0.546026 52.3408 0.343262 52.0001 0.343262C51.6594 0.343262 51.3527 0.546026 51.2181 0.859999L49.392 5.13342L44.7732 5.55275C44.4338 5.58412 44.1472 5.81349 44.0419 6.13748C43.9365 6.46146 44.0338 6.81682 44.2905 7.04082L47.7812 10.1022L46.7519 14.6364C46.6766 14.9697 46.806 15.3143 47.0826 15.5143C47.2313 15.6217 47.4052 15.6764 47.5807 15.6764C47.7319 15.6764 47.8819 15.6356 48.0166 15.5551L52.0001 13.1743L55.9821 15.5551C56.2735 15.7304 56.6408 15.7144 56.9168 15.5143C57.1936 15.3137 57.3229 14.969 57.2475 14.6364L56.2182 10.1022L59.7089 7.04143C59.9656 6.81682 60.0636 6.46207 59.9583 6.13748Z" fill="#FF8707"/>
</g>
<g clip-path="url(#clip3_791_4749)">
<path d="M81.9583 6.13748C81.8536 5.81349 81.5662 5.58339 81.2262 5.55275L76.6082 5.13342L74.7821 0.859266C74.6474 0.546026 74.3408 0.343262 74.0001 0.343262C73.6594 0.343262 73.3527 0.546026 73.2181 0.859999L71.392 5.13342L66.7732 5.55275C66.4338 5.58412 66.1472 5.81349 66.0419 6.13748C65.9365 6.46146 66.0338 6.81682 66.2905 7.04082L69.7812 10.1022L68.7519 14.6364C68.6766 14.9697 68.806 15.3143 69.0826 15.5143C69.2313 15.6217 69.4052 15.6764 69.5807 15.6764C69.7319 15.6764 69.8819 15.6356 70.0166 15.5551L74.0001 13.1743L77.9821 15.5551C78.2735 15.7304 78.6408 15.7144 78.9168 15.5143C79.1936 15.3137 79.3229 14.969 79.2475 14.6364L78.2182 10.1022L81.7089 7.04143C81.9656 6.81682 82.0636 6.46207 81.9583 6.13748Z" fill="#FF8707"/>
</g>
<g clip-path="url(#clip4_791_4749)">
<path d="M103.958 6.13748C103.854 5.81349 103.566 5.58339 103.226 5.55275L98.6082 5.13342L96.7821 0.859266C96.6474 0.546026 96.3408 0.343262 96.0001 0.343262C95.6594 0.343262 95.3527 0.546026 95.2181 0.859999L93.392 5.13342L88.7732 5.55275C88.4338 5.58412 88.1472 5.81349 88.0419 6.13748C87.9365 6.46146 88.0338 6.81682 88.2905 7.04082L91.7812 10.1022L90.7519 14.6364C90.6766 14.9697 90.806 15.3143 91.0826 15.5143C91.2313 15.6217 91.4052 15.6764 91.5807 15.6764C91.7319 15.6764 91.8819 15.6356 92.0166 15.5551L96.0001 13.1743L99.9821 15.5551C100.274 15.7304 100.641 15.7144 100.917 15.5143C101.194 15.3137 101.323 14.969 101.248 14.6364L100.218 10.1022L103.709 7.04143C103.966 6.81682 104.064 6.46207 103.958 6.13748Z" fill="#FF8707"/>
</g>
<defs>
<clipPath id="clip0_791_4749">
<rect width="16" height="16" fill="white"/>
</clipPath>
<clipPath id="clip1_791_4749">
<rect width="16" height="16" fill="white" transform="translate(22)"/>
</clipPath>
<clipPath id="clip2_791_4749">
<rect width="16" height="16" fill="white" transform="translate(44)"/>
</clipPath>
<clipPath id="clip3_791_4749">
<rect width="16" height="16" fill="white" transform="translate(66)"/>
</clipPath>
<clipPath id="clip4_791_4749">
<rect width="16" height="16" fill="white" transform="translate(88)"/>
</clipPath>
</defs>
</svg>
