<svg width="15" height="14" viewBox="0 0 15 14" fill="none" xmlns="http://www.w3.org/2000/svg">
<rect x="0.666748" width="14" height="14" rx="7" fill="#FEFEFF" fill-opacity="0.08"/>
<g clip-path="url(#clip0_865_4800)">
<path d="M8.03321 7.0039L9.59073 5.44633C9.69209 5.34501 9.69209 5.1812 9.59073 5.07989C9.48942 4.97858 9.32561 4.97858 9.22429 5.07989L7.66673 6.63746L6.10921 5.07989C6.00784 4.97858 5.84408 4.97858 5.74277 5.07989C5.64141 5.1812 5.64141 5.34501 5.74277 5.44633L7.30029 7.0039L5.74277 8.56146C5.64141 8.66278 5.64141 8.82659 5.74277 8.9279C5.79326 8.97844 5.85965 9.00383 5.92599 9.00383C5.99233 9.00383 6.05867 8.97844 6.10921 8.9279L7.66673 7.37033L9.22429 8.9279C9.27483 8.97844 9.34117 9.00383 9.40751 9.00383C9.47385 9.00383 9.54019 8.97844 9.59073 8.9279C9.69209 8.82659 9.69209 8.66278 9.59073 8.56146L8.03321 7.0039Z" fill="white"/>
</g>
<defs>
<clipPath id="clip0_865_4800">
<rect width="4" height="4" fill="white" transform="translate(5.66675 5)"/>
</clipPath>
</defs>
</svg>
