<svg width="15" height="14" viewBox="0 0 15 14" fill="none" xmlns="http://www.w3.org/2000/svg">
<rect x="0.666748" width="14" height="14" rx="7" fill="#FF8F20"/>
<path fill-rule="evenodd" clip-rule="evenodd" d="M10.3495 5.11712C10.4245 5.19213 10.4666 5.29385 10.4666 5.39992C10.4666 5.50598 10.4245 5.6077 10.3495 5.68272L7.14947 8.88272C7.07446 8.95772 6.97273 8.99984 6.86667 8.99984C6.7606 8.99984 6.65888 8.95772 6.58387 8.88272L4.98387 7.28272C4.91101 7.20728 4.87069 7.10624 4.8716 7.00136C4.87251 6.89648 4.91458 6.79615 4.98874 6.72199C5.06291 6.64782 5.16323 6.60576 5.26811 6.60485C5.37299 6.60394 5.47403 6.64425 5.54947 6.71712L6.86667 8.03432L9.78386 5.11712C9.85886 5.04213 9.96062 5 10.0667 5C10.1727 5 10.2745 5.04213 10.3495 5.11712Z" fill="white"/>
</svg>
