<svg width="382" height="407" viewBox="0 0 382 407" fill="none" xmlns="http://www.w3.org/2000/svg">
<path d="M34.7815 277.21C34.7748 277.223 34.7748 277.237 34.7815 277.25C34.7881 277.257 34.7981 277.26 34.8115 277.26H37.8215C37.8881 277.26 37.9215 277.293 37.9215 277.36V277.99C37.9215 278.057 37.8881 278.09 37.8215 278.09H33.6315C33.5648 278.09 33.5315 278.057 33.5315 277.99V277.38C33.5315 277.333 33.5481 277.293 33.5815 277.26C33.8081 277 34.3281 276.39 35.1415 275.43L35.8315 274.6C36.4515 273.86 36.7615 273.287 36.7615 272.88C36.7615 272.567 36.6548 272.317 36.4415 272.13C36.2348 271.937 35.9581 271.84 35.6115 271.84C35.2648 271.84 34.9881 271.937 34.7815 272.13C34.5748 272.323 34.4748 272.577 34.4815 272.89V273.19C34.4815 273.257 34.4481 273.29 34.3815 273.29H33.6115C33.5448 273.29 33.5115 273.257 33.5115 273.19V272.76C33.5248 272.413 33.6215 272.107 33.8015 271.84C33.9881 271.573 34.2381 271.37 34.5515 271.23C34.8648 271.083 35.2181 271.01 35.6115 271.01C36.0381 271.01 36.4115 271.09 36.7315 271.25C37.0515 271.41 37.2981 271.63 37.4715 271.91C37.6448 272.19 37.7315 272.507 37.7315 272.86C37.7315 273.413 37.4315 274.067 36.8315 274.82C36.5648 275.16 36.2481 275.543 35.8815 275.97C35.5148 276.39 35.1481 276.803 34.7815 277.21ZM41.2509 278.19C40.5776 278.19 40.0409 278 39.6409 277.62C39.2476 277.233 39.0509 276.717 39.0509 276.07V273.11C39.0509 272.463 39.2476 271.95 39.6409 271.57C40.0409 271.19 40.5776 271 41.2509 271C41.9242 271 42.4609 271.19 42.8609 271.57C43.2676 271.95 43.4709 272.463 43.4709 273.11V276.07C43.4709 276.717 43.2676 277.233 42.8609 277.62C42.4609 278 41.9242 278.19 41.2509 278.19ZM41.2509 277.36C41.6376 277.36 41.9442 277.25 42.1709 277.03C42.3976 276.803 42.5109 276.503 42.5109 276.13V273.07C42.5109 272.697 42.3976 272.4 42.1709 272.18C41.9442 271.953 41.6376 271.84 41.2509 271.84C40.8776 271.84 40.5776 271.953 40.3509 272.18C40.1242 272.4 40.0109 272.697 40.0109 273.07V276.13C40.0109 276.503 40.1242 276.803 40.3509 277.03C40.5776 277.25 40.8776 277.36 41.2509 277.36Z" fill="white"/>
<path d="M42.6816 328.355C42.0082 328.355 41.4716 328.165 41.0716 327.785C40.6782 327.398 40.4816 326.882 40.4816 326.235V323.275C40.4816 322.628 40.6782 322.115 41.0716 321.735C41.4716 321.355 42.0082 321.165 42.6816 321.165C43.3549 321.165 43.8916 321.355 44.2916 321.735C44.6982 322.115 44.9016 322.628 44.9016 323.275V326.235C44.9016 326.882 44.6982 327.398 44.2916 327.785C43.8916 328.165 43.3549 328.355 42.6816 328.355ZM42.6816 327.525C43.0682 327.525 43.3749 327.415 43.6016 327.195C43.8282 326.968 43.9416 326.668 43.9416 326.295V323.235C43.9416 322.862 43.8282 322.565 43.6016 322.345C43.3749 322.118 43.0682 322.005 42.6816 322.005C42.3082 322.005 42.0082 322.118 41.7816 322.345C41.5549 322.565 41.4416 322.862 41.4416 323.235V326.295C41.4416 326.668 41.5549 326.968 41.7816 327.195C42.0082 327.415 42.3082 327.525 42.6816 327.525Z" fill="white"/>
<path d="M37.1728 228.024C37.2395 228.024 37.2728 228.057 37.2728 228.124V228.784C37.2728 228.85 37.2395 228.884 37.1728 228.884H36.7428C36.7161 228.884 36.7028 228.897 36.7028 228.924V230.664C36.7028 230.73 36.6695 230.764 36.6028 230.764H35.8428C35.7761 230.764 35.7428 230.73 35.7428 230.664V228.924C35.7428 228.897 35.7295 228.884 35.7028 228.884H32.6628C32.5961 228.884 32.5628 228.85 32.5628 228.784V228.244C32.5628 228.21 32.5728 228.17 32.5928 228.124L34.5628 223.834C34.5828 223.787 34.6195 223.764 34.6728 223.764H35.4728C35.5061 223.764 35.5295 223.777 35.5428 223.804C35.5628 223.824 35.5661 223.85 35.5528 223.884L33.6728 227.974C33.6661 227.987 33.6661 228 33.6728 228.014C33.6795 228.02 33.6895 228.024 33.7028 228.024H35.7028C35.7295 228.024 35.7428 228.01 35.7428 227.984V226.494C35.7428 226.427 35.7761 226.394 35.8428 226.394H36.6028C36.6695 226.394 36.7028 226.427 36.7028 226.494V227.984C36.7028 228.01 36.7161 228.024 36.7428 228.024H37.1728ZM40.6559 230.864C39.9826 230.864 39.4459 230.674 39.0459 230.294C38.6526 229.907 38.4559 229.39 38.4559 228.744V225.784C38.4559 225.137 38.6526 224.624 39.0459 224.244C39.4459 223.864 39.9826 223.674 40.6559 223.674C41.3293 223.674 41.8659 223.864 42.2659 224.244C42.6726 224.624 42.8759 225.137 42.8759 225.784V228.744C42.8759 229.39 42.6726 229.907 42.2659 230.294C41.8659 230.674 41.3293 230.864 40.6559 230.864ZM40.6559 230.034C41.0426 230.034 41.3493 229.924 41.5759 229.704C41.8026 229.477 41.9159 229.177 41.9159 228.804V225.744C41.9159 225.37 41.8026 225.074 41.5759 224.854C41.3493 224.627 41.0426 224.514 40.6559 224.514C40.2826 224.514 39.9826 224.627 39.7559 224.854C39.5293 225.074 39.4159 225.37 39.4159 225.744V228.804C39.4159 229.177 39.5293 229.477 39.7559 229.704C39.9826 229.924 40.2826 230.034 40.6559 230.034Z" fill="white"/>
<path d="M36.6428 179.042C36.8295 179.396 36.9228 179.819 36.9228 180.312C36.9228 180.719 36.8561 181.076 36.7228 181.382C36.5695 181.762 36.3295 182.056 36.0028 182.262C35.6828 182.462 35.2928 182.562 34.8328 182.562C34.3395 182.562 33.9195 182.449 33.5728 182.222C33.2328 181.996 32.9928 181.676 32.8528 181.262C32.7528 180.982 32.7028 180.659 32.7028 180.292V177.212C32.7028 176.666 32.8928 176.229 33.2728 175.902C33.6528 175.576 34.1495 175.412 34.7628 175.412C35.1561 175.412 35.5028 175.486 35.8028 175.632C36.1095 175.779 36.3461 175.986 36.5128 176.252C36.6795 176.512 36.7628 176.812 36.7628 177.152V177.352C36.7628 177.419 36.7295 177.452 36.6628 177.452H35.9028C35.8361 177.452 35.8028 177.419 35.8028 177.352V177.262C35.8028 176.962 35.7061 176.719 35.5128 176.532C35.3195 176.346 35.0695 176.252 34.7628 176.252C34.4361 176.252 34.1695 176.349 33.9628 176.542C33.7628 176.736 33.6628 176.992 33.6628 177.312V178.572C33.6628 178.586 33.6661 178.596 33.6728 178.602C33.6861 178.602 33.6995 178.596 33.7128 178.582C33.9995 178.262 34.4161 178.102 34.9628 178.102C35.7495 178.102 36.3095 178.416 36.6428 179.042ZM35.8128 181.082C35.9128 180.869 35.9628 180.612 35.9628 180.312C35.9628 179.972 35.9028 179.699 35.7828 179.492C35.5895 179.106 35.2628 178.912 34.8028 178.912C34.5695 178.912 34.3695 178.966 34.2028 179.072C34.0361 179.172 33.9095 179.319 33.8228 179.512C33.7161 179.732 33.6628 180.016 33.6628 180.362C33.6628 180.642 33.7061 180.879 33.7928 181.072C33.8795 181.286 34.0095 181.449 34.1828 181.562C34.3561 181.669 34.5661 181.722 34.8128 181.722C35.2995 181.722 35.6328 181.509 35.8128 181.082ZM40.1872 182.592C39.5139 182.592 38.9772 182.402 38.5772 182.022C38.1839 181.636 37.9872 181.119 37.9872 180.472V177.512C37.9872 176.866 38.1839 176.352 38.5772 175.972C38.9772 175.592 39.5139 175.402 40.1872 175.402C40.8605 175.402 41.3972 175.592 41.7972 175.972C42.2039 176.352 42.4072 176.866 42.4072 177.512V180.472C42.4072 181.119 42.2039 181.636 41.7972 182.022C41.3972 182.402 40.8605 182.592 40.1872 182.592ZM40.1872 181.762C40.5739 181.762 40.8805 181.652 41.1072 181.432C41.3339 181.206 41.4472 180.906 41.4472 180.532V177.472C41.4472 177.099 41.3339 176.802 41.1072 176.582C40.8805 176.356 40.5739 176.242 40.1872 176.242C39.8139 176.242 39.5139 176.356 39.2872 176.582C39.0605 176.802 38.9472 177.099 38.9472 177.472V180.532C38.9472 180.906 39.0605 181.206 39.2872 181.432C39.5139 181.652 39.8139 181.762 40.1872 181.762Z" fill="white"/>
<path d="M36.6728 131.23C36.8128 131.51 36.8828 131.843 36.8828 132.23C36.8828 132.656 36.7895 133.03 36.6028 133.35C36.4428 133.65 36.2028 133.883 35.8828 134.05C35.5695 134.216 35.1995 134.3 34.7728 134.3C34.3461 134.3 33.9695 134.216 33.6428 134.05C33.3161 133.876 33.0695 133.63 32.9028 133.31C32.7228 132.996 32.6328 132.633 32.6328 132.22C32.6328 131.853 32.7061 131.516 32.8528 131.21C32.9995 130.903 33.2161 130.673 33.5028 130.52C33.5361 130.506 33.5361 130.49 33.5028 130.47C33.2895 130.31 33.1295 130.143 33.0228 129.97C32.8361 129.69 32.7428 129.37 32.7428 129.01C32.7428 128.616 32.8561 128.256 33.0828 127.93C33.2495 127.676 33.4795 127.476 33.7728 127.33C34.0728 127.183 34.4061 127.11 34.7728 127.11C35.1461 127.11 35.4761 127.183 35.7628 127.33C36.0495 127.476 36.2761 127.676 36.4428 127.93C36.6628 128.256 36.7728 128.616 36.7728 129.01C36.7728 129.37 36.6795 129.696 36.4928 129.99C36.3728 130.176 36.2161 130.336 36.0228 130.47C35.9895 130.49 35.9895 130.506 36.0228 130.52C36.3028 130.673 36.5195 130.91 36.6728 131.23ZM33.8328 128.5C33.7395 128.673 33.6928 128.843 33.6928 129.01C33.6928 129.276 33.7561 129.5 33.8828 129.68C34.0628 129.98 34.3561 130.13 34.7628 130.13C35.1628 130.13 35.4595 129.976 35.6528 129.67C35.7661 129.51 35.8228 129.286 35.8228 129C35.8228 128.813 35.7795 128.643 35.6928 128.49C35.6061 128.323 35.4828 128.19 35.3228 128.09C35.1628 127.99 34.9728 127.94 34.7528 127.94C34.5461 127.94 34.3628 127.99 34.2028 128.09C34.0428 128.19 33.9195 128.326 33.8328 128.5ZM35.6828 133.01C35.8361 132.796 35.9128 132.51 35.9128 132.15C35.9128 131.83 35.8561 131.566 35.7428 131.36C35.5561 131.013 35.2295 130.84 34.7628 130.84C34.3095 130.84 33.9895 131.003 33.8028 131.33C33.6761 131.543 33.6128 131.82 33.6128 132.16C33.6128 132.493 33.6828 132.766 33.8228 132.98C34.0161 133.3 34.3328 133.46 34.7728 133.46C35.1861 133.46 35.4895 133.31 35.6828 133.01ZM40.2263 134.32C39.5529 134.32 39.0163 134.13 38.6163 133.75C38.2229 133.363 38.0263 132.846 38.0263 132.2V129.24C38.0263 128.593 38.2229 128.08 38.6163 127.7C39.0163 127.32 39.5529 127.13 40.2263 127.13C40.8996 127.13 41.4363 127.32 41.8363 127.7C42.2429 128.08 42.4463 128.593 42.4463 129.24V132.2C42.4463 132.846 42.2429 133.363 41.8363 133.75C41.4363 134.13 40.8996 134.32 40.2263 134.32ZM40.2263 133.49C40.6129 133.49 40.9196 133.38 41.1463 133.16C41.3729 132.933 41.4863 132.633 41.4863 132.26V129.2C41.4863 128.826 41.3729 128.53 41.1463 128.31C40.9196 128.083 40.6129 127.97 40.2263 127.97C39.8529 127.97 39.5529 128.083 39.3263 128.31C39.0996 128.53 38.9863 128.826 38.9863 129.2V132.26C38.9863 132.633 39.0996 132.933 39.3263 133.16C39.5529 133.38 39.8529 133.49 40.2263 133.49Z" fill="white"/>
<path d="M63.61 357.08C63.1367 357.08 62.72 356.99 62.36 356.81C62.0067 356.63 61.7333 356.377 61.54 356.05C61.3467 355.723 61.25 355.347 61.25 354.92V354.21C61.25 354.143 61.2833 354.11 61.35 354.11H62.11C62.1767 354.11 62.21 354.143 62.21 354.21V354.92C62.21 355.32 62.3367 355.643 62.59 355.89C62.8433 356.13 63.1833 356.25 63.61 356.25C64.0233 356.25 64.36 356.13 64.62 355.89C64.88 355.643 65.01 355.32 65.01 354.92V350.1C65.01 350.033 65.0433 350 65.11 350H65.87C65.9367 350 65.97 350.033 65.97 350.1V354.92C65.97 355.347 65.87 355.723 65.67 356.05C65.4767 356.377 65.2 356.63 64.84 356.81C64.48 356.99 64.07 357.08 63.61 357.08ZM69.351 351.83C69.7577 351.83 70.111 351.903 70.411 352.05C70.7177 352.19 70.951 352.39 71.111 352.65C71.2777 352.903 71.361 353.193 71.361 353.52V356.9C71.361 356.967 71.3277 357 71.261 357H70.501C70.4343 357 70.401 356.967 70.401 356.9V356.54C70.401 356.507 70.3843 356.5 70.351 356.52C70.1777 356.7 69.9643 356.84 69.711 356.94C69.4643 357.033 69.1877 357.08 68.881 357.08C68.3877 357.08 67.9777 356.957 67.651 356.71C67.331 356.457 67.171 356.077 67.171 355.57C67.171 355.05 67.351 354.643 67.711 354.35C68.0777 354.05 68.5877 353.9 69.241 353.9H70.361C70.3877 353.9 70.401 353.887 70.401 353.86V353.59C70.401 353.297 70.3143 353.07 70.141 352.91C69.9743 352.743 69.7177 352.66 69.371 352.66C69.091 352.66 68.861 352.717 68.681 352.83C68.5077 352.937 68.401 353.083 68.361 353.27C68.341 353.337 68.301 353.367 68.241 353.36L67.431 353.25C67.3643 353.237 67.3343 353.21 67.341 353.17C67.3943 352.777 67.6043 352.457 67.971 352.21C68.3377 351.957 68.7977 351.83 69.351 351.83ZM69.091 356.27C69.4443 356.27 69.751 356.177 70.011 355.99C70.271 355.803 70.401 355.567 70.401 355.28V354.69C70.401 354.663 70.3877 354.65 70.361 354.65H69.421C69.0277 354.65 68.7143 354.727 68.481 354.88C68.2477 355.033 68.131 355.247 68.131 355.52C68.131 355.767 68.2177 355.953 68.391 356.08C68.571 356.207 68.8043 356.27 69.091 356.27ZM74.927 351.84C75.4737 351.84 75.907 352 76.227 352.32C76.547 352.633 76.707 353.06 76.707 353.6V356.9C76.707 356.967 76.6737 357 76.607 357H75.847C75.7804 357 75.747 356.967 75.747 356.9V353.79C75.747 353.457 75.6504 353.187 75.457 352.98C75.2637 352.773 75.007 352.67 74.687 352.67C74.3737 352.67 74.117 352.773 73.917 352.98C73.717 353.187 73.617 353.453 73.617 353.78V356.9C73.617 356.967 73.5837 357 73.517 357H72.757C72.6904 357 72.657 356.967 72.657 356.9V352.01C72.657 351.943 72.6904 351.91 72.757 351.91H73.517C73.5837 351.91 73.617 351.943 73.617 352.01V352.37C73.617 352.383 73.6204 352.393 73.627 352.4C73.6404 352.407 73.6504 352.403 73.657 352.39C73.9437 352.023 74.367 351.84 74.927 351.84Z" fill="white"/>
<path d="M104.699 350.73C104.699 350.797 104.665 350.83 104.599 350.83H101.059C101.032 350.83 101.019 350.843 101.019 350.87V353.02C101.019 353.047 101.032 353.06 101.059 353.06H103.489C103.555 353.06 103.589 353.093 103.589 353.16V353.79C103.589 353.857 103.555 353.89 103.489 353.89H101.059C101.032 353.89 101.019 353.903 101.019 353.93V356.9C101.019 356.967 100.985 357 100.919 357H100.159C100.092 357 100.059 356.967 100.059 356.9V350.1C100.059 350.033 100.092 350 100.159 350H104.599C104.665 350 104.699 350.033 104.699 350.1V350.73ZM109.244 353.82C109.271 354.093 109.281 354.4 109.274 354.74C109.274 354.807 109.241 354.84 109.174 354.84H105.984C105.958 354.84 105.944 354.853 105.944 354.88C105.944 355.107 105.964 355.28 106.004 355.4C106.078 355.667 106.224 355.877 106.444 356.03C106.671 356.177 106.954 356.25 107.294 356.25C107.788 356.25 108.168 356.047 108.434 355.64C108.468 355.573 108.511 355.563 108.564 355.61L109.134 355.99C109.181 356.03 109.191 356.073 109.164 356.12C108.978 356.42 108.711 356.657 108.364 356.83C108.024 357.003 107.638 357.09 107.204 357.09C106.718 357.09 106.308 356.983 105.974 356.77C105.641 356.557 105.391 356.253 105.224 355.86C105.064 355.467 104.984 354.99 104.984 354.43C104.984 353.943 105.021 353.573 105.094 353.32C105.214 352.86 105.454 352.497 105.814 352.23C106.174 351.963 106.611 351.83 107.124 351.83C107.798 351.83 108.301 352 108.634 352.34C108.968 352.673 109.171 353.167 109.244 353.82ZM107.124 352.66C106.838 352.66 106.601 352.733 106.414 352.88C106.228 353.02 106.101 353.21 106.034 353.45C105.988 353.597 105.958 353.783 105.944 354.01C105.944 354.037 105.958 354.05 105.984 354.05H108.274C108.301 354.05 108.314 354.037 108.314 354.01C108.301 353.79 108.281 353.627 108.254 353.52C108.188 353.26 108.054 353.053 107.854 352.9C107.661 352.74 107.418 352.66 107.124 352.66ZM114.596 353.23C114.702 353.57 114.756 353.973 114.756 354.44C114.756 354.94 114.692 355.367 114.566 355.72C114.419 356.153 114.186 356.49 113.866 356.73C113.552 356.963 113.156 357.08 112.676 357.08C112.442 357.08 112.226 357.033 112.026 356.94C111.826 356.847 111.652 356.717 111.506 356.55C111.492 356.537 111.479 356.533 111.466 356.54C111.459 356.547 111.456 356.557 111.456 356.57V356.9C111.456 356.967 111.422 357 111.356 357H110.596C110.529 357 110.496 356.967 110.496 356.9V350.1C110.496 350.033 110.529 350 110.596 350H111.356C111.422 350 111.456 350.033 111.456 350.1V352.33C111.456 352.343 111.459 352.353 111.466 352.36C111.479 352.367 111.492 352.363 111.506 352.35C111.652 352.183 111.826 352.057 112.026 351.97C112.232 351.877 112.449 351.83 112.676 351.83C113.176 351.83 113.586 351.953 113.906 352.2C114.226 352.447 114.456 352.79 114.596 353.23ZM113.536 355.7C113.702 355.387 113.786 354.973 113.786 354.46C113.786 353.913 113.679 353.473 113.466 353.14C113.272 352.82 112.976 352.66 112.576 352.66C112.202 352.66 111.919 352.83 111.726 353.17C111.552 353.477 111.466 353.903 111.466 354.45C111.466 354.997 111.546 355.417 111.706 355.71C111.906 356.07 112.199 356.25 112.586 356.25C113.026 356.25 113.342 356.067 113.536 355.7Z" fill="white"/>
<path d="M142.828 350.06C142.861 350.02 142.901 350 142.948 350H143.708C143.774 350 143.808 350.033 143.808 350.1V356.9C143.808 356.967 143.774 357 143.708 357H142.948C142.881 357 142.848 356.967 142.848 356.9V351.78C142.848 351.76 142.841 351.747 142.828 351.74C142.814 351.733 142.804 351.74 142.798 351.76L141.368 353.94C141.341 353.98 141.301 354 141.248 354H140.868C140.821 354 140.781 353.98 140.748 353.94L139.308 351.78C139.301 351.76 139.291 351.753 139.278 351.76C139.264 351.767 139.258 351.78 139.258 351.8V356.9C139.258 356.967 139.224 357 139.158 357H138.398C138.331 357 138.298 356.967 138.298 356.9V350.1C138.298 350.033 138.331 350 138.398 350H139.158C139.211 350 139.251 350.02 139.278 350.06L141.028 352.68C141.034 352.687 141.044 352.69 141.058 352.69C141.071 352.69 141.081 352.687 141.088 352.68L142.828 350.06ZM147.186 351.83C147.593 351.83 147.946 351.903 148.246 352.05C148.553 352.19 148.786 352.39 148.946 352.65C149.113 352.903 149.196 353.193 149.196 353.52V356.9C149.196 356.967 149.163 357 149.096 357H148.336C148.27 357 148.236 356.967 148.236 356.9V356.54C148.236 356.507 148.22 356.5 148.186 356.52C148.013 356.7 147.8 356.84 147.546 356.94C147.3 357.033 147.023 357.08 146.716 357.08C146.223 357.08 145.813 356.957 145.486 356.71C145.166 356.457 145.006 356.077 145.006 355.57C145.006 355.05 145.186 354.643 145.546 354.35C145.913 354.05 146.423 353.9 147.076 353.9H148.196C148.223 353.9 148.236 353.887 148.236 353.86V353.59C148.236 353.297 148.15 353.07 147.976 352.91C147.81 352.743 147.553 352.66 147.206 352.66C146.926 352.66 146.696 352.717 146.516 352.83C146.343 352.937 146.236 353.083 146.196 353.27C146.176 353.337 146.136 353.367 146.076 353.36L145.266 353.25C145.2 353.237 145.17 353.21 145.176 353.17C145.23 352.777 145.44 352.457 145.806 352.21C146.173 351.957 146.633 351.83 147.186 351.83ZM146.926 356.27C147.28 356.27 147.586 356.177 147.846 355.99C148.106 355.803 148.236 355.567 148.236 355.28V354.69C148.236 354.663 148.223 354.65 148.196 354.65H147.256C146.863 354.65 146.55 354.727 146.316 354.88C146.083 355.033 145.966 355.247 145.966 355.52C145.966 355.767 146.053 355.953 146.226 356.08C146.406 356.207 146.64 356.27 146.926 356.27ZM152.722 351.86C152.936 351.86 153.129 351.903 153.302 351.99C153.349 352.01 153.366 352.05 153.352 352.11L153.192 352.86C153.186 352.92 153.146 352.94 153.072 352.92C152.959 352.873 152.826 352.85 152.672 352.85L152.532 352.86C152.219 352.873 151.959 352.983 151.752 353.19C151.552 353.39 151.452 353.653 151.452 353.98V356.9C151.452 356.967 151.419 357 151.352 357H150.592C150.526 357 150.492 356.967 150.492 356.9V352.01C150.492 351.943 150.526 351.91 150.592 351.91H151.352C151.419 351.91 151.452 351.943 151.452 352.01V352.54C151.452 352.56 151.456 352.573 151.462 352.58C151.476 352.58 151.486 352.573 151.492 352.56C151.792 352.093 152.202 351.86 152.722 351.86ZM156.165 357.08C155.658 357.08 155.225 356.953 154.865 356.7C154.505 356.44 154.258 356.09 154.125 355.65C154.025 355.343 153.975 354.94 153.975 354.44C153.975 353.98 154.025 353.577 154.125 353.23C154.258 352.803 154.505 352.463 154.865 352.21C155.232 351.957 155.665 351.83 156.165 351.83C156.665 351.83 157.102 351.957 157.475 352.21C157.848 352.463 158.092 352.783 158.205 353.17C158.245 353.277 158.272 353.387 158.285 353.5C158.285 353.553 158.255 353.587 158.195 353.6L157.445 353.71H157.425C157.378 353.71 157.345 353.68 157.325 353.62L157.295 353.46C157.242 353.233 157.112 353.043 156.905 352.89C156.698 352.737 156.448 352.66 156.155 352.66C155.868 352.66 155.625 352.737 155.425 352.89C155.225 353.043 155.095 353.247 155.035 353.5C154.975 353.74 154.945 354.057 154.945 354.45C154.945 354.837 154.975 355.15 155.035 355.39C155.102 355.657 155.232 355.867 155.425 356.02C155.625 356.173 155.868 356.25 156.155 356.25C156.448 356.25 156.698 356.173 156.905 356.02C157.118 355.867 157.252 355.667 157.305 355.42C157.312 355.413 157.312 355.407 157.305 355.4C157.305 355.387 157.308 355.377 157.315 355.37V355.33C157.335 355.277 157.372 355.257 157.425 355.27L158.175 355.39C158.228 355.403 158.255 355.43 158.255 355.47V355.51C158.255 355.57 158.238 355.643 158.205 355.73C158.092 356.137 157.848 356.463 157.475 356.71C157.102 356.957 156.665 357.08 156.165 357.08Z" fill="white"/>
<path d="M180.787 357C180.727 357 180.687 356.973 180.667 356.92L180.307 355.75C180.3 355.73 180.287 355.72 180.267 355.72H177.457C177.437 355.72 177.423 355.73 177.417 355.75L177.057 356.92C177.037 356.973 176.997 357 176.937 357H176.127C176.053 357 176.027 356.963 176.047 356.89L178.237 350.08C178.257 350.027 178.297 350 178.357 350H179.357C179.417 350 179.457 350.027 179.477 350.08L181.687 356.89L181.697 356.93C181.697 356.977 181.667 357 181.607 357H180.787ZM177.667 354.91C177.66 354.923 177.66 354.937 177.667 354.95C177.68 354.957 177.693 354.96 177.707 354.96H180.007C180.02 354.96 180.03 354.957 180.037 354.95C180.05 354.937 180.053 354.923 180.047 354.91L178.887 351.2C178.88 351.187 178.87 351.18 178.857 351.18C178.843 351.18 178.833 351.187 178.827 351.2L177.667 354.91ZM186.845 353.19C186.972 353.55 187.035 353.977 187.035 354.47C187.035 354.937 186.982 355.34 186.875 355.68C186.735 356.127 186.505 356.473 186.185 356.72C185.865 356.96 185.455 357.08 184.955 357.08C184.729 357.08 184.512 357.037 184.305 356.95C184.105 356.857 183.932 356.727 183.785 356.56C183.772 356.547 183.759 356.543 183.745 356.55C183.739 356.557 183.735 356.567 183.735 356.58V358.81C183.735 358.877 183.702 358.91 183.635 358.91H182.875C182.809 358.91 182.775 358.877 182.775 358.81V352.01C182.775 351.943 182.809 351.91 182.875 351.91H183.635C183.702 351.91 183.735 351.943 183.735 352.01V352.34C183.735 352.353 183.739 352.363 183.745 352.37C183.759 352.377 183.772 352.373 183.785 352.36C183.932 352.193 184.105 352.063 184.305 351.97C184.505 351.877 184.722 351.83 184.955 351.83C185.435 351.83 185.832 351.95 186.145 352.19C186.465 352.423 186.699 352.757 186.845 353.19ZM185.745 355.77C185.959 355.45 186.065 355.01 186.065 354.45C186.065 353.937 185.982 353.523 185.815 353.21C185.622 352.843 185.305 352.66 184.865 352.66C184.479 352.66 184.185 352.84 183.985 353.2C183.825 353.487 183.745 353.907 183.745 354.46C183.745 355.02 183.832 355.447 184.005 355.74C184.199 356.08 184.482 356.25 184.855 356.25C185.255 356.25 185.552 356.09 185.745 355.77ZM190.522 351.86C190.735 351.86 190.928 351.903 191.102 351.99C191.148 352.01 191.165 352.05 191.152 352.11L190.992 352.86C190.985 352.92 190.945 352.94 190.872 352.92C190.758 352.873 190.625 352.85 190.472 352.85L190.332 352.86C190.018 352.873 189.758 352.983 189.552 353.19C189.352 353.39 189.252 353.653 189.252 353.98V356.9C189.252 356.967 189.218 357 189.152 357H188.392C188.325 357 188.292 356.967 188.292 356.9V352.01C188.292 351.943 188.325 351.91 188.392 351.91H189.152C189.218 351.91 189.252 351.943 189.252 352.01V352.54C189.252 352.56 189.255 352.573 189.262 352.58C189.275 352.58 189.285 352.573 189.292 352.56C189.592 352.093 190.002 351.86 190.522 351.86Z" fill="white"/>
<path d="M219.306 350.06C219.339 350.02 219.379 350 219.426 350H220.186C220.252 350 220.286 350.033 220.286 350.1V356.9C220.286 356.967 220.252 357 220.186 357H219.426C219.359 357 219.326 356.967 219.326 356.9V351.78C219.326 351.76 219.319 351.747 219.306 351.74C219.292 351.733 219.282 351.74 219.276 351.76L217.846 353.94C217.819 353.98 217.779 354 217.726 354H217.346C217.299 354 217.259 353.98 217.226 353.94L215.786 351.78C215.779 351.76 215.769 351.753 215.756 351.76C215.742 351.767 215.736 351.78 215.736 351.8V356.9C215.736 356.967 215.702 357 215.636 357H214.876C214.809 357 214.776 356.967 214.776 356.9V350.1C214.776 350.033 214.809 350 214.876 350H215.636C215.689 350 215.729 350.02 215.756 350.06L217.506 352.68C217.512 352.687 217.522 352.69 217.536 352.69C217.549 352.69 217.559 352.687 217.566 352.68L219.306 350.06ZM223.664 351.83C224.071 351.83 224.424 351.903 224.724 352.05C225.031 352.19 225.264 352.39 225.424 352.65C225.591 352.903 225.674 353.193 225.674 353.52V356.9C225.674 356.967 225.641 357 225.574 357H224.814C224.747 357 224.714 356.967 224.714 356.9V356.54C224.714 356.507 224.697 356.5 224.664 356.52C224.491 356.7 224.277 356.84 224.024 356.94C223.777 357.033 223.501 357.08 223.194 357.08C222.701 357.08 222.291 356.957 221.964 356.71C221.644 356.457 221.484 356.077 221.484 355.57C221.484 355.05 221.664 354.643 222.024 354.35C222.391 354.05 222.901 353.9 223.554 353.9H224.674C224.701 353.9 224.714 353.887 224.714 353.86V353.59C224.714 353.297 224.627 353.07 224.454 352.91C224.287 352.743 224.031 352.66 223.684 352.66C223.404 352.66 223.174 352.717 222.994 352.83C222.821 352.937 222.714 353.083 222.674 353.27C222.654 353.337 222.614 353.367 222.554 353.36L221.744 353.25C221.677 353.237 221.647 353.21 221.654 353.17C221.707 352.777 221.917 352.457 222.284 352.21C222.651 351.957 223.111 351.83 223.664 351.83ZM223.404 356.27C223.757 356.27 224.064 356.177 224.324 355.99C224.584 355.803 224.714 355.567 224.714 355.28V354.69C224.714 354.663 224.701 354.65 224.674 354.65H223.734C223.341 354.65 223.027 354.727 222.794 354.88C222.561 355.033 222.444 355.247 222.444 355.52C222.444 355.767 222.531 355.953 222.704 356.08C222.884 356.207 223.117 356.27 223.404 356.27ZM226.732 358.99C226.685 358.99 226.662 358.957 226.662 358.89V358.3C226.662 358.233 226.695 358.2 226.762 358.2H226.782C227.049 358.193 227.259 358.16 227.412 358.1C227.565 358.04 227.692 357.927 227.792 357.76C227.892 357.6 227.989 357.357 228.082 357.03C228.089 357.023 228.089 357.013 228.082 357C228.082 356.98 228.082 356.97 228.082 356.97L226.412 352.02L226.402 351.98C226.402 351.933 226.432 351.91 226.492 351.91H227.302C227.362 351.91 227.402 351.937 227.422 351.99L228.552 355.76C228.559 355.773 228.569 355.78 228.582 355.78C228.595 355.78 228.605 355.773 228.612 355.76L229.732 351.99C229.752 351.937 229.792 351.91 229.852 351.91H230.642C230.715 351.91 230.742 351.947 230.722 352.02L228.902 357.35C228.749 357.81 228.595 358.15 228.442 358.37C228.289 358.597 228.089 358.757 227.842 358.85C227.595 358.943 227.249 358.99 226.802 358.99H226.732Z" fill="white"/>
<path d="M254.804 357.08C254.331 357.08 253.914 356.99 253.554 356.81C253.201 356.63 252.928 356.377 252.734 356.05C252.541 355.723 252.444 355.347 252.444 354.92V354.21C252.444 354.143 252.478 354.11 252.544 354.11H253.304C253.371 354.11 253.404 354.143 253.404 354.21V354.92C253.404 355.32 253.531 355.643 253.784 355.89C254.038 356.13 254.378 356.25 254.804 356.25C255.218 356.25 255.554 356.13 255.814 355.89C256.074 355.643 256.204 355.32 256.204 354.92V350.1C256.204 350.033 256.238 350 256.304 350H257.064C257.131 350 257.164 350.033 257.164 350.1V354.92C257.164 355.347 257.064 355.723 256.864 356.05C256.671 356.377 256.394 356.63 256.034 356.81C255.674 356.99 255.264 357.08 254.804 357.08ZM261.715 352.01C261.715 351.943 261.749 351.91 261.815 351.91H262.565C262.632 351.91 262.665 351.943 262.665 352.01V356.9C262.665 356.967 262.632 357 262.565 357H261.815C261.749 357 261.715 356.967 261.715 356.9V356.53C261.715 356.517 261.709 356.51 261.695 356.51C261.689 356.503 261.679 356.507 261.665 356.52C261.399 356.887 260.989 357.07 260.435 357.07C260.109 357.07 259.805 357.007 259.525 356.88C259.252 356.753 259.032 356.567 258.865 356.32C258.699 356.073 258.615 355.773 258.615 355.42V352.01C258.615 351.943 258.649 351.91 258.715 351.91H259.465C259.532 351.91 259.565 351.943 259.565 352.01V355.12C259.565 355.467 259.655 355.74 259.835 355.94C260.022 356.14 260.282 356.24 260.615 356.24C260.949 356.24 261.215 356.14 261.415 355.94C261.615 355.733 261.715 355.46 261.715 355.12V352.01ZM266.336 351.84C266.883 351.84 267.316 352 267.636 352.32C267.956 352.633 268.116 353.06 268.116 353.6V356.9C268.116 356.967 268.083 357 268.016 357H267.256C267.19 357 267.156 356.967 267.156 356.9V353.79C267.156 353.457 267.06 353.187 266.866 352.98C266.673 352.773 266.416 352.67 266.096 352.67C265.783 352.67 265.526 352.773 265.326 352.98C265.126 353.187 265.026 353.453 265.026 353.78V356.9C265.026 356.967 264.993 357 264.926 357H264.166C264.1 357 264.066 356.967 264.066 356.9V352.01C264.066 351.943 264.1 351.91 264.166 351.91H264.926C264.993 351.91 265.026 351.943 265.026 352.01V352.37C265.026 352.383 265.03 352.393 265.036 352.4C265.05 352.407 265.06 352.403 265.066 352.39C265.353 352.023 265.776 351.84 266.336 351.84Z" fill="white"/>
<path d="M293.043 357.08C292.57 357.08 292.153 356.99 291.793 356.81C291.44 356.63 291.166 356.377 290.973 356.05C290.78 355.723 290.683 355.347 290.683 354.92V354.21C290.683 354.143 290.716 354.11 290.783 354.11H291.543C291.61 354.11 291.643 354.143 291.643 354.21V354.92C291.643 355.32 291.77 355.643 292.023 355.89C292.276 356.13 292.616 356.25 293.043 356.25C293.456 356.25 293.793 356.13 294.053 355.89C294.313 355.643 294.443 355.32 294.443 354.92V350.1C294.443 350.033 294.476 350 294.543 350H295.303C295.37 350 295.403 350.033 295.403 350.1V354.92C295.403 355.347 295.303 355.723 295.103 356.05C294.91 356.377 294.633 356.63 294.273 356.81C293.913 356.99 293.503 357.08 293.043 357.08ZM299.954 352.01C299.954 351.943 299.987 351.91 300.054 351.91H300.804C300.871 351.91 300.904 351.943 300.904 352.01V356.9C300.904 356.967 300.871 357 300.804 357H300.054C299.987 357 299.954 356.967 299.954 356.9V356.53C299.954 356.517 299.947 356.51 299.934 356.51C299.927 356.503 299.917 356.507 299.904 356.52C299.637 356.887 299.227 357.07 298.674 357.07C298.347 357.07 298.044 357.007 297.764 356.88C297.491 356.753 297.271 356.567 297.104 356.32C296.937 356.073 296.854 355.773 296.854 355.42V352.01C296.854 351.943 296.887 351.91 296.954 351.91H297.704C297.771 351.91 297.804 351.943 297.804 352.01V355.12C297.804 355.467 297.894 355.74 298.074 355.94C298.261 356.14 298.521 356.24 298.854 356.24C299.187 356.24 299.454 356.14 299.654 355.94C299.854 355.733 299.954 355.46 299.954 355.12V352.01ZM302.405 357C302.338 357 302.305 356.967 302.305 356.9V350.1C302.305 350.033 302.338 350 302.405 350H303.165C303.232 350 303.265 350.033 303.265 350.1V356.9C303.265 356.967 303.232 357 303.165 357H302.405ZM304.508 358.99C304.462 358.99 304.438 358.957 304.438 358.89V358.3C304.438 358.233 304.472 358.2 304.538 358.2H304.558C304.825 358.193 305.035 358.16 305.188 358.1C305.342 358.04 305.468 357.927 305.568 357.76C305.668 357.6 305.765 357.357 305.858 357.03C305.865 357.023 305.865 357.013 305.858 357C305.858 356.98 305.858 356.97 305.858 356.97L304.188 352.02L304.178 351.98C304.178 351.933 304.208 351.91 304.268 351.91H305.078C305.138 351.91 305.178 351.937 305.198 351.99L306.328 355.76C306.335 355.773 306.345 355.78 306.358 355.78C306.372 355.78 306.382 355.773 306.388 355.76L307.508 351.99C307.528 351.937 307.568 351.91 307.628 351.91H308.418C308.492 351.91 308.518 351.947 308.498 352.02L306.678 357.35C306.525 357.81 306.372 358.15 306.218 358.37C306.065 358.597 305.865 358.757 305.618 358.85C305.372 358.943 305.025 358.99 304.578 358.99H304.508Z" fill="white"/>
<path d="M333.742 357C333.682 357 333.642 356.973 333.622 356.92L333.262 355.75C333.255 355.73 333.242 355.72 333.222 355.72H330.412C330.392 355.72 330.379 355.73 330.372 355.75L330.012 356.92C329.992 356.973 329.952 357 329.892 357H329.082C329.009 357 328.982 356.963 329.002 356.89L331.192 350.08C331.212 350.027 331.252 350 331.312 350H332.312C332.372 350 332.412 350.027 332.432 350.08L334.642 356.89L334.652 356.93C334.652 356.977 334.622 357 334.562 357H333.742ZM330.622 354.91C330.615 354.923 330.615 354.937 330.622 354.95C330.635 354.957 330.649 354.96 330.662 354.96H332.962C332.975 354.96 332.985 354.957 332.992 354.95C333.005 354.937 333.009 354.923 333.002 354.91L331.842 351.2C331.835 351.187 331.825 351.18 331.812 351.18C331.799 351.18 331.789 351.187 331.782 351.2L330.622 354.91ZM338.701 352.01C338.701 351.943 338.734 351.91 338.801 351.91H339.551C339.618 351.91 339.651 351.943 339.651 352.01V356.9C339.651 356.967 339.618 357 339.551 357H338.801C338.734 357 338.701 356.967 338.701 356.9V356.53C338.701 356.517 338.694 356.51 338.681 356.51C338.674 356.503 338.664 356.507 338.651 356.52C338.384 356.887 337.974 357.07 337.421 357.07C337.094 357.07 336.791 357.007 336.511 356.88C336.238 356.753 336.018 356.567 335.851 356.32C335.684 356.073 335.601 355.773 335.601 355.42V352.01C335.601 351.943 335.634 351.91 335.701 351.91H336.451C336.518 351.91 336.551 351.943 336.551 352.01V355.12C336.551 355.467 336.641 355.74 336.821 355.94C337.008 356.14 337.268 356.24 337.601 356.24C337.934 356.24 338.201 356.14 338.401 355.94C338.601 355.733 338.701 355.46 338.701 355.12V352.01ZM344.182 352.01C344.182 351.943 344.215 351.91 344.282 351.91H345.042C345.108 351.91 345.142 351.943 345.142 352.01V356.74C345.142 357.547 344.912 358.123 344.452 358.47C343.998 358.817 343.388 358.99 342.622 358.99C342.515 358.99 342.348 358.983 342.122 358.97C342.055 358.963 342.022 358.927 342.022 358.86L342.052 358.17C342.052 358.143 342.062 358.12 342.082 358.1C342.102 358.08 342.128 358.073 342.162 358.08C342.255 358.087 342.392 358.09 342.572 358.09C343.138 358.09 343.548 357.983 343.802 357.77C344.055 357.563 344.182 357.21 344.182 356.71V356.53C344.182 356.517 344.175 356.507 344.162 356.5C344.155 356.493 344.145 356.497 344.132 356.51C343.852 356.837 343.442 357 342.902 357C342.468 357 342.075 356.887 341.722 356.66C341.375 356.433 341.135 356.1 341.002 355.66C340.915 355.367 340.872 354.96 340.872 354.44C340.872 353.887 340.922 353.46 341.022 353.16C341.148 352.76 341.372 352.44 341.692 352.2C342.018 351.953 342.402 351.83 342.842 351.83C343.388 351.83 343.818 351.997 344.132 352.33C344.145 352.343 344.155 352.35 344.162 352.35C344.175 352.343 344.182 352.333 344.182 352.32V352.01ZM344.122 355.37C344.142 355.263 344.155 355.15 344.162 355.03C344.175 354.91 344.182 354.71 344.182 354.43C344.182 354.15 344.175 353.953 344.162 353.84C344.155 353.72 344.138 353.607 344.112 353.5C344.058 353.253 343.938 353.053 343.752 352.9C343.565 352.74 343.332 352.66 343.052 352.66C342.772 352.66 342.538 352.74 342.352 352.9C342.165 353.053 342.032 353.253 341.952 353.5C341.878 353.7 341.842 354.01 341.842 354.43C341.842 354.89 341.875 355.203 341.942 355.37C342.008 355.617 342.138 355.82 342.332 355.98C342.532 356.133 342.772 356.21 343.052 356.21C343.345 356.21 343.582 356.133 343.762 355.98C343.948 355.82 344.068 355.617 344.122 355.37Z" fill="white"/>
<rect x="61.3308" y="128.632" width="284.251" height="0.946512" rx="0.473256" fill="black" fill-opacity="0.06"/>
<rect x="61.3308" y="177.851" width="284.251" height="0.946512" rx="0.473256" fill="black" fill-opacity="0.06"/>
<rect x="61.3308" y="226.122" width="284.251" height="0.946512" rx="0.473256" fill="black" fill-opacity="0.06"/>
<rect x="61.3308" y="274.395" width="284.251" height="0.946512" rx="0.473256" fill="black" fill-opacity="0.06"/>
<rect x="61.3308" y="322.666" width="284.251" height="0.946512" rx="0.473256" fill="black" fill-opacity="0.06"/>
<rect x="61" y="179.165" width="11.164" height="144.816" rx="5.58198" fill="#4288D8"/>
<rect x="100.785" y="129" width="11.164" height="194.981" rx="5.58198" fill="#FF8F20"/>
<rect x="140.569" y="227.438" width="11.164" height="96.5442" rx="5.58198" fill="#4288D8"/>
<rect x="180.354" y="262.981" width="11" height="61" rx="5.5" fill="#FF8F20"/>
<rect x="219.974" y="183.981" width="11" height="140" rx="5.5" fill="#4288D8"/>
<rect x="259.595" y="194.981" width="12" height="129" rx="6" fill="#FF8F20"/>
<rect x="300.215" y="179.165" width="11.164" height="144.816" rx="5.58198" fill="#4288D8"/>
<rect x="340" y="269.981" width="11" height="54" rx="5.5" fill="#FF8F20"/>
<path d="M37.124 58.21C36.1207 58.21 35.269 57.9883 34.569 57.545C33.869 57.1017 33.3347 56.4857 32.966 55.697C32.602 54.9083 32.42 53.996 32.42 52.96C32.42 51.924 32.602 51.0117 32.966 50.223C33.3347 49.4343 33.869 48.8183 34.569 48.375C35.269 47.9317 36.1207 47.71 37.124 47.71C38.2907 47.71 39.2497 48.0063 40.001 48.599C40.757 49.1917 41.2773 49.9897 41.562 50.993L40.295 51.329C40.0897 50.5777 39.7233 49.985 39.196 49.551C38.6687 49.117 37.978 48.9 37.124 48.9C36.3727 48.9 35.7473 49.0703 35.248 49.411C34.7487 49.7517 34.373 50.2277 34.121 50.839C33.869 51.4457 33.7407 52.1527 33.736 52.96C33.7313 53.7627 33.855 54.4697 34.107 55.081C34.359 55.6877 34.737 56.1637 35.241 56.509C35.745 56.8497 36.3727 57.02 37.124 57.02C37.978 57.02 38.6687 56.803 39.196 56.369C39.7233 55.9303 40.0897 55.3377 40.295 54.591L41.562 54.927C41.2773 55.9257 40.757 56.7237 40.001 57.321C39.2497 57.9137 38.2907 58.21 37.124 58.21ZM45.9672 58.196C45.4819 58.196 45.0642 58.119 44.7142 57.965C44.3689 57.811 44.0819 57.6057 43.8532 57.349C43.6245 57.0923 43.4449 56.8077 43.3142 56.495C43.1835 56.1823 43.0902 55.8627 43.0342 55.536C42.9829 55.2093 42.9572 54.9037 42.9572 54.619V50.44H44.2172V54.227C44.2172 54.5817 44.2499 54.9247 44.3152 55.256C44.3805 55.5873 44.4902 55.886 44.6442 56.152C44.8029 56.418 45.0129 56.628 45.2742 56.782C45.5402 56.936 45.8715 57.013 46.2682 57.013C46.5809 57.013 46.8655 56.9593 47.1222 56.852C47.3789 56.7447 47.5982 56.586 47.7802 56.376C47.9622 56.1613 48.1022 55.8907 48.2002 55.564C48.2982 55.2373 48.3472 54.857 48.3472 54.423L49.1662 54.675C49.1662 55.403 49.0332 56.0307 48.7672 56.558C48.5059 57.0853 48.1349 57.4913 47.6542 57.776C47.1782 58.056 46.6159 58.196 45.9672 58.196ZM48.4872 58V55.977H48.3472V50.44H49.6002V58H48.4872ZM54.4161 58.203C53.5154 58.203 52.7757 58.007 52.1971 57.615C51.6231 57.2183 51.2707 56.6653 51.1401 55.956L52.4141 55.753C52.5167 56.1637 52.7524 56.4903 53.1211 56.733C53.4897 56.971 53.9471 57.09 54.4931 57.09C55.0111 57.09 55.4171 56.9827 55.7111 56.768C56.0051 56.5533 56.1521 56.2617 56.1521 55.893C56.1521 55.6783 56.1031 55.5057 56.0051 55.375C55.9071 55.2397 55.7041 55.1137 55.3961 54.997C55.0927 54.8803 54.6331 54.7403 54.0171 54.577C53.3497 54.3997 52.8247 54.2153 52.4421 54.024C52.0594 53.8327 51.7864 53.611 51.6231 53.359C51.4597 53.107 51.3781 52.8013 51.3781 52.442C51.3781 51.9987 51.4994 51.6113 51.7421 51.28C51.9847 50.944 52.3231 50.685 52.7571 50.503C53.1957 50.321 53.7044 50.23 54.2831 50.23C54.8571 50.23 55.3704 50.321 55.8231 50.503C56.2757 50.685 56.6397 50.944 56.9151 51.28C57.1951 51.6113 57.3607 51.9987 57.4121 52.442L56.1381 52.673C56.0774 52.267 55.8814 51.9473 55.5501 51.714C55.2234 51.4807 54.8011 51.357 54.2831 51.343C53.7931 51.3243 53.3941 51.4107 53.0861 51.602C52.7827 51.7933 52.6311 52.0523 52.6311 52.379C52.6311 52.561 52.6871 52.7173 52.7991 52.848C52.9157 52.9787 53.1281 53.1023 53.4361 53.219C53.7487 53.3357 54.2014 53.4687 54.7941 53.618C55.4614 53.786 55.9864 53.9703 56.3691 54.171C56.7564 54.367 57.0317 54.6003 57.1951 54.871C57.3584 55.137 57.4401 55.466 57.4401 55.858C57.4401 56.586 57.1717 57.16 56.6351 57.58C56.0984 57.9953 55.3587 58.203 54.4161 58.203ZM63.2049 58C62.7569 58.0887 62.3136 58.1237 61.8749 58.105C61.4409 58.091 61.0536 58.0047 60.7129 57.846C60.3722 57.6827 60.1132 57.4307 59.9359 57.09C59.7866 56.7913 59.7049 56.4903 59.6909 56.187C59.6816 55.879 59.6769 55.5313 59.6769 55.144V48.34H60.9229V55.088C60.9229 55.396 60.9252 55.6597 60.9299 55.879C60.9392 56.0983 60.9882 56.2873 61.0769 56.446C61.2449 56.7447 61.5109 56.9197 61.8749 56.971C62.2436 57.0223 62.6869 57.0083 63.2049 56.929V58ZM58.1439 51.469V50.44H63.2049V51.469H58.1439ZM67.6453 58.21C66.894 58.21 66.2453 58.0397 65.6993 57.699C65.158 57.3583 64.7403 56.887 64.4463 56.285C64.1523 55.683 64.0053 54.9923 64.0053 54.213C64.0053 53.4197 64.1546 52.7243 64.4533 52.127C64.752 51.5297 65.1743 51.0653 65.7203 50.734C66.2663 50.398 66.908 50.23 67.6453 50.23C68.4013 50.23 69.0523 50.4003 69.5983 50.741C70.1443 51.077 70.562 51.546 70.8513 52.148C71.1453 52.7453 71.2923 53.4337 71.2923 54.213C71.2923 55.0017 71.1453 55.697 70.8513 56.299C70.5573 56.8963 70.1373 57.3653 69.5913 57.706C69.0453 58.042 68.3966 58.21 67.6453 58.21ZM67.6453 57.027C68.4293 57.027 69.0126 56.7657 69.3953 56.243C69.778 55.7203 69.9693 55.0437 69.9693 54.213C69.9693 53.359 69.7756 52.68 69.3883 52.176C69.001 51.6673 68.42 51.413 67.6453 51.413C67.118 51.413 66.684 51.532 66.3433 51.77C66.0026 52.008 65.7483 52.337 65.5803 52.757C65.4123 53.177 65.3283 53.6623 65.3283 54.213C65.3283 55.0623 65.5243 55.7437 65.9163 56.257C66.3083 56.7703 66.8846 57.027 67.6453 57.027ZM81.8705 58L81.8775 53.163C81.8775 52.5983 81.7258 52.1573 81.4225 51.84C81.1238 51.518 80.7342 51.357 80.2535 51.357C79.9735 51.357 79.7075 51.4223 79.4555 51.553C79.2035 51.679 78.9982 51.8797 78.8395 52.155C78.6808 52.4257 78.6015 52.7733 78.6015 53.198L77.9435 52.932C77.9342 52.3953 78.0438 51.9263 78.2725 51.525C78.5058 51.119 78.8232 50.804 79.2245 50.58C79.6258 50.356 80.0785 50.244 80.5825 50.244C81.3712 50.244 81.9918 50.4843 82.4445 50.965C82.8972 51.441 83.1235 52.0827 83.1235 52.89L83.1165 58H81.8705ZM72.8265 58V50.44H73.9395V52.463H74.0795V58H72.8265ZM77.3555 58L77.3625 53.212C77.3625 52.6333 77.2132 52.1807 76.9145 51.854C76.6158 51.5227 76.2192 51.357 75.7245 51.357C75.2345 51.357 74.8378 51.525 74.5345 51.861C74.2312 52.197 74.0795 52.6427 74.0795 53.198L73.4215 52.806C73.4215 52.316 73.5382 51.8773 73.7715 51.49C74.0048 51.1027 74.3222 50.7993 74.7235 50.58C75.1248 50.356 75.5798 50.244 76.0885 50.244C76.5972 50.244 77.0405 50.3513 77.4185 50.566C77.7965 50.7807 78.0882 51.0887 78.2935 51.49C78.4988 51.8867 78.6015 52.3603 78.6015 52.911L78.5945 58H77.3555ZM88.1544 58.21C87.4124 58.21 86.7638 58.0467 86.2084 57.72C85.6578 57.3887 85.2284 56.929 84.9204 56.341C84.6124 55.7483 84.4584 55.0577 84.4584 54.269C84.4584 53.443 84.6101 52.729 84.9134 52.127C85.2168 51.5203 85.6391 51.0537 86.1804 50.727C86.7264 50.3957 87.3658 50.23 88.0984 50.23C88.8591 50.23 89.5054 50.405 90.0374 50.755C90.5741 51.105 90.9754 51.6043 91.2414 52.253C91.5121 52.9017 91.6288 53.674 91.5914 54.57H90.3314V54.122C90.3174 53.1933 90.1284 52.5003 89.7644 52.043C89.4004 51.581 88.8591 51.35 88.1404 51.35C87.3704 51.35 86.7848 51.5973 86.3834 52.092C85.9821 52.5867 85.7814 53.296 85.7814 54.22C85.7814 55.1113 85.9821 55.802 86.3834 56.292C86.7848 56.782 87.3564 57.027 88.0984 57.027C88.5978 57.027 89.0318 56.9127 89.4004 56.684C89.7691 56.4553 90.0584 56.1263 90.2684 55.697L91.4654 56.11C91.1714 56.7773 90.7281 57.2953 90.1354 57.664C89.5474 58.028 88.8871 58.21 88.1544 58.21ZM85.3614 54.57V53.569H90.9474V54.57H85.3614ZM93.1499 58V50.44H94.2629V52.267L94.0809 52.029C94.1696 51.7957 94.2839 51.581 94.4239 51.385C94.5686 51.189 94.7296 51.028 94.9069 50.902C95.1029 50.7433 95.3246 50.622 95.5719 50.538C95.8193 50.454 96.0713 50.405 96.3279 50.391C96.5846 50.3723 96.8249 50.3887 97.0489 50.44V51.609C96.7876 51.539 96.5006 51.5203 96.1879 51.553C95.8753 51.5857 95.5859 51.7 95.3199 51.896C95.0773 52.0687 94.8883 52.2787 94.7529 52.526C94.6223 52.7733 94.5313 53.0417 94.4799 53.331C94.4286 53.6157 94.4029 53.9073 94.4029 54.206V58H93.1499ZM101.175 58V47.92H102.309L106.117 55.949L109.904 47.92H111.052V57.993H109.869V50.657L106.446 58H105.781L102.358 50.657V58H101.175ZM115.164 58.21C114.599 58.21 114.126 58.1073 113.743 57.902C113.365 57.692 113.078 57.4167 112.882 57.076C112.691 56.7353 112.595 56.362 112.595 55.956C112.595 55.5593 112.67 55.2163 112.819 54.927C112.973 54.633 113.188 54.3903 113.463 54.199C113.738 54.003 114.067 53.849 114.45 53.737C114.809 53.639 115.211 53.555 115.654 53.485C116.102 53.4103 116.555 53.3427 117.012 53.282C117.469 53.2213 117.896 53.163 118.293 53.107L117.845 53.366C117.859 52.694 117.724 52.197 117.439 51.875C117.159 51.553 116.674 51.392 115.983 51.392C115.526 51.392 115.124 51.497 114.779 51.707C114.438 51.9123 114.198 52.2483 114.058 52.715L112.875 52.358C113.057 51.6953 113.409 51.175 113.932 50.797C114.455 50.419 115.143 50.23 115.997 50.23C116.683 50.23 117.271 50.3537 117.761 50.601C118.256 50.8437 118.61 51.2123 118.825 51.707C118.932 51.9403 119 52.1947 119.028 52.47C119.056 52.7407 119.07 53.0253 119.07 53.324V58H117.964V56.187L118.223 56.355C117.938 56.9663 117.539 57.4283 117.026 57.741C116.517 58.0537 115.897 58.21 115.164 58.21ZM115.353 57.167C115.801 57.167 116.188 57.0877 116.515 56.929C116.846 56.7657 117.112 56.5533 117.313 56.292C117.514 56.026 117.644 55.7367 117.705 55.424C117.775 55.1907 117.812 54.9317 117.817 54.647C117.826 54.3577 117.831 54.136 117.831 53.982L118.265 54.171C117.859 54.227 117.46 54.2807 117.068 54.332C116.676 54.3833 116.305 54.4393 115.955 54.5C115.605 54.556 115.29 54.6237 115.01 54.703C114.805 54.7683 114.611 54.8523 114.429 54.955C114.252 55.0577 114.107 55.1907 113.995 55.354C113.888 55.5127 113.834 55.711 113.834 55.949C113.834 56.1543 113.885 56.3503 113.988 56.537C114.095 56.7237 114.259 56.8753 114.478 56.992C114.702 57.1087 114.994 57.167 115.353 57.167ZM124.362 58.21C123.653 58.21 123.055 58.035 122.57 57.685C122.085 57.3303 121.716 56.852 121.464 56.25C121.217 55.6433 121.093 54.9643 121.093 54.213C121.093 53.4523 121.217 52.771 121.464 52.169C121.716 51.567 122.085 51.0933 122.57 50.748C123.06 50.4027 123.66 50.23 124.369 50.23C125.069 50.23 125.671 50.405 126.175 50.755C126.684 51.1003 127.073 51.574 127.344 52.176C127.615 52.778 127.75 53.457 127.75 54.213C127.75 54.969 127.615 55.648 127.344 56.25C127.073 56.852 126.684 57.3303 126.175 57.685C125.671 58.035 125.067 58.21 124.362 58.21ZM120.883 61.36V50.44H121.996V56.005H122.136V61.36H120.883ZM124.208 57.069C124.707 57.069 125.12 56.943 125.447 56.691C125.774 56.439 126.019 56.0983 126.182 55.669C126.345 55.235 126.427 54.7497 126.427 54.213C126.427 53.681 126.345 53.2003 126.182 52.771C126.023 52.3417 125.776 52.001 125.44 51.749C125.109 51.497 124.686 51.371 124.173 51.371C123.683 51.371 123.277 51.4923 122.955 51.735C122.633 51.973 122.393 52.3067 122.234 52.736C122.075 53.1607 121.996 53.653 121.996 54.213C121.996 54.7637 122.073 55.256 122.227 55.69C122.386 56.1193 122.628 56.4577 122.955 56.705C123.282 56.9477 123.699 57.069 124.208 57.069Z" fill="white"/>
<rect x="241" y="44.2246" width="74" height="25" rx="12.5" fill="black" fill-opacity="0.01"/>
<rect x="241.2" y="44.4246" width="73.6" height="24.6" rx="12.3" stroke="black" stroke-opacity="0.04" stroke-width="0.4"/>
<path d="M255.245 61.2246L253.165 54.0246H253.93L255.615 59.9696L257.29 54.0296L258.06 54.0246L259.745 59.9696L261.42 54.0246H262.19L260.115 61.2246H259.375L257.675 55.3196L255.985 61.2246H255.245ZM264.745 61.3746C264.218 61.3746 263.761 61.2579 263.375 61.0246C262.991 60.7913 262.693 60.4629 262.48 60.0396C262.266 59.6163 262.16 59.1196 262.16 58.5496C262.16 57.9596 262.265 57.4496 262.475 57.0196C262.685 56.5896 262.98 56.2579 263.36 56.0246C263.743 55.7913 264.195 55.6746 264.715 55.6746C265.248 55.6746 265.703 55.7979 266.08 56.0446C266.456 56.2879 266.741 56.6379 266.935 57.0946C267.128 57.5513 267.216 58.0963 267.2 58.7296H266.45V58.4696C266.436 57.7696 266.285 57.2413 265.995 56.8846C265.708 56.5279 265.288 56.3496 264.735 56.3496C264.155 56.3496 263.71 56.5379 263.4 56.9146C263.093 57.2913 262.94 57.8279 262.94 58.5246C262.94 59.2046 263.093 59.7329 263.4 60.1096C263.71 60.4829 264.148 60.6696 264.715 60.6696C265.101 60.6696 265.438 60.5813 265.725 60.4046C266.015 60.2246 266.243 59.9663 266.41 59.6296L267.095 59.8946C266.881 60.3646 266.566 60.7296 266.15 60.9896C265.736 61.2463 265.268 61.3746 264.745 61.3746ZM262.68 58.7296V58.1146H266.805V58.7296H262.68ZM270.594 61.3746C270.068 61.3746 269.611 61.2579 269.224 61.0246C268.841 60.7913 268.543 60.4629 268.329 60.0396C268.116 59.6163 268.009 59.1196 268.009 58.5496C268.009 57.9596 268.114 57.4496 268.324 57.0196C268.534 56.5896 268.829 56.2579 269.209 56.0246C269.593 55.7913 270.044 55.6746 270.564 55.6746C271.098 55.6746 271.553 55.7979 271.929 56.0446C272.306 56.2879 272.591 56.6379 272.784 57.0946C272.978 57.5513 273.066 58.0963 273.049 58.7296H272.299V58.4696C272.286 57.7696 272.134 57.2413 271.844 56.8846C271.558 56.5279 271.138 56.3496 270.584 56.3496C270.004 56.3496 269.559 56.5379 269.249 56.9146C268.943 57.2913 268.789 57.8279 268.789 58.5246C268.789 59.2046 268.943 59.7329 269.249 60.1096C269.559 60.4829 269.998 60.6696 270.564 60.6696C270.951 60.6696 271.288 60.5813 271.574 60.4046C271.864 60.2246 272.093 59.9663 272.259 59.6296L272.944 59.8946C272.731 60.3646 272.416 60.7296 271.999 60.9896C271.586 61.2463 271.118 61.3746 270.594 61.3746ZM268.529 58.7296V58.1146H272.654V58.7296H268.529ZM274.154 61.2246L274.159 54.0246H274.899V58.4246L277.309 55.8246H278.289L275.759 58.5246L278.619 61.2246H277.549L274.899 58.6246V61.2246H274.154ZM279.22 61.2246V53.8746H279.955V61.2246H279.22ZM282.224 63.6246L283.269 60.7896L283.284 61.6296L280.919 55.8246H281.699L283.639 60.6796H283.319L285.109 55.8246H285.859L282.959 63.6246H282.224Z" fill="white"/>
<path d="M293.341 55.066C293.215 54.94 293.305 54.7246 293.483 54.7246H302.517C302.695 54.7246 302.785 54.94 302.659 55.066L298.141 59.5832C298.063 59.6613 297.937 59.6613 297.859 59.5832L293.341 55.066Z" fill="white"/>
<ellipse cx="339.316" cy="51.8563" rx="1.57895" ry="1.57895" fill="white"/>
<ellipse cx="339.316" cy="56.909" rx="1.57895" ry="1.57895" fill="white"/>
<ellipse cx="339.316" cy="61.9618" rx="1.57895" ry="1.57895" fill="white"/>
</svg>
