<svg width="20" height="21" viewBox="0 0 20 21" fill="none" xmlns="http://www.w3.org/2000/svg">
<g clip-path="url(#clip0_865_4524)">
<path d="M19.4282 3.23409C19.1339 2.93936 18.6566 2.93885 18.3623 3.23284L9.31965 12.2517L6.05707 8.70819C5.77516 8.40217 5.29852 8.38233 4.99199 8.6642C4.6857 8.94612 4.66609 9.42299 4.94801 9.72928L8.74199 13.8496C8.88094 14.0006 9.07539 14.0883 9.28043 14.0926C9.28594 14.0928 9.29125 14.0928 9.29652 14.0928C9.49578 14.0928 9.68746 14.0137 9.82867 13.873L19.4267 4.30014C19.7216 4.0062 19.7221 3.52881 19.4282 3.23409Z" fill="#FF8F20"/>
<path d="M19.2462 9.74621C18.8299 9.74621 18.4925 10.0836 18.4925 10.5C18.4925 15.1829 14.6829 18.9925 10 18.9925C5.31734 18.9925 1.50754 15.1829 1.50754 10.5C1.50754 5.81734 5.31734 2.00754 10 2.00754C10.4163 2.00754 10.7538 1.67012 10.7538 1.25379C10.7538 0.837422 10.4163 0.5 10 0.5C4.48594 0.5 0 4.98594 0 10.5C0 16.0138 4.48594 20.5 10 20.5C15.5138 20.5 20 16.0138 20 10.5C20 10.0837 19.6626 9.74621 19.2462 9.74621Z" fill="#FF8F20"/>
</g>
<defs>
<clipPath id="clip0_865_4524">
<rect width="20" height="20" fill="white" transform="translate(0 0.5)"/>
</clipPath>
</defs>
</svg>
