<svg width="18" height="18" viewBox="0 0 18 18" fill="none" xmlns="http://www.w3.org/2000/svg">
<g clip-path="url(#clip0_2002_1699)">
<path d="M13.4997 0H4.49989C2.02517 0 0 2.02517 0 4.49989V13.5001C0 15.9742 2.02517 18 4.49989 18H13.4997C15.9744 18 17.9996 15.9742 17.9996 13.5001V4.49989C17.9996 2.02517 15.9744 0 13.4997 0ZM16.4995 13.5001C16.4995 15.1538 15.1543 16.5 13.4997 16.5H4.49989C2.84596 16.5 1.50004 15.1538 1.50004 13.5001V4.49989C1.50004 2.84574 2.84596 1.50004 4.49989 1.50004H13.4997C15.1543 1.50004 16.4995 2.84574 16.4995 4.49989V13.5001Z" fill="white"/>
<path d="M13.8757 5.24995C14.497 5.24995 15.0007 4.74628 15.0007 4.12497C15.0007 3.50367 14.497 3 13.8757 3C13.2544 3 12.7507 3.50367 12.7507 4.12497C12.7507 4.74628 13.2544 5.24995 13.8757 5.24995Z" fill="white"/>
<path d="M8.99989 4.5C6.51414 4.5 4.5 6.51436 4.5 8.99989C4.5 11.4845 6.51414 13.5002 8.99989 13.5002C11.4849 13.5002 13.4998 11.4845 13.4998 8.99989C13.4998 6.51436 11.4849 4.5 8.99989 4.5ZM8.99989 12.0002C7.34324 12.0002 6.00004 10.657 6.00004 8.99989C6.00004 7.3428 7.34324 6.00004 8.99989 6.00004C10.6565 6.00004 11.9997 7.3428 11.9997 8.99989C11.9997 10.657 10.6565 12.0002 8.99989 12.0002Z" fill="white"/>
</g>
<defs>
<clipPath id="clip0_2002_1699">
<rect width="18" height="18" fill="white"/>
</clipPath>
</defs>
</svg>
