<svg width="931" height="711" viewBox="0 0 931 711" fill="none" xmlns="http://www.w3.org/2000/svg">
<rect width="931" height="711" rx="25" fill="black" fill-opacity="0.18"/>
<path d="M56.0192 381.784C54.877 339.689 62.2797 297.794 77.7902 258.573C93.3006 219.352 116.605 183.599 146.326 153.426C176.048 123.253 211.585 99.2708 250.839 82.8954C290.093 66.5201 332.269 58.0833 374.876 58.0833L374.876 326.046C368.485 326.046 362.159 327.311 356.271 329.768C350.383 332.224 345.052 335.821 340.594 340.347C336.136 344.873 332.64 350.236 330.313 356.119C327.987 362.002 326.877 368.287 327.048 374.601L56.0192 381.784Z" fill="#3CC3DF"/>
<path d="M374.876 58.0833C450.368 58.0833 523.414 84.5463 581.022 132.766C638.629 180.986 677.066 247.836 689.495 321.429C701.925 395.022 687.541 470.587 648.903 534.685C610.265 598.782 549.876 647.259 478.477 671.492L390.417 418.057C401.126 414.422 410.185 407.151 415.98 397.536C421.776 387.921 423.934 376.587 422.069 365.548C420.205 354.509 414.439 344.481 405.798 337.248C397.157 330.015 386.2 326.046 374.876 326.046L374.876 58.0833Z" fill="#8979FF"/>
<path d="M478.477 671.492C431.128 687.562 380.617 692.392 331.029 685.591C281.442 678.789 234.17 660.547 193.039 632.341C151.908 604.134 118.072 566.755 94.2678 523.227C70.4641 479.699 57.3612 431.245 56.0192 381.784L327.048 374.601C327.249 382.02 329.215 389.288 332.785 395.817C336.356 402.347 341.431 407.953 347.601 412.184C353.771 416.415 360.861 419.152 368.299 420.172C375.738 421.192 383.314 420.468 390.417 418.057L478.477 671.492Z" fill="#FF928A"/>
<path d="M447.841 381.273C447.841 383.114 447.509 384.705 446.844 386.045C446.179 387.386 445.267 388.42 444.108 389.148C442.949 389.875 441.625 390.239 440.136 390.239C438.648 390.239 437.324 389.875 436.165 389.148C435.006 388.42 434.094 387.386 433.429 386.045C432.764 384.705 432.432 383.114 432.432 381.273C432.432 379.432 432.764 377.841 433.429 376.5C434.094 375.159 435.006 374.125 436.165 373.398C437.324 372.67 438.648 372.307 440.136 372.307C441.625 372.307 442.949 372.67 444.108 373.398C445.267 374.125 446.179 375.159 446.844 376.5C447.509 377.841 447.841 379.432 447.841 381.273ZM445.795 381.273C445.795 379.761 445.543 378.486 445.037 377.446C444.537 376.406 443.858 375.619 443 375.085C442.148 374.551 441.193 374.284 440.136 374.284C439.08 374.284 438.122 374.551 437.264 375.085C436.412 375.619 435.733 376.406 435.227 377.446C434.727 378.486 434.477 379.761 434.477 381.273C434.477 382.784 434.727 384.06 435.227 385.099C435.733 386.139 436.412 386.926 437.264 387.46C438.122 387.994 439.08 388.261 440.136 388.261C441.193 388.261 442.148 387.994 443 387.46C443.858 386.926 444.537 386.139 445.037 385.099C445.543 384.06 445.795 382.784 445.795 381.273ZM453.134 382.125V390H451.122V376.909H453.065V378.955H453.236C453.543 378.29 454.009 377.756 454.634 377.352C455.259 376.943 456.065 376.739 457.054 376.739C457.94 376.739 458.716 376.92 459.381 377.284C460.045 377.642 460.563 378.188 460.932 378.92C461.301 379.648 461.486 380.568 461.486 381.682V390H459.474V381.818C459.474 380.79 459.207 379.989 458.673 379.415C458.139 378.835 457.406 378.545 456.474 378.545C455.832 378.545 455.259 378.685 454.753 378.963C454.253 379.241 453.858 379.648 453.568 380.182C453.278 380.716 453.134 381.364 453.134 382.125ZM465.434 390V372.545H467.445V378.989H467.616C467.763 378.761 467.968 378.472 468.229 378.119C468.496 377.761 468.877 377.443 469.371 377.165C469.871 376.881 470.548 376.739 471.4 376.739C472.502 376.739 473.474 377.014 474.315 377.565C475.156 378.116 475.812 378.898 476.283 379.909C476.755 380.92 476.991 382.114 476.991 383.489C476.991 384.875 476.755 386.077 476.283 387.094C475.812 388.105 475.158 388.889 474.323 389.446C473.488 389.997 472.525 390.273 471.434 390.273C470.593 390.273 469.92 390.134 469.414 389.855C468.908 389.571 468.519 389.25 468.246 388.892C467.974 388.528 467.763 388.227 467.616 387.989H467.377V390H465.434ZM467.411 383.455C467.411 384.443 467.556 385.315 467.846 386.071C468.136 386.821 468.559 387.409 469.116 387.835C469.673 388.256 470.354 388.466 471.161 388.466C472.002 388.466 472.704 388.244 473.266 387.801C473.835 387.352 474.261 386.75 474.545 385.994C474.835 385.233 474.979 384.386 474.979 383.455C474.979 382.534 474.837 381.705 474.553 380.966C474.275 380.222 473.852 379.634 473.283 379.202C472.721 378.764 472.013 378.545 471.161 378.545C470.343 378.545 469.656 378.753 469.099 379.168C468.542 379.577 468.121 380.151 467.837 380.889C467.553 381.622 467.411 382.477 467.411 383.455ZM485.386 390.273C484.204 390.273 483.167 389.991 482.275 389.429C481.388 388.866 480.695 388.08 480.195 387.068C479.701 386.057 479.454 384.875 479.454 383.523C479.454 382.159 479.701 380.969 480.195 379.952C480.695 378.935 481.388 378.145 482.275 377.582C483.167 377.02 484.204 376.739 485.386 376.739C486.567 376.739 487.602 377.02 488.488 377.582C489.38 378.145 490.073 378.935 490.567 379.952C491.067 380.969 491.317 382.159 491.317 383.523C491.317 384.875 491.067 386.057 490.567 387.068C490.073 388.08 489.38 388.866 488.488 389.429C487.602 389.991 486.567 390.273 485.386 390.273ZM485.386 388.466C486.283 388.466 487.022 388.236 487.602 387.776C488.181 387.315 488.61 386.71 488.888 385.96C489.167 385.21 489.306 384.398 489.306 383.523C489.306 382.648 489.167 381.832 488.888 381.077C488.61 380.321 488.181 379.71 487.602 379.244C487.022 378.778 486.283 378.545 485.386 378.545C484.488 378.545 483.749 378.778 483.17 379.244C482.59 379.71 482.161 380.321 481.883 381.077C481.604 381.832 481.465 382.648 481.465 383.523C481.465 384.398 481.604 385.21 481.883 385.96C482.161 386.71 482.59 387.315 483.17 387.776C483.749 388.236 484.488 388.466 485.386 388.466ZM498.24 390.307C497.411 390.307 496.658 390.151 495.982 389.838C495.305 389.52 494.768 389.062 494.371 388.466C493.973 387.864 493.774 387.136 493.774 386.284C493.774 385.534 493.922 384.926 494.217 384.46C494.513 383.989 494.908 383.619 495.402 383.352C495.896 383.085 496.442 382.886 497.038 382.756C497.641 382.619 498.246 382.511 498.854 382.432C499.649 382.33 500.294 382.253 500.788 382.202C501.288 382.145 501.652 382.051 501.879 381.92C502.112 381.79 502.229 381.562 502.229 381.239V381.17C502.229 380.33 501.999 379.676 501.538 379.21C501.084 378.744 500.393 378.511 499.467 378.511C498.507 378.511 497.754 378.722 497.209 379.142C496.663 379.562 496.28 380.011 496.058 380.489L494.149 379.807C494.49 379.011 494.945 378.392 495.513 377.949C496.087 377.5 496.712 377.187 497.388 377.011C498.07 376.83 498.74 376.739 499.399 376.739C499.82 376.739 500.303 376.79 500.848 376.892C501.399 376.989 501.93 377.19 502.442 377.497C502.959 377.804 503.388 378.267 503.729 378.886C504.07 379.506 504.24 380.335 504.24 381.375V390H502.229V388.227H502.126C501.99 388.511 501.763 388.815 501.445 389.139C501.126 389.463 500.703 389.739 500.175 389.966C499.646 390.193 499.001 390.307 498.24 390.307ZM498.547 388.5C499.342 388.5 500.013 388.344 500.558 388.031C501.109 387.719 501.524 387.315 501.803 386.821C502.087 386.327 502.229 385.807 502.229 385.261V383.42C502.143 383.523 501.956 383.616 501.666 383.702C501.382 383.781 501.053 383.852 500.678 383.915C500.308 383.972 499.947 384.023 499.595 384.068C499.249 384.108 498.967 384.142 498.751 384.17C498.229 384.239 497.74 384.349 497.286 384.503C496.837 384.651 496.473 384.875 496.195 385.176C495.922 385.472 495.786 385.875 495.786 386.386C495.786 387.085 496.044 387.614 496.561 387.972C497.084 388.324 497.746 388.5 498.547 388.5ZM507.911 390V376.909H509.854V378.886H509.991C510.229 378.239 510.661 377.713 511.286 377.31C511.911 376.906 512.616 376.705 513.4 376.705C513.548 376.705 513.732 376.707 513.954 376.713C514.175 376.719 514.343 376.727 514.457 376.739V378.784C514.388 378.767 514.232 378.741 513.988 378.707C513.749 378.668 513.496 378.648 513.229 378.648C512.593 378.648 512.025 378.781 511.525 379.048C511.031 379.31 510.638 379.673 510.349 380.139C510.065 380.599 509.923 381.125 509.923 381.716V390H507.911ZM521.386 390.273C520.295 390.273 519.332 389.997 518.496 389.446C517.661 388.889 517.008 388.105 516.536 387.094C516.065 386.077 515.829 384.875 515.829 383.489C515.829 382.114 516.065 380.92 516.536 379.909C517.008 378.898 517.664 378.116 518.505 377.565C519.346 377.014 520.317 376.739 521.42 376.739C522.272 376.739 522.945 376.881 523.44 377.165C523.94 377.443 524.32 377.761 524.582 378.119C524.849 378.472 525.056 378.761 525.204 378.989H525.374V372.545H527.386V390H525.442V387.989H525.204C525.056 388.227 524.846 388.528 524.573 388.892C524.3 389.25 523.911 389.571 523.406 389.855C522.9 390.134 522.227 390.273 521.386 390.273ZM521.658 388.466C522.465 388.466 523.147 388.256 523.704 387.835C524.261 387.409 524.684 386.821 524.974 386.071C525.263 385.315 525.408 384.443 525.408 383.455C525.408 382.477 525.266 381.622 524.982 380.889C524.698 380.151 524.278 379.577 523.721 379.168C523.164 378.753 522.477 378.545 521.658 378.545C520.806 378.545 520.096 378.764 519.528 379.202C518.965 379.634 518.542 380.222 518.258 380.966C517.979 381.705 517.84 382.534 517.84 383.455C517.84 384.386 517.982 385.233 518.266 385.994C518.556 386.75 518.982 387.352 519.545 387.801C520.113 388.244 520.817 388.466 521.658 388.466ZM531.349 390V376.909H533.36V390H531.349ZM532.371 374.727C531.979 374.727 531.641 374.594 531.357 374.327C531.079 374.06 530.94 373.739 530.94 373.364C530.94 372.989 531.079 372.668 531.357 372.401C531.641 372.134 531.979 372 532.371 372C532.763 372 533.099 372.134 533.377 372.401C533.661 372.668 533.803 372.989 533.803 373.364C533.803 373.739 533.661 374.06 533.377 374.327C533.099 374.594 532.763 374.727 532.371 374.727ZM539.055 382.125V390H537.044V376.909H538.987V378.955H539.158C539.464 378.29 539.93 377.756 540.555 377.352C541.18 376.943 541.987 376.739 542.976 376.739C543.862 376.739 544.638 376.92 545.303 377.284C545.967 377.642 546.484 378.188 546.854 378.92C547.223 379.648 547.408 380.568 547.408 381.682V390H545.396V381.818C545.396 380.79 545.129 379.989 544.595 379.415C544.061 378.835 543.328 378.545 542.396 378.545C541.754 378.545 541.18 378.685 540.675 378.963C540.175 379.241 539.78 379.648 539.49 380.182C539.2 380.716 539.055 381.364 539.055 382.125ZM556.367 395.182C555.396 395.182 554.56 395.057 553.862 394.807C553.163 394.562 552.58 394.239 552.114 393.835C551.654 393.438 551.288 393.011 551.015 392.557L552.617 391.432C552.799 391.67 553.029 391.943 553.308 392.25C553.586 392.562 553.967 392.832 554.45 393.06C554.938 393.293 555.577 393.409 556.367 393.409C557.424 393.409 558.296 393.153 558.984 392.642C559.671 392.131 560.015 391.33 560.015 390.239V387.58H559.844C559.697 387.818 559.487 388.114 559.214 388.466C558.947 388.812 558.56 389.122 558.055 389.395C557.555 389.662 556.879 389.795 556.026 389.795C554.969 389.795 554.021 389.545 553.18 389.045C552.344 388.545 551.683 387.818 551.194 386.864C550.711 385.909 550.469 384.75 550.469 383.386C550.469 382.045 550.705 380.878 551.177 379.884C551.648 378.884 552.305 378.111 553.146 377.565C553.987 377.014 554.958 376.739 556.06 376.739C556.913 376.739 557.589 376.881 558.089 377.165C558.594 377.443 558.981 377.761 559.248 378.119C559.521 378.472 559.731 378.761 559.879 378.989H560.083V376.909H562.026V390.375C562.026 391.5 561.771 392.415 561.259 393.119C560.754 393.83 560.072 394.349 559.214 394.679C558.362 395.014 557.413 395.182 556.367 395.182ZM556.299 387.989C557.106 387.989 557.788 387.804 558.344 387.435C558.901 387.065 559.325 386.534 559.614 385.841C559.904 385.148 560.049 384.318 560.049 383.352C560.049 382.409 559.907 381.577 559.623 380.855C559.339 380.134 558.918 379.568 558.362 379.159C557.805 378.75 557.117 378.545 556.299 378.545C555.447 378.545 554.737 378.761 554.168 379.193C553.606 379.625 553.183 380.205 552.898 380.932C552.62 381.659 552.481 382.466 552.481 383.352C552.481 384.261 552.623 385.065 552.907 385.764C553.197 386.457 553.623 387.003 554.185 387.401C554.754 387.793 555.458 387.989 556.299 387.989Z" fill="white"/>
<path d="M581.339 386.42V384.682L589.009 372.545H590.271V375.239H589.419L583.623 384.409V384.545H593.953V386.42H581.339ZM589.555 390V385.892V385.082V372.545H591.566V390H589.555ZM596.737 386.42V384.682L604.408 372.545H605.669V375.239H604.817L599.022 384.409V384.545H609.351V386.42H596.737ZM604.953 390V385.892V385.082V372.545H606.965V390H604.953ZM613.225 390.136C612.804 390.136 612.443 389.986 612.142 389.685C611.841 389.384 611.691 389.023 611.691 388.602C611.691 388.182 611.841 387.821 612.142 387.52C612.443 387.219 612.804 387.068 613.225 387.068C613.645 387.068 614.006 387.219 614.307 387.52C614.608 387.821 614.759 388.182 614.759 388.602C614.759 388.881 614.688 389.136 614.546 389.369C614.409 389.602 614.225 389.79 613.992 389.932C613.764 390.068 613.509 390.136 613.225 390.136ZM618.528 390L626.335 374.557V374.42H617.335V372.545H628.517V374.523L620.744 390H618.528ZM629.878 386.42V384.682L637.549 372.545H638.81V375.239H637.958L632.162 384.409V384.545H642.492V386.42H629.878ZM638.094 390V385.892V385.082V372.545H640.105V390H638.094ZM654.583 386.727V385.807C654.583 385.17 654.714 384.588 654.975 384.06C655.242 383.526 655.629 383.099 656.134 382.781C656.646 382.457 657.265 382.295 657.992 382.295C658.731 382.295 659.35 382.457 659.85 382.781C660.35 383.099 660.728 383.526 660.984 384.06C661.24 384.588 661.367 385.17 661.367 385.807V386.727C661.367 387.364 661.237 387.949 660.975 388.483C660.72 389.011 660.339 389.437 659.833 389.761C659.333 390.08 658.72 390.239 657.992 390.239C657.254 390.239 656.632 390.08 656.126 389.761C655.62 389.437 655.237 389.011 654.975 388.483C654.714 387.949 654.583 387.364 654.583 386.727ZM656.322 385.807V386.727C656.322 387.256 656.447 387.73 656.697 388.151C656.947 388.565 657.379 388.773 657.992 388.773C658.589 388.773 659.009 388.565 659.254 388.151C659.504 387.73 659.629 387.256 659.629 386.727V385.807C659.629 385.278 659.509 384.807 659.271 384.392C659.032 383.972 658.606 383.761 657.992 383.761C657.396 383.761 656.967 383.972 656.705 384.392C656.45 384.807 656.322 385.278 656.322 385.807ZM645.89 376.739V375.818C645.89 375.182 646.021 374.599 646.282 374.071C646.549 373.537 646.936 373.111 647.441 372.793C647.953 372.469 648.572 372.307 649.299 372.307C650.038 372.307 650.657 372.469 651.157 372.793C651.657 373.111 652.035 373.537 652.291 374.071C652.546 374.599 652.674 375.182 652.674 375.818V376.739C652.674 377.375 652.544 377.96 652.282 378.494C652.027 379.023 651.646 379.449 651.14 379.773C650.64 380.091 650.027 380.25 649.299 380.25C648.561 380.25 647.938 380.091 647.433 379.773C646.927 379.449 646.544 379.023 646.282 378.494C646.021 377.96 645.89 377.375 645.89 376.739ZM647.629 375.818V376.739C647.629 377.267 647.754 377.741 648.004 378.162C648.254 378.577 648.686 378.784 649.299 378.784C649.896 378.784 650.316 378.577 650.561 378.162C650.811 377.741 650.936 377.267 650.936 376.739V375.818C650.936 375.29 650.816 374.818 650.578 374.403C650.339 373.983 649.913 373.773 649.299 373.773C648.703 373.773 648.274 373.983 648.012 374.403C647.757 374.818 647.629 375.29 647.629 375.818ZM646.538 390L658.538 372.545H660.481L648.481 390H646.538Z" fill="white"/>
<path d="M154.114 519V501.545H164.58V503.42H156.227V509.318H163.795V511.193H156.227V519H154.114ZM172.284 519.273C171.102 519.273 170.065 518.991 169.173 518.429C168.287 517.866 167.594 517.08 167.094 516.068C166.599 515.057 166.352 513.875 166.352 512.523C166.352 511.159 166.599 509.969 167.094 508.952C167.594 507.935 168.287 507.145 169.173 506.582C170.065 506.02 171.102 505.739 172.284 505.739C173.466 505.739 174.5 506.02 175.386 506.582C176.278 507.145 176.972 507.935 177.466 508.952C177.966 509.969 178.216 511.159 178.216 512.523C178.216 513.875 177.966 515.057 177.466 516.068C176.972 517.08 176.278 517.866 175.386 518.429C174.5 518.991 173.466 519.273 172.284 519.273ZM172.284 517.466C173.182 517.466 173.92 517.236 174.5 516.776C175.08 516.315 175.509 515.71 175.787 514.96C176.065 514.21 176.205 513.398 176.205 512.523C176.205 511.648 176.065 510.832 175.787 510.077C175.509 509.321 175.08 508.71 174.5 508.244C173.92 507.778 173.182 507.545 172.284 507.545C171.386 507.545 170.648 507.778 170.068 508.244C169.489 508.71 169.06 509.321 168.781 510.077C168.503 510.832 168.364 511.648 168.364 512.523C168.364 513.398 168.503 514.21 168.781 514.96C169.06 515.71 169.489 516.315 170.068 516.776C170.648 517.236 171.386 517.466 172.284 517.466ZM183.298 501.545V519H181.286V501.545H183.298ZM188.993 501.545V519H186.982V501.545H188.993ZM197.995 519.273C196.813 519.273 195.776 518.991 194.884 518.429C193.998 517.866 193.305 517.08 192.805 516.068C192.31 515.057 192.063 513.875 192.063 512.523C192.063 511.159 192.31 509.969 192.805 508.952C193.305 507.935 193.998 507.145 194.884 506.582C195.776 506.02 196.813 505.739 197.995 505.739C199.177 505.739 200.211 506.02 201.097 506.582C201.989 507.145 202.683 507.935 203.177 508.952C203.677 509.969 203.927 511.159 203.927 512.523C203.927 513.875 203.677 515.057 203.177 516.068C202.683 517.08 201.989 517.866 201.097 518.429C200.211 518.991 199.177 519.273 197.995 519.273ZM197.995 517.466C198.893 517.466 199.631 517.236 200.211 516.776C200.79 516.315 201.219 515.71 201.498 514.96C201.776 514.21 201.915 513.398 201.915 512.523C201.915 511.648 201.776 510.832 201.498 510.077C201.219 509.321 200.79 508.71 200.211 508.244C199.631 507.778 198.893 507.545 197.995 507.545C197.097 507.545 196.359 507.778 195.779 508.244C195.2 508.71 194.771 509.321 194.492 510.077C194.214 510.832 194.075 511.648 194.075 512.523C194.075 513.398 194.214 514.21 194.492 514.96C194.771 515.71 195.2 516.315 195.779 516.776C196.359 517.236 197.097 517.466 197.995 517.466ZM209.518 519L205.529 505.909H207.643L210.472 515.932H210.609L213.404 505.909H215.552L218.313 515.898H218.45L221.279 505.909H223.393L219.404 519H217.427L214.563 508.943H214.359L211.495 519H209.518ZM233.552 510.58V512.455H225.915V510.58H233.552ZM248.818 501.545H250.932V513.102C250.932 514.295 250.651 515.361 250.088 516.298C249.531 517.23 248.744 517.966 247.727 518.506C246.71 519.04 245.517 519.307 244.148 519.307C242.778 519.307 241.585 519.04 240.568 518.506C239.551 517.966 238.761 517.23 238.199 516.298C237.642 515.361 237.364 514.295 237.364 513.102V501.545H239.477V512.932C239.477 513.784 239.665 514.543 240.04 515.207C240.415 515.866 240.949 516.386 241.642 516.767C242.341 517.142 243.176 517.33 244.148 517.33C245.119 517.33 245.955 517.142 246.653 516.767C247.352 516.386 247.886 515.866 248.256 515.207C248.631 514.543 248.818 513.784 248.818 512.932V501.545ZM254.88 523.909V505.909H256.823V507.989H257.062C257.21 507.761 257.414 507.472 257.675 507.119C257.942 506.761 258.323 506.443 258.817 506.165C259.317 505.881 259.994 505.739 260.846 505.739C261.948 505.739 262.92 506.014 263.761 506.565C264.602 507.116 265.258 507.898 265.729 508.909C266.201 509.92 266.437 511.114 266.437 512.489C266.437 513.875 266.201 515.077 265.729 516.094C265.258 517.105 264.604 517.889 263.769 518.446C262.934 518.997 261.971 519.273 260.88 519.273C260.039 519.273 259.366 519.134 258.86 518.855C258.354 518.571 257.965 518.25 257.692 517.892C257.42 517.528 257.21 517.227 257.062 516.989H256.891V523.909H254.88ZM256.857 512.455C256.857 513.443 257.002 514.315 257.292 515.071C257.582 515.821 258.005 516.409 258.562 516.835C259.119 517.256 259.8 517.466 260.607 517.466C261.448 517.466 262.15 517.244 262.712 516.801C263.281 516.352 263.707 515.75 263.991 514.994C264.281 514.233 264.425 513.386 264.425 512.455C264.425 511.534 264.283 510.705 263.999 509.966C263.721 509.222 263.298 508.634 262.729 508.202C262.167 507.764 261.46 507.545 260.607 507.545C259.789 507.545 259.102 507.753 258.545 508.168C257.988 508.577 257.567 509.151 257.283 509.889C256.999 510.622 256.857 511.477 256.857 512.455Z" fill="white"/>
<path d="M284.807 519V517.466L290.568 511.159C291.244 510.42 291.801 509.778 292.239 509.233C292.676 508.682 293 508.165 293.21 507.682C293.426 507.193 293.534 506.682 293.534 506.148C293.534 505.534 293.386 505.003 293.091 504.554C292.801 504.105 292.403 503.759 291.898 503.514C291.392 503.27 290.824 503.148 290.193 503.148C289.523 503.148 288.938 503.287 288.438 503.565C287.943 503.838 287.56 504.222 287.287 504.716C287.02 505.21 286.886 505.79 286.886 506.455H284.875C284.875 505.432 285.111 504.534 285.582 503.761C286.054 502.989 286.696 502.386 287.509 501.955C288.327 501.523 289.244 501.307 290.261 501.307C291.284 501.307 292.19 501.523 292.98 501.955C293.77 502.386 294.389 502.969 294.838 503.702C295.287 504.435 295.511 505.25 295.511 506.148C295.511 506.79 295.395 507.418 295.162 508.031C294.935 508.639 294.537 509.318 293.969 510.068C293.406 510.812 292.625 511.722 291.625 512.795L287.705 516.989V517.125H295.818V519H284.807ZM304.895 501.307C305.611 501.312 306.327 501.449 307.043 501.716C307.759 501.983 308.412 502.426 309.003 503.045C309.594 503.659 310.068 504.497 310.426 505.56C310.784 506.622 310.963 507.955 310.963 509.557C310.963 511.108 310.815 512.486 310.52 513.69C310.23 514.889 309.81 515.901 309.259 516.724C308.713 517.548 308.048 518.173 307.264 518.599C306.486 519.026 305.605 519.239 304.622 519.239C303.645 519.239 302.773 519.045 302.006 518.659C301.244 518.267 300.619 517.724 300.131 517.031C299.648 516.332 299.338 515.523 299.202 514.602H301.281C301.469 515.403 301.841 516.065 302.398 516.588C302.96 517.105 303.702 517.364 304.622 517.364C305.969 517.364 307.031 516.776 307.81 515.599C308.594 514.423 308.986 512.761 308.986 510.614H308.849C308.531 511.091 308.153 511.503 307.716 511.849C307.278 512.196 306.793 512.463 306.259 512.651C305.724 512.838 305.156 512.932 304.554 512.932C303.554 512.932 302.636 512.685 301.801 512.19C300.972 511.69 300.307 511.006 299.807 510.136C299.312 509.261 299.065 508.261 299.065 507.136C299.065 506.068 299.304 505.091 299.781 504.205C300.264 503.312 300.94 502.602 301.81 502.074C302.685 501.545 303.713 501.29 304.895 501.307ZM304.895 503.182C304.179 503.182 303.534 503.361 302.96 503.719C302.392 504.071 301.94 504.548 301.605 505.151C301.276 505.747 301.111 506.409 301.111 507.136C301.111 507.864 301.27 508.526 301.588 509.122C301.912 509.713 302.352 510.185 302.909 510.537C303.472 510.884 304.111 511.057 304.827 511.057C305.366 511.057 305.869 510.952 306.335 510.741C306.801 510.526 307.207 510.233 307.554 509.864C307.906 509.489 308.182 509.065 308.381 508.594C308.58 508.116 308.679 507.619 308.679 507.102C308.679 506.42 308.514 505.781 308.185 505.185C307.861 504.588 307.412 504.105 306.838 503.736C306.27 503.366 305.622 503.182 304.895 503.182ZM315.205 519.136C314.785 519.136 314.424 518.986 314.123 518.685C313.822 518.384 313.671 518.023 313.671 517.602C313.671 517.182 313.822 516.821 314.123 516.52C314.424 516.219 314.785 516.068 315.205 516.068C315.626 516.068 315.987 516.219 316.288 516.52C316.589 516.821 316.739 517.182 316.739 517.602C316.739 517.881 316.668 518.136 316.526 518.369C316.39 518.602 316.205 518.79 315.972 518.932C315.745 519.068 315.489 519.136 315.205 519.136ZM325.366 519.239C324.196 519.239 323.162 519.031 322.264 518.616C321.372 518.196 320.676 517.619 320.176 516.886C319.676 516.148 319.429 515.307 319.435 514.364C319.429 513.625 319.574 512.943 319.869 512.318C320.165 511.687 320.568 511.162 321.08 510.741C321.597 510.315 322.173 510.045 322.81 509.932V509.83C321.974 509.614 321.31 509.145 320.815 508.423C320.321 507.696 320.077 506.869 320.082 505.943C320.077 505.057 320.301 504.264 320.756 503.565C321.21 502.866 321.835 502.315 322.631 501.912C323.432 501.509 324.344 501.307 325.366 501.307C326.378 501.307 327.281 501.509 328.077 501.912C328.872 502.315 329.497 502.866 329.952 503.565C330.412 504.264 330.645 505.057 330.651 505.943C330.645 506.869 330.392 507.696 329.892 508.423C329.398 509.145 328.741 509.614 327.923 509.83V509.932C328.554 510.045 329.122 510.315 329.628 510.741C330.134 511.162 330.537 511.687 330.838 512.318C331.139 512.943 331.293 513.625 331.298 514.364C331.293 515.307 331.037 516.148 330.531 516.886C330.031 517.619 329.335 518.196 328.443 518.616C327.557 519.031 326.531 519.239 325.366 519.239ZM325.366 517.364C326.156 517.364 326.838 517.236 327.412 516.98C327.986 516.724 328.429 516.364 328.741 515.898C329.054 515.432 329.213 514.886 329.219 514.261C329.213 513.602 329.043 513.02 328.707 512.514C328.372 512.009 327.915 511.611 327.335 511.321C326.761 511.031 326.105 510.886 325.366 510.886C324.622 510.886 323.957 511.031 323.372 511.321C322.793 511.611 322.335 512.009 322 512.514C321.67 513.02 321.509 513.602 321.514 514.261C321.509 514.886 321.659 515.432 321.966 515.898C322.278 516.364 322.724 516.724 323.304 516.98C323.884 517.236 324.571 517.364 325.366 517.364ZM325.366 509.08C325.991 509.08 326.545 508.955 327.028 508.705C327.517 508.455 327.901 508.105 328.179 507.656C328.457 507.207 328.599 506.682 328.605 506.08C328.599 505.489 328.46 504.974 328.188 504.537C327.915 504.094 327.537 503.753 327.054 503.514C326.571 503.27 326.009 503.148 325.366 503.148C324.713 503.148 324.142 503.27 323.653 503.514C323.165 503.753 322.787 504.094 322.52 504.537C322.253 504.974 322.122 505.489 322.128 506.08C322.122 506.682 322.256 507.207 322.528 507.656C322.807 508.105 323.19 508.455 323.679 508.705C324.168 508.955 324.73 509.08 325.366 509.08ZM334.156 515.42V513.682L341.826 501.545H343.087V504.239H342.235L336.44 513.409V513.545H346.769V515.42H334.156ZM342.371 519V514.892V514.082V501.545H344.383V519H342.371ZM358.861 515.727V514.807C358.861 514.17 358.991 513.588 359.253 513.06C359.52 512.526 359.906 512.099 360.412 511.781C360.923 511.457 361.543 511.295 362.27 511.295C363.009 511.295 363.628 511.457 364.128 511.781C364.628 512.099 365.006 512.526 365.261 513.06C365.517 513.588 365.645 514.17 365.645 514.807V515.727C365.645 516.364 365.514 516.949 365.253 517.483C364.997 518.011 364.616 518.437 364.111 518.761C363.611 519.08 362.997 519.239 362.27 519.239C361.531 519.239 360.909 519.08 360.403 518.761C359.898 518.437 359.514 518.011 359.253 517.483C358.991 516.949 358.861 516.364 358.861 515.727ZM360.599 514.807V515.727C360.599 516.256 360.724 516.73 360.974 517.151C361.224 517.565 361.656 517.773 362.27 517.773C362.866 517.773 363.287 517.565 363.531 517.151C363.781 516.73 363.906 516.256 363.906 515.727V514.807C363.906 514.278 363.787 513.807 363.548 513.392C363.31 512.972 362.884 512.761 362.27 512.761C361.673 512.761 361.244 512.972 360.983 513.392C360.727 513.807 360.599 514.278 360.599 514.807ZM350.168 505.739V504.818C350.168 504.182 350.298 503.599 350.56 503.071C350.827 502.537 351.213 502.111 351.719 501.793C352.23 501.469 352.849 501.307 353.577 501.307C354.315 501.307 354.935 501.469 355.435 501.793C355.935 502.111 356.313 502.537 356.568 503.071C356.824 503.599 356.952 504.182 356.952 504.818V505.739C356.952 506.375 356.821 506.96 356.56 507.494C356.304 508.023 355.923 508.449 355.418 508.773C354.918 509.091 354.304 509.25 353.577 509.25C352.838 509.25 352.216 509.091 351.71 508.773C351.205 508.449 350.821 508.023 350.56 507.494C350.298 506.96 350.168 506.375 350.168 505.739ZM351.906 504.818V505.739C351.906 506.267 352.031 506.741 352.281 507.162C352.531 507.577 352.963 507.784 353.577 507.784C354.173 507.784 354.594 507.577 354.838 507.162C355.088 506.741 355.213 506.267 355.213 505.739V504.818C355.213 504.29 355.094 503.818 354.855 503.403C354.616 502.983 354.19 502.773 353.577 502.773C352.98 502.773 352.551 502.983 352.29 503.403C352.034 503.818 351.906 504.29 351.906 504.818ZM350.815 519L362.815 501.545H364.759L352.759 519H350.815Z" fill="white"/>
<path d="M132.114 276V258.545H138.011C139.375 258.545 140.494 258.778 141.369 259.244C142.244 259.705 142.892 260.338 143.312 261.145C143.733 261.952 143.943 262.869 143.943 263.898C143.943 264.926 143.733 265.838 143.312 266.634C142.892 267.429 142.247 268.054 141.378 268.509C140.509 268.957 139.398 269.182 138.045 269.182H133.273V267.273H137.977C138.909 267.273 139.659 267.136 140.227 266.864C140.801 266.591 141.216 266.205 141.472 265.705C141.733 265.199 141.864 264.597 141.864 263.898C141.864 263.199 141.733 262.588 141.472 262.065C141.21 261.543 140.793 261.139 140.219 260.855C139.645 260.565 138.886 260.42 137.943 260.42H134.227V276H132.114ZM140.33 268.159L144.625 276H142.17L137.943 268.159H140.33ZM152.54 276.273C151.279 276.273 150.191 275.994 149.276 275.438C148.367 274.875 147.665 274.091 147.171 273.085C146.683 272.074 146.438 270.898 146.438 269.557C146.438 268.216 146.683 267.034 147.171 266.011C147.665 264.983 148.353 264.182 149.234 263.608C150.12 263.028 151.154 262.739 152.336 262.739C153.018 262.739 153.691 262.852 154.356 263.08C155.021 263.307 155.626 263.676 156.171 264.188C156.717 264.693 157.151 265.364 157.475 266.199C157.799 267.034 157.961 268.062 157.961 269.284V270.136H147.87V268.398H155.915C155.915 267.659 155.768 267 155.472 266.42C155.183 265.841 154.768 265.384 154.228 265.048C153.694 264.713 153.063 264.545 152.336 264.545C151.535 264.545 150.842 264.744 150.256 265.142C149.677 265.534 149.231 266.045 148.918 266.676C148.606 267.307 148.45 267.983 148.45 268.705V269.864C148.45 270.852 148.62 271.69 148.961 272.378C149.308 273.06 149.788 273.58 150.401 273.938C151.015 274.29 151.728 274.466 152.54 274.466C153.069 274.466 153.546 274.392 153.972 274.244C154.404 274.091 154.776 273.864 155.089 273.562C155.401 273.256 155.643 272.875 155.813 272.42L157.756 272.966C157.552 273.625 157.208 274.205 156.725 274.705C156.242 275.199 155.646 275.585 154.935 275.864C154.225 276.136 153.427 276.273 152.54 276.273ZM161.021 280.909V262.909H162.964V264.989H163.202C163.35 264.761 163.555 264.472 163.816 264.119C164.083 263.761 164.464 263.443 164.958 263.165C165.458 262.881 166.134 262.739 166.987 262.739C168.089 262.739 169.06 263.014 169.901 263.565C170.742 264.116 171.398 264.898 171.87 265.909C172.342 266.92 172.577 268.114 172.577 269.489C172.577 270.875 172.342 272.077 171.87 273.094C171.398 274.105 170.745 274.889 169.91 275.446C169.075 275.997 168.112 276.273 167.021 276.273C166.18 276.273 165.506 276.134 165.001 275.855C164.495 275.571 164.106 275.25 163.833 274.892C163.56 274.528 163.35 274.227 163.202 273.989H163.032V280.909H161.021ZM162.998 269.455C162.998 270.443 163.143 271.315 163.433 272.071C163.722 272.821 164.146 273.409 164.702 273.835C165.259 274.256 165.941 274.466 166.748 274.466C167.589 274.466 168.29 274.244 168.853 273.801C169.421 273.352 169.847 272.75 170.131 271.994C170.421 271.233 170.566 270.386 170.566 269.455C170.566 268.534 170.424 267.705 170.14 266.966C169.862 266.222 169.438 265.634 168.87 265.202C168.308 264.764 167.6 264.545 166.748 264.545C165.93 264.545 165.242 264.753 164.685 265.168C164.129 265.577 163.708 266.151 163.424 266.889C163.14 267.622 162.998 268.477 162.998 269.455ZM183.896 270.648V262.909H185.907V276H183.896V273.784H183.759C183.452 274.449 182.975 275.014 182.327 275.48C181.68 275.94 180.862 276.17 179.873 276.17C179.055 276.17 178.327 275.991 177.691 275.634C177.055 275.27 176.555 274.724 176.191 273.997C175.827 273.264 175.646 272.341 175.646 271.227V262.909H177.657V271.091C177.657 272.045 177.924 272.807 178.458 273.375C178.998 273.943 179.685 274.227 180.521 274.227C181.021 274.227 181.529 274.099 182.046 273.844C182.569 273.588 183.006 273.196 183.359 272.668C183.717 272.139 183.896 271.466 183.896 270.648ZM189.591 276V262.909H191.534V264.886H191.67C191.909 264.239 192.341 263.713 192.966 263.31C193.591 262.906 194.295 262.705 195.08 262.705C195.227 262.705 195.412 262.707 195.634 262.713C195.855 262.719 196.023 262.727 196.136 262.739V264.784C196.068 264.767 195.912 264.741 195.668 264.707C195.429 264.668 195.176 264.648 194.909 264.648C194.273 264.648 193.705 264.781 193.205 265.048C192.71 265.31 192.318 265.673 192.028 266.139C191.744 266.599 191.602 267.125 191.602 267.716V276H189.591ZM198.521 280.909V262.909H200.464V264.989H200.702C200.85 264.761 201.055 264.472 201.316 264.119C201.583 263.761 201.964 263.443 202.458 263.165C202.958 262.881 203.634 262.739 204.487 262.739C205.589 262.739 206.56 263.014 207.401 263.565C208.242 264.116 208.898 264.898 209.37 265.909C209.842 266.92 210.077 268.114 210.077 269.489C210.077 270.875 209.842 272.077 209.37 273.094C208.898 274.105 208.245 274.889 207.41 275.446C206.575 275.997 205.612 276.273 204.521 276.273C203.68 276.273 203.006 276.134 202.501 275.855C201.995 275.571 201.606 275.25 201.333 274.892C201.06 274.528 200.85 274.227 200.702 273.989H200.532V280.909H198.521ZM200.498 269.455C200.498 270.443 200.643 271.315 200.933 272.071C201.222 272.821 201.646 273.409 202.202 273.835C202.759 274.256 203.441 274.466 204.248 274.466C205.089 274.466 205.79 274.244 206.353 273.801C206.921 273.352 207.347 272.75 207.631 271.994C207.921 271.233 208.066 270.386 208.066 269.455C208.066 268.534 207.924 267.705 207.64 266.966C207.362 266.222 206.938 265.634 206.37 265.202C205.808 264.764 205.1 264.545 204.248 264.545C203.43 264.545 202.742 264.753 202.185 265.168C201.629 265.577 201.208 266.151 200.924 266.889C200.64 267.622 200.498 268.477 200.498 269.455ZM218.464 276.273C217.282 276.273 216.245 275.991 215.353 275.429C214.467 274.866 213.773 274.08 213.273 273.068C212.779 272.057 212.532 270.875 212.532 269.523C212.532 268.159 212.779 266.969 213.273 265.952C213.773 264.935 214.467 264.145 215.353 263.582C216.245 263.02 217.282 262.739 218.464 262.739C219.646 262.739 220.68 263.02 221.566 263.582C222.458 264.145 223.151 264.935 223.646 265.952C224.146 266.969 224.396 268.159 224.396 269.523C224.396 270.875 224.146 272.057 223.646 273.068C223.151 274.08 222.458 274.866 221.566 275.429C220.68 275.991 219.646 276.273 218.464 276.273ZM218.464 274.466C219.362 274.466 220.1 274.236 220.68 273.776C221.259 273.315 221.688 272.71 221.967 271.96C222.245 271.21 222.384 270.398 222.384 269.523C222.384 268.648 222.245 267.832 221.967 267.077C221.688 266.321 221.259 265.71 220.68 265.244C220.1 264.778 219.362 264.545 218.464 264.545C217.566 264.545 216.827 264.778 216.248 265.244C215.668 265.71 215.239 266.321 214.961 267.077C214.683 267.832 214.543 268.648 214.543 269.523C214.543 270.398 214.683 271.21 214.961 271.96C215.239 272.71 215.668 273.315 216.248 273.776C216.827 274.236 217.566 274.466 218.464 274.466ZM236.739 265.841L234.932 266.352C234.818 266.051 234.651 265.759 234.429 265.474C234.213 265.185 233.918 264.946 233.543 264.759C233.168 264.571 232.688 264.477 232.102 264.477C231.301 264.477 230.634 264.662 230.099 265.031C229.571 265.395 229.307 265.858 229.307 266.42C229.307 266.92 229.489 267.315 229.852 267.605C230.216 267.895 230.784 268.136 231.557 268.33L233.5 268.807C234.67 269.091 235.543 269.526 236.116 270.111C236.69 270.69 236.977 271.437 236.977 272.352C236.977 273.102 236.761 273.773 236.33 274.364C235.903 274.955 235.307 275.42 234.54 275.761C233.773 276.102 232.881 276.273 231.864 276.273C230.528 276.273 229.423 275.983 228.548 275.403C227.673 274.824 227.119 273.977 226.886 272.864L228.795 272.386C228.977 273.091 229.321 273.619 229.827 273.972C230.338 274.324 231.006 274.5 231.83 274.5C232.767 274.5 233.511 274.301 234.062 273.903C234.619 273.5 234.898 273.017 234.898 272.455C234.898 272 234.739 271.619 234.42 271.312C234.102 271 233.614 270.767 232.955 270.614L230.773 270.102C229.574 269.818 228.693 269.378 228.131 268.781C227.574 268.179 227.295 267.426 227.295 266.523C227.295 265.784 227.503 265.131 227.918 264.562C228.338 263.994 228.909 263.548 229.631 263.224C230.358 262.901 231.182 262.739 232.102 262.739C233.398 262.739 234.415 263.023 235.153 263.591C235.898 264.159 236.426 264.909 236.739 265.841ZM240.005 276V262.909H242.016V276H240.005ZM241.028 260.727C240.636 260.727 240.298 260.594 240.013 260.327C239.735 260.06 239.596 259.739 239.596 259.364C239.596 258.989 239.735 258.668 240.013 258.401C240.298 258.134 240.636 258 241.028 258C241.42 258 241.755 258.134 242.033 258.401C242.317 258.668 242.46 258.989 242.46 259.364C242.46 259.739 242.317 260.06 242.033 260.327C241.755 260.594 241.42 260.727 241.028 260.727ZM247.712 268.125V276H245.7V262.909H247.643V264.955H247.814C248.121 264.29 248.587 263.756 249.212 263.352C249.837 262.943 250.643 262.739 251.632 262.739C252.518 262.739 253.294 262.92 253.959 263.284C254.624 263.642 255.141 264.188 255.51 264.92C255.879 265.648 256.064 266.568 256.064 267.682V276H254.053V267.818C254.053 266.79 253.786 265.989 253.251 265.415C252.717 264.835 251.984 264.545 251.053 264.545C250.411 264.545 249.837 264.685 249.331 264.963C248.831 265.241 248.436 265.648 248.146 266.182C247.857 266.716 247.712 267.364 247.712 268.125ZM265.023 281.182C264.052 281.182 263.217 281.057 262.518 280.807C261.819 280.562 261.237 280.239 260.771 279.835C260.31 279.438 259.944 279.011 259.671 278.557L261.273 277.432C261.455 277.67 261.685 277.943 261.964 278.25C262.242 278.562 262.623 278.832 263.106 279.06C263.594 279.293 264.234 279.409 265.023 279.409C266.08 279.409 266.952 279.153 267.64 278.642C268.327 278.131 268.671 277.33 268.671 276.239V273.58H268.501C268.353 273.818 268.143 274.114 267.87 274.466C267.603 274.812 267.217 275.122 266.711 275.395C266.211 275.662 265.535 275.795 264.683 275.795C263.626 275.795 262.677 275.545 261.836 275.045C261.001 274.545 260.339 273.818 259.85 272.864C259.367 271.909 259.126 270.75 259.126 269.386C259.126 268.045 259.362 266.878 259.833 265.884C260.305 264.884 260.961 264.111 261.802 263.565C262.643 263.014 263.614 262.739 264.717 262.739C265.569 262.739 266.245 262.881 266.745 263.165C267.251 263.443 267.637 263.761 267.904 264.119C268.177 264.472 268.387 264.761 268.535 264.989H268.739V262.909H270.683V276.375C270.683 277.5 270.427 278.415 269.915 279.119C269.41 279.83 268.728 280.349 267.87 280.679C267.018 281.014 266.069 281.182 265.023 281.182ZM264.955 273.989C265.762 273.989 266.444 273.804 267.001 273.435C267.558 273.065 267.981 272.534 268.271 271.841C268.56 271.148 268.705 270.318 268.705 269.352C268.705 268.409 268.563 267.577 268.279 266.855C267.995 266.134 267.575 265.568 267.018 265.159C266.461 264.75 265.773 264.545 264.955 264.545C264.103 264.545 263.393 264.761 262.825 265.193C262.262 265.625 261.839 266.205 261.555 266.932C261.276 267.659 261.137 268.466 261.137 269.352C261.137 270.261 261.279 271.065 261.563 271.764C261.853 272.457 262.279 273.003 262.842 273.401C263.41 273.793 264.114 273.989 264.955 273.989Z" fill="white"/>
<path d="M287.807 276V274.466L293.568 268.159C294.244 267.42 294.801 266.778 295.239 266.233C295.676 265.682 296 265.165 296.21 264.682C296.426 264.193 296.534 263.682 296.534 263.148C296.534 262.534 296.386 262.003 296.091 261.554C295.801 261.105 295.403 260.759 294.898 260.514C294.392 260.27 293.824 260.148 293.193 260.148C292.523 260.148 291.938 260.287 291.438 260.565C290.943 260.838 290.56 261.222 290.287 261.716C290.02 262.21 289.886 262.79 289.886 263.455H287.875C287.875 262.432 288.111 261.534 288.582 260.761C289.054 259.989 289.696 259.386 290.509 258.955C291.327 258.523 292.244 258.307 293.261 258.307C294.284 258.307 295.19 258.523 295.98 258.955C296.77 259.386 297.389 259.969 297.838 260.702C298.287 261.435 298.511 262.25 298.511 263.148C298.511 263.79 298.395 264.418 298.162 265.031C297.935 265.639 297.537 266.318 296.969 267.068C296.406 267.812 295.625 268.722 294.625 269.795L290.705 273.989V274.125H298.818V276H287.807ZM307.793 276.239C306.793 276.239 305.892 276.04 305.091 275.642C304.29 275.244 303.648 274.699 303.165 274.006C302.682 273.312 302.418 272.523 302.372 271.636H304.418C304.497 272.426 304.855 273.08 305.491 273.597C306.134 274.108 306.901 274.364 307.793 274.364C308.509 274.364 309.145 274.196 309.702 273.861C310.264 273.526 310.705 273.065 311.023 272.48C311.347 271.889 311.509 271.222 311.509 270.477C311.509 269.716 311.341 269.037 311.006 268.44C310.676 267.838 310.222 267.364 309.642 267.017C309.063 266.67 308.401 266.494 307.656 266.489C307.122 266.483 306.574 266.565 306.011 266.736C305.449 266.901 304.986 267.114 304.622 267.375L302.645 267.136L303.702 258.545H312.77V260.42H305.474L304.861 265.568H304.963C305.321 265.284 305.77 265.048 306.31 264.861C306.849 264.673 307.412 264.58 307.997 264.58C309.065 264.58 310.017 264.835 310.852 265.347C311.693 265.852 312.352 266.545 312.83 267.426C313.312 268.307 313.554 269.312 313.554 270.443C313.554 271.557 313.304 272.551 312.804 273.426C312.31 274.295 311.628 274.983 310.759 275.489C309.889 275.989 308.901 276.239 307.793 276.239ZM317.783 276.136C317.363 276.136 317.002 275.986 316.701 275.685C316.4 275.384 316.249 275.023 316.249 274.602C316.249 274.182 316.4 273.821 316.701 273.52C317.002 273.219 317.363 273.068 317.783 273.068C318.204 273.068 318.565 273.219 318.866 273.52C319.167 273.821 319.317 274.182 319.317 274.602C319.317 274.881 319.246 275.136 319.104 275.369C318.968 275.602 318.783 275.79 318.55 275.932C318.323 276.068 318.067 276.136 317.783 276.136ZM322.484 272.42V270.682L330.154 258.545H331.415V261.239H330.563L324.768 270.409V270.545H335.097V272.42H322.484ZM330.7 276V271.892V271.082V258.545H332.711V276H330.7ZM344.189 276.239C343.064 276.239 342.061 276.045 341.18 275.659C340.305 275.273 339.609 274.736 339.092 274.048C338.581 273.355 338.303 272.551 338.257 271.636H340.405C340.45 272.199 340.643 272.685 340.984 273.094C341.325 273.497 341.771 273.81 342.322 274.031C342.874 274.253 343.484 274.364 344.155 274.364C344.905 274.364 345.57 274.233 346.149 273.972C346.729 273.71 347.183 273.347 347.513 272.881C347.842 272.415 348.007 271.875 348.007 271.261C348.007 270.619 347.848 270.054 347.53 269.565C347.212 269.071 346.746 268.685 346.132 268.406C345.518 268.128 344.768 267.989 343.882 267.989H342.484V266.114H343.882C344.575 266.114 345.183 265.989 345.706 265.739C346.234 265.489 346.646 265.136 346.942 264.682C347.243 264.227 347.393 263.693 347.393 263.08C347.393 262.489 347.263 261.974 347.001 261.537C346.74 261.099 346.371 260.759 345.893 260.514C345.422 260.27 344.865 260.148 344.223 260.148C343.621 260.148 343.053 260.259 342.518 260.48C341.99 260.696 341.558 261.011 341.223 261.426C340.888 261.835 340.706 262.33 340.678 262.909H338.632C338.666 261.994 338.942 261.193 339.459 260.506C339.976 259.812 340.652 259.273 341.487 258.886C342.328 258.5 343.251 258.307 344.257 258.307C345.337 258.307 346.263 258.526 347.036 258.963C347.808 259.395 348.402 259.966 348.817 260.676C349.232 261.386 349.439 262.153 349.439 262.977C349.439 263.96 349.18 264.798 348.663 265.491C348.152 266.185 347.456 266.665 346.575 266.932V267.068C347.678 267.25 348.538 267.719 349.158 268.474C349.777 269.224 350.087 270.153 350.087 271.261C350.087 272.21 349.828 273.062 349.311 273.818C348.8 274.568 348.101 275.159 347.214 275.591C346.328 276.023 345.32 276.239 344.189 276.239ZM362.47 272.727V271.807C362.47 271.17 362.601 270.588 362.862 270.06C363.129 269.526 363.516 269.099 364.021 268.781C364.533 268.457 365.152 268.295 365.879 268.295C366.618 268.295 367.237 268.457 367.737 268.781C368.237 269.099 368.615 269.526 368.871 270.06C369.126 270.588 369.254 271.17 369.254 271.807V272.727C369.254 273.364 369.124 273.949 368.862 274.483C368.607 275.011 368.226 275.437 367.72 275.761C367.22 276.08 366.607 276.239 365.879 276.239C365.141 276.239 364.518 276.08 364.013 275.761C363.507 275.437 363.124 275.011 362.862 274.483C362.601 273.949 362.47 273.364 362.47 272.727ZM364.209 271.807V272.727C364.209 273.256 364.334 273.73 364.584 274.151C364.834 274.565 365.266 274.773 365.879 274.773C366.476 274.773 366.896 274.565 367.141 274.151C367.391 273.73 367.516 273.256 367.516 272.727V271.807C367.516 271.278 367.396 270.807 367.158 270.392C366.919 269.972 366.493 269.761 365.879 269.761C365.283 269.761 364.854 269.972 364.592 270.392C364.337 270.807 364.209 271.278 364.209 271.807ZM353.777 262.739V261.818C353.777 261.182 353.908 260.599 354.169 260.071C354.436 259.537 354.822 259.111 355.328 258.793C355.839 258.469 356.459 258.307 357.186 258.307C357.925 258.307 358.544 258.469 359.044 258.793C359.544 259.111 359.922 259.537 360.178 260.071C360.433 260.599 360.561 261.182 360.561 261.818V262.739C360.561 263.375 360.43 263.96 360.169 264.494C359.913 265.023 359.533 265.449 359.027 265.773C358.527 266.091 357.913 266.25 357.186 266.25C356.447 266.25 355.825 266.091 355.32 265.773C354.814 265.449 354.43 265.023 354.169 264.494C353.908 263.96 353.777 263.375 353.777 262.739ZM355.516 261.818V262.739C355.516 263.267 355.641 263.741 355.891 264.162C356.141 264.577 356.572 264.784 357.186 264.784C357.783 264.784 358.203 264.577 358.447 264.162C358.697 263.741 358.822 263.267 358.822 262.739V261.818C358.822 261.29 358.703 260.818 358.464 260.403C358.226 259.983 357.8 259.773 357.186 259.773C356.589 259.773 356.161 259.983 355.899 260.403C355.643 260.818 355.516 261.29 355.516 261.818ZM354.425 276L366.425 258.545H368.368L356.368 276H354.425Z" fill="white"/>
<circle cx="764" cy="326.5" r="3.5" fill="#8979FF" stroke="#1A1F26"/>
<path d="M792.841 326.273C792.841 328.114 792.509 329.705 791.844 331.045C791.179 332.386 790.267 333.42 789.108 334.148C787.949 334.875 786.625 335.239 785.136 335.239C783.648 335.239 782.324 334.875 781.165 334.148C780.006 333.42 779.094 332.386 778.429 331.045C777.764 329.705 777.432 328.114 777.432 326.273C777.432 324.432 777.764 322.841 778.429 321.5C779.094 320.159 780.006 319.125 781.165 318.398C782.324 317.67 783.648 317.307 785.136 317.307C786.625 317.307 787.949 317.67 789.108 318.398C790.267 319.125 791.179 320.159 791.844 321.5C792.509 322.841 792.841 324.432 792.841 326.273ZM790.795 326.273C790.795 324.761 790.543 323.486 790.037 322.446C789.537 321.406 788.858 320.619 788 320.085C787.148 319.551 786.193 319.284 785.136 319.284C784.08 319.284 783.122 319.551 782.264 320.085C781.412 320.619 780.733 321.406 780.227 322.446C779.727 323.486 779.477 324.761 779.477 326.273C779.477 327.784 779.727 329.06 780.227 330.099C780.733 331.139 781.412 331.926 782.264 332.46C783.122 332.994 784.08 333.261 785.136 333.261C786.193 333.261 787.148 332.994 788 332.46C788.858 331.926 789.537 331.139 790.037 330.099C790.543 329.06 790.795 327.784 790.795 326.273ZM798.134 327.125V335H796.122V321.909H798.065V323.955H798.236C798.543 323.29 799.009 322.756 799.634 322.352C800.259 321.943 801.065 321.739 802.054 321.739C802.94 321.739 803.716 321.92 804.381 322.284C805.045 322.642 805.563 323.188 805.932 323.92C806.301 324.648 806.486 325.568 806.486 326.682V335H804.474V326.818C804.474 325.79 804.207 324.989 803.673 324.415C803.139 323.835 802.406 323.545 801.474 323.545C800.832 323.545 800.259 323.685 799.753 323.963C799.253 324.241 798.858 324.648 798.568 325.182C798.278 325.716 798.134 326.364 798.134 327.125ZM810.434 335V317.545H812.445V323.989H812.616C812.763 323.761 812.968 323.472 813.229 323.119C813.496 322.761 813.877 322.443 814.371 322.165C814.871 321.881 815.548 321.739 816.4 321.739C817.502 321.739 818.474 322.014 819.315 322.565C820.156 323.116 820.812 323.898 821.283 324.909C821.755 325.92 821.991 327.114 821.991 328.489C821.991 329.875 821.755 331.077 821.283 332.094C820.812 333.105 820.158 333.889 819.323 334.446C818.488 334.997 817.525 335.273 816.434 335.273C815.593 335.273 814.92 335.134 814.414 334.855C813.908 334.571 813.519 334.25 813.246 333.892C812.974 333.528 812.763 333.227 812.616 332.989H812.377V335H810.434ZM812.411 328.455C812.411 329.443 812.556 330.315 812.846 331.071C813.136 331.821 813.559 332.409 814.116 332.835C814.673 333.256 815.354 333.466 816.161 333.466C817.002 333.466 817.704 333.244 818.266 332.801C818.835 332.352 819.261 331.75 819.545 330.994C819.835 330.233 819.979 329.386 819.979 328.455C819.979 327.534 819.837 326.705 819.553 325.966C819.275 325.222 818.852 324.634 818.283 324.202C817.721 323.764 817.013 323.545 816.161 323.545C815.343 323.545 814.656 323.753 814.099 324.168C813.542 324.577 813.121 325.151 812.837 325.889C812.553 326.622 812.411 327.477 812.411 328.455ZM830.386 335.273C829.204 335.273 828.167 334.991 827.275 334.429C826.388 333.866 825.695 333.08 825.195 332.068C824.701 331.057 824.454 329.875 824.454 328.523C824.454 327.159 824.701 325.969 825.195 324.952C825.695 323.935 826.388 323.145 827.275 322.582C828.167 322.02 829.204 321.739 830.386 321.739C831.567 321.739 832.602 322.02 833.488 322.582C834.38 323.145 835.073 323.935 835.567 324.952C836.067 325.969 836.317 327.159 836.317 328.523C836.317 329.875 836.067 331.057 835.567 332.068C835.073 333.08 834.38 333.866 833.488 334.429C832.602 334.991 831.567 335.273 830.386 335.273ZM830.386 333.466C831.283 333.466 832.022 333.236 832.602 332.776C833.181 332.315 833.61 331.71 833.888 330.96C834.167 330.21 834.306 329.398 834.306 328.523C834.306 327.648 834.167 326.832 833.888 326.077C833.61 325.321 833.181 324.71 832.602 324.244C832.022 323.778 831.283 323.545 830.386 323.545C829.488 323.545 828.749 323.778 828.17 324.244C827.59 324.71 827.161 325.321 826.883 326.077C826.604 326.832 826.465 327.648 826.465 328.523C826.465 329.398 826.604 330.21 826.883 330.96C827.161 331.71 827.59 332.315 828.17 332.776C828.749 333.236 829.488 333.466 830.386 333.466ZM843.24 335.307C842.411 335.307 841.658 335.151 840.982 334.838C840.305 334.52 839.768 334.062 839.371 333.466C838.973 332.864 838.774 332.136 838.774 331.284C838.774 330.534 838.922 329.926 839.217 329.46C839.513 328.989 839.908 328.619 840.402 328.352C840.896 328.085 841.442 327.886 842.038 327.756C842.641 327.619 843.246 327.511 843.854 327.432C844.649 327.33 845.294 327.253 845.788 327.202C846.288 327.145 846.652 327.051 846.879 326.92C847.112 326.79 847.229 326.562 847.229 326.239V326.17C847.229 325.33 846.999 324.676 846.538 324.21C846.084 323.744 845.393 323.511 844.467 323.511C843.507 323.511 842.754 323.722 842.209 324.142C841.663 324.562 841.28 325.011 841.058 325.489L839.149 324.807C839.49 324.011 839.945 323.392 840.513 322.949C841.087 322.5 841.712 322.187 842.388 322.011C843.07 321.83 843.74 321.739 844.399 321.739C844.82 321.739 845.303 321.79 845.848 321.892C846.399 321.989 846.93 322.19 847.442 322.497C847.959 322.804 848.388 323.267 848.729 323.886C849.07 324.506 849.24 325.335 849.24 326.375V335H847.229V333.227H847.126C846.99 333.511 846.763 333.815 846.445 334.139C846.126 334.463 845.703 334.739 845.175 334.966C844.646 335.193 844.001 335.307 843.24 335.307ZM843.547 333.5C844.342 333.5 845.013 333.344 845.558 333.031C846.109 332.719 846.524 332.315 846.803 331.821C847.087 331.327 847.229 330.807 847.229 330.261V328.42C847.143 328.523 846.956 328.616 846.666 328.702C846.382 328.781 846.053 328.852 845.678 328.915C845.308 328.972 844.947 329.023 844.595 329.068C844.249 329.108 843.967 329.142 843.751 329.17C843.229 329.239 842.74 329.349 842.286 329.503C841.837 329.651 841.473 329.875 841.195 330.176C840.922 330.472 840.786 330.875 840.786 331.386C840.786 332.085 841.044 332.614 841.561 332.972C842.084 333.324 842.746 333.5 843.547 333.5ZM852.911 335V321.909H854.854V323.886H854.991C855.229 323.239 855.661 322.713 856.286 322.31C856.911 321.906 857.616 321.705 858.4 321.705C858.548 321.705 858.732 321.707 858.954 321.713C859.175 321.719 859.343 321.727 859.457 321.739V323.784C859.388 323.767 859.232 323.741 858.988 323.707C858.749 323.668 858.496 323.648 858.229 323.648C857.593 323.648 857.025 323.781 856.525 324.048C856.031 324.31 855.638 324.673 855.349 325.139C855.065 325.599 854.923 326.125 854.923 326.716V335H852.911ZM866.386 335.273C865.295 335.273 864.332 334.997 863.496 334.446C862.661 333.889 862.008 333.105 861.536 332.094C861.065 331.077 860.829 329.875 860.829 328.489C860.829 327.114 861.065 325.92 861.536 324.909C862.008 323.898 862.664 323.116 863.505 322.565C864.346 322.014 865.317 321.739 866.42 321.739C867.272 321.739 867.945 321.881 868.44 322.165C868.94 322.443 869.32 322.761 869.582 323.119C869.849 323.472 870.056 323.761 870.204 323.989H870.374V317.545H872.386V335H870.442V332.989H870.204C870.056 333.227 869.846 333.528 869.573 333.892C869.3 334.25 868.911 334.571 868.406 334.855C867.9 335.134 867.227 335.273 866.386 335.273ZM866.658 333.466C867.465 333.466 868.147 333.256 868.704 332.835C869.261 332.409 869.684 331.821 869.974 331.071C870.263 330.315 870.408 329.443 870.408 328.455C870.408 327.477 870.266 326.622 869.982 325.889C869.698 325.151 869.278 324.577 868.721 324.168C868.164 323.753 867.477 323.545 866.658 323.545C865.806 323.545 865.096 323.764 864.528 324.202C863.965 324.634 863.542 325.222 863.258 325.966C862.979 326.705 862.84 327.534 862.84 328.455C862.84 329.386 862.982 330.233 863.266 330.994C863.556 331.75 863.982 332.352 864.545 332.801C865.113 333.244 865.817 333.466 866.658 333.466ZM876.349 335V321.909H878.36V335H876.349ZM877.371 319.727C876.979 319.727 876.641 319.594 876.357 319.327C876.079 319.06 875.94 318.739 875.94 318.364C875.94 317.989 876.079 317.668 876.357 317.401C876.641 317.134 876.979 317 877.371 317C877.763 317 878.099 317.134 878.377 317.401C878.661 317.668 878.803 317.989 878.803 318.364C878.803 318.739 878.661 319.06 878.377 319.327C878.099 319.594 877.763 319.727 877.371 319.727ZM884.055 327.125V335H882.044V321.909H883.987V323.955H884.158C884.464 323.29 884.93 322.756 885.555 322.352C886.18 321.943 886.987 321.739 887.976 321.739C888.862 321.739 889.638 321.92 890.303 322.284C890.967 322.642 891.484 323.188 891.854 323.92C892.223 324.648 892.408 325.568 892.408 326.682V335H890.396V326.818C890.396 325.79 890.129 324.989 889.595 324.415C889.061 323.835 888.328 323.545 887.396 323.545C886.754 323.545 886.18 323.685 885.675 323.963C885.175 324.241 884.78 324.648 884.49 325.182C884.2 325.716 884.055 326.364 884.055 327.125ZM901.367 340.182C900.396 340.182 899.56 340.057 898.862 339.807C898.163 339.562 897.58 339.239 897.114 338.835C896.654 338.438 896.288 338.011 896.015 337.557L897.617 336.432C897.799 336.67 898.029 336.943 898.308 337.25C898.586 337.562 898.967 337.832 899.45 338.06C899.938 338.293 900.577 338.409 901.367 338.409C902.424 338.409 903.296 338.153 903.984 337.642C904.671 337.131 905.015 336.33 905.015 335.239V332.58H904.844C904.697 332.818 904.487 333.114 904.214 333.466C903.947 333.812 903.56 334.122 903.055 334.395C902.555 334.662 901.879 334.795 901.026 334.795C899.969 334.795 899.021 334.545 898.18 334.045C897.344 333.545 896.683 332.818 896.194 331.864C895.711 330.909 895.469 329.75 895.469 328.386C895.469 327.045 895.705 325.878 896.177 324.884C896.648 323.884 897.305 323.111 898.146 322.565C898.987 322.014 899.958 321.739 901.06 321.739C901.913 321.739 902.589 321.881 903.089 322.165C903.594 322.443 903.981 322.761 904.248 323.119C904.521 323.472 904.731 323.761 904.879 323.989H905.083V321.909H907.026V335.375C907.026 336.5 906.771 337.415 906.259 338.119C905.754 338.83 905.072 339.349 904.214 339.679C903.362 340.014 902.413 340.182 901.367 340.182ZM901.299 332.989C902.106 332.989 902.788 332.804 903.344 332.435C903.901 332.065 904.325 331.534 904.614 330.841C904.904 330.148 905.049 329.318 905.049 328.352C905.049 327.409 904.907 326.577 904.623 325.855C904.339 325.134 903.918 324.568 903.362 324.159C902.805 323.75 902.117 323.545 901.299 323.545C900.447 323.545 899.737 323.761 899.168 324.193C898.606 324.625 898.183 325.205 897.898 325.932C897.62 326.659 897.481 327.466 897.481 328.352C897.481 329.261 897.623 330.065 897.907 330.764C898.197 331.457 898.623 332.003 899.185 332.401C899.754 332.793 900.458 332.989 901.299 332.989Z" fill="white" fill-opacity="0.8"/>
<circle cx="764" cy="363.5" r="3.5" fill="#FF928A" stroke="#1A1F26"/>
<path d="M778.114 372V354.545H788.58V356.42H780.227V362.318H787.795V364.193H780.227V372H778.114ZM796.284 372.273C795.102 372.273 794.065 371.991 793.173 371.429C792.287 370.866 791.594 370.08 791.094 369.068C790.599 368.057 790.352 366.875 790.352 365.523C790.352 364.159 790.599 362.969 791.094 361.952C791.594 360.935 792.287 360.145 793.173 359.582C794.065 359.02 795.102 358.739 796.284 358.739C797.466 358.739 798.5 359.02 799.386 359.582C800.278 360.145 800.972 360.935 801.466 361.952C801.966 362.969 802.216 364.159 802.216 365.523C802.216 366.875 801.966 368.057 801.466 369.068C800.972 370.08 800.278 370.866 799.386 371.429C798.5 371.991 797.466 372.273 796.284 372.273ZM796.284 370.466C797.182 370.466 797.92 370.236 798.5 369.776C799.08 369.315 799.509 368.71 799.787 367.96C800.065 367.21 800.205 366.398 800.205 365.523C800.205 364.648 800.065 363.832 799.787 363.077C799.509 362.321 799.08 361.71 798.5 361.244C797.92 360.778 797.182 360.545 796.284 360.545C795.386 360.545 794.648 360.778 794.068 361.244C793.489 361.71 793.06 362.321 792.781 363.077C792.503 363.832 792.364 364.648 792.364 365.523C792.364 366.398 792.503 367.21 792.781 367.96C793.06 368.71 793.489 369.315 794.068 369.776C794.648 370.236 795.386 370.466 796.284 370.466ZM807.298 354.545V372H805.286V354.545H807.298ZM812.993 354.545V372H810.982V354.545H812.993ZM821.995 372.273C820.813 372.273 819.776 371.991 818.884 371.429C817.998 370.866 817.305 370.08 816.805 369.068C816.31 368.057 816.063 366.875 816.063 365.523C816.063 364.159 816.31 362.969 816.805 361.952C817.305 360.935 817.998 360.145 818.884 359.582C819.776 359.02 820.813 358.739 821.995 358.739C823.177 358.739 824.211 359.02 825.097 359.582C825.989 360.145 826.683 360.935 827.177 361.952C827.677 362.969 827.927 364.159 827.927 365.523C827.927 366.875 827.677 368.057 827.177 369.068C826.683 370.08 825.989 370.866 825.097 371.429C824.211 371.991 823.177 372.273 821.995 372.273ZM821.995 370.466C822.893 370.466 823.631 370.236 824.211 369.776C824.79 369.315 825.219 368.71 825.498 367.96C825.776 367.21 825.915 366.398 825.915 365.523C825.915 364.648 825.776 363.832 825.498 363.077C825.219 362.321 824.79 361.71 824.211 361.244C823.631 360.778 822.893 360.545 821.995 360.545C821.097 360.545 820.359 360.778 819.779 361.244C819.2 361.71 818.771 362.321 818.492 363.077C818.214 363.832 818.075 364.648 818.075 365.523C818.075 366.398 818.214 367.21 818.492 367.96C818.771 368.71 819.2 369.315 819.779 369.776C820.359 370.236 821.097 370.466 821.995 370.466ZM833.518 372L829.529 358.909H831.643L834.472 368.932H834.609L837.404 358.909H839.552L842.313 368.898H842.45L845.279 358.909H847.393L843.404 372H841.427L838.563 361.943H838.359L835.495 372H833.518ZM857.552 363.58V365.455H849.915V363.58H857.552ZM872.818 354.545H874.932V366.102C874.932 367.295 874.651 368.361 874.088 369.298C873.531 370.23 872.744 370.966 871.727 371.506C870.71 372.04 869.517 372.307 868.148 372.307C866.778 372.307 865.585 372.04 864.568 371.506C863.551 370.966 862.761 370.23 862.199 369.298C861.642 368.361 861.364 367.295 861.364 366.102V354.545H863.477V365.932C863.477 366.784 863.665 367.543 864.04 368.207C864.415 368.866 864.949 369.386 865.642 369.767C866.341 370.142 867.176 370.33 868.148 370.33C869.119 370.33 869.955 370.142 870.653 369.767C871.352 369.386 871.886 368.866 872.256 368.207C872.631 367.543 872.818 366.784 872.818 365.932V354.545ZM878.88 376.909V358.909H880.823V360.989H881.062C881.21 360.761 881.414 360.472 881.675 360.119C881.942 359.761 882.323 359.443 882.817 359.165C883.317 358.881 883.994 358.739 884.846 358.739C885.948 358.739 886.92 359.014 887.761 359.565C888.602 360.116 889.258 360.898 889.729 361.909C890.201 362.92 890.437 364.114 890.437 365.489C890.437 366.875 890.201 368.077 889.729 369.094C889.258 370.105 888.604 370.889 887.769 371.446C886.934 371.997 885.971 372.273 884.88 372.273C884.039 372.273 883.366 372.134 882.86 371.855C882.354 371.571 881.965 371.25 881.692 370.892C881.42 370.528 881.21 370.227 881.062 369.989H880.891V376.909H878.88ZM880.857 365.455C880.857 366.443 881.002 367.315 881.292 368.071C881.582 368.821 882.005 369.409 882.562 369.835C883.119 370.256 883.8 370.466 884.607 370.466C885.448 370.466 886.15 370.244 886.712 369.801C887.281 369.352 887.707 368.75 887.991 367.994C888.281 367.233 888.425 366.386 888.425 365.455C888.425 364.534 888.283 363.705 887.999 362.966C887.721 362.222 887.298 361.634 886.729 361.202C886.167 360.764 885.46 360.545 884.607 360.545C883.789 360.545 883.102 360.753 882.545 361.168C881.988 361.577 881.567 362.151 881.283 362.889C880.999 363.622 880.857 364.477 880.857 365.455Z" fill="white" fill-opacity="0.8"/>
<circle cx="764" cy="400.5" r="3.5" fill="#3CC3DF" stroke="#1A1F26"/>
<path d="M778.114 409V391.545H784.011C785.375 391.545 786.494 391.778 787.369 392.244C788.244 392.705 788.892 393.338 789.312 394.145C789.733 394.952 789.943 395.869 789.943 396.898C789.943 397.926 789.733 398.838 789.312 399.634C788.892 400.429 788.247 401.054 787.378 401.509C786.509 401.957 785.398 402.182 784.045 402.182H779.273V400.273H783.977C784.909 400.273 785.659 400.136 786.227 399.864C786.801 399.591 787.216 399.205 787.472 398.705C787.733 398.199 787.864 397.597 787.864 396.898C787.864 396.199 787.733 395.588 787.472 395.065C787.21 394.543 786.793 394.139 786.219 393.855C785.645 393.565 784.886 393.42 783.943 393.42H780.227V409H778.114ZM786.33 401.159L790.625 409H788.17L783.943 401.159H786.33ZM798.54 409.273C797.279 409.273 796.191 408.994 795.276 408.438C794.367 407.875 793.665 407.091 793.171 406.085C792.683 405.074 792.438 403.898 792.438 402.557C792.438 401.216 792.683 400.034 793.171 399.011C793.665 397.983 794.353 397.182 795.234 396.608C796.12 396.028 797.154 395.739 798.336 395.739C799.018 395.739 799.691 395.852 800.356 396.08C801.021 396.307 801.626 396.676 802.171 397.188C802.717 397.693 803.151 398.364 803.475 399.199C803.799 400.034 803.961 401.062 803.961 402.284V403.136H793.87V401.398H801.915C801.915 400.659 801.768 400 801.472 399.42C801.183 398.841 800.768 398.384 800.228 398.048C799.694 397.713 799.063 397.545 798.336 397.545C797.535 397.545 796.842 397.744 796.256 398.142C795.677 398.534 795.231 399.045 794.918 399.676C794.606 400.307 794.45 400.983 794.45 401.705V402.864C794.45 403.852 794.62 404.69 794.961 405.378C795.308 406.06 795.788 406.58 796.401 406.938C797.015 407.29 797.728 407.466 798.54 407.466C799.069 407.466 799.546 407.392 799.972 407.244C800.404 407.091 800.776 406.864 801.089 406.562C801.401 406.256 801.643 405.875 801.813 405.42L803.756 405.966C803.552 406.625 803.208 407.205 802.725 407.705C802.242 408.199 801.646 408.585 800.935 408.864C800.225 409.136 799.427 409.273 798.54 409.273ZM807.021 413.909V395.909H808.964V397.989H809.202C809.35 397.761 809.555 397.472 809.816 397.119C810.083 396.761 810.464 396.443 810.958 396.165C811.458 395.881 812.134 395.739 812.987 395.739C814.089 395.739 815.06 396.014 815.901 396.565C816.742 397.116 817.398 397.898 817.87 398.909C818.342 399.92 818.577 401.114 818.577 402.489C818.577 403.875 818.342 405.077 817.87 406.094C817.398 407.105 816.745 407.889 815.91 408.446C815.075 408.997 814.112 409.273 813.021 409.273C812.18 409.273 811.506 409.134 811.001 408.855C810.495 408.571 810.106 408.25 809.833 407.892C809.56 407.528 809.35 407.227 809.202 406.989H809.032V413.909H807.021ZM808.998 402.455C808.998 403.443 809.143 404.315 809.433 405.071C809.722 405.821 810.146 406.409 810.702 406.835C811.259 407.256 811.941 407.466 812.748 407.466C813.589 407.466 814.29 407.244 814.853 406.801C815.421 406.352 815.847 405.75 816.131 404.994C816.421 404.233 816.566 403.386 816.566 402.455C816.566 401.534 816.424 400.705 816.14 399.966C815.862 399.222 815.438 398.634 814.87 398.202C814.308 397.764 813.6 397.545 812.748 397.545C811.93 397.545 811.242 397.753 810.685 398.168C810.129 398.577 809.708 399.151 809.424 399.889C809.14 400.622 808.998 401.477 808.998 402.455ZM829.896 403.648V395.909H831.907V409H829.896V406.784H829.759C829.452 407.449 828.975 408.014 828.327 408.48C827.68 408.94 826.862 409.17 825.873 409.17C825.055 409.17 824.327 408.991 823.691 408.634C823.055 408.27 822.555 407.724 822.191 406.997C821.827 406.264 821.646 405.341 821.646 404.227V395.909H823.657V404.091C823.657 405.045 823.924 405.807 824.458 406.375C824.998 406.943 825.685 407.227 826.521 407.227C827.021 407.227 827.529 407.099 828.046 406.844C828.569 406.588 829.006 406.196 829.359 405.668C829.717 405.139 829.896 404.466 829.896 403.648ZM835.591 409V395.909H837.534V397.886H837.67C837.909 397.239 838.341 396.713 838.966 396.31C839.591 395.906 840.295 395.705 841.08 395.705C841.227 395.705 841.412 395.707 841.634 395.713C841.855 395.719 842.023 395.727 842.136 395.739V397.784C842.068 397.767 841.912 397.741 841.668 397.707C841.429 397.668 841.176 397.648 840.909 397.648C840.273 397.648 839.705 397.781 839.205 398.048C838.71 398.31 838.318 398.673 838.028 399.139C837.744 399.599 837.602 400.125 837.602 400.716V409H835.591ZM844.521 413.909V395.909H846.464V397.989H846.702C846.85 397.761 847.055 397.472 847.316 397.119C847.583 396.761 847.964 396.443 848.458 396.165C848.958 395.881 849.634 395.739 850.487 395.739C851.589 395.739 852.56 396.014 853.401 396.565C854.242 397.116 854.898 397.898 855.37 398.909C855.842 399.92 856.077 401.114 856.077 402.489C856.077 403.875 855.842 405.077 855.37 406.094C854.898 407.105 854.245 407.889 853.41 408.446C852.575 408.997 851.612 409.273 850.521 409.273C849.68 409.273 849.006 409.134 848.501 408.855C847.995 408.571 847.606 408.25 847.333 407.892C847.06 407.528 846.85 407.227 846.702 406.989H846.532V413.909H844.521ZM846.498 402.455C846.498 403.443 846.643 404.315 846.933 405.071C847.222 405.821 847.646 406.409 848.202 406.835C848.759 407.256 849.441 407.466 850.248 407.466C851.089 407.466 851.79 407.244 852.353 406.801C852.921 406.352 853.347 405.75 853.631 404.994C853.921 404.233 854.066 403.386 854.066 402.455C854.066 401.534 853.924 400.705 853.64 399.966C853.362 399.222 852.938 398.634 852.37 398.202C851.808 397.764 851.1 397.545 850.248 397.545C849.43 397.545 848.742 397.753 848.185 398.168C847.629 398.577 847.208 399.151 846.924 399.889C846.64 400.622 846.498 401.477 846.498 402.455ZM864.464 409.273C863.282 409.273 862.245 408.991 861.353 408.429C860.467 407.866 859.773 407.08 859.273 406.068C858.779 405.057 858.532 403.875 858.532 402.523C858.532 401.159 858.779 399.969 859.273 398.952C859.773 397.935 860.467 397.145 861.353 396.582C862.245 396.02 863.282 395.739 864.464 395.739C865.646 395.739 866.68 396.02 867.566 396.582C868.458 397.145 869.151 397.935 869.646 398.952C870.146 399.969 870.396 401.159 870.396 402.523C870.396 403.875 870.146 405.057 869.646 406.068C869.151 407.08 868.458 407.866 867.566 408.429C866.68 408.991 865.646 409.273 864.464 409.273ZM864.464 407.466C865.362 407.466 866.1 407.236 866.68 406.776C867.259 406.315 867.688 405.71 867.967 404.96C868.245 404.21 868.384 403.398 868.384 402.523C868.384 401.648 868.245 400.832 867.967 400.077C867.688 399.321 867.259 398.71 866.68 398.244C866.1 397.778 865.362 397.545 864.464 397.545C863.566 397.545 862.827 397.778 862.248 398.244C861.668 398.71 861.239 399.321 860.961 400.077C860.683 400.832 860.543 401.648 860.543 402.523C860.543 403.398 860.683 404.21 860.961 404.96C861.239 405.71 861.668 406.315 862.248 406.776C862.827 407.236 863.566 407.466 864.464 407.466ZM882.739 398.841L880.932 399.352C880.818 399.051 880.651 398.759 880.429 398.474C880.213 398.185 879.918 397.946 879.543 397.759C879.168 397.571 878.688 397.477 878.102 397.477C877.301 397.477 876.634 397.662 876.099 398.031C875.571 398.395 875.307 398.858 875.307 399.42C875.307 399.92 875.489 400.315 875.852 400.605C876.216 400.895 876.784 401.136 877.557 401.33L879.5 401.807C880.67 402.091 881.543 402.526 882.116 403.111C882.69 403.69 882.977 404.437 882.977 405.352C882.977 406.102 882.761 406.773 882.33 407.364C881.903 407.955 881.307 408.42 880.54 408.761C879.773 409.102 878.881 409.273 877.864 409.273C876.528 409.273 875.423 408.983 874.548 408.403C873.673 407.824 873.119 406.977 872.886 405.864L874.795 405.386C874.977 406.091 875.321 406.619 875.827 406.972C876.338 407.324 877.006 407.5 877.83 407.5C878.767 407.5 879.511 407.301 880.062 406.903C880.619 406.5 880.898 406.017 880.898 405.455C880.898 405 880.739 404.619 880.42 404.312C880.102 404 879.614 403.767 878.955 403.614L876.773 403.102C875.574 402.818 874.693 402.378 874.131 401.781C873.574 401.179 873.295 400.426 873.295 399.523C873.295 398.784 873.503 398.131 873.918 397.562C874.338 396.994 874.909 396.548 875.631 396.224C876.358 395.901 877.182 395.739 878.102 395.739C879.398 395.739 880.415 396.023 881.153 396.591C881.898 397.159 882.426 397.909 882.739 398.841ZM886.005 409V395.909H888.016V409H886.005ZM887.028 393.727C886.636 393.727 886.298 393.594 886.013 393.327C885.735 393.06 885.596 392.739 885.596 392.364C885.596 391.989 885.735 391.668 886.013 391.401C886.298 391.134 886.636 391 887.028 391C887.42 391 887.755 391.134 888.033 391.401C888.317 391.668 888.46 391.989 888.46 392.364C888.46 392.739 888.317 393.06 888.033 393.327C887.755 393.594 887.42 393.727 887.028 393.727ZM893.712 401.125V409H891.7V395.909H893.643V397.955H893.814C894.121 397.29 894.587 396.756 895.212 396.352C895.837 395.943 896.643 395.739 897.632 395.739C898.518 395.739 899.294 395.92 899.959 396.284C900.624 396.642 901.141 397.188 901.51 397.92C901.879 398.648 902.064 399.568 902.064 400.682V409H900.053V400.818C900.053 399.79 899.786 398.989 899.251 398.415C898.717 397.835 897.984 397.545 897.053 397.545C896.411 397.545 895.837 397.685 895.331 397.963C894.831 398.241 894.436 398.648 894.146 399.182C893.857 399.716 893.712 400.364 893.712 401.125ZM911.023 414.182C910.052 414.182 909.217 414.057 908.518 413.807C907.819 413.562 907.237 413.239 906.771 412.835C906.31 412.438 905.944 412.011 905.671 411.557L907.273 410.432C907.455 410.67 907.685 410.943 907.964 411.25C908.242 411.562 908.623 411.832 909.106 412.06C909.594 412.293 910.234 412.409 911.023 412.409C912.08 412.409 912.952 412.153 913.64 411.642C914.327 411.131 914.671 410.33 914.671 409.239V406.58H914.501C914.353 406.818 914.143 407.114 913.87 407.466C913.603 407.812 913.217 408.122 912.711 408.395C912.211 408.662 911.535 408.795 910.683 408.795C909.626 408.795 908.677 408.545 907.836 408.045C907.001 407.545 906.339 406.818 905.85 405.864C905.367 404.909 905.126 403.75 905.126 402.386C905.126 401.045 905.362 399.878 905.833 398.884C906.305 397.884 906.961 397.111 907.802 396.565C908.643 396.014 909.614 395.739 910.717 395.739C911.569 395.739 912.245 395.881 912.745 396.165C913.251 396.443 913.637 396.761 913.904 397.119C914.177 397.472 914.387 397.761 914.535 397.989H914.739V395.909H916.683V409.375C916.683 410.5 916.427 411.415 915.915 412.119C915.41 412.83 914.728 413.349 913.87 413.679C913.018 414.014 912.069 414.182 911.023 414.182ZM910.955 406.989C911.762 406.989 912.444 406.804 913.001 406.435C913.558 406.065 913.981 405.534 914.271 404.841C914.56 404.148 914.705 403.318 914.705 402.352C914.705 401.409 914.563 400.577 914.279 399.855C913.995 399.134 913.575 398.568 913.018 398.159C912.461 397.75 911.773 397.545 910.955 397.545C910.103 397.545 909.393 397.761 908.825 398.193C908.262 398.625 907.839 399.205 907.555 399.932C907.276 400.659 907.137 401.466 907.137 402.352C907.137 403.261 907.279 404.065 907.563 404.764C907.853 405.457 908.279 406.003 908.842 406.401C909.41 406.793 910.114 406.989 910.955 406.989Z" fill="white" fill-opacity="0.8"/>
</svg>
