<svg width="64" height="64" viewBox="0 0 64 64" fill="none" xmlns="http://www.w3.org/2000/svg">
<rect width="64" height="64" rx="10" fill="#FF8F20"/>
<g clip-path="url(#clip0_874_7772)">
<path d="M31.063 39.0288C31.063 39.5454 31.4834 39.9658 32 39.9658C32.5166 39.9658 32.937 39.5454 32.937 39.0288C32.937 38.5121 32.5166 38.0918 32 38.0918C31.4834 38.0918 31.063 38.5121 31.063 39.0288Z" fill="white"/>
<path d="M32.8202 27.4883V36.5861C33.8404 36.9296 34.5775 37.8946 34.5775 39.0291C34.5775 40.4504 33.4212 41.6067 31.9999 41.6067C30.5786 41.6067 29.4222 40.4504 29.4222 39.0291C29.4222 37.8946 30.1594 36.9296 31.1796 36.5861V27.4883C29.4725 33.3105 24.4414 38.3983 24.3907 38.4491C24.0703 38.7694 24.0703 39.2888 24.3907 39.6092L27.665 42.8835V44.3594H27.6067C27.1536 44.3594 26.7864 44.7267 26.7864 45.1797C26.7864 45.6327 27.1536 46 27.6067 46H36.3931C36.8461 46 37.2134 45.6327 37.2134 45.1797C37.2134 44.7267 36.8461 44.3594 36.3931 44.3594H36.3348V42.8835L39.6091 39.6092C39.9295 39.2889 39.9295 38.7695 39.6091 38.4491C39.5584 38.3983 34.5273 33.3105 32.8202 27.4883Z" fill="white"/>
<path d="M32.0002 24.9125C33.909 24.9125 35.4564 23.3651 35.4564 21.4562C35.4564 19.5474 33.909 18 32.0002 18C30.0914 18 28.5439 19.5474 28.5439 21.4562C28.5439 23.3651 30.0914 24.9125 32.0002 24.9125Z" fill="white"/>
<path d="M24.9125 34.6357V31.1211C24.9125 30.6681 24.5452 30.3008 24.0922 30.3008H20.5776C20.1246 30.3008 19.7573 30.6681 19.7573 31.1211V34.6357C19.7573 35.0887 20.1246 35.456 20.5776 35.456H24.0922C24.5453 35.456 24.9125 35.0887 24.9125 34.6357Z" fill="white"/>
<path d="M23.4966 28.6602C24.0762 26.6398 25.3419 25.0157 26.8853 23.917H24.39C23.1794 25.183 22.2433 26.7856 21.7988 28.6602H23.4966Z" fill="white"/>
<path d="M23.0206 22.2769H26.9695C26.926 22.0097 26.9031 21.7358 26.9031 21.4565C26.9031 21.1773 26.926 20.9034 26.9695 20.6362H23.0206C22.6771 19.616 21.7121 18.8789 20.5776 18.8789C19.1564 18.8789 18 20.0353 18 21.4565C18 22.8778 19.1564 24.0341 20.5776 24.0341C21.7121 24.0341 22.6771 23.2971 23.0206 22.2769Z" fill="white"/>
<path d="M42.1992 28.6602C41.7564 26.8018 40.8274 25.1933 39.61 23.917H37.1123C38.6426 25.0048 39.9221 26.6194 40.5054 28.6602H42.1992Z" fill="white"/>
<path d="M43.4226 18.8789C42.2881 18.8789 41.3231 19.616 40.9796 20.6362H37.0308C37.0742 20.9034 37.0971 21.1773 37.0971 21.4565C37.0971 21.7358 37.0742 22.0097 37.0308 22.2769H40.9796C41.3231 23.2971 42.2881 24.0341 43.4226 24.0341C44.8439 24.0341 46.0002 22.8778 46.0002 21.4565C46.0002 20.0353 44.8439 18.8789 43.4226 18.8789Z" fill="white"/>
<path d="M43.4223 30.3008H39.9077C39.4547 30.3008 39.0874 30.6681 39.0874 31.1211V34.6356C39.0874 35.0887 39.4547 35.456 39.9077 35.456H43.4223C43.8753 35.456 44.2426 35.0887 44.2426 34.6356V31.121C44.2426 30.668 43.8753 30.3008 43.4223 30.3008Z" fill="white"/>
</g>
<defs>
<clipPath id="clip0_874_7772">
<rect width="28" height="28" fill="white" transform="translate(18 18)"/>
</clipPath>
</defs>
</svg>
