<svg width="385" height="457" viewBox="0 0 385 457" fill="none" xmlns="http://www.w3.org/2000/svg">
<g opacity="0.1" filter="url(#filter0_d_5_2)">
<rect x="4" y="41" width="374" height="368" rx="25" fill="#D9D9D9"/>
</g>
<rect x="57" y="97" width="1" height="274" fill="#161616"/>
<path d="M53.1662 393.182H53.8707V397.341C53.8707 397.712 53.8026 398.027 53.6662 398.287C53.5298 398.546 53.3376 398.743 53.0895 398.878C52.8414 399.012 52.5488 399.08 52.2116 399.08C51.8935 399.08 51.6103 399.022 51.3622 398.906C51.1141 398.789 50.919 398.622 50.777 398.406C50.6349 398.19 50.5639 397.934 50.5639 397.636H51.2571C51.2571 397.801 51.2978 397.945 51.3793 398.068C51.4626 398.189 51.5762 398.284 51.7202 398.352C51.8641 398.42 52.0279 398.455 52.2116 398.455C52.4143 398.455 52.5866 398.412 52.7287 398.327C52.8707 398.241 52.9787 398.116 53.0526 397.952C53.1283 397.785 53.1662 397.581 53.1662 397.341V393.182ZM56.4759 399.102C56.1993 399.102 55.9484 399.05 55.723 398.946C55.4976 398.84 55.3187 398.687 55.1861 398.489C55.0535 398.288 54.9872 398.045 54.9872 397.761C54.9872 397.511 55.0365 397.309 55.1349 397.153C55.2334 396.996 55.3651 396.873 55.5298 396.784C55.6946 396.695 55.8764 396.629 56.0753 396.585C56.276 396.54 56.4777 396.504 56.6804 396.477C56.9455 396.443 57.1605 396.418 57.3253 396.401C57.492 396.382 57.6132 396.35 57.6889 396.307C57.7666 396.263 57.8054 396.187 57.8054 396.08V396.057C57.8054 395.776 57.7287 395.559 57.5753 395.403C57.4238 395.248 57.1937 395.17 56.8849 395.17C56.5649 395.17 56.3139 395.24 56.1321 395.381C55.9503 395.521 55.8224 395.67 55.7486 395.83L55.1122 395.602C55.2259 395.337 55.3774 395.131 55.5668 394.983C55.758 394.833 55.9664 394.729 56.1918 394.67C56.419 394.61 56.6425 394.58 56.8622 394.58C57.0024 394.58 57.1634 394.597 57.3452 394.631C57.5289 394.663 57.706 394.73 57.8764 394.832C58.0488 394.935 58.1918 395.089 58.3054 395.295C58.419 395.502 58.4759 395.778 58.4759 396.125V399H57.8054V398.409H57.7713C57.7259 398.504 57.6501 398.605 57.544 398.713C57.438 398.821 57.2969 398.913 57.1207 398.989C56.9446 399.064 56.7296 399.102 56.4759 399.102ZM56.5781 398.5C56.8433 398.5 57.0668 398.448 57.2486 398.344C57.4323 398.24 57.5705 398.105 57.6634 397.94C57.758 397.776 57.8054 397.602 57.8054 397.42V396.807C57.777 396.841 57.7145 396.872 57.6179 396.901C57.5232 396.927 57.4134 396.951 57.2884 396.972C57.1652 396.99 57.045 397.008 56.9276 397.023C56.812 397.036 56.7183 397.047 56.6463 397.057C56.4721 397.08 56.3092 397.116 56.1577 397.168C56.008 397.217 55.8868 397.292 55.794 397.392C55.7031 397.49 55.6577 397.625 55.6577 397.795C55.6577 398.028 55.7438 398.205 55.9162 398.324C56.0904 398.441 56.3111 398.5 56.5781 398.5ZM60.37 396.375V399H59.6996V394.636H60.3473V395.318H60.4041C60.5064 395.097 60.6617 394.919 60.87 394.784C61.0784 394.648 61.3473 394.58 61.6768 394.58C61.9723 394.58 62.2308 394.64 62.4524 394.761C62.674 394.881 62.8464 395.062 62.9695 395.307C63.0926 395.549 63.1541 395.856 63.1541 396.227V399H62.4837V396.273C62.4837 395.93 62.3946 395.663 62.2166 395.472C62.0386 395.278 61.7943 395.182 61.4837 395.182C61.2696 395.182 61.0784 395.228 60.9098 395.321C60.7431 395.414 60.6115 395.549 60.5149 395.727C60.4183 395.905 60.37 396.121 60.37 396.375Z" fill="white"/>
<rect x="57" y="371" width="1" height="8" fill="#161616"/>
<rect x="82" y="97" width="1" height="274" fill="#808080"/>
<path d="M76.2045 399V393.182H79.6932V393.807H76.9091V395.773H79.4318V396.398H76.9091V399H76.2045ZM82.3182 399.091C81.8977 399.091 81.535 398.998 81.2301 398.812C80.9271 398.625 80.6932 398.364 80.5284 398.028C80.3655 397.691 80.2841 397.299 80.2841 396.852C80.2841 396.405 80.3655 396.011 80.5284 395.67C80.6932 395.328 80.9223 395.061 81.2159 394.869C81.5114 394.676 81.8561 394.58 82.25 394.58C82.4773 394.58 82.7017 394.617 82.9233 394.693C83.1449 394.769 83.3466 394.892 83.5284 395.062C83.7102 395.231 83.8551 395.455 83.9631 395.733C84.071 396.011 84.125 396.354 84.125 396.761V397.045H80.7614V396.466H83.4432C83.4432 396.22 83.3939 396 83.2955 395.807C83.1989 395.614 83.0606 395.461 82.8807 395.349C82.7027 395.238 82.4924 395.182 82.25 395.182C81.983 395.182 81.7519 395.248 81.5568 395.381C81.3636 395.511 81.215 395.682 81.1108 395.892C81.0066 396.102 80.9545 396.328 80.9545 396.568V396.955C80.9545 397.284 81.0114 397.563 81.125 397.793C81.2405 398.02 81.4006 398.193 81.6051 398.312C81.8097 398.43 82.0473 398.489 82.3182 398.489C82.4943 398.489 82.6534 398.464 82.7955 398.415C82.9394 398.364 83.0634 398.288 83.1676 398.187C83.2718 398.085 83.3523 397.958 83.4091 397.807L84.0568 397.989C83.9886 398.208 83.8741 398.401 83.7131 398.568C83.5521 398.733 83.3532 398.862 83.1165 398.955C82.8797 399.045 82.6136 399.091 82.3182 399.091ZM85.2358 399V393.182H85.9063V395.33H85.9631C86.0123 395.254 86.0805 395.157 86.1676 395.04C86.2566 394.92 86.3835 394.814 86.5483 394.722C86.715 394.627 86.9403 394.58 87.2244 394.58C87.5919 394.58 87.9157 394.671 88.196 394.855C88.4763 395.039 88.6951 395.299 88.8523 395.636C89.0095 395.973 89.0881 396.371 89.0881 396.83C89.0881 397.292 89.0095 397.692 88.8523 398.031C88.6951 398.368 88.4773 398.63 88.1989 398.815C87.9205 398.999 87.5994 399.091 87.2358 399.091C86.9555 399.091 86.7311 399.044 86.5625 398.952C86.3939 398.857 86.2642 398.75 86.1733 398.631C86.0824 398.509 86.0123 398.409 85.9631 398.33H85.8835V399H85.2358ZM85.8949 396.818C85.8949 397.148 85.9432 397.438 86.0398 397.69C86.1364 397.94 86.2775 398.136 86.4631 398.278C86.6487 398.419 86.8759 398.489 87.1449 398.489C87.4252 398.489 87.6591 398.415 87.8466 398.267C88.036 398.117 88.178 397.917 88.2727 397.665C88.3693 397.411 88.4176 397.129 88.4176 396.818C88.4176 396.511 88.3703 396.235 88.2756 395.989C88.1828 395.74 88.0417 395.544 87.8523 395.401C87.6648 395.255 87.429 395.182 87.1449 395.182C86.8722 395.182 86.643 395.251 86.4574 395.389C86.2718 395.526 86.1316 395.717 86.0369 395.963C85.9422 396.207 85.8949 396.492 85.8949 396.818Z" fill="white"/>
<rect x="82" y="371" width="1" height="8" fill="#161616"/>
<rect x="106.818" y="97" width="1" height="274" fill="#808080"/>
<path d="M100.404 393.182H101.245L103.222 398.011H103.29L105.267 393.182H106.108V399H105.449V394.58H105.392L103.574 399H102.938L101.12 394.58H101.063V399H100.404V393.182ZM108.714 399.102C108.438 399.102 108.187 399.05 107.961 398.946C107.736 398.84 107.557 398.687 107.424 398.489C107.292 398.288 107.225 398.045 107.225 397.761C107.225 397.511 107.275 397.309 107.373 397.153C107.472 396.996 107.603 396.873 107.768 396.784C107.933 396.695 108.115 396.629 108.314 396.585C108.514 396.54 108.716 396.504 108.919 396.477C109.184 396.443 109.399 396.418 109.564 396.401C109.73 396.382 109.851 396.35 109.927 396.307C110.005 396.263 110.044 396.187 110.044 396.08V396.057C110.044 395.777 109.967 395.559 109.814 395.403C109.662 395.248 109.432 395.17 109.123 395.17C108.803 395.17 108.552 395.241 108.37 395.381C108.189 395.521 108.061 395.67 107.987 395.83L107.35 395.602C107.464 395.337 107.616 395.131 107.805 394.983C107.996 394.833 108.205 394.729 108.43 394.67C108.657 394.61 108.881 394.58 109.1 394.58C109.241 394.58 109.402 394.597 109.583 394.631C109.767 394.663 109.944 394.73 110.115 394.832C110.287 394.935 110.43 395.089 110.544 395.295C110.657 395.502 110.714 395.778 110.714 396.125V399H110.044V398.409H110.01C109.964 398.504 109.888 398.605 109.782 398.713C109.676 398.821 109.535 398.913 109.359 398.989C109.183 399.064 108.968 399.102 108.714 399.102ZM108.816 398.5C109.082 398.5 109.305 398.448 109.487 398.344C109.671 398.24 109.809 398.105 109.902 397.94C109.996 397.776 110.044 397.602 110.044 397.42V396.807C110.015 396.841 109.953 396.872 109.856 396.901C109.761 396.927 109.652 396.951 109.527 396.972C109.404 396.991 109.283 397.008 109.166 397.023C109.05 397.036 108.957 397.047 108.885 397.057C108.71 397.08 108.547 397.116 108.396 397.168C108.246 397.217 108.125 397.292 108.032 397.392C107.941 397.491 107.896 397.625 107.896 397.795C107.896 398.028 107.982 398.205 108.154 398.324C108.329 398.441 108.549 398.5 108.816 398.5ZM111.938 399V394.636H112.586V395.295H112.631C112.711 395.08 112.855 394.904 113.063 394.77C113.271 394.635 113.506 394.568 113.767 394.568C113.817 394.568 113.878 394.569 113.952 394.571C114.026 394.573 114.082 394.576 114.12 394.58V395.261C114.097 395.256 114.045 395.247 113.963 395.236C113.884 395.223 113.8 395.216 113.711 395.216C113.498 395.216 113.309 395.26 113.142 395.349C112.978 395.437 112.847 395.558 112.75 395.713C112.656 395.866 112.608 396.042 112.608 396.239V399H111.938Z" fill="white"/>
<rect x="106.818" y="371" width="1" height="8" fill="#161616"/>
<rect x="131.636" y="97" width="1" height="274" fill="#808080"/>
<path d="M126.314 399H125.576L127.712 393.182H128.439L130.576 399H129.837L128.098 394.102H128.053L126.314 399ZM126.587 396.727H129.564V397.352H126.587V396.727ZM131.391 400.636V394.636H132.039V395.33H132.118C132.167 395.254 132.236 395.157 132.323 395.04C132.412 394.92 132.539 394.814 132.703 394.722C132.87 394.627 133.096 394.58 133.38 394.58C133.747 394.58 134.071 394.671 134.351 394.855C134.632 395.039 134.85 395.299 135.007 395.636C135.165 395.973 135.243 396.371 135.243 396.83C135.243 397.292 135.165 397.692 135.007 398.031C134.85 398.368 134.632 398.63 134.354 398.815C134.076 398.999 133.755 399.091 133.391 399.091C133.111 399.091 132.886 399.045 132.718 398.952C132.549 398.857 132.419 398.75 132.328 398.631C132.238 398.509 132.167 398.409 132.118 398.33H132.061V400.636H131.391ZM132.05 396.818C132.05 397.148 132.098 397.438 132.195 397.69C132.292 397.94 132.433 398.136 132.618 398.278C132.804 398.419 133.031 398.489 133.3 398.489C133.58 398.489 133.814 398.415 134.002 398.267C134.191 398.117 134.333 397.917 134.428 397.665C134.525 397.411 134.573 397.129 134.573 396.818C134.573 396.511 134.525 396.235 134.431 395.989C134.338 395.741 134.197 395.545 134.007 395.401C133.82 395.255 133.584 395.182 133.3 395.182C133.027 395.182 132.798 395.251 132.613 395.389C132.427 395.526 132.287 395.717 132.192 395.963C132.097 396.207 132.05 396.492 132.05 396.818ZM136.266 399V394.636H136.914V395.295H136.959C137.039 395.08 137.183 394.904 137.391 394.77C137.599 394.635 137.834 394.568 138.096 394.568C138.145 394.568 138.206 394.569 138.28 394.571C138.354 394.573 138.41 394.576 138.448 394.58V395.261C138.425 395.256 138.373 395.247 138.292 395.236C138.212 395.223 138.128 395.216 138.039 395.216C137.827 395.216 137.637 395.26 137.471 395.349C137.306 395.437 137.175 395.558 137.078 395.713C136.984 395.866 136.936 396.042 136.936 396.239V399H136.266Z" fill="white"/>
<rect x="131.636" y="371" width="1" height="8" fill="#161616"/>
<rect x="156.455" y="97" width="1" height="274" fill="#808080"/>
<path d="M148.744 393.182H149.585L151.562 398.011H151.63L153.607 393.182H154.448V399H153.789V394.58H153.732L151.914 399H151.278L149.46 394.58H149.403V399H148.744V393.182ZM157.054 399.102C156.777 399.102 156.527 399.05 156.301 398.946C156.076 398.84 155.897 398.687 155.764 398.489C155.632 398.288 155.565 398.045 155.565 397.761C155.565 397.511 155.615 397.309 155.713 397.153C155.812 396.996 155.943 396.873 156.108 396.784C156.273 396.695 156.455 396.629 156.653 396.585C156.854 396.54 157.056 396.504 157.259 396.477C157.524 396.443 157.739 396.418 157.903 396.401C158.07 396.382 158.191 396.35 158.267 396.307C158.345 396.263 158.384 396.187 158.384 396.08V396.057C158.384 395.777 158.307 395.559 158.153 395.403C158.002 395.248 157.772 395.17 157.463 395.17C157.143 395.17 156.892 395.241 156.71 395.381C156.528 395.521 156.401 395.67 156.327 395.83L155.69 395.602C155.804 395.337 155.955 395.131 156.145 394.983C156.336 394.833 156.545 394.729 156.77 394.67C156.997 394.61 157.221 394.58 157.44 394.58C157.58 394.58 157.741 394.597 157.923 394.631C158.107 394.663 158.284 394.73 158.455 394.832C158.627 394.935 158.77 395.089 158.884 395.295C158.997 395.502 159.054 395.778 159.054 396.125V399H158.384V398.409H158.349C158.304 398.504 158.228 398.605 158.122 398.713C158.016 398.821 157.875 398.913 157.699 398.989C157.523 399.064 157.308 399.102 157.054 399.102ZM157.156 398.5C157.421 398.5 157.645 398.448 157.827 398.344C158.01 398.24 158.149 398.105 158.241 397.94C158.336 397.776 158.384 397.602 158.384 397.42V396.807C158.355 396.841 158.293 396.872 158.196 396.901C158.101 396.927 157.991 396.951 157.866 396.972C157.743 396.991 157.623 397.008 157.506 397.023C157.39 397.036 157.296 397.047 157.224 397.057C157.05 397.08 156.887 397.116 156.736 397.168C156.586 397.217 156.465 397.292 156.372 397.392C156.281 397.491 156.236 397.625 156.236 397.795C156.236 398.028 156.322 398.205 156.494 398.324C156.669 398.441 156.889 398.5 157.156 398.5ZM160.553 400.636C160.44 400.636 160.338 400.627 160.249 400.608C160.16 400.591 160.099 400.574 160.065 400.557L160.235 399.966C160.398 400.008 160.542 400.023 160.667 400.011C160.792 400 160.903 399.944 160.999 399.844C161.098 399.745 161.188 399.585 161.269 399.364L161.394 399.023L159.781 394.636H160.508L161.712 398.114H161.758L162.962 394.636H163.69L161.837 399.636C161.754 399.862 161.651 400.048 161.528 400.196C161.405 400.346 161.262 400.456 161.099 400.528C160.938 400.6 160.756 400.636 160.553 400.636Z" fill="white"/>
<rect x="156.455" y="371" width="1" height="8" fill="#161616"/>
<rect x="181.273" y="97" width="1" height="274" fill="#808080"/>
<path d="M177.096 393.182H177.8V397.341C177.8 397.712 177.732 398.027 177.596 398.287C177.46 398.546 177.267 398.743 177.019 398.878C176.771 399.012 176.478 399.08 176.141 399.08C175.823 399.08 175.54 399.022 175.292 398.906C175.044 398.789 174.849 398.622 174.707 398.406C174.565 398.19 174.494 397.934 174.494 397.636H175.187C175.187 397.801 175.228 397.945 175.309 398.068C175.392 398.189 175.506 398.284 175.65 398.352C175.794 398.42 175.958 398.455 176.141 398.455C176.344 398.455 176.516 398.412 176.658 398.327C176.8 398.241 176.908 398.116 176.982 397.952C177.058 397.785 177.096 397.581 177.096 397.341V393.182ZM181.871 397.216V394.636H182.542V399H181.871V398.261H181.826C181.724 398.483 181.565 398.671 181.349 398.827C181.133 398.98 180.86 399.057 180.531 399.057C180.258 399.057 180.015 398.997 179.803 398.878C179.591 398.757 179.424 398.575 179.303 398.332C179.182 398.088 179.121 397.78 179.121 397.409V394.636H179.792V397.364C179.792 397.682 179.881 397.936 180.059 398.125C180.239 398.314 180.468 398.409 180.746 398.409C180.913 398.409 181.083 398.366 181.255 398.281C181.429 398.196 181.575 398.065 181.692 397.889C181.812 397.713 181.871 397.489 181.871 397.216ZM184.44 396.375V399H183.77V394.636H184.418V395.318H184.474C184.577 395.097 184.732 394.919 184.94 394.784C185.149 394.648 185.418 394.58 185.747 394.58C186.043 394.58 186.301 394.64 186.523 394.761C186.744 394.881 186.917 395.062 187.04 395.307C187.163 395.549 187.224 395.856 187.224 396.227V399H186.554V396.273C186.554 395.93 186.465 395.663 186.287 395.472C186.109 395.278 185.865 395.182 185.554 395.182C185.34 395.182 185.149 395.228 184.98 395.321C184.813 395.414 184.682 395.549 184.585 395.727C184.489 395.905 184.44 396.121 184.44 396.375Z" fill="white"/>
<rect x="181.273" y="371" width="1" height="8" fill="#161616"/>
<rect x="206.091" y="97" width="1" height="274" fill="#808080"/>
<path d="M203.487 393.182H204.191V397.341C204.191 397.712 204.123 398.027 203.987 398.287C203.85 398.546 203.658 398.743 203.41 398.878C203.162 399.012 202.869 399.08 202.532 399.08C202.214 399.08 201.931 399.022 201.683 398.906C201.434 398.789 201.239 398.622 201.097 398.406C200.955 398.19 200.884 397.934 200.884 397.636H201.577C201.577 397.801 201.618 397.945 201.7 398.068C201.783 398.189 201.897 398.284 202.04 398.352C202.184 398.42 202.348 398.455 202.532 398.455C202.735 398.455 202.907 398.412 203.049 398.327C203.191 398.241 203.299 398.116 203.373 397.952C203.449 397.785 203.487 397.581 203.487 397.341V393.182ZM208.262 397.216V394.636H208.933V399H208.262V398.261H208.217C208.114 398.483 207.955 398.671 207.739 398.827C207.523 398.98 207.251 399.057 206.921 399.057C206.648 399.057 206.406 398.997 206.194 398.878C205.982 398.757 205.815 398.575 205.694 398.332C205.573 398.088 205.512 397.78 205.512 397.409V394.636H206.183V397.364C206.183 397.682 206.272 397.936 206.45 398.125C206.629 398.314 206.859 398.409 207.137 398.409C207.304 398.409 207.473 398.366 207.646 398.281C207.82 398.196 207.966 398.065 208.083 397.889C208.202 397.713 208.262 397.489 208.262 397.216ZM210.831 393.182V399H210.161V393.182H210.831Z" fill="white"/>
<rect x="206.091" y="371" width="1" height="8" fill="#161616"/>
<rect x="230.909" y="97" width="1" height="274" fill="#808080"/>
<path d="M224.978 399H224.24L226.376 393.182H227.103L229.24 399H228.501L226.762 394.102H226.717L224.978 399ZM225.251 396.727H228.228V397.352H225.251V396.727ZM232.805 397.216V394.636H233.475V399H232.805V398.261H232.76C232.657 398.483 232.498 398.671 232.282 398.827C232.066 398.98 231.794 399.057 231.464 399.057C231.191 399.057 230.949 398.997 230.737 398.878C230.525 398.757 230.358 398.575 230.237 398.332C230.116 398.088 230.055 397.78 230.055 397.409V394.636H230.725V397.364C230.725 397.682 230.815 397.936 230.993 398.125C231.172 398.314 231.402 398.409 231.68 398.409C231.847 398.409 232.016 398.366 232.189 398.281C232.363 398.196 232.509 398.065 232.626 397.889C232.745 397.713 232.805 397.489 232.805 397.216ZM236.465 400.727C236.141 400.727 235.863 400.686 235.63 400.602C235.397 400.521 235.203 400.413 235.047 400.278C234.894 400.146 234.772 400.004 234.681 399.852L235.215 399.477C235.275 399.557 235.352 399.648 235.445 399.75C235.538 399.854 235.665 399.944 235.826 400.02C235.989 400.098 236.202 400.136 236.465 400.136C236.817 400.136 237.108 400.051 237.337 399.881C237.566 399.71 237.681 399.443 237.681 399.08V398.193H237.624C237.575 398.273 237.505 398.371 237.414 398.489C237.325 398.604 237.196 398.707 237.027 398.798C236.861 398.887 236.635 398.932 236.351 398.932C235.999 398.932 235.683 398.848 235.402 398.682C235.124 398.515 234.903 398.273 234.74 397.955C234.579 397.636 234.499 397.25 234.499 396.795C234.499 396.348 234.578 395.959 234.735 395.628C234.892 395.295 235.111 395.037 235.391 394.855C235.671 394.671 235.995 394.58 236.363 394.58C236.647 394.58 236.872 394.627 237.039 394.722C237.207 394.814 237.336 394.92 237.425 395.04C237.516 395.157 237.586 395.254 237.635 395.33H237.703V394.636H238.351V399.125C238.351 399.5 238.266 399.805 238.096 400.04C237.927 400.277 237.7 400.45 237.414 400.56C237.13 400.671 236.813 400.727 236.465 400.727ZM236.442 398.33C236.711 398.33 236.938 398.268 237.124 398.145C237.31 398.022 237.451 397.845 237.547 397.614C237.644 397.383 237.692 397.106 237.692 396.784C237.692 396.47 237.645 396.192 237.55 395.952C237.455 395.711 237.315 395.523 237.13 395.386C236.944 395.25 236.715 395.182 236.442 395.182C236.158 395.182 235.921 395.254 235.732 395.398C235.544 395.542 235.403 395.735 235.309 395.977C235.216 396.22 235.169 396.489 235.169 396.784C235.169 397.087 235.217 397.355 235.311 397.588C235.408 397.819 235.55 398.001 235.738 398.134C235.927 398.264 236.162 398.33 236.442 398.33Z" fill="white"/>
<rect x="230.909" y="371" width="1" height="8" fill="#161616"/>
<rect x="255.727" y="97" width="1" height="274" fill="#808080"/>
<path d="M252.57 394.636C252.536 394.348 252.398 394.125 252.155 393.966C251.913 393.807 251.615 393.727 251.263 393.727C251.006 393.727 250.78 393.769 250.587 393.852C250.396 393.936 250.246 394.05 250.138 394.196C250.032 394.342 249.979 394.508 249.979 394.693C249.979 394.848 250.016 394.982 250.09 395.094C250.166 395.204 250.262 395.295 250.38 395.369C250.497 395.441 250.62 395.501 250.749 395.548C250.878 395.594 250.996 395.631 251.104 395.659L251.695 395.818C251.846 395.858 252.015 395.913 252.201 395.983C252.388 396.053 252.567 396.149 252.738 396.27C252.91 396.389 253.052 396.543 253.164 396.73C253.275 396.918 253.331 397.148 253.331 397.42C253.331 397.735 253.249 398.019 253.084 398.273C252.921 398.527 252.683 398.728 252.368 398.878C252.056 399.027 251.676 399.102 251.229 399.102C250.812 399.102 250.452 399.035 250.147 398.901C249.844 398.766 249.605 398.579 249.431 398.338C249.258 398.098 249.161 397.818 249.138 397.5H249.865C249.884 397.72 249.958 397.902 250.087 398.045C250.218 398.187 250.382 398.294 250.581 398.364C250.782 398.432 250.998 398.466 251.229 398.466C251.498 398.466 251.739 398.422 251.953 398.335C252.167 398.246 252.337 398.123 252.462 397.966C252.587 397.807 252.65 397.621 252.65 397.409C252.65 397.216 252.596 397.059 252.488 396.937C252.38 396.816 252.238 396.718 252.061 396.642C251.885 396.566 251.695 396.5 251.49 396.443L250.775 396.239C250.32 396.108 249.96 395.921 249.695 395.679C249.43 395.437 249.297 395.119 249.297 394.727C249.297 394.402 249.385 394.117 249.561 393.875C249.739 393.631 249.978 393.441 250.277 393.307C250.578 393.17 250.915 393.102 251.286 393.102C251.661 393.102 251.994 393.17 252.286 393.304C252.578 393.437 252.809 393.618 252.979 393.849C253.151 394.08 253.242 394.343 253.252 394.636H252.57ZM256.228 399.091C255.808 399.091 255.445 398.998 255.14 398.812C254.837 398.625 254.603 398.364 254.439 398.028C254.276 397.691 254.194 397.299 254.194 396.852C254.194 396.405 254.276 396.011 254.439 395.67C254.603 395.328 254.833 395.061 255.126 394.869C255.422 394.676 255.766 394.58 256.16 394.58C256.387 394.58 256.612 394.617 256.833 394.693C257.055 394.769 257.257 394.892 257.439 395.062C257.62 395.231 257.765 395.455 257.873 395.733C257.981 396.011 258.035 396.354 258.035 396.761V397.045H254.672V396.466H257.353C257.353 396.22 257.304 396 257.206 395.807C257.109 395.614 256.971 395.461 256.791 395.349C256.613 395.238 256.403 395.182 256.16 395.182C255.893 395.182 255.662 395.248 255.467 395.381C255.274 395.511 255.125 395.682 255.021 395.892C254.917 396.102 254.865 396.328 254.865 396.568V396.955C254.865 397.284 254.922 397.563 255.035 397.793C255.151 398.02 255.311 398.193 255.515 398.312C255.72 398.43 255.958 398.489 256.228 398.489C256.404 398.489 256.564 398.464 256.706 398.415C256.85 398.364 256.974 398.288 257.078 398.187C257.182 398.085 257.262 397.958 257.319 397.807L257.967 397.989C257.899 398.208 257.784 398.402 257.623 398.568C257.462 398.733 257.263 398.862 257.027 398.955C256.79 399.045 256.524 399.091 256.228 399.091ZM259.055 400.636V394.636H259.703V395.33H259.782C259.832 395.254 259.9 395.157 259.987 395.04C260.076 394.92 260.203 394.814 260.368 394.722C260.534 394.627 260.76 394.58 261.044 394.58C261.411 394.58 261.735 394.671 262.015 394.855C262.296 395.039 262.514 395.299 262.672 395.636C262.829 395.973 262.907 396.371 262.907 396.83C262.907 397.292 262.829 397.692 262.672 398.031C262.514 398.368 262.297 398.63 262.018 398.815C261.74 398.999 261.419 399.091 261.055 399.091C260.775 399.091 260.55 399.045 260.382 398.952C260.213 398.857 260.083 398.75 259.993 398.631C259.902 398.509 259.832 398.409 259.782 398.33H259.725V400.636H259.055ZM259.714 396.818C259.714 397.148 259.762 397.438 259.859 397.69C259.956 397.94 260.097 398.136 260.282 398.278C260.468 398.419 260.695 398.489 260.964 398.489C261.244 398.489 261.478 398.415 261.666 398.267C261.855 398.117 261.997 397.917 262.092 397.665C262.189 397.411 262.237 397.129 262.237 396.818C262.237 396.511 262.19 396.235 262.095 395.989C262.002 395.741 261.861 395.545 261.672 395.401C261.484 395.255 261.248 395.182 260.964 395.182C260.691 395.182 260.462 395.251 260.277 395.389C260.091 395.526 259.951 395.717 259.856 395.963C259.761 396.207 259.714 396.492 259.714 396.818Z" fill="white"/>
<rect x="255.727" y="371" width="1" height="8" fill="#161616"/>
<rect x="280.545" y="97" width="1" height="274" fill="#808080"/>
<path d="M279.879 396.091C279.879 396.705 279.768 397.235 279.547 397.682C279.325 398.129 279.021 398.473 278.635 398.716C278.249 398.958 277.807 399.08 277.311 399.08C276.815 399.08 276.374 398.958 275.987 398.716C275.601 398.473 275.297 398.129 275.075 397.682C274.854 397.235 274.743 396.705 274.743 396.091C274.743 395.477 274.854 394.947 275.075 394.5C275.297 394.053 275.601 393.708 275.987 393.466C276.374 393.223 276.815 393.102 277.311 393.102C277.807 393.102 278.249 393.223 278.635 393.466C279.021 393.708 279.325 394.053 279.547 394.5C279.768 394.947 279.879 395.477 279.879 396.091ZM279.197 396.091C279.197 395.587 279.113 395.162 278.945 394.815C278.778 394.469 278.552 394.206 278.266 394.028C277.982 393.85 277.663 393.761 277.311 393.761C276.959 393.761 276.64 393.85 276.354 394.028C276.07 394.206 275.843 394.469 275.675 394.815C275.508 395.162 275.425 395.587 275.425 396.091C275.425 396.595 275.508 397.02 275.675 397.366C275.843 397.713 276.07 397.975 276.354 398.153C276.64 398.331 276.959 398.42 277.311 398.42C277.663 398.42 277.982 398.331 278.266 398.153C278.552 397.975 278.778 397.713 278.945 397.366C279.113 397.02 279.197 396.595 279.197 396.091ZM282.746 399.091C282.337 399.091 281.984 398.994 281.689 398.801C281.393 398.608 281.166 398.342 281.007 398.003C280.848 397.664 280.768 397.277 280.768 396.841C280.768 396.398 280.85 396.007 281.013 395.668C281.178 395.327 281.407 395.061 281.7 394.869C281.996 394.676 282.34 394.58 282.734 394.58C283.041 394.58 283.318 394.636 283.564 394.75C283.81 394.864 284.012 395.023 284.169 395.227C284.326 395.432 284.424 395.67 284.462 395.943H283.791C283.74 395.744 283.626 395.568 283.45 395.415C283.276 395.259 283.041 395.182 282.746 395.182C282.484 395.182 282.255 395.25 282.058 395.386C281.863 395.521 281.711 395.711 281.601 395.957C281.493 396.202 281.439 396.489 281.439 396.818C281.439 397.155 281.492 397.449 281.598 397.699C281.706 397.949 281.857 398.143 282.053 398.281C282.25 398.42 282.481 398.489 282.746 398.489C282.92 398.489 283.078 398.458 283.22 398.398C283.362 398.337 283.482 398.25 283.581 398.136C283.679 398.023 283.75 397.886 283.791 397.727H284.462C284.424 397.985 284.33 398.217 284.18 398.423C284.033 398.628 283.837 398.791 283.592 398.912C283.35 399.031 283.068 399.091 282.746 399.091ZM287.339 394.636V395.205H285.078V394.636H287.339ZM285.737 393.591H286.408V397.75C286.408 397.939 286.435 398.081 286.49 398.176C286.547 398.269 286.619 398.331 286.706 398.364C286.795 398.394 286.889 398.409 286.987 398.409C287.061 398.409 287.122 398.405 287.169 398.398C287.216 398.388 287.254 398.381 287.283 398.375L287.419 398.977C287.374 398.994 287.31 399.011 287.229 399.028C287.147 399.047 287.044 399.057 286.919 399.057C286.73 399.057 286.544 399.016 286.362 398.935C286.182 398.853 286.033 398.729 285.913 398.562C285.796 398.396 285.737 398.186 285.737 397.932V393.591Z" fill="white"/>
<rect x="280.545" y="371" width="1" height="8" fill="#161616"/>
<rect x="305.364" y="97" width="1" height="274" fill="#808080"/>
<path d="M303.271 393.182V399H302.589L299.419 394.432H299.362V399H298.658V393.182H299.339L302.521 397.761H302.578V393.182H303.271ZM306.363 399.091C305.969 399.091 305.623 398.997 305.326 398.81C305.031 398.622 304.799 398.36 304.633 398.023C304.468 397.686 304.386 397.292 304.386 396.841C304.386 396.386 304.468 395.99 304.633 395.651C304.799 395.312 305.031 395.048 305.326 394.861C305.623 394.673 305.969 394.58 306.363 394.58C306.757 394.58 307.102 394.673 307.397 394.861C307.694 395.048 307.925 395.312 308.09 395.651C308.257 395.99 308.34 396.386 308.34 396.841C308.34 397.292 308.257 397.686 308.09 398.023C307.925 398.36 307.694 398.622 307.397 398.81C307.102 398.997 306.757 399.091 306.363 399.091ZM306.363 398.489C306.662 398.489 306.908 398.412 307.102 398.259C307.295 398.105 307.438 397.903 307.531 397.653C307.623 397.403 307.67 397.133 307.67 396.841C307.67 396.549 307.623 396.277 307.531 396.026C307.438 395.774 307.295 395.57 307.102 395.415C306.908 395.259 306.662 395.182 306.363 395.182C306.064 395.182 305.817 395.259 305.624 395.415C305.431 395.57 305.288 395.774 305.195 396.026C305.103 396.277 305.056 396.549 305.056 396.841C305.056 397.133 305.103 397.403 305.195 397.653C305.288 397.903 305.431 398.105 305.624 398.259C305.817 398.412 306.064 398.489 306.363 398.489ZM312.776 394.636L311.162 399H310.48L308.866 394.636H309.594L310.798 398.114H310.844L312.048 394.636H312.776Z" fill="white"/>
<rect x="305.364" y="371" width="1" height="8" fill="#161616"/>
<rect x="330.182" y="97" width="1" height="274" fill="#808080"/>
<path d="M326.063 399H324.267V393.182H326.142C326.706 393.182 327.189 393.298 327.591 393.531C327.992 393.762 328.3 394.095 328.514 394.528C328.728 394.96 328.835 395.477 328.835 396.08C328.835 396.686 328.727 397.207 328.511 397.645C328.295 398.08 327.981 398.416 327.568 398.651C327.155 398.884 326.653 399 326.063 399ZM324.972 398.375H326.017C326.498 398.375 326.897 398.282 327.213 398.097C327.529 397.911 327.765 397.647 327.92 397.304C328.076 396.961 328.153 396.553 328.153 396.08C328.153 395.61 328.077 395.205 327.923 394.866C327.77 394.526 327.541 394.264 327.236 394.082C326.931 393.899 326.551 393.807 326.097 393.807H324.972V398.375ZM331.756 399.091C331.335 399.091 330.973 398.998 330.668 398.812C330.365 398.625 330.131 398.364 329.966 398.028C329.803 397.691 329.722 397.299 329.722 396.852C329.722 396.405 329.803 396.011 329.966 395.67C330.131 395.328 330.36 395.061 330.653 394.869C330.949 394.676 331.294 394.58 331.688 394.58C331.915 394.58 332.139 394.617 332.361 394.693C332.582 394.769 332.784 394.892 332.966 395.062C333.148 395.231 333.293 395.455 333.401 395.733C333.509 396.011 333.562 396.354 333.562 396.761V397.045H330.199V396.466H332.881C332.881 396.22 332.831 396 332.733 395.807C332.636 395.614 332.498 395.461 332.318 395.349C332.14 395.238 331.93 395.182 331.688 395.182C331.42 395.182 331.189 395.248 330.994 395.381C330.801 395.511 330.652 395.682 330.548 395.892C330.444 396.102 330.392 396.328 330.392 396.568V396.955C330.392 397.284 330.449 397.563 330.563 397.793C330.678 398.02 330.838 398.193 331.043 398.312C331.247 398.43 331.485 398.489 331.756 398.489C331.932 398.489 332.091 398.464 332.233 398.415C332.377 398.364 332.501 398.288 332.605 398.187C332.709 398.085 332.79 397.958 332.847 397.807L333.494 397.989C333.426 398.208 333.312 398.402 333.151 398.568C332.99 398.733 332.791 398.862 332.554 398.955C332.317 399.045 332.051 399.091 331.756 399.091ZM336.355 399.091C335.946 399.091 335.594 398.994 335.298 398.801C335.003 398.608 334.776 398.342 334.616 398.003C334.457 397.664 334.378 397.277 334.378 396.841C334.378 396.398 334.459 396.007 334.622 395.668C334.787 395.327 335.016 395.061 335.31 394.869C335.605 394.676 335.95 394.58 336.344 394.58C336.651 394.58 336.927 394.636 337.173 394.75C337.42 394.864 337.621 395.023 337.778 395.227C337.936 395.432 338.033 395.67 338.071 395.943H337.401C337.349 395.744 337.236 395.568 337.06 395.415C336.885 395.259 336.651 395.182 336.355 395.182C336.094 395.182 335.865 395.25 335.668 395.386C335.473 395.521 335.32 395.711 335.21 395.957C335.102 396.202 335.048 396.489 335.048 396.818C335.048 397.155 335.101 397.449 335.207 397.699C335.315 397.949 335.467 398.143 335.662 398.281C335.859 398.42 336.09 398.489 336.355 398.489C336.529 398.489 336.687 398.458 336.83 398.398C336.972 398.337 337.092 398.25 337.19 398.136C337.289 398.023 337.359 397.886 337.401 397.727H338.071C338.033 397.985 337.939 398.217 337.79 398.423C337.642 398.628 337.446 398.791 337.202 398.912C336.959 399.031 336.677 399.091 336.355 399.091Z" fill="white"/>
<rect x="330.182" y="371" width="1" height="8" fill="#161616"/>
<rect x="57" y="97" width="274" height="1" fill="#808080"/>
<rect x="50" y="97" width="8" height="1" fill="#161616"/>
<path d="M28.9483 103.139C28.5307 103.133 28.1131 103.053 27.6955 102.901C27.2779 102.748 26.8967 102.491 26.552 102.13C26.2073 101.765 25.9306 101.273 25.7218 100.653C25.513 100.03 25.4086 99.2481 25.4086 98.3068C25.4086 97.4053 25.4931 96.6065 25.6621 95.9105C25.8311 95.2112 26.0764 94.6229 26.3979 94.1456C26.7194 93.665 27.1072 93.3004 27.5613 93.0518C28.0186 92.8033 28.534 92.679 29.1074 92.679C29.6775 92.679 30.1846 92.7933 30.6287 93.022C31.0762 93.2474 31.4408 93.5623 31.7225 93.9666C32.0042 94.371 32.1865 94.8366 32.2694 95.3636H31.0563C30.9436 94.9062 30.7248 94.5268 30.4 94.2251C30.0752 93.9235 29.6444 93.7727 29.1074 93.7727C28.3186 93.7727 27.6971 94.1158 27.2431 94.8018C26.7923 95.4879 26.5653 96.4508 26.562 97.6903H26.6415C26.8271 97.4086 27.0475 97.1683 27.3027 96.9695C27.5613 96.7673 27.8463 96.6115 28.1578 96.5021C28.4694 96.3928 28.7992 96.3381 29.1472 96.3381C29.7305 96.3381 30.2641 96.4839 30.748 96.7756C31.2319 97.0639 31.6197 97.4633 31.9114 97.9737C32.2031 98.4808 32.3489 99.0625 32.3489 99.7187C32.3489 100.348 32.208 100.925 31.9263 101.449C31.6446 101.969 31.2485 102.384 30.7381 102.692C30.231 102.997 29.6344 103.146 28.9483 103.139ZM28.9483 102.045C29.3659 102.045 29.7405 101.941 30.0719 101.732C30.4067 101.523 30.6702 101.243 30.8624 100.892C31.0579 100.541 31.1557 100.15 31.1557 99.7187C31.1557 99.2978 31.0613 98.915 30.8723 98.5703C30.6867 98.2223 30.4299 97.9455 30.1017 97.7401C29.7769 97.5346 29.4057 97.4318 28.9881 97.4318C28.6732 97.4318 28.3799 97.4948 28.1081 97.6207C27.8364 97.7434 27.5977 97.9124 27.3922 98.1278C27.19 98.3433 27.031 98.5902 26.9149 98.8686C26.7989 99.1437 26.7409 99.4337 26.7409 99.7386C26.7409 100.143 26.8354 100.521 27.0243 100.872C27.2166 101.223 27.4784 101.507 27.8098 101.722C28.1446 101.938 28.5241 102.045 28.9483 102.045ZM37.625 103.139C36.8759 103.139 36.2379 102.935 35.7109 102.528C35.1839 102.117 34.7812 101.522 34.5028 100.743C34.2244 99.9607 34.0852 99.0161 34.0852 97.9091C34.0852 96.8087 34.2244 95.8691 34.5028 95.0902C34.7846 94.308 35.1889 93.7114 35.7159 93.3004C36.2462 92.8861 36.8826 92.679 37.625 92.679C38.3674 92.679 39.0021 92.8861 39.5291 93.3004C40.0594 93.7114 40.4638 94.308 40.7422 95.0902C41.0239 95.8691 41.1648 96.8087 41.1648 97.9091C41.1648 99.0161 41.0256 99.9607 40.7472 100.743C40.4687 101.522 40.066 102.117 39.5391 102.528C39.0121 102.935 38.3741 103.139 37.625 103.139ZM37.625 102.045C38.3674 102.045 38.9441 101.687 39.3551 100.972C39.7661 100.256 39.9716 99.2348 39.9716 97.9091C39.9716 97.0275 39.8771 96.2768 39.6882 95.657C39.5026 95.0372 39.2341 94.5649 38.8828 94.2401C38.5348 93.9152 38.1155 93.7528 37.625 93.7528C36.8892 93.7528 36.3142 94.1158 35.8999 94.8416C35.4856 95.5642 35.2784 96.5866 35.2784 97.9091C35.2784 98.7907 35.3712 99.5398 35.5568 100.156C35.7424 100.773 36.0092 101.242 36.3572 101.563C36.7086 101.885 37.1312 102.045 37.625 102.045Z" fill="white"/>
<rect x="57" y="142.5" width="274" height="1" fill="#808080"/>
<rect x="50" y="142.5" width="8" height="1" fill="#161616"/>
<path d="M28.9682 148.639C28.3849 148.639 27.8596 148.523 27.3922 148.291C26.9249 148.059 26.5504 147.741 26.2686 147.337C25.9869 146.932 25.8328 146.472 25.8063 145.955H26.9995C27.0459 146.415 27.2547 146.796 27.6259 147.098C28.0004 147.396 28.4479 147.545 28.9682 147.545C29.3858 147.545 29.757 147.448 30.0819 147.252C30.41 147.057 30.6668 146.788 30.8524 146.447C31.0414 146.102 31.1358 145.713 31.1358 145.278C31.1358 144.834 31.0381 144.438 30.8425 144.09C30.6503 143.739 30.3851 143.462 30.0471 143.26C29.709 143.058 29.3229 142.955 28.8887 142.952C28.5771 142.948 28.2573 142.996 27.9292 143.096C27.601 143.192 27.3309 143.316 27.1188 143.469L25.9654 143.33L26.5819 138.318H31.8716V139.412H27.6159L27.258 142.415H27.3176C27.5265 142.249 27.7883 142.111 28.1032 142.002C28.418 141.893 28.7462 141.838 29.0875 141.838C29.7106 141.838 30.2658 141.987 30.753 142.286C31.2435 142.58 31.628 142.985 31.9064 143.499C32.1882 144.012 32.329 144.599 32.329 145.259C32.329 145.908 32.1832 146.488 31.8915 146.999C31.6032 147.506 31.2054 147.907 30.6983 148.202C30.1912 148.493 29.6145 148.639 28.9682 148.639ZM37.625 148.639C36.8759 148.639 36.2379 148.435 35.7109 148.028C35.1839 147.617 34.7812 147.022 34.5028 146.243C34.2244 145.461 34.0852 144.516 34.0852 143.409C34.0852 142.309 34.2244 141.369 34.5028 140.59C34.7846 139.808 35.1889 139.211 35.7159 138.8C36.2462 138.386 36.8826 138.179 37.625 138.179C38.3674 138.179 39.0021 138.386 39.5291 138.8C40.0594 139.211 40.4638 139.808 40.7422 140.59C41.0239 141.369 41.1648 142.309 41.1648 143.409C41.1648 144.516 41.0256 145.461 40.7472 146.243C40.4687 147.022 40.066 147.617 39.5391 148.028C39.0121 148.435 38.3741 148.639 37.625 148.639ZM37.625 147.545C38.3674 147.545 38.9441 147.187 39.3551 146.472C39.7661 145.756 39.9716 144.735 39.9716 143.409C39.9716 142.527 39.8771 141.777 39.6882 141.157C39.5026 140.537 39.2341 140.065 38.8828 139.74C38.5348 139.415 38.1155 139.253 37.625 139.253C36.8892 139.253 36.3142 139.616 35.8999 140.342C35.4856 141.064 35.2784 142.087 35.2784 143.409C35.2784 144.291 35.3712 145.04 35.5568 145.656C35.7424 146.273 36.0092 146.742 36.3572 147.063C36.7086 147.385 37.1312 147.545 37.625 147.545Z" fill="white"/>
<rect x="57" y="188" width="274" height="1" fill="#808080"/>
<rect x="50" y="188" width="8" height="1" fill="#161616"/>
<path d="M25.0829 191.912V190.898L29.5574 183.818H30.2931V185.389H29.796L26.4153 190.739V190.818H32.4409V191.912H25.0829ZM29.8755 194V191.604V191.131V183.818H31.0488V194H29.8755ZM37.625 194.139C36.8759 194.139 36.2379 193.935 35.7109 193.528C35.1839 193.117 34.7812 192.522 34.5028 191.743C34.2244 190.961 34.0852 190.016 34.0852 188.909C34.0852 187.809 34.2244 186.869 34.5028 186.09C34.7846 185.308 35.1889 184.711 35.7159 184.3C36.2462 183.886 36.8826 183.679 37.625 183.679C38.3674 183.679 39.0021 183.886 39.5291 184.3C40.0594 184.711 40.4638 185.308 40.7422 186.09C41.0239 186.869 41.1648 187.809 41.1648 188.909C41.1648 190.016 41.0256 190.961 40.7472 191.743C40.4687 192.522 40.066 193.117 39.5391 193.528C39.0121 193.935 38.3741 194.139 37.625 194.139ZM37.625 193.045C38.3674 193.045 38.9441 192.687 39.3551 191.972C39.7661 191.256 39.9716 190.235 39.9716 188.909C39.9716 188.027 39.8771 187.277 39.6882 186.657C39.5026 186.037 39.2341 185.565 38.8828 185.24C38.5348 184.915 38.1155 184.753 37.625 184.753C36.8892 184.753 36.3142 185.116 35.8999 185.842C35.4856 186.564 35.2784 187.587 35.2784 188.909C35.2784 189.791 35.3712 190.54 35.5568 191.156C35.7424 191.773 36.0092 192.242 36.3572 192.563C36.7086 192.885 37.1312 193.045 37.625 193.045Z" fill="white"/>
<rect x="57" y="233.5" width="274" height="1" fill="#808080"/>
<rect x="50" y="233.5" width="8" height="1" fill="#161616"/>
<path d="M28.8303 239.639C28.174 239.639 27.589 239.526 27.0753 239.301C26.5649 239.076 26.1589 238.763 25.8572 238.361C25.5589 237.957 25.3965 237.488 25.37 236.955H26.6229C26.6494 237.283 26.7621 237.566 26.9609 237.805C27.1598 238.04 27.42 238.222 27.7415 238.352C28.063 238.481 28.4193 238.545 28.8104 238.545C29.2479 238.545 29.6357 238.469 29.9737 238.317C30.3118 238.164 30.5769 237.952 30.7692 237.68C30.9614 237.409 31.0575 237.094 31.0575 236.736C31.0575 236.361 30.9647 236.031 30.7791 235.746C30.5935 235.458 30.3217 235.233 29.9638 235.07C29.6058 234.908 29.1683 234.827 28.6513 234.827H27.8359V233.733H28.6513C29.0556 233.733 29.4103 233.66 29.7152 233.514C30.0234 233.368 30.2637 233.163 30.4361 232.898C30.6117 232.633 30.6996 232.321 30.6996 231.963C30.6996 231.618 30.6233 231.318 30.4709 231.063C30.3184 230.808 30.103 230.609 29.8246 230.467C29.5495 230.324 29.2247 230.253 28.8501 230.253C28.4988 230.253 28.1674 230.317 27.8558 230.447C27.5476 230.573 27.2957 230.757 27.1001 230.999C26.9046 231.237 26.7985 231.526 26.782 231.864H25.5888C25.6087 231.33 25.7694 230.863 26.071 230.462C26.3726 230.057 26.767 229.742 27.2543 229.517C27.7448 229.292 28.2834 229.179 28.87 229.179C29.4998 229.179 30.04 229.307 30.4908 229.562C30.9415 229.814 31.2879 230.147 31.5298 230.561C31.7718 230.975 31.8928 231.423 31.8928 231.903C31.8928 232.477 31.7419 232.966 31.4403 233.37C31.142 233.774 30.736 234.054 30.2223 234.21V234.29C30.8653 234.396 31.3674 234.669 31.7287 235.11C32.09 235.548 32.2706 236.089 32.2706 236.736C32.2706 237.289 32.1198 237.786 31.8182 238.227C31.5199 238.665 31.1122 239.009 30.5952 239.261C30.0781 239.513 29.4898 239.639 28.8303 239.639ZM37.625 239.639C36.8759 239.639 36.2379 239.435 35.7109 239.028C35.1839 238.617 34.7812 238.022 34.5028 237.243C34.2244 236.461 34.0852 235.516 34.0852 234.409C34.0852 233.309 34.2244 232.369 34.5028 231.59C34.7846 230.808 35.1889 230.211 35.7159 229.8C36.2462 229.386 36.8826 229.179 37.625 229.179C38.3674 229.179 39.0021 229.386 39.5291 229.8C40.0594 230.211 40.4638 230.808 40.7422 231.59C41.0239 232.369 41.1648 233.309 41.1648 234.409C41.1648 235.516 41.0256 236.461 40.7472 237.243C40.4687 238.022 40.066 238.617 39.5391 239.028C39.0121 239.435 38.3741 239.639 37.625 239.639ZM37.625 238.545C38.3674 238.545 38.9441 238.187 39.3551 237.472C39.7661 236.756 39.9716 235.735 39.9716 234.409C39.9716 233.527 39.8771 232.777 39.6882 232.157C39.5026 231.537 39.2341 231.065 38.8828 230.74C38.5348 230.415 38.1155 230.253 37.625 230.253C36.8892 230.253 36.3142 230.616 35.8999 231.342C35.4856 232.064 35.2784 233.087 35.2784 234.409C35.2784 235.291 35.3712 236.04 35.5568 236.656C35.7424 237.273 36.0092 237.742 36.3572 238.063C36.7086 238.385 37.1312 238.545 37.625 238.545Z" fill="white"/>
<rect x="57" y="279" width="274" height="1" fill="#808080"/>
<rect x="50" y="279" width="8" height="1" fill="#161616"/>
<path d="M25.8274 285V284.105L29.1882 280.426C29.5826 279.995 29.9074 279.621 30.1626 279.303C30.4178 278.981 30.6068 278.679 30.7294 278.398C30.8553 278.113 30.9183 277.814 30.9183 277.503C30.9183 277.145 30.8321 276.835 30.6598 276.573C30.4908 276.311 30.2588 276.109 29.9638 275.967C29.6688 275.824 29.3374 275.753 28.9695 275.753C28.5784 275.753 28.237 275.834 27.9453 275.996C27.657 276.156 27.4332 276.379 27.2741 276.668C27.1184 276.956 27.0405 277.294 27.0405 277.682H25.8672C25.8672 277.085 26.0047 276.562 26.2798 276.111C26.5549 275.66 26.9295 275.309 27.4034 275.057C27.8807 274.805 28.416 274.679 29.0092 274.679C29.6058 274.679 30.1345 274.805 30.5952 275.057C31.0559 275.309 31.4171 275.648 31.679 276.076C31.9408 276.504 32.0717 276.979 32.0717 277.503C32.0717 277.877 32.0038 278.244 31.8679 278.602C31.7353 278.956 31.5033 279.352 31.1719 279.79C30.8437 280.224 30.388 280.754 29.8047 281.381L27.5178 283.827V283.906H32.2507V285H25.8274ZM37.625 285.139C36.8759 285.139 36.2379 284.935 35.7109 284.528C35.1839 284.117 34.7812 283.522 34.5028 282.743C34.2244 281.961 34.0852 281.016 34.0852 279.909C34.0852 278.809 34.2244 277.869 34.5028 277.09C34.7846 276.308 35.1889 275.711 35.7159 275.3C36.2462 274.886 36.8826 274.679 37.625 274.679C38.3674 274.679 39.0021 274.886 39.5291 275.3C40.0594 275.711 40.4638 276.308 40.7422 277.09C41.0239 277.869 41.1648 278.809 41.1648 279.909C41.1648 281.016 41.0256 281.961 40.7472 282.743C40.4687 283.522 40.066 284.117 39.5391 284.528C39.0121 284.935 38.3741 285.139 37.625 285.139ZM37.625 284.045C38.3674 284.045 38.9441 283.687 39.3551 282.972C39.7661 282.256 39.9716 281.235 39.9716 279.909C39.9716 279.027 39.8771 278.277 39.6882 277.657C39.5026 277.037 39.2341 276.565 38.8828 276.24C38.5348 275.915 38.1155 275.753 37.625 275.753C36.8892 275.753 36.3142 276.116 35.8999 276.842C35.4856 277.564 35.2784 278.587 35.2784 279.909C35.2784 280.791 35.3712 281.54 35.5568 282.156C35.7424 282.773 36.0092 283.242 36.3572 283.563C36.7086 283.885 37.1312 284.045 37.625 284.045Z" fill="white"/>
<rect x="57" y="324.5" width="274" height="1" fill="#808080"/>
<rect x="50" y="324.5" width="8" height="1" fill="#161616"/>
<path d="M31.3757 320.318V330.5H30.1428V321.611H30.0831L27.5973 323.261V322.008L30.1428 320.318H31.3757ZM37.625 330.639C36.8759 330.639 36.2379 330.435 35.7109 330.028C35.1839 329.617 34.7812 329.022 34.5028 328.243C34.2244 327.461 34.0852 326.516 34.0852 325.409C34.0852 324.309 34.2244 323.369 34.5028 322.59C34.7846 321.808 35.1889 321.211 35.7159 320.8C36.2462 320.386 36.8826 320.179 37.625 320.179C38.3674 320.179 39.0021 320.386 39.5291 320.8C40.0594 321.211 40.4638 321.808 40.7422 322.59C41.0239 323.369 41.1648 324.309 41.1648 325.409C41.1648 326.516 41.0256 327.461 40.7472 328.243C40.4687 329.022 40.066 329.617 39.5391 330.028C39.0121 330.435 38.3741 330.639 37.625 330.639ZM37.625 329.545C38.3674 329.545 38.9441 329.187 39.3551 328.472C39.7661 327.756 39.9716 326.735 39.9716 325.409C39.9716 324.527 39.8771 323.777 39.6882 323.157C39.5026 322.537 39.2341 322.065 38.8828 321.74C38.5348 321.415 38.1155 321.253 37.625 321.253C36.8892 321.253 36.3142 321.616 35.8999 322.342C35.4856 323.064 35.2784 324.087 35.2784 325.409C35.2784 326.291 35.3712 327.04 35.5568 327.656C35.7424 328.273 36.0092 328.742 36.3572 329.063C36.7086 329.385 37.1312 329.545 37.625 329.545Z" fill="white"/>
<rect x="57" y="370" width="274" height="1" fill="#161616"/>
<rect x="50" y="370" width="8" height="1" fill="#161616"/>
<path d="M37.625 376.139C36.8759 376.139 36.2379 375.935 35.7109 375.528C35.1839 375.117 34.7812 374.522 34.5028 373.743C34.2244 372.961 34.0852 372.016 34.0852 370.909C34.0852 369.809 34.2244 368.869 34.5028 368.09C34.7846 367.308 35.1889 366.711 35.7159 366.3C36.2462 365.886 36.8826 365.679 37.625 365.679C38.3674 365.679 39.0021 365.886 39.5291 366.3C40.0594 366.711 40.4638 367.308 40.7422 368.09C41.0239 368.869 41.1648 369.809 41.1648 370.909C41.1648 372.016 41.0256 372.961 40.7472 373.743C40.4687 374.522 40.0661 375.117 39.5391 375.528C39.0121 375.935 38.3741 376.139 37.625 376.139ZM37.625 375.045C38.3674 375.045 38.9441 374.687 39.3551 373.972C39.7661 373.256 39.9716 372.235 39.9716 370.909C39.9716 370.027 39.8771 369.277 39.6882 368.657C39.5026 368.037 39.2341 367.565 38.8828 367.24C38.5348 366.915 38.1155 366.753 37.625 366.753C36.8892 366.753 36.3142 367.116 35.8999 367.842C35.4856 368.564 35.2784 369.587 35.2784 370.909C35.2784 371.791 35.3712 372.54 35.5568 373.156C35.7424 373.773 36.0092 374.242 36.3572 374.563C36.7086 374.885 37.1312 375.045 37.625 375.045Z" fill="white"/>
<g clip-path="url(#clip0_5_2)">
<path opacity="0.75" d="M107.41 352.266L108.673 353.075L107.41 352.266ZM112.69 344.015L113.954 344.824L112.69 344.015ZM125.841 333.331L125.308 331.928L125.841 333.331ZM139.606 328.1L140.139 329.502L139.606 328.1ZM145.07 325.274L144.233 324.029L144.233 324.029L145.07 325.274ZM170.937 307.901L170.1 306.656L170.937 307.901ZM182.034 303.606L181.814 302.122L182.034 303.606ZM188.487 302.65L188.268 301.166L188.487 302.65ZM270.5 253.501L269.077 253.027L269.077 253.027L270.5 253.501ZM281.923 223.974L282.397 222.551L279.551 221.603L279.077 223.026L281.923 223.974ZM235.032 270.941L234.846 272.43L235.032 270.941ZM241.536 271.755L241.722 270.266L241.536 271.755ZM38 374.483C37.9908 378.902 41.5651 382.491 45.9833 382.5C50.4016 382.509 53.9908 378.935 54 374.517C54.0092 370.098 50.4349 366.509 46.0166 366.5C41.5984 366.491 38.0092 370.065 38 374.483ZM90.8259 364L90.4838 362.54L90.4838 362.54L90.8259 364ZM208.338 286.835L206.941 286.289L208.338 286.835ZM107.41 352.266L108.673 353.075L113.954 344.824L112.69 344.015L111.427 343.207L106.146 351.458L107.41 352.266ZM125.841 333.331L126.374 334.733L140.139 329.502L139.606 328.1L139.074 326.697L125.308 331.928L125.841 333.331ZM145.07 325.274L145.906 326.519L171.773 309.146L170.937 307.901L170.1 306.656L144.233 324.029L145.07 325.274ZM182.034 303.606L182.254 305.09L188.707 304.134L188.487 302.65L188.268 301.166L181.814 302.122L182.034 303.606ZM270.5 253.501L271.923 253.976L281.923 223.974L280.5 223.5L279.077 223.026L269.077 253.027L270.5 253.501ZM235.032 270.941L234.846 272.43L241.35 273.243L241.536 271.755L241.722 270.266L235.218 269.453L235.032 270.941ZM46 374.5L46.3421 375.96L91.168 365.461L90.8259 364L90.4838 362.54L45.6579 373.04L46 374.5ZM208.338 286.835L209.735 287.38C213.697 277.237 224.04 271.079 234.846 272.43L235.032 270.941L235.218 269.453C223.05 267.932 211.403 274.867 206.941 286.289L208.338 286.835ZM270.5 253.501L269.077 253.027C265.233 264.558 253.784 271.774 241.722 270.266L241.536 271.755L241.35 273.243C254.831 274.928 267.627 266.864 271.923 253.976L270.5 253.501ZM188.487 302.65L188.707 304.134C198.214 302.725 206.238 296.332 209.735 287.38L208.338 286.835L206.941 286.289C203.836 294.238 196.71 299.915 188.268 301.166L188.487 302.65ZM170.937 307.901L171.773 309.146C174.921 307.031 178.502 305.646 182.254 305.09L182.034 303.606L181.814 302.122C177.621 302.744 173.619 304.292 170.1 306.656L170.937 307.901ZM139.606 328.1L140.139 329.502C142.169 328.73 144.104 327.73 145.906 326.519L145.07 325.274L144.233 324.029C142.621 325.112 140.89 326.007 139.074 326.697L139.606 328.1ZM112.69 344.015L113.954 344.824C116.904 340.215 121.258 336.677 126.374 334.733L125.841 333.331L125.308 331.928C119.591 334.101 114.724 338.055 111.427 343.207L112.69 344.015ZM107.41 352.266L106.146 351.458C102.567 357.05 96.9483 361.026 90.4838 362.54L90.8259 364L91.168 365.461C98.393 363.768 104.673 359.325 108.673 353.075L107.41 352.266Z" fill="#A8E811"/>
</g>
<g filter="url(#filter1_d_5_2)">
<path d="M105.578 79.1392C104.922 79.1392 104.337 79.0265 103.823 78.8011C103.313 78.5758 102.907 78.2625 102.605 77.8615C102.307 77.4571 102.145 76.9882 102.118 76.4545H103.371C103.397 76.7827 103.51 77.0661 103.709 77.3047C103.908 77.54 104.168 77.7223 104.49 77.8516C104.811 77.9808 105.167 78.0455 105.558 78.0455C105.996 78.0455 106.384 77.9692 106.722 77.8168C107.06 77.6643 107.325 77.4522 107.517 77.1804C107.709 76.9086 107.806 76.5938 107.806 76.2358C107.806 75.8613 107.713 75.5315 107.527 75.2464C107.342 74.9581 107.07 74.7327 106.712 74.5703C106.354 74.4079 105.916 74.3267 105.399 74.3267H104.584V73.233H105.399C105.804 73.233 106.158 73.16 106.463 73.0142C106.771 72.8684 107.012 72.6629 107.184 72.3977C107.36 72.1326 107.448 71.821 107.448 71.4631C107.448 71.1184 107.371 70.8184 107.219 70.5632C107.066 70.308 106.851 70.1091 106.573 69.9666C106.298 69.8241 105.973 69.7528 105.598 69.7528C105.247 69.7528 104.915 69.8175 104.604 69.9467C104.296 70.0727 104.044 70.2566 103.848 70.4986C103.653 70.7372 103.547 71.0256 103.53 71.3636H102.337C102.357 70.83 102.517 70.3627 102.819 69.9616C103.121 69.5573 103.515 69.2424 104.002 69.017C104.493 68.7917 105.031 68.679 105.618 68.679C106.248 68.679 106.788 68.8066 107.239 69.0618C107.69 69.3137 108.036 69.6468 108.278 70.0611C108.52 70.4754 108.641 70.9228 108.641 71.4034C108.641 71.9768 108.49 72.4657 108.188 72.87C107.89 73.2744 107.484 73.5545 106.97 73.7102V73.7898C107.613 73.8958 108.115 74.1693 108.477 74.6101C108.838 75.0476 109.019 75.5895 109.019 76.2358C109.019 76.7893 108.868 77.2865 108.566 77.7273C108.268 78.1648 107.86 78.5095 107.343 78.7614C106.826 79.0133 106.238 79.1392 105.578 79.1392ZM111.052 79V78.1051L114.413 74.4261C114.807 73.9953 115.132 73.6207 115.387 73.3026C115.642 72.9811 115.831 72.6795 115.954 72.3977C116.08 72.1127 116.143 71.8144 116.143 71.5028C116.143 71.1449 116.057 70.835 115.884 70.5732C115.715 70.3113 115.483 70.1091 115.188 69.9666C114.893 69.8241 114.562 69.7528 114.194 69.7528C113.803 69.7528 113.462 69.834 113.17 69.9964C112.882 70.1555 112.658 70.3793 112.499 70.6676C112.343 70.956 112.265 71.294 112.265 71.6818H111.092C111.092 71.0852 111.229 70.5616 111.504 70.1108C111.78 69.66 112.154 69.3087 112.628 69.0568C113.105 68.8049 113.641 68.679 114.234 68.679C114.83 68.679 115.359 68.8049 115.82 69.0568C116.28 69.3087 116.642 69.6484 116.904 70.076C117.165 70.5036 117.296 70.9792 117.296 71.5028C117.296 71.8774 117.228 72.2436 117.093 72.6016C116.96 72.9562 116.728 73.3523 116.396 73.7898C116.068 74.224 115.613 74.7543 115.029 75.3807L112.742 77.8267V77.9062H117.475V79H111.052ZM123.645 79V68.8182H124.878V73.3523H130.307V68.8182H131.54V79H130.307V74.446H124.878V79H123.645ZM136.952 79.1591C136.262 79.1591 135.657 78.995 135.137 78.6669C134.62 78.3388 134.215 77.8797 133.924 77.2898C133.635 76.6998 133.491 76.0104 133.491 75.2216C133.491 74.4261 133.635 73.7318 133.924 73.1385C134.215 72.5452 134.62 72.0845 135.137 71.7564C135.657 71.4283 136.262 71.2642 136.952 71.2642C137.641 71.2642 138.244 71.4283 138.761 71.7564C139.282 72.0845 139.686 72.5452 139.974 73.1385C140.266 73.7318 140.412 74.4261 140.412 75.2216C140.412 76.0104 140.266 76.6998 139.974 77.2898C139.686 77.8797 139.282 78.3388 138.761 78.6669C138.244 78.995 137.641 79.1591 136.952 79.1591ZM136.952 78.1051C137.475 78.1051 137.906 77.9709 138.244 77.7024C138.582 77.4339 138.832 77.081 138.995 76.6435C139.157 76.206 139.238 75.732 139.238 75.2216C139.238 74.7112 139.157 74.2356 138.995 73.7947C138.832 73.3539 138.582 72.9976 138.244 72.7259C137.906 72.4541 137.475 72.3182 136.952 72.3182C136.428 72.3182 135.997 72.4541 135.659 72.7259C135.321 72.9976 135.071 73.3539 134.908 73.7947C134.746 74.2356 134.665 74.7112 134.665 75.2216C134.665 75.732 134.746 76.206 134.908 76.6435C135.071 77.081 135.321 77.4339 135.659 77.7024C135.997 77.9709 136.428 78.1051 136.952 78.1051ZM147.015 75.8778V71.3636H148.189V79H147.015V77.7074H146.936C146.757 78.0952 146.478 78.425 146.1 78.6967C145.723 78.9652 145.245 79.0994 144.669 79.0994C144.191 79.0994 143.767 78.995 143.396 78.7862C143.025 78.5741 142.733 78.2559 142.521 77.8317C142.309 77.4041 142.203 76.8655 142.203 76.2159V71.3636H143.376V76.1364C143.376 76.6932 143.532 77.1373 143.843 77.4688C144.158 77.8002 144.559 77.9659 145.047 77.9659C145.338 77.9659 145.635 77.8913 145.936 77.7422C146.241 77.593 146.497 77.3643 146.702 77.0561C146.911 76.7479 147.015 76.3551 147.015 75.8778ZM150.338 79V71.3636H151.471V72.517H151.551C151.69 72.1392 151.942 71.8326 152.306 71.5973C152.671 71.362 153.082 71.2443 153.539 71.2443C153.625 71.2443 153.733 71.246 153.862 71.2493C153.992 71.2526 154.089 71.2576 154.156 71.2642V72.4574C154.116 72.4474 154.025 72.4325 153.882 72.4126C153.743 72.3894 153.596 72.3778 153.44 72.3778C153.069 72.3778 152.737 72.4557 152.445 72.6115C152.157 72.764 151.928 72.9761 151.759 73.2479C151.594 73.5163 151.511 73.8229 151.511 74.1676V79H150.338ZM160.956 73.0739L159.902 73.3722C159.835 73.1965 159.738 73.0258 159.608 72.8601C159.482 72.6911 159.31 72.5518 159.091 72.4425C158.873 72.3331 158.592 72.2784 158.251 72.2784C157.784 72.2784 157.394 72.3861 157.083 72.6016C156.775 72.8137 156.62 73.0838 156.62 73.4119C156.62 73.7036 156.726 73.9339 156.939 74.103C157.151 74.272 157.482 74.4129 157.933 74.5256L159.066 74.804C159.749 74.9697 160.258 75.2232 160.593 75.5646C160.927 75.9027 161.095 76.3385 161.095 76.8722C161.095 77.3097 160.969 77.7008 160.717 78.0455C160.468 78.3902 160.12 78.6619 159.673 78.8608C159.225 79.0597 158.705 79.1591 158.112 79.1591C157.333 79.1591 156.688 78.9901 156.178 78.652C155.667 78.3139 155.344 77.8201 155.208 77.1705L156.322 76.892C156.428 77.303 156.629 77.6113 156.924 77.8168C157.222 78.0223 157.611 78.125 158.092 78.125C158.639 78.125 159.073 78.009 159.395 77.777C159.719 77.5417 159.882 77.2599 159.882 76.9318C159.882 76.6667 159.789 76.4446 159.603 76.2656C159.418 76.0833 159.133 75.9474 158.748 75.858L157.475 75.5597C156.776 75.3939 156.262 75.1371 155.934 74.7891C155.609 74.4377 155.447 73.9986 155.447 73.4716C155.447 73.0407 155.568 72.6596 155.81 72.3281C156.055 71.9967 156.388 71.7365 156.809 71.5476C157.234 71.3587 157.714 71.2642 158.251 71.2642C159.007 71.2642 159.6 71.4299 160.031 71.7614C160.465 72.0928 160.773 72.5303 160.956 73.0739ZM172.526 71.3636C172.466 70.8598 172.224 70.4688 171.8 70.1903C171.376 69.9119 170.855 69.7727 170.239 69.7727C169.788 69.7727 169.394 69.8456 169.056 69.9915C168.721 70.1373 168.459 70.3378 168.27 70.593C168.084 70.8482 167.992 71.1383 167.992 71.4631C167.992 71.7348 168.056 71.9685 168.186 72.1641C168.318 72.3563 168.487 72.517 168.693 72.6463C168.898 72.7723 169.114 72.8767 169.339 72.9595C169.564 73.0391 169.771 73.1037 169.96 73.1534L170.994 73.4318C171.26 73.5014 171.555 73.5975 171.879 73.7202C172.208 73.8428 172.521 74.0102 172.819 74.2223C173.121 74.4311 173.369 74.6996 173.565 75.0277C173.76 75.3558 173.858 75.7585 173.858 76.2358C173.858 76.786 173.714 77.2831 173.426 77.7273C173.141 78.1714 172.723 78.5244 172.173 78.7862C171.626 79.0481 170.961 79.179 170.179 79.179C169.45 79.179 168.819 79.0613 168.285 78.826C167.755 78.5907 167.337 78.2625 167.032 77.8416C166.731 77.4207 166.56 76.9318 166.52 76.375H167.793C167.826 76.7595 167.955 77.0777 168.181 77.3295C168.409 77.5781 168.698 77.7637 169.046 77.8864C169.397 78.0057 169.775 78.0653 170.179 78.0653C170.65 78.0653 171.072 77.9891 171.447 77.8366C171.821 77.6809 172.118 77.4654 172.337 77.1903C172.556 76.9119 172.665 76.5871 172.665 76.2159C172.665 75.8778 172.57 75.6027 172.382 75.3906C172.193 75.1785 171.944 75.0062 171.636 74.8736C171.328 74.741 170.994 74.625 170.637 74.5256L169.384 74.1676C168.588 73.9389 167.959 73.6125 167.494 73.1882C167.03 72.764 166.798 72.2088 166.798 71.5227C166.798 70.9527 166.953 70.4555 167.261 70.0312C167.572 69.6037 167.99 69.2723 168.514 69.0369C169.041 68.7983 169.629 68.679 170.279 68.679C170.935 68.679 171.518 68.7966 172.029 69.032C172.539 69.264 172.943 69.5821 173.242 69.9865C173.543 70.3909 173.702 70.8499 173.719 71.3636H172.526ZM177.973 79.179C177.489 79.179 177.05 79.0878 176.656 78.9055C176.261 78.7199 175.948 78.4531 175.716 78.1051C175.484 77.7538 175.368 77.3295 175.368 76.8324C175.368 76.3949 175.454 76.0402 175.627 75.7685C175.799 75.4934 176.029 75.2779 176.318 75.1222C176.606 74.9664 176.924 74.8504 177.272 74.7741C177.624 74.6946 177.977 74.6316 178.331 74.5852C178.795 74.5256 179.172 74.4808 179.46 74.451C179.752 74.4179 179.964 74.3632 180.096 74.2869C180.232 74.2107 180.3 74.0781 180.3 73.8892V73.8494C180.3 73.3589 180.166 72.9777 179.897 72.706C179.632 72.4342 179.23 72.2983 178.689 72.2983C178.129 72.2983 177.69 72.4209 177.372 72.6662C177.054 72.9115 176.83 73.1733 176.701 73.4517L175.587 73.054C175.786 72.59 176.051 72.2287 176.382 71.9702C176.717 71.7083 177.082 71.526 177.476 71.4233C177.874 71.3172 178.265 71.2642 178.65 71.2642C178.895 71.2642 179.176 71.294 179.495 71.3537C179.816 71.41 180.126 71.5277 180.424 71.7067C180.726 71.8857 180.976 72.1558 181.175 72.517C181.374 72.8783 181.473 73.3622 181.473 73.9688V79H180.3V77.9659H180.24C180.161 78.1316 180.028 78.3089 179.843 78.4979C179.657 78.6868 179.41 78.8475 179.102 78.9801C178.794 79.1127 178.417 79.179 177.973 79.179ZM178.152 78.125C178.616 78.125 179.007 78.0339 179.326 77.8516C179.647 77.6693 179.889 77.4339 180.051 77.1456C180.217 76.8572 180.3 76.554 180.3 76.2358V75.1619C180.25 75.2216 180.141 75.2763 179.972 75.326C179.806 75.3724 179.614 75.4138 179.395 75.4503C179.18 75.4834 178.969 75.5133 178.764 75.5398C178.562 75.563 178.398 75.5829 178.272 75.5994C177.967 75.6392 177.682 75.7038 177.417 75.7933C177.155 75.8795 176.943 76.0104 176.78 76.1861C176.621 76.3584 176.542 76.5937 176.542 76.892C176.542 77.2997 176.692 77.608 176.994 77.8168C177.299 78.0223 177.685 78.125 178.152 78.125ZM189.586 71.3636L186.762 79H185.569L182.745 71.3636H184.018L186.126 77.4489H186.205L188.313 71.3636H189.586ZM194.063 79.1591C193.327 79.1591 192.692 78.9967 192.159 78.6719C191.628 78.3438 191.219 77.8864 190.931 77.2997C190.646 76.7098 190.503 76.0237 190.503 75.2415C190.503 74.4593 190.646 73.7699 190.931 73.1733C191.219 72.5734 191.62 72.1061 192.134 71.7713C192.651 71.4332 193.254 71.2642 193.943 71.2642C194.341 71.2642 194.734 71.3305 195.122 71.4631C195.509 71.5956 195.862 71.8111 196.181 72.1094C196.499 72.4044 196.752 72.7955 196.941 73.2827C197.13 73.7699 197.225 74.3698 197.225 75.0824V75.5795H191.338V74.5653H196.031C196.031 74.1345 195.945 73.75 195.773 73.4119C195.604 73.0739 195.362 72.8071 195.047 72.6115C194.735 72.416 194.368 72.3182 193.943 72.3182C193.476 72.3182 193.072 72.4342 192.73 72.6662C192.392 72.8949 192.132 73.1932 191.95 73.5611C191.767 73.929 191.676 74.3234 191.676 74.7443V75.4205C191.676 75.9972 191.776 76.486 191.975 76.8871C192.177 77.2848 192.457 77.5881 192.815 77.7969C193.173 78.0024 193.589 78.1051 194.063 78.1051C194.371 78.1051 194.649 78.062 194.898 77.9759C195.15 77.8864 195.367 77.7538 195.549 77.5781C195.731 77.3991 195.872 77.1771 195.972 76.9119L197.105 77.2301C196.986 77.6146 196.785 77.9527 196.504 78.2443C196.222 78.5327 195.874 78.758 195.46 78.9205C195.045 79.0795 194.58 79.1591 194.063 79.1591ZM201.893 79.1591C201.257 79.1591 200.695 78.9983 200.208 78.6768C199.72 78.352 199.339 77.8946 199.064 77.3047C198.789 76.7114 198.651 76.0104 198.651 75.2017C198.651 74.3996 198.789 73.7036 199.064 73.1136C199.339 72.5237 199.722 72.0679 200.213 71.7464C200.703 71.425 201.27 71.2642 201.913 71.2642C202.41 71.2642 202.803 71.3471 203.091 71.5128C203.383 71.6752 203.605 71.8608 203.757 72.0696C203.913 72.2751 204.034 72.4441 204.12 72.5767H204.22V68.8182H205.393V79H204.259V77.8267H204.12C204.034 77.9659 203.911 78.1416 203.752 78.3537C203.593 78.5625 203.366 78.7498 203.071 78.9155C202.776 79.0779 202.383 79.1591 201.893 79.1591ZM202.052 78.1051C202.523 78.1051 202.92 77.9825 203.245 77.7372C203.57 77.4886 203.817 77.1456 203.986 76.7081C204.155 76.2673 204.24 75.7585 204.24 75.1818C204.24 74.6117 204.157 74.1129 203.991 73.6854C203.825 73.2545 203.58 72.9197 203.255 72.6811C202.93 72.4392 202.529 72.3182 202.052 72.3182C201.555 72.3182 201.141 72.4458 200.809 72.701C200.481 72.9529 200.234 73.2959 200.068 73.7301C199.906 74.161 199.825 74.6449 199.825 75.1818C199.825 75.7254 199.908 76.2192 200.073 76.6634C200.242 77.1042 200.491 77.4555 200.819 77.7173C201.151 77.9759 201.561 78.1051 202.052 78.1051ZM211.244 69.9119V68.8182H218.881V69.9119H215.679V79H214.446V69.9119H211.244ZM221.798 74.4062V79H220.625V68.8182H221.798V72.5568H221.897C222.076 72.1624 222.345 71.8492 222.703 71.6172C223.064 71.3819 223.545 71.2642 224.145 71.2642C224.665 71.2642 225.121 71.3686 225.512 71.5774C225.903 71.7829 226.206 72.0994 226.422 72.527C226.64 72.9512 226.75 73.4915 226.75 74.1477V79H225.576V74.2273C225.576 73.6207 225.419 73.1518 225.104 72.8203C224.792 72.4856 224.36 72.3182 223.806 72.3182C223.422 72.3182 223.077 72.3994 222.772 72.5618C222.471 72.7242 222.232 72.9612 222.056 73.2727C221.884 73.5843 221.798 73.9621 221.798 74.4062ZM228.896 79V71.3636H230.069V79H228.896ZM229.493 70.0909C229.264 70.0909 229.067 70.013 228.901 69.8572C228.739 69.7015 228.657 69.5142 228.657 69.2955C228.657 69.0767 228.739 68.8894 228.901 68.7337C229.067 68.5779 229.264 68.5 229.493 68.5C229.721 68.5 229.917 68.5779 230.079 68.7337C230.245 68.8894 230.328 69.0767 230.328 69.2955C230.328 69.5142 230.245 69.7015 230.079 69.8572C229.917 70.013 229.721 70.0909 229.493 70.0909ZM237.627 73.0739L236.574 73.3722C236.507 73.1965 236.409 73.0258 236.28 72.8601C236.154 72.6911 235.982 72.5518 235.763 72.4425C235.544 72.3331 235.264 72.2784 234.923 72.2784C234.456 72.2784 234.066 72.3861 233.755 72.6016C233.446 72.8137 233.292 73.0838 233.292 73.4119C233.292 73.7036 233.398 73.9339 233.61 74.103C233.823 74.272 234.154 74.4129 234.605 74.5256L235.738 74.804C236.421 74.9697 236.93 75.2232 237.265 75.5646C237.599 75.9027 237.767 76.3385 237.767 76.8722C237.767 77.3097 237.641 77.7008 237.389 78.0455C237.14 78.3902 236.792 78.6619 236.345 78.8608C235.897 79.0597 235.377 79.1591 234.784 79.1591C234.005 79.1591 233.36 78.9901 232.85 78.652C232.339 78.3139 232.016 77.8201 231.88 77.1705L232.994 76.892C233.1 77.303 233.301 77.6113 233.596 77.8168C233.894 78.0223 234.283 78.125 234.764 78.125C235.311 78.125 235.745 78.009 236.066 77.777C236.391 77.5417 236.554 77.2599 236.554 76.9318C236.554 76.6667 236.461 76.4446 236.275 76.2656C236.09 76.0833 235.805 75.9474 235.42 75.858L234.147 75.5597C233.448 75.3939 232.934 75.1371 232.606 74.7891C232.281 74.4377 232.119 73.9986 232.119 73.4716C232.119 73.0407 232.24 72.6596 232.482 72.3281C232.727 71.9967 233.06 71.7365 233.481 71.5476C233.905 71.3587 234.386 71.2642 234.923 71.2642C235.679 71.2642 236.272 71.4299 236.703 71.7614C237.137 72.0928 237.445 72.5303 237.627 73.0739ZM243.629 68.8182H245.101L248.561 77.2699H248.681L252.141 68.8182H253.612V79H252.459V71.2642H252.36L249.178 79H248.064L244.882 71.2642H244.783V79H243.629V68.8182ZM259.028 79.1591C258.338 79.1591 257.733 78.995 257.213 78.6669C256.696 78.3388 256.292 77.8797 256 77.2898C255.712 76.6998 255.567 76.0104 255.567 75.2216C255.567 74.4261 255.712 73.7318 256 73.1385C256.292 72.5452 256.696 72.0845 257.213 71.7564C257.733 71.4283 258.338 71.2642 259.028 71.2642C259.717 71.2642 260.32 71.4283 260.837 71.7564C261.358 72.0845 261.762 72.5452 262.05 73.1385C262.342 73.7318 262.488 74.4261 262.488 75.2216C262.488 76.0104 262.342 76.6998 262.05 77.2898C261.762 77.8797 261.358 78.3388 260.837 78.6669C260.32 78.995 259.717 79.1591 259.028 79.1591ZM259.028 78.1051C259.551 78.1051 259.982 77.9709 260.32 77.7024C260.658 77.4339 260.909 77.081 261.071 76.6435C261.233 76.206 261.315 75.732 261.315 75.2216C261.315 74.7112 261.233 74.2356 261.071 73.7947C260.909 73.3539 260.658 72.9976 260.32 72.7259C259.982 72.4541 259.551 72.3182 259.028 72.3182C258.504 72.3182 258.073 72.4541 257.735 72.7259C257.397 72.9976 257.147 73.3539 256.984 73.7947C256.822 74.2356 256.741 74.7112 256.741 75.2216C256.741 75.732 256.822 76.206 256.984 76.6435C257.147 77.081 257.397 77.4339 257.735 77.7024C258.073 77.9709 258.504 78.1051 259.028 78.1051ZM265.452 74.4062V79H264.279V71.3636H265.412V72.5568H265.512C265.691 72.169 265.963 71.8575 266.327 71.6222C266.692 71.3835 267.162 71.2642 267.739 71.2642C268.256 71.2642 268.709 71.3703 269.096 71.5824C269.484 71.7912 269.786 72.1094 270.001 72.5369C270.217 72.9612 270.324 73.4981 270.324 74.1477V79H269.151V74.2273C269.151 73.6274 268.995 73.16 268.684 72.8253C268.372 72.4872 267.945 72.3182 267.401 72.3182C267.027 72.3182 266.692 72.3994 266.397 72.5618C266.105 72.7242 265.875 72.9612 265.706 73.2727C265.537 73.5843 265.452 73.9621 265.452 74.4062ZM275.789 71.3636V72.358H271.832V71.3636H275.789ZM272.985 69.5341H274.159V76.8125C274.159 77.1439 274.207 77.3925 274.303 77.5582C274.402 77.7206 274.528 77.83 274.681 77.8864C274.837 77.9394 275.001 77.9659 275.173 77.9659C275.302 77.9659 275.408 77.9593 275.491 77.946C275.574 77.9295 275.64 77.9162 275.69 77.9062L275.929 78.9602C275.849 78.9901 275.738 79.0199 275.596 79.0497C275.453 79.0829 275.272 79.0994 275.054 79.0994C274.722 79.0994 274.397 79.0282 274.079 78.8857C273.764 78.7431 273.502 78.526 273.294 78.2344C273.088 77.9427 272.985 77.5748 272.985 77.1307V69.5341ZM278.892 74.4062V79H277.718V68.8182H278.892V72.5568H278.991C279.17 72.1624 279.439 71.8492 279.797 71.6172C280.158 71.3819 280.638 71.2642 281.238 71.2642C281.759 71.2642 282.214 71.3686 282.605 71.5774C282.997 71.7829 283.3 72.0994 283.515 72.527C283.734 72.9512 283.843 73.4915 283.843 74.1477V79H282.67V74.2273C282.67 73.6207 282.513 73.1518 282.198 72.8203C281.886 72.4856 281.454 72.3182 280.9 72.3182C280.516 72.3182 280.171 72.3994 279.866 72.5618C279.565 72.7242 279.326 72.9612 279.15 73.2727C278.978 73.5843 278.892 73.9621 278.892 74.4062Z" fill="white"/>
</g>
<defs>
<filter id="filter0_d_5_2" x="0" y="41" width="382" height="376" filterUnits="userSpaceOnUse" color-interpolation-filters="sRGB">
<feFlood flood-opacity="0" result="BackgroundImageFix"/>
<feColorMatrix in="SourceAlpha" type="matrix" values="0 0 0 0 0 0 0 0 0 0 0 0 0 0 0 0 0 0 127 0" result="hardAlpha"/>
<feOffset dy="4"/>
<feGaussianBlur stdDeviation="2"/>
<feComposite in2="hardAlpha" operator="out"/>
<feColorMatrix type="matrix" values="0 0 0 0 0 0 0 0 0 0 0 0 0 0 0 0 0 0 0.25 0"/>
<feBlend mode="normal" in2="BackgroundImageFix" result="effect1_dropShadow_5_2"/>
<feBlend mode="normal" in="SourceGraphic" in2="effect1_dropShadow_5_2" result="shape"/>
</filter>
<filter id="filter1_d_5_2" x="77.1181" y="68.5" width="206.725" height="18.679" filterUnits="userSpaceOnUse" color-interpolation-filters="sRGB">
<feFlood flood-opacity="0" result="BackgroundImageFix"/>
<feColorMatrix in="SourceAlpha" type="matrix" values="0 0 0 0 0 0 0 0 0 0 0 0 0 0 0 0 0 0 127 0" result="hardAlpha"/>
<feOffset dx="-21" dy="4"/>
<feGaussianBlur stdDeviation="2"/>
<feComposite in2="hardAlpha" operator="out"/>
<feColorMatrix type="matrix" values="0 0 0 0 0 0 0 0 0 0 0 0 0 0 0 0 0 0 0.25 0"/>
<feBlend mode="normal" in2="BackgroundImageFix" result="effect1_dropShadow_5_2"/>
<feBlend mode="normal" in="SourceGraphic" in2="effect1_dropShadow_5_2" result="shape"/>
</filter>
<clipPath id="clip0_5_2">
<rect width="272" height="273" fill="white" transform="translate(57.2844 119.717) rotate(0.119237)"/>
</clipPath>
</defs>
</svg>
