<svg width="317" height="154" viewBox="0 0 317 154" fill="none" xmlns="http://www.w3.org/2000/svg">
<g clip-path="url(#clip0_2_2)">
<path d="M0 12C0 5.37259 5.37258 0 12 0H305C311.627 0 317 5.37258 317 12V142C317 148.627 311.627 154 305 154H12C5.37259 154 0 148.627 0 142V12Z" fill="white" fill-opacity="0.06"/>
<path d="M29.154 84.7608H28L31.338 75.6709H32.474L35.812 84.7608H34.658L31.941 77.1079H31.871L29.154 84.7608ZM29.58 81.2098H34.232V82.1859H29.58V81.2098ZM41.817 77.9428L39.296 84.7608H38.23L35.709 77.9428H36.845L38.727 83.3758H38.798L40.681 77.9428H41.817ZM45.717 87.4598C45.212 87.4598 44.777 87.3948 44.413 87.2648C44.0805 87.1549 43.7718 86.9832 43.503 86.7589C43.2781 86.5685 43.0847 86.3437 42.93 86.0929L43.764 85.5069C43.859 85.6309 43.979 85.7728 44.124 85.9328C44.269 86.0958 44.467 86.2359 44.719 86.3549C44.973 86.4759 45.306 86.5369 45.718 86.5369C46.268 86.5369 46.722 86.4028 47.08 86.1368C47.438 85.8708 47.617 85.4529 47.617 84.8849V83.4998H47.529C47.4274 83.6594 47.3176 83.8136 47.2 83.9618C47.035 84.164 46.8292 84.3289 46.596 84.4458C46.336 84.5848 45.984 84.6538 45.54 84.6538C44.99 84.6538 44.495 84.5238 44.057 84.2638C43.6109 83.9912 43.2521 83.5967 43.023 83.1268C42.772 82.6298 42.646 82.0269 42.646 81.3159C42.646 80.6179 42.769 80.0099 43.014 79.4919C43.26 78.9709 43.602 78.5689 44.04 78.2849C44.478 77.9979 44.984 77.8539 45.558 77.8539C46.002 77.8539 46.354 77.9279 46.614 78.0759C46.878 78.2209 47.079 78.3868 47.218 78.5728C47.36 78.7568 47.47 78.9078 47.546 79.0258H47.653V77.9428H48.665V84.9558C48.665 85.5419 48.532 86.0189 48.265 86.3858C48.002 86.7558 47.647 87.0258 47.2 87.1978C46.727 87.3779 46.2231 87.4668 45.717 87.4598ZM45.682 83.7129C46.102 83.7129 46.457 83.6169 46.747 83.4249C47.0461 83.221 47.2768 82.9318 47.409 82.5949C47.559 82.2339 47.635 81.8019 47.635 81.2989C47.635 80.8069 47.561 80.3738 47.413 79.9978C47.2834 79.6465 47.0553 79.3399 46.756 79.1148C46.466 78.9018 46.108 78.7948 45.682 78.7948C45.238 78.7948 44.868 78.9079 44.572 79.1319C44.272 79.3668 44.0431 79.6804 43.911 80.0379C43.7615 80.4412 43.6876 80.8687 43.693 81.2989C43.693 81.7719 43.767 82.1908 43.915 82.5548C44.066 82.9158 44.288 83.1999 44.581 83.4069C44.877 83.6109 45.244 83.7129 45.682 83.7129ZM51.356 84.8318C51.2509 84.8334 51.1466 84.8133 51.0496 84.7729C50.9526 84.7324 50.8649 84.6725 50.792 84.5968C50.7164 84.5238 50.6566 84.4362 50.6162 84.3392C50.5758 84.2422 50.5556 84.1379 50.557 84.0329C50.5556 83.9278 50.5758 83.8235 50.6162 83.7265C50.6566 83.6295 50.7164 83.5419 50.792 83.4689C50.8649 83.3932 50.9526 83.3333 51.0496 83.2928C51.1466 83.2524 51.2509 83.2323 51.356 83.2339C51.576 83.2339 51.763 83.3119 51.92 83.4689C51.9956 83.5419 52.0554 83.6295 52.0958 83.7265C52.1363 83.8235 52.1564 83.9278 52.155 84.0329C52.1528 84.1727 52.1149 84.3097 52.0449 84.4308C51.9749 84.5519 51.8751 84.6531 51.755 84.7248C51.6346 84.7971 51.4964 84.8341 51.356 84.8318ZM65.028 78.5109H63.928C63.8158 77.9295 63.4829 77.4141 62.999 77.0728C62.7692 76.906 62.5125 76.7799 62.24 76.6999C61.9576 76.6164 61.6645 76.5746 61.37 76.5759C60.82 76.5759 60.321 76.7149 59.874 76.9929C59.43 77.2709 59.077 77.6808 58.814 78.2218C58.554 78.7638 58.423 79.4279 58.423 80.2159C58.423 81.0029 58.553 81.6668 58.813 82.2088C59.077 82.7498 59.43 83.1599 59.874 83.4379C60.321 83.7159 60.82 83.8549 61.37 83.8549C61.672 83.8549 61.962 83.8139 62.24 83.7309C62.5121 83.6514 62.769 83.5271 63 83.3628C63.4812 83.017 63.8129 82.5011 63.928 81.9198H65.028C64.945 82.3848 64.794 82.7998 64.575 83.1668C64.1472 83.8924 63.4656 84.4336 62.662 84.6859C62.2448 84.821 61.8085 84.8882 61.37 84.8849C60.595 84.8849 59.905 84.6958 59.302 84.3168C58.698 83.9378 58.223 83.3999 57.877 82.7009C57.531 82.0029 57.357 81.1739 57.357 80.2159C57.357 79.2569 57.531 78.4279 57.877 77.7299C58.223 77.0309 58.698 76.4928 59.302 76.1138C59.905 75.7348 60.595 75.5459 61.37 75.5459C61.829 75.5459 62.26 75.6119 62.662 75.7459C63.0594 75.8744 63.4308 76.0725 63.759 76.3308C64.084 76.5859 64.356 76.8968 64.575 77.2638C64.795 77.6278 64.945 78.0429 65.028 78.5109ZM66.675 75.6709H67.722V82.9848C67.722 83.3168 67.759 83.5488 67.833 83.6818C67.907 83.8158 68.06 83.8788 68.291 83.8728C68.415 83.8668 68.507 83.8578 68.566 83.8468C68.628 83.8318 68.684 83.8169 68.735 83.8019L68.948 84.7078C68.856 84.7338 68.741 84.7578 68.601 84.7788C68.4572 84.8024 68.3117 84.8141 68.166 84.8139C67.669 84.8139 67.296 84.6778 67.048 84.4058C66.799 84.1338 66.675 83.7549 66.675 83.2699V75.6698V75.6709ZM69.92 84.7608V77.9428H70.967V84.7608H69.92ZM70.452 76.8058C70.2554 76.809 70.0656 76.7342 69.924 76.5978C69.8546 76.5341 69.7993 76.4565 69.7619 76.37C69.7246 76.2835 69.7058 76.1901 69.707 76.0958C69.706 76.0018 69.7248 75.9086 69.7622 75.8222C69.7995 75.7359 69.8547 75.6584 69.924 75.5948C70.0655 75.4582 70.2553 75.3831 70.452 75.3859C70.5488 75.3842 70.645 75.4018 70.735 75.4377C70.825 75.4736 70.9069 75.527 70.976 75.5948C71.0466 75.6577 71.1029 75.7349 71.1412 75.8213C71.1795 75.9078 71.1988 76.0013 71.198 76.0958C71.1989 76.1905 71.1796 76.2843 71.1413 76.3709C71.103 76.4574 71.0466 76.5348 70.976 76.5978C70.9068 76.6655 70.8249 76.7188 70.7349 76.7545C70.6449 76.7902 70.5488 76.8076 70.452 76.8058ZM75.755 84.9028C75.098 84.9028 74.531 84.7579 74.055 84.4679C73.5795 84.1731 73.1987 83.7479 72.958 83.2429C72.704 82.7159 72.576 82.1038 72.576 81.4048C72.576 80.7068 72.704 80.0908 72.958 79.5588C73.1924 79.0496 73.5644 78.616 74.032 78.3068C74.494 78.0048 75.032 77.8539 75.648 77.8539C76.003 77.8539 76.354 77.9129 76.7 78.0319C77.046 78.1499 77.362 78.3418 77.646 78.6088C77.93 78.8718 78.156 79.2208 78.325 79.6558C78.494 80.0908 78.578 80.6268 78.578 81.2628V81.7068H73.322V80.8009H77.512C77.5187 80.4444 77.4398 80.0915 77.282 79.7719C77.1377 79.4772 76.9131 79.2294 76.634 79.0568C76.3372 78.8768 75.995 78.7859 75.648 78.7948C75.231 78.7948 74.87 78.8989 74.565 79.1059C74.2663 79.3061 74.0259 79.5817 73.868 79.9048C73.7052 80.2329 73.6216 80.5946 73.624 80.9608V81.5649C73.624 82.0799 73.713 82.5158 73.89 82.8738C74.07 83.2298 74.32 83.4999 74.64 83.6869C74.96 83.8699 75.332 83.9618 75.755 83.9618C76.03 83.9618 76.278 83.9238 76.5 83.8468C76.725 83.7668 76.92 83.6479 77.082 83.4909C77.2499 83.3231 77.3787 83.1202 77.459 82.8969L78.471 83.1808C78.3664 83.5209 78.1823 83.8311 77.934 84.0858C77.6703 84.3517 77.3524 84.5577 77.002 84.6899C76.603 84.8369 76.1802 84.9091 75.755 84.9028ZM81.229 80.6589V84.7608H80.181V77.9428H81.193V79.0079H81.283C81.443 78.6619 81.685 78.3839 82.01 78.1739C82.336 77.9609 82.756 77.8539 83.27 77.8539C83.733 77.8539 84.137 77.9488 84.483 78.1378C84.829 78.3248 85.098 78.6088 85.291 78.9898C85.483 79.3688 85.579 79.8488 85.579 80.4288V84.7608H84.532V80.4998C84.532 79.9638 84.392 79.5468 84.114 79.2478C83.836 78.9458 83.454 78.7948 82.969 78.7948C82.635 78.7948 82.336 78.8678 82.072 79.0128C81.812 79.1578 81.606 79.3689 81.455 79.6469C81.305 79.9259 81.229 80.2629 81.229 80.6589ZM90.469 77.9428V78.8308H86.935V77.9428H90.469ZM87.965 76.3088H89.013V82.8078C89.013 83.1038 89.056 83.3258 89.141 83.4738C89.2168 83.6074 89.3361 83.7108 89.479 83.7668C89.618 83.8138 89.764 83.8379 89.919 83.8379C90.034 83.8379 90.129 83.8318 90.202 83.8198L90.38 83.7839L90.593 84.7248C90.522 84.7518 90.423 84.7788 90.296 84.8048C90.1369 84.838 89.9745 84.8531 89.812 84.8498C89.516 84.8498 89.226 84.7859 88.942 84.6589C88.66 84.5315 88.4174 84.3304 88.24 84.0769C88.057 83.8169 87.965 83.4889 87.965 83.0919V76.3088ZM95.722 84.7608V75.6709H98.794C99.504 75.6709 100.087 75.7909 100.543 76.0339C100.999 76.2739 101.336 76.6039 101.555 77.0239C101.774 77.4439 101.883 77.9218 101.883 78.4578C101.883 78.9928 101.774 79.4679 101.555 79.8829C101.328 80.3046 100.976 80.6456 100.547 80.8589C100.094 81.0929 99.516 81.2098 98.812 81.2098H96.326V80.2159H98.776C99.261 80.2159 99.652 80.1448 99.948 80.0018C100.247 79.8598 100.463 79.6589 100.596 79.3989C100.732 79.1349 100.8 78.8218 100.8 78.4578C100.8 78.0938 100.732 77.7758 100.596 77.5028C100.455 77.2261 100.225 77.0044 99.944 76.8728C99.644 76.7218 99.25 76.6469 98.758 76.6469H96.823V84.7608H95.722ZM100.001 80.6769L102.238 84.7608H100.96L98.758 80.6769H100.001ZM105.592 84.9209C105.187 84.9262 104.786 84.8429 104.416 84.6769C104.075 84.5209 103.785 84.2734 103.577 83.9618C103.37 83.6478 103.266 83.2699 103.266 82.8259C103.266 82.4349 103.343 82.1178 103.497 81.8758C103.651 81.6298 103.856 81.4379 104.114 81.2989C104.371 81.1599 104.655 81.0558 104.966 80.9878C105.28 80.9168 105.595 80.8608 105.912 80.8188C106.326 80.7658 106.662 80.7259 106.919 80.6989C107.18 80.6699 107.369 80.6209 107.488 80.5529C107.609 80.4849 107.67 80.3658 107.67 80.1978V80.1619C107.67 79.7239 107.55 79.3838 107.31 79.1408C107.073 78.8988 106.714 78.7768 106.231 78.7768C105.731 78.7768 105.339 78.8869 105.055 79.1059C104.771 79.3249 104.571 79.5588 104.456 79.8068L103.461 79.4519C103.639 79.0379 103.876 78.7148 104.172 78.4838C104.471 78.2508 104.796 78.0879 105.148 77.9959C105.49 77.9029 105.842 77.8551 106.196 77.8539C106.415 77.8539 106.666 77.8808 106.95 77.9338C107.237 77.9838 107.514 78.0888 107.78 78.2488C108.05 78.4088 108.273 78.6498 108.451 78.9728C108.628 79.2948 108.717 79.7269 108.717 80.2689V84.7608H107.67V83.8379H107.616C107.524 84.0143 107.404 84.1747 107.261 84.3129C107.07 84.4975 106.846 84.6435 106.6 84.7429C106.325 84.8619 105.989 84.9209 105.592 84.9209ZM105.752 83.9799C106.166 83.9799 106.515 83.8978 106.799 83.7358C107.06 83.5952 107.278 83.3871 107.432 83.1333C107.585 82.8795 107.667 82.5893 107.67 82.2928V81.3338C107.625 81.3868 107.527 81.4359 107.377 81.4809C107.229 81.5219 107.057 81.5589 106.862 81.5919C106.669 81.6209 106.481 81.6479 106.298 81.6719C106.117 81.6919 105.971 81.7098 105.858 81.7248C105.599 81.7572 105.343 81.8151 105.095 81.8979C104.879 81.964 104.683 82.0849 104.527 82.2488C104.385 82.4018 104.314 82.6128 104.314 82.8788C104.314 83.2428 104.448 83.5178 104.718 83.7049C104.99 83.8878 105.335 83.9799 105.752 83.9799ZM113.604 77.9428V78.8308H110.071V77.9428H113.604ZM111.101 76.3088H112.148V82.8078C112.148 83.1038 112.191 83.3258 112.277 83.4738C112.353 83.6071 112.472 83.7105 112.614 83.7668C112.754 83.8138 112.9 83.8379 113.054 83.8379C113.169 83.8379 113.264 83.8318 113.338 83.8198L113.516 83.7839L113.729 84.7248C113.632 84.7591 113.532 84.7858 113.431 84.8048C113.304 84.8348 113.143 84.8498 112.947 84.8498C112.651 84.8498 112.361 84.7859 112.077 84.6589C111.795 84.5314 111.553 84.3303 111.376 84.0769C111.193 83.8169 111.101 83.4889 111.101 83.0919V76.3088ZM115.19 84.7608V77.9428H116.238V84.7608H115.19ZM115.723 76.8058C115.526 76.809 115.337 76.7342 115.195 76.5978C115.125 76.5342 115.07 76.4566 115.032 76.3701C114.995 76.2836 114.976 76.1902 114.977 76.0958C114.976 76.0017 114.995 75.9084 115.033 75.8221C115.07 75.7358 115.126 75.6584 115.195 75.5948C115.337 75.4582 115.526 75.3831 115.723 75.3859C115.82 75.3842 115.916 75.4018 116.006 75.4377C116.096 75.4736 116.178 75.527 116.247 75.5948C116.318 75.6577 116.374 75.7349 116.412 75.8213C116.45 75.9078 116.47 76.0013 116.469 76.0958C116.47 76.1905 116.451 76.2843 116.412 76.3709C116.374 76.4574 116.318 76.5348 116.247 76.5978C116.178 76.6655 116.096 76.7188 116.006 76.7545C115.916 76.7902 115.82 76.8076 115.723 76.8058ZM119.214 80.6589V84.7608H118.166V77.9428H119.179V79.0079H119.267C119.427 78.6619 119.67 78.3839 119.995 78.1739C120.321 77.9609 120.741 77.8539 121.256 77.8539C121.718 77.8539 122.122 77.9488 122.468 78.1378C122.814 78.3248 123.083 78.6088 123.276 78.9898C123.468 79.3688 123.564 79.8488 123.564 80.4288V84.7608H122.517V80.4998C122.517 79.9638 122.378 79.5468 122.099 79.2478C121.821 78.9458 121.439 78.7948 120.954 78.7948C120.62 78.7948 120.321 78.8678 120.057 79.0128C119.797 79.1578 119.591 79.3689 119.44 79.6469C119.29 79.9259 119.214 80.2629 119.214 80.6589ZM128.241 87.4598C127.735 87.4598 127.3 87.3948 126.936 87.2648C126.603 87.155 126.295 86.9834 126.026 86.7589C125.801 86.5685 125.608 86.3437 125.453 86.0929L126.287 85.5069C126.382 85.6309 126.502 85.7728 126.647 85.9328C126.792 86.0958 126.99 86.2359 127.242 86.3549C127.496 86.4759 127.829 86.5369 128.241 86.5369C128.791 86.5369 129.245 86.4028 129.603 86.1368C129.961 85.8708 130.14 85.4529 130.14 84.8849V83.4998H130.052C129.95 83.6594 129.841 83.8136 129.723 83.9618C129.584 84.1428 129.383 84.3038 129.12 84.4458C128.859 84.5848 128.507 84.6538 128.063 84.6538C127.513 84.6538 127.018 84.5238 126.58 84.2638C126.145 84.0028 125.801 83.6248 125.546 83.1268C125.295 82.6298 125.169 82.0269 125.169 81.3159C125.169 80.6179 125.292 80.0099 125.537 79.4919C125.783 78.9709 126.125 78.5689 126.563 78.2849C127.001 77.9979 127.507 77.8539 128.081 77.8539C128.525 77.8539 128.877 77.9279 129.137 78.0759C129.401 78.2209 129.602 78.3868 129.741 78.5728C129.883 78.7568 129.993 78.9078 130.069 79.0258H130.176V77.9428H131.188V84.9558C131.188 85.5419 131.055 86.0189 130.789 86.3858C130.523 86.7572 130.152 87.0401 129.723 87.1978C129.25 87.3779 128.747 87.4668 128.241 87.4598ZM128.205 83.7129C128.625 83.7129 128.98 83.6169 129.27 83.4249C129.56 83.2329 129.781 82.9559 129.932 82.5949C130.083 82.2339 130.158 81.8019 130.158 81.2989C130.158 80.8069 130.084 80.3738 129.936 79.9978C129.806 79.6465 129.578 79.34 129.279 79.1148C128.989 78.9018 128.631 78.7948 128.205 78.7948C127.761 78.7948 127.391 78.9079 127.095 79.1319C126.795 79.3667 126.566 79.6804 126.434 80.0379C126.285 80.4412 126.211 80.8687 126.216 81.2989C126.216 81.7719 126.29 82.1908 126.438 82.5548C126.589 82.9158 126.811 83.1999 127.104 83.4069C127.4 83.6109 127.767 83.7129 128.205 83.7129Z" fill="white"/>
<path d="M257.301 86.3523C256.691 86.3523 256.151 86.2473 255.682 86.0373C255.216 85.8273 254.851 85.5372 254.587 85.1682C254.324 84.8009 254.186 84.3582 254.195 83.9062C254.19 83.5603 254.264 83.2178 254.414 82.9058C254.563 82.5937 254.783 82.3207 255.056 82.1083C255.316 81.9013 255.624 81.7633 255.951 81.7073V81.6562C255.529 81.5596 255.157 81.3108 254.906 80.9573C254.645 80.596 254.509 80.1591 254.519 79.7133C254.51 79.2886 254.633 78.8716 254.872 78.5203C255.114 78.1683 255.445 77.8903 255.865 77.6893C256.315 77.4811 256.806 77.3775 257.301 77.3863C257.833 77.3863 258.307 77.4893 258.725 77.6933C259.145 77.8953 259.476 78.1723 259.718 78.5243C259.959 78.8743 260.081 79.2703 260.084 79.7133C260.089 80.1604 259.948 80.5969 259.683 80.9573C259.436 81.3075 259.069 81.5559 258.652 81.6562V81.7073C258.979 81.7643 259.273 81.8983 259.534 82.1083C259.799 82.3153 260.009 82.5752 260.165 82.8882C260.324 83.1972 260.405 83.5372 260.408 83.9062C260.412 84.3588 260.271 84.8007 260.007 85.1682C259.743 85.5372 259.377 85.8273 258.908 86.0373C258.442 86.2473 257.906 86.3523 257.301 86.3523ZM257.301 85.2743C257.662 85.2743 257.975 85.2153 258.239 85.0953C258.503 84.9733 258.708 84.8043 258.852 84.5883C258.997 84.3693 259.071 84.1142 259.074 83.8212C259.077 83.5351 258.994 83.2546 258.835 83.0162C258.679 82.7804 258.463 82.5906 258.209 82.4663C257.927 82.3285 257.615 82.2599 257.301 82.2662C256.958 82.2662 256.652 82.3323 256.385 82.4663C256.129 82.5899 255.912 82.7798 255.754 83.0162C255.599 83.2556 255.521 83.5363 255.529 83.8212C255.52 84.092 255.593 84.3592 255.737 84.5883C255.882 84.8043 256.088 84.9733 256.355 85.0953C256.622 85.2153 256.938 85.2743 257.301 85.2743ZM257.301 81.2133C257.591 81.2133 257.848 81.1553 258.073 81.0383C258.297 80.9223 258.473 80.7603 258.601 80.5533C258.732 80.3453 258.799 80.1023 258.801 79.8243C258.805 79.5719 258.737 79.3237 258.605 79.1083C258.48 78.9031 258.298 78.7388 258.081 78.6353C257.838 78.5174 257.571 78.4591 257.301 78.4653C257 78.4653 256.736 78.5213 256.509 78.6353C256.292 78.7388 256.11 78.9031 255.985 79.1083C255.857 79.3247 255.793 79.573 255.801 79.8243C255.799 80.1023 255.861 80.3453 255.989 80.5533C256.117 80.7603 256.293 80.9223 256.517 81.0383C256.745 81.1553 257.006 81.2133 257.301 81.2133ZM262.543 86.3143C262.432 86.3158 262.321 86.2947 262.217 86.2522C262.114 86.2098 262.021 86.1469 261.942 86.0673C261.861 85.9887 261.798 85.8946 261.754 85.7906C261.711 85.6866 261.69 85.5749 261.691 85.4622C261.69 85.3508 261.711 85.2403 261.754 85.1376C261.798 85.0348 261.862 84.9421 261.942 84.8653C262.02 84.7845 262.113 84.7206 262.217 84.6774C262.32 84.6343 262.431 84.6128 262.543 84.6142C262.776 84.6142 262.976 84.6973 263.144 84.8653C263.225 84.9419 263.289 85.0345 263.333 85.1373C263.376 85.2401 263.398 85.3507 263.396 85.4622C263.396 85.6182 263.356 85.7612 263.276 85.8922C263.201 86.0185 263.095 86.124 262.969 86.1993C262.841 86.2764 262.693 86.3162 262.543 86.3143ZM267.751 86.3523C267.14 86.3523 266.6 86.2473 266.132 86.0373C265.666 85.8273 265.301 85.5372 265.037 85.1682C264.773 84.8011 264.636 84.3583 264.645 83.9062C264.639 83.5603 264.713 83.2176 264.862 82.9055C265.012 82.5933 265.232 82.3203 265.505 82.1083C265.772 81.8983 266.071 81.7643 266.4 81.7073V81.6562C265.978 81.5593 265.607 81.3105 265.356 80.9573C265.095 80.5958 264.959 80.1591 264.968 79.7133C264.959 79.2885 265.083 78.8715 265.322 78.5203C265.564 78.1683 265.895 77.8903 266.315 77.6893C266.735 77.4873 267.214 77.3863 267.751 77.3863C268.243 77.3779 268.73 77.483 269.174 77.6933C269.595 77.8953 269.926 78.1723 270.167 78.5243C270.409 78.8743 270.531 79.2703 270.534 79.7133C270.538 80.1603 270.398 80.5967 270.133 80.9573C269.885 81.3072 269.519 81.5555 269.102 81.6562V81.7073C269.429 81.7643 269.723 81.8983 269.984 82.1083C270.248 82.3153 270.458 82.5752 270.615 82.8882C270.774 83.1972 270.855 83.5372 270.858 83.9062C270.861 84.3587 270.721 84.8005 270.457 85.1682C270.193 85.5372 269.826 85.8273 269.358 86.0373C268.892 86.2473 268.356 86.3523 267.751 86.3523ZM267.751 85.2743C268.112 85.2743 268.424 85.2153 268.689 85.0953C268.937 84.9867 269.149 84.8111 269.302 84.5883C269.447 84.3693 269.521 84.1142 269.524 83.8212C269.526 83.5351 269.443 83.2549 269.285 83.0162C269.129 82.7804 268.913 82.5906 268.659 82.4663C268.377 82.3285 268.065 82.2599 267.751 82.2662C267.407 82.2662 267.102 82.3323 266.835 82.4663C266.58 82.5899 266.362 82.7798 266.204 83.0162C266.049 83.2555 265.97 83.5362 265.978 83.8212C265.969 84.0921 266.042 84.3594 266.187 84.5883C266.332 84.8043 266.538 84.9733 266.805 85.0953C267.072 85.2153 267.387 85.2743 267.751 85.2743ZM267.751 81.2133C268.041 81.2133 268.298 81.1553 268.522 81.0383C268.74 80.9285 268.923 80.7607 269.051 80.5533C269.181 80.3453 269.248 80.1023 269.251 79.8243C269.254 79.572 269.186 79.3239 269.055 79.1083C268.93 78.9034 268.748 78.7391 268.531 78.6353C268.288 78.5176 268.021 78.4593 267.751 78.4653C267.477 78.459 267.206 78.5173 266.958 78.6353C266.742 78.7391 266.56 78.9034 266.434 79.1083C266.306 79.3246 266.243 79.573 266.251 79.8243C266.248 80.1023 266.311 80.3453 266.439 80.5533C266.566 80.7603 266.743 80.9223 266.967 81.0383C267.194 81.1553 267.456 81.2133 267.751 81.2133Z" fill="white"/>
<path d="M276.519 76.3857L273.706 86.8337H272.786L275.598 76.3857H276.519ZM280.499 76.7947V85.5217H279.442V78.3287H279.374C279.334 78.4077 279.232 78.4987 279.067 78.6017C278.866 78.7163 278.651 78.805 278.428 78.8657C278.136 78.9437 277.835 78.9811 277.533 78.9767V78.0897C277.871 78.0897 278.164 78.0287 278.411 77.9067C278.658 77.7847 278.864 77.6407 279.029 77.4767C279.172 77.342 279.299 77.1918 279.408 77.0287L279.562 76.7947H280.499ZM285.857 85.6407C285.215 85.6407 284.668 85.4667 284.217 85.1167C283.765 84.7647 283.42 84.2547 283.181 83.5867C282.942 82.9167 282.823 82.1067 282.823 81.1577C282.823 80.2147 282.942 79.4097 283.181 78.7417C283.423 78.0717 283.769 77.5597 284.221 77.2077C284.675 76.8527 285.221 76.6747 285.857 76.6747C286.494 76.6747 287.038 76.8527 287.489 77.2077C287.944 77.5597 288.29 78.0717 288.529 78.7417C288.771 79.4097 288.891 80.2147 288.891 81.1577C288.891 82.1067 288.772 82.9167 288.533 83.5867C288.295 84.2547 287.95 84.7647 287.498 85.1167C287.046 85.4667 286.499 85.6407 285.857 85.6407ZM285.857 84.7037C286.494 84.7037 286.988 84.3967 287.34 83.7827C287.692 83.1697 287.869 82.2947 287.869 81.1577C287.869 80.4027 287.788 79.7587 287.626 79.2277C287.467 78.6967 287.236 78.2917 286.935 78.0127C286.645 77.7375 286.257 77.5877 285.857 77.5957C285.227 77.5957 284.734 77.9067 284.379 78.5287C284.023 79.1477 283.846 80.0247 283.846 81.1577C283.846 81.9137 283.925 82.5557 284.084 83.0837C284.244 83.6127 284.472 84.0147 284.771 84.2897C285.066 84.5634 285.455 84.7118 285.857 84.7037Z" fill="white"/>
<path d="M242.516 79.0776L236.061 85.5336L235 84.4726L241.455 78.0176H235.766V76.5176H244.016V84.7676H242.516V79.0776Z" fill="#D1F56E"/>
<path d="M251.5 119.916L257.955 113.461L259.016 114.522L252.56 120.977H258.25V122.477H250V114.227H251.5V119.916Z" fill="white"/>
<path d="M29.4148 32H28.3068L31.5114 23.2727H32.6023L35.8068 32H34.6989L32.0909 24.6534H32.0227L29.4148 32ZM29.8239 28.5909H34.2898V29.5284H29.8239V28.5909ZM38.223 23.2727V32H37.1662V23.2727H38.223ZM44.0749 32H42.967L46.1715 23.2727H47.2624L50.467 32H49.359L46.7511 24.6534H46.6829L44.0749 32ZM44.484 28.5909H48.9499V29.5284H44.484V28.5909ZM54.332 34.5909C53.8462 34.5909 53.4286 34.5284 53.0792 34.4034C52.7298 34.2812 52.4386 34.1193 52.2056 33.9176C51.9755 33.7188 51.7923 33.5057 51.6559 33.2784L52.457 32.7159C52.5479 32.8352 52.663 32.9716 52.8022 33.125C52.9414 33.2812 53.1317 33.4162 53.3732 33.5298C53.6175 33.6463 53.9371 33.7045 54.332 33.7045C54.8604 33.7045 55.2965 33.5767 55.6403 33.321C55.984 33.0653 56.1559 32.6648 56.1559 32.1193V30.7898H56.0707C55.9968 30.9091 55.8917 31.0568 55.7553 31.233C55.6218 31.4062 55.4286 31.5611 55.1758 31.6974C54.9258 31.831 54.5877 31.8977 54.1616 31.8977C53.6332 31.8977 53.1587 31.7727 52.7383 31.5227C52.3207 31.2727 51.9897 30.9091 51.7454 30.4318C51.5039 29.9545 51.3832 29.375 51.3832 28.6932C51.3832 28.0227 51.5011 27.4389 51.7369 26.9418C51.9727 26.4418 52.3008 26.0554 52.7212 25.7827C53.1417 25.5071 53.6275 25.3693 54.1786 25.3693C54.6048 25.3693 54.9428 25.4403 55.1928 25.5824C55.4457 25.7216 55.6388 25.8807 55.7724 26.0597C55.9087 26.2358 56.0138 26.3807 56.0877 26.4943H56.19V25.4545H57.1616V32.1875C57.1616 32.75 57.0337 33.2074 56.7781 33.5597C56.5252 33.9148 56.1843 34.1747 55.7553 34.3395C55.3292 34.5071 54.8548 34.5909 54.332 34.5909ZM54.2979 30.9943C54.7013 30.9943 55.0423 30.902 55.3207 30.7173C55.5991 30.5327 55.8107 30.267 55.9556 29.9205C56.1005 29.5739 56.1729 29.1591 56.1729 28.6761C56.1729 28.2045 56.1019 27.7884 55.9599 27.4276C55.8178 27.0668 55.6076 26.7841 55.3292 26.5795C55.0508 26.375 54.707 26.2727 54.2979 26.2727C53.8718 26.2727 53.5167 26.3807 53.2326 26.5966C52.9513 26.8125 52.7397 27.1023 52.5977 27.4659C52.4585 27.8295 52.3888 28.233 52.3888 28.6761C52.3888 29.1307 52.4599 29.5327 52.6019 29.8821C52.7468 30.2287 52.9599 30.5014 53.2411 30.7003C53.5252 30.8963 53.8775 30.9943 54.2979 30.9943ZM61.7468 32.1364C61.1161 32.1364 60.5721 31.9972 60.1147 31.7188C59.6602 31.4375 59.3093 31.0455 59.0621 30.5426C58.8178 30.0369 58.6957 29.4489 58.6957 28.7784C58.6957 28.108 58.8178 27.517 59.0621 27.0057C59.3093 26.4915 59.6531 26.0909 60.0934 25.804C60.5366 25.5142 61.0536 25.3693 61.6445 25.3693C61.9854 25.3693 62.3221 25.4261 62.6545 25.5398C62.9869 25.6534 63.2894 25.8381 63.5621 26.0938C63.8349 26.3466 64.0522 26.6818 64.2141 27.0994C64.3761 27.517 64.457 28.0312 64.457 28.642V29.0682H59.4116V28.1989H63.4343C63.4343 27.8295 63.3604 27.5 63.2127 27.2102C63.0678 26.9205 62.8604 26.6918 62.5906 26.5241C62.3235 26.3565 62.0082 26.2727 61.6445 26.2727C61.244 26.2727 60.8974 26.3722 60.6048 26.571C60.315 26.767 60.092 27.0227 59.9357 27.3381C59.7795 27.6534 59.7013 27.9915 59.7013 28.3523V28.9318C59.7013 29.4261 59.7866 29.8452 59.957 30.1889C60.1303 30.5298 60.3704 30.7898 60.6772 30.9688C60.984 31.1449 61.3406 31.233 61.7468 31.233C62.011 31.233 62.2496 31.196 62.4627 31.1222C62.6786 31.0455 62.8647 30.9318 63.021 30.7812C63.1772 30.6278 63.2979 30.4375 63.3832 30.2102L64.3548 30.483C64.2525 30.8125 64.0806 31.1023 63.8391 31.3523C63.5977 31.5994 63.2994 31.7926 62.9442 31.9318C62.5891 32.0682 62.19 32.1364 61.7468 32.1364ZM66.9925 28.0625V32H65.9869V25.4545H66.9585V26.4773H67.0437C67.1971 26.1449 67.43 25.8778 67.7425 25.6761C68.055 25.4716 68.4585 25.3693 68.9528 25.3693C69.396 25.3693 69.7837 25.4602 70.1161 25.642C70.4485 25.821 70.707 26.0938 70.8917 26.4602C71.0763 26.8239 71.1687 27.2841 71.1687 27.8409V32H70.163V27.9091C70.163 27.3949 70.0295 26.9943 69.7624 26.7074C69.4954 26.4176 69.1289 26.2727 68.663 26.2727C68.342 26.2727 68.055 26.3423 67.8022 26.4815C67.5522 26.6207 67.3548 26.8239 67.2099 27.0909C67.065 27.358 66.9925 27.6818 66.9925 28.0625ZM75.853 25.4545V26.3068H72.4609V25.4545H75.853ZM73.4496 23.8864H74.4553V30.125C74.4553 30.4091 74.4964 30.6222 74.5788 30.7642C74.6641 30.9034 74.772 30.9972 74.9027 31.0455C75.0362 31.0909 75.1768 31.1136 75.3246 31.1136C75.4354 31.1136 75.5263 31.108 75.5973 31.0966C75.6683 31.0824 75.7251 31.071 75.7678 31.0625L75.9723 31.9659C75.9041 31.9915 75.8089 32.017 75.6868 32.0426C75.5646 32.071 75.4098 32.0852 75.2223 32.0852C74.9382 32.0852 74.6598 32.0241 74.3871 31.902C74.1172 31.7798 73.8928 31.5938 73.7138 31.3438C73.5376 31.0938 73.4496 30.7784 73.4496 30.3977V23.8864ZM80.8771 32V23.2727H81.9339V27.1591H86.5874V23.2727H87.6442V32H86.5874V28.0966H81.9339V32H80.8771ZM89.6236 32V25.4545H90.6293V32H89.6236ZM90.1349 24.3636C89.9389 24.3636 89.7699 24.2969 89.6278 24.1634C89.4886 24.0298 89.419 23.8693 89.419 23.6818C89.419 23.4943 89.4886 23.3338 89.6278 23.2003C89.7699 23.0668 89.9389 23 90.1349 23C90.331 23 90.4986 23.0668 90.6378 23.2003C90.7798 23.3338 90.8509 23.4943 90.8509 23.6818C90.8509 23.8693 90.7798 24.0298 90.6378 24.1634C90.4986 24.2969 90.331 24.3636 90.1349 24.3636ZM95.1133 34.5909C94.6275 34.5909 94.2099 34.5284 93.8604 34.4034C93.511 34.2812 93.2198 34.1193 92.9869 33.9176C92.7567 33.7188 92.5735 33.5057 92.4371 33.2784L93.2383 32.7159C93.3292 32.8352 93.4442 32.9716 93.5835 33.125C93.7227 33.2812 93.913 33.4162 94.1545 33.5298C94.3988 33.6463 94.7184 33.7045 95.1133 33.7045C95.6417 33.7045 96.0778 33.5767 96.4215 33.321C96.7653 33.0653 96.9371 32.6648 96.9371 32.1193V30.7898H96.8519C96.7781 30.9091 96.6729 31.0568 96.5366 31.233C96.4031 31.4062 96.2099 31.5611 95.957 31.6974C95.707 31.831 95.369 31.8977 94.9428 31.8977C94.4144 31.8977 93.94 31.7727 93.5195 31.5227C93.1019 31.2727 92.771 30.9091 92.5266 30.4318C92.2852 29.9545 92.1644 29.375 92.1644 28.6932C92.1644 28.0227 92.2823 27.4389 92.5181 26.9418C92.7539 26.4418 93.082 26.0554 93.5025 25.7827C93.9229 25.5071 94.4087 25.3693 94.9599 25.3693C95.386 25.3693 95.7241 25.4403 95.9741 25.5824C96.2269 25.7216 96.4201 25.8807 96.5536 26.0597C96.69 26.2358 96.7951 26.3807 96.869 26.4943H96.9712V25.4545H97.9428V32.1875C97.9428 32.75 97.815 33.2074 97.5593 33.5597C97.3065 33.9148 96.9656 34.1747 96.5366 34.3395C96.1104 34.5071 95.636 34.5909 95.1133 34.5909ZM95.0792 30.9943C95.4826 30.9943 95.8235 30.902 96.1019 30.7173C96.3803 30.5327 96.592 30.267 96.7369 29.9205C96.8817 29.5739 96.9542 29.1591 96.9542 28.6761C96.9542 28.2045 96.8832 27.7884 96.7411 27.4276C96.5991 27.0668 96.3888 26.7841 96.1104 26.5795C95.832 26.375 95.4883 26.2727 95.0792 26.2727C94.6531 26.2727 94.2979 26.3807 94.0138 26.5966C93.7326 26.8125 93.521 27.1023 93.3789 27.4659C93.2397 27.8295 93.1701 28.233 93.1701 28.6761C93.1701 29.1307 93.2411 29.5327 93.3832 29.8821C93.5281 30.2287 93.7411 30.5014 94.0224 30.7003C94.3065 30.8963 94.6587 30.9943 95.0792 30.9943ZM100.789 28.0625V32H99.7837V23.2727H100.789V26.4773H100.875C101.028 26.1392 101.258 25.8707 101.565 25.6719C101.875 25.4702 102.287 25.3693 102.801 25.3693C103.247 25.3693 103.637 25.4588 103.973 25.6378C104.308 25.8139 104.568 26.0852 104.752 26.4517C104.94 26.8153 105.034 27.2784 105.034 27.8409V32H104.028V27.9091C104.028 27.3892 103.893 26.9872 103.623 26.7031C103.356 26.4162 102.985 26.2727 102.511 26.2727C102.181 26.2727 101.886 26.3423 101.625 26.4815C101.366 26.6207 101.162 26.8239 101.011 27.0909C100.863 27.358 100.789 27.6818 100.789 28.0625ZM107.879 23.2727V32H106.874V23.2727H107.879ZM109.721 32V25.4545H110.727V32H109.721ZM110.233 24.3636C110.037 24.3636 109.868 24.2969 109.725 24.1634C109.586 24.0298 109.517 23.8693 109.517 23.6818C109.517 23.4943 109.586 23.3338 109.725 23.2003C109.868 23.0668 110.037 23 110.233 23C110.429 23 110.596 23.0668 110.735 23.2003C110.877 23.3338 110.949 23.4943 110.949 23.6818C110.949 23.8693 110.877 24.0298 110.735 24.1634C110.596 24.2969 110.429 24.3636 110.233 24.3636ZM115.211 34.5909C114.725 34.5909 114.308 34.5284 113.958 34.4034C113.609 34.2812 113.317 34.1193 113.085 33.9176C112.854 33.7188 112.671 33.5057 112.535 33.2784L113.336 32.7159C113.427 32.8352 113.542 32.9716 113.681 33.125C113.82 33.2812 114.011 33.4162 114.252 33.5298C114.496 33.6463 114.816 33.7045 115.211 33.7045C115.739 33.7045 116.175 33.5767 116.519 33.321C116.863 33.0653 117.035 32.6648 117.035 32.1193V30.7898H116.95C116.876 30.9091 116.771 31.0568 116.634 31.233C116.501 31.4062 116.308 31.5611 116.055 31.6974C115.805 31.831 115.467 31.8977 115.04 31.8977C114.512 31.8977 114.038 31.7727 113.617 31.5227C113.2 31.2727 112.869 30.9091 112.624 30.4318C112.383 29.9545 112.262 29.375 112.262 28.6932C112.262 28.0227 112.38 27.4389 112.616 26.9418C112.852 26.4418 113.18 26.0554 113.6 25.7827C114.021 25.5071 114.506 25.3693 115.058 25.3693C115.484 25.3693 115.822 25.4403 116.072 25.5824C116.325 25.7216 116.518 25.8807 116.651 26.0597C116.788 26.2358 116.893 26.3807 116.967 26.4943H117.069V25.4545H118.04V32.1875C118.04 32.75 117.913 33.2074 117.657 33.5597C117.404 33.9148 117.063 34.1747 116.634 34.3395C116.208 34.5071 115.734 34.5909 115.211 34.5909ZM115.177 30.9943C115.58 30.9943 115.921 30.902 116.2 30.7173C116.478 30.5327 116.69 30.267 116.835 29.9205C116.979 29.5739 117.052 29.1591 117.052 28.6761C117.052 28.2045 116.981 27.7884 116.839 27.4276C116.697 27.0668 116.487 26.7841 116.208 26.5795C115.93 26.375 115.586 26.2727 115.177 26.2727C114.751 26.2727 114.396 26.3807 114.112 26.5966C113.83 26.8125 113.619 27.1023 113.477 27.4659C113.337 27.8295 113.268 28.233 113.268 28.6761C113.268 29.1307 113.339 29.5327 113.481 29.8821C113.626 30.2287 113.839 30.5014 114.12 30.7003C114.404 30.8963 114.756 30.9943 115.177 30.9943ZM120.887 28.0625V32H119.881V23.2727H120.887V26.4773H120.972C121.126 26.1392 121.356 25.8707 121.663 25.6719C121.972 25.4702 122.384 25.3693 122.898 25.3693C123.344 25.3693 123.735 25.4588 124.07 25.6378C124.406 25.8139 124.665 26.0852 124.85 26.4517C125.038 26.8153 125.131 27.2784 125.131 27.8409V32H124.126V27.9091C124.126 27.3892 123.991 26.9872 123.721 26.7031C123.454 26.4162 123.083 26.2727 122.609 26.2727C122.279 26.2727 121.984 26.3423 121.722 26.4815C121.464 26.6207 121.259 26.8239 121.109 27.0909C120.961 27.358 120.887 27.6818 120.887 28.0625ZM129.818 25.4545V26.3068H126.426V25.4545H129.818ZM127.414 23.8864H128.42V30.125C128.42 30.4091 128.461 30.6222 128.544 30.7642C128.629 30.9034 128.737 30.9972 128.868 31.0455C129.001 31.0909 129.142 31.1136 129.289 31.1136C129.4 31.1136 129.491 31.108 129.562 31.0966C129.633 31.0824 129.69 31.071 129.733 31.0625L129.937 31.9659C129.869 31.9915 129.774 32.017 129.652 32.0426C129.529 32.071 129.375 32.0852 129.187 32.0852C128.903 32.0852 128.625 32.0241 128.352 31.902C128.082 31.7798 127.858 31.5938 127.679 31.3438C127.502 31.0938 127.414 30.7784 127.414 30.3977V23.8864ZM135.85 26.9205L134.946 27.1761C134.89 27.0256 134.806 26.8793 134.695 26.7372C134.587 26.5923 134.439 26.473 134.252 26.3793C134.064 26.2855 133.824 26.2386 133.532 26.2386C133.131 26.2386 132.797 26.331 132.53 26.5156C132.266 26.6974 132.134 26.929 132.134 27.2102C132.134 27.4602 132.225 27.6577 132.407 27.8026C132.588 27.9474 132.873 28.0682 133.259 28.1648L134.23 28.4034C134.816 28.5455 135.252 28.7628 135.539 29.0554C135.826 29.3452 135.969 29.7187 135.969 30.1761C135.969 30.5511 135.861 30.8864 135.645 31.1818C135.432 31.4773 135.134 31.7102 134.75 31.8807C134.367 32.0511 133.921 32.1364 133.412 32.1364C132.745 32.1364 132.192 31.9915 131.755 31.7017C131.317 31.4119 131.04 30.9886 130.924 30.4318L131.878 30.1932C131.969 30.5455 132.141 30.8097 132.394 30.9858C132.65 31.1619 132.983 31.25 133.395 31.25C133.864 31.25 134.236 31.1506 134.512 30.9517C134.79 30.75 134.929 30.5085 134.929 30.2273C134.929 30 134.85 29.8097 134.691 29.6562C134.532 29.5 134.287 29.3835 133.958 29.3068L132.867 29.0511C132.267 28.9091 131.827 28.6889 131.546 28.3906C131.267 28.0895 131.128 27.7131 131.128 27.2614C131.128 26.892 131.232 26.5653 131.439 26.2812C131.65 25.9972 131.935 25.7741 132.296 25.6122C132.659 25.4503 133.071 25.3693 133.532 25.3693C134.179 25.3693 134.688 25.5114 135.057 25.7955C135.429 26.0795 135.694 26.4545 135.85 26.9205Z" fill="white"/>
<path d="M28.5795 111.21V110.273H35.125V111.21H32.3807V119H31.3239V111.21H28.5795ZM37.6552 119.153C37.2404 119.153 36.864 119.075 36.5259 118.919C36.1879 118.76 35.9194 118.531 35.7205 118.233C35.5217 117.932 35.4222 117.568 35.4222 117.142C35.4222 116.767 35.4961 116.463 35.6438 116.23C35.7915 115.994 35.989 115.81 36.2362 115.676C36.4833 115.543 36.756 115.443 37.0543 115.378C37.3555 115.31 37.658 115.256 37.962 115.216C38.3597 115.165 38.6822 115.126 38.9293 115.101C39.1793 115.072 39.3612 115.026 39.4748 114.96C39.5913 114.895 39.6495 114.781 39.6495 114.619V114.585C39.6495 114.165 39.5344 113.838 39.3043 113.605C39.0771 113.372 38.7319 113.256 38.2688 113.256C37.7887 113.256 37.4123 113.361 37.1396 113.571C36.8668 113.781 36.6751 114.006 36.5643 114.244L35.6097 113.903C35.7802 113.506 36.0075 113.196 36.2915 112.974C36.5785 112.75 36.891 112.594 37.229 112.506C37.57 112.415 37.9052 112.369 38.2347 112.369C38.445 112.369 38.6864 112.395 38.9592 112.446C39.2347 112.494 39.5004 112.595 39.756 112.749C40.0146 112.902 40.229 113.134 40.3995 113.443C40.57 113.753 40.6552 114.168 40.6552 114.688V119H39.6495V118.114H39.5984C39.5302 118.256 39.4165 118.408 39.2575 118.57C39.0984 118.732 38.8867 118.869 38.6225 118.983C38.3583 119.097 38.0359 119.153 37.6552 119.153ZM37.8086 118.25C38.2063 118.25 38.5415 118.172 38.8143 118.016C39.0898 117.859 39.2972 117.658 39.4364 117.411C39.5785 117.163 39.6495 116.903 39.6495 116.631V115.71C39.6069 115.761 39.5131 115.808 39.3683 115.851C39.2262 115.891 39.0614 115.926 38.8739 115.957C38.6893 115.986 38.5089 116.011 38.3327 116.034C38.1594 116.054 38.0188 116.071 37.9109 116.085C37.6495 116.119 37.4052 116.175 37.1779 116.251C36.9535 116.325 36.7717 116.437 36.6325 116.588C36.4961 116.736 36.4279 116.937 36.4279 117.193C36.4279 117.543 36.5572 117.807 36.8157 117.986C37.0771 118.162 37.408 118.25 37.8086 118.25ZM47.1271 113.92L46.2237 114.176C46.1669 114.026 46.0831 113.879 45.9723 113.737C45.8643 113.592 45.7166 113.473 45.5291 113.379C45.3416 113.286 45.1016 113.239 44.8089 113.239C44.4084 113.239 44.0746 113.331 43.8075 113.516C43.5433 113.697 43.4112 113.929 43.4112 114.21C43.4112 114.46 43.5021 114.658 43.6839 114.803C43.8658 114.947 44.1499 115.068 44.5362 115.165L45.5078 115.403C46.093 115.545 46.5291 115.763 46.8161 116.055C47.103 116.345 47.2464 116.719 47.2464 117.176C47.2464 117.551 47.1385 117.886 46.9226 118.182C46.7095 118.477 46.4112 118.71 46.0277 118.881C45.6442 119.051 45.1982 119.136 44.6896 119.136C44.022 119.136 43.4695 118.991 43.032 118.702C42.5945 118.412 42.3175 117.989 42.201 117.432L43.1555 117.193C43.2464 117.545 43.4183 117.81 43.6712 117.986C43.9268 118.162 44.2607 118.25 44.6726 118.25C45.1413 118.25 45.5135 118.151 45.7891 117.952C46.0675 117.75 46.2067 117.509 46.2067 117.227C46.2067 117 46.1271 116.81 45.968 116.656C45.8089 116.5 45.5646 116.384 45.2351 116.307L44.1442 116.051C43.5447 115.909 43.1044 115.689 42.8232 115.391C42.5447 115.089 42.4055 114.713 42.4055 114.261C42.4055 113.892 42.5092 113.565 42.7166 113.281C42.9268 112.997 43.2124 112.774 43.5732 112.612C43.9368 112.45 44.3487 112.369 44.8089 112.369C45.4567 112.369 45.9652 112.511 46.3345 112.795C46.7067 113.08 46.9709 113.455 47.1271 113.92ZM49.6978 116.614L49.6808 115.369H49.8853L52.7489 112.455H53.9933L50.9421 115.54H50.8569L49.6978 116.614ZM48.7603 119V110.273H49.766V119H48.7603ZM52.9194 119L50.3626 115.761L51.0785 115.062L54.1978 119H52.9194ZM59.924 113.92L59.0206 114.176C58.9638 114.026 58.88 113.879 58.7692 113.737C58.6612 113.592 58.5135 113.473 58.326 113.379C58.1385 113.286 57.8984 113.239 57.6058 113.239C57.2053 113.239 56.8714 113.331 56.6044 113.516C56.3402 113.697 56.2081 113.929 56.2081 114.21C56.2081 114.46 56.299 114.658 56.4808 114.803C56.6626 114.947 56.9467 115.068 57.3331 115.165L58.3047 115.403C58.8899 115.545 59.326 115.763 59.6129 116.055C59.8999 116.345 60.0433 116.719 60.0433 117.176C60.0433 117.551 59.9354 117.886 59.7195 118.182C59.5064 118.477 59.2081 118.71 58.8246 118.881C58.4411 119.051 57.995 119.136 57.4865 119.136C56.8189 119.136 56.2663 118.991 55.8288 118.702C55.3913 118.412 55.1143 117.989 54.9979 117.432L55.9524 117.193C56.0433 117.545 56.2152 117.81 56.468 117.986C56.7237 118.162 57.0575 118.25 57.4695 118.25C57.9382 118.25 58.3104 118.151 58.5859 117.952C58.8643 117.75 59.0036 117.509 59.0036 117.227C59.0036 117 58.924 116.81 58.7649 116.656C58.6058 116.5 58.3615 116.384 58.032 116.307L56.9411 116.051C56.3416 115.909 55.9013 115.689 55.62 115.391C55.3416 115.089 55.2024 114.713 55.2024 114.261C55.2024 113.892 55.3061 113.565 55.5135 113.281C55.7237 112.997 56.0092 112.774 56.37 112.612C56.7337 112.45 57.1456 112.369 57.6058 112.369C58.2536 112.369 58.7621 112.511 59.1314 112.795C59.5036 113.08 59.7678 113.455 59.924 113.92ZM65.0685 119V110.273H68.0174C68.6992 110.273 69.2589 110.389 69.6964 110.622C70.1339 110.852 70.4577 111.169 70.668 111.572C70.8782 111.976 70.9833 112.435 70.9833 112.949C70.9833 113.463 70.8782 113.919 70.668 114.317C70.4577 114.714 70.1353 115.027 69.7006 115.254C69.266 115.479 68.7106 115.591 68.0344 115.591H65.6481V114.636H68.0004C68.4663 114.636 68.8413 114.568 69.1254 114.432C69.4123 114.295 69.6197 114.102 69.7475 113.852C69.8782 113.599 69.9435 113.298 69.9435 112.949C69.9435 112.599 69.8782 112.294 69.7475 112.033C69.6168 111.771 69.408 111.57 69.1211 111.428C68.8342 111.283 68.4549 111.21 67.9833 111.21H66.1254V119H65.0685ZM69.1765 115.08L71.3242 119H70.0969L67.9833 115.08H69.1765ZM76.733 116.324V112.455H77.7386V119H76.733V117.892H76.6648C76.5114 118.224 76.2727 118.507 75.9489 118.74C75.625 118.97 75.2159 119.085 74.7216 119.085C74.3125 119.085 73.9489 118.996 73.6307 118.817C73.3125 118.635 73.0625 118.362 72.8807 117.999C72.6989 117.632 72.608 117.17 72.608 116.614V112.455H73.6136V116.545C73.6136 117.023 73.7472 117.403 74.0142 117.688C74.2841 117.972 74.6278 118.114 75.0455 118.114C75.2955 118.114 75.5497 118.05 75.8082 117.922C76.0696 117.794 76.2884 117.598 76.4645 117.334C76.6435 117.07 76.733 116.733 76.733 116.324ZM80.5863 115.062V119H79.5806V112.455H80.5522V113.477H80.6374C80.7908 113.145 81.0238 112.878 81.3363 112.676C81.6488 112.472 82.0522 112.369 82.5465 112.369C82.9897 112.369 83.3775 112.46 83.7099 112.642C84.0423 112.821 84.3008 113.094 84.4854 113.46C84.6701 113.824 84.7624 114.284 84.7624 114.841V119H83.7567V114.909C83.7567 114.395 83.6232 113.994 83.3562 113.707C83.0891 113.418 82.7227 113.273 82.2567 113.273C81.9357 113.273 81.6488 113.342 81.396 113.482C81.146 113.621 80.9485 113.824 80.8036 114.091C80.6587 114.358 80.5863 114.682 80.5863 115.062ZM89.6342 111.21V110.273H96.1797V111.21H93.4354V119H92.3786V111.21H89.6342ZM98.68 115.062V119H97.6744V110.273H98.68V113.477H98.7653C98.9187 113.139 99.1488 112.871 99.4556 112.672C99.7653 112.47 100.177 112.369 100.691 112.369C101.137 112.369 101.528 112.459 101.863 112.638C102.199 112.814 102.458 113.085 102.643 113.452C102.831 113.815 102.924 114.278 102.924 114.841V119H101.919V114.909C101.919 114.389 101.784 113.987 101.514 113.703C101.247 113.416 100.876 113.273 100.402 113.273C100.072 113.273 99.7766 113.342 99.5153 113.482C99.2567 113.621 99.0522 113.824 98.9016 114.091C98.7539 114.358 98.68 114.682 98.68 115.062ZM104.764 119V112.455H105.77V119H104.764ZM105.276 111.364C105.08 111.364 104.911 111.297 104.768 111.163C104.629 111.03 104.56 110.869 104.56 110.682C104.56 110.494 104.629 110.334 104.768 110.2C104.911 110.067 105.08 110 105.276 110C105.472 110 105.639 110.067 105.778 110.2C105.92 110.334 105.991 110.494 105.991 110.682C105.991 110.869 105.92 111.03 105.778 111.163C105.639 111.297 105.472 111.364 105.276 111.364ZM112.248 113.92L111.345 114.176C111.288 114.026 111.204 113.879 111.093 113.737C110.985 113.592 110.838 113.473 110.65 113.379C110.463 113.286 110.223 113.239 109.93 113.239C109.529 113.239 109.196 113.331 108.929 113.516C108.664 113.697 108.532 113.929 108.532 114.21C108.532 114.46 108.623 114.658 108.805 114.803C108.987 114.947 109.271 115.068 109.657 115.165L110.629 115.403C111.214 115.545 111.65 115.763 111.937 116.055C112.224 116.345 112.368 116.719 112.368 117.176C112.368 117.551 112.26 117.886 112.044 118.182C111.831 118.477 111.532 118.71 111.149 118.881C110.765 119.051 110.319 119.136 109.811 119.136C109.143 119.136 108.591 118.991 108.153 118.702C107.716 118.412 107.439 117.989 107.322 117.432L108.277 117.193C108.368 117.545 108.539 117.81 108.792 117.986C109.048 118.162 109.382 118.25 109.794 118.25C110.262 118.25 110.635 118.151 110.91 117.952C111.189 117.75 111.328 117.509 111.328 117.227C111.328 117 111.248 116.81 111.089 116.656C110.93 116.5 110.686 116.384 110.356 116.307L109.265 116.051C108.666 115.909 108.225 115.689 107.944 115.391C107.666 115.089 107.527 114.713 107.527 114.261C107.527 113.892 107.63 113.565 107.838 113.281C108.048 112.997 108.333 112.774 108.694 112.612C109.058 112.45 109.47 112.369 109.93 112.369C110.578 112.369 111.086 112.511 111.456 112.795C111.828 113.08 112.092 113.455 112.248 113.92ZM118.978 119L116.592 110.273H117.665L119.489 117.381H119.575L121.433 110.273H122.626L124.484 117.381H124.569L126.393 110.273H127.467L125.08 119H123.989L122.063 112.045H121.995L120.069 119H118.978ZM130.782 119.136C130.151 119.136 129.607 118.997 129.15 118.719C128.695 118.438 128.344 118.045 128.097 117.543C127.853 117.037 127.731 116.449 127.731 115.778C127.731 115.108 127.853 114.517 128.097 114.006C128.344 113.491 128.688 113.091 129.129 112.804C129.572 112.514 130.089 112.369 130.68 112.369C131.021 112.369 131.357 112.426 131.69 112.54C132.022 112.653 132.325 112.838 132.597 113.094C132.87 113.347 133.087 113.682 133.249 114.099C133.411 114.517 133.492 115.031 133.492 115.642V116.068H128.447V115.199H132.469C132.469 114.83 132.396 114.5 132.248 114.21C132.103 113.92 131.896 113.692 131.626 113.524C131.359 113.357 131.043 113.273 130.68 113.273C130.279 113.273 129.933 113.372 129.64 113.571C129.35 113.767 129.127 114.023 128.971 114.338C128.815 114.653 128.737 114.991 128.737 115.352V115.932C128.737 116.426 128.822 116.845 128.992 117.189C129.165 117.53 129.406 117.79 129.712 117.969C130.019 118.145 130.376 118.233 130.782 118.233C131.046 118.233 131.285 118.196 131.498 118.122C131.714 118.045 131.9 117.932 132.056 117.781C132.212 117.628 132.333 117.437 132.418 117.21L133.39 117.483C133.288 117.812 133.116 118.102 132.874 118.352C132.633 118.599 132.335 118.793 131.979 118.932C131.624 119.068 131.225 119.136 130.782 119.136ZM137.766 119.136C137.136 119.136 136.592 118.997 136.134 118.719C135.68 118.438 135.329 118.045 135.082 117.543C134.837 117.037 134.715 116.449 134.715 115.778C134.715 115.108 134.837 114.517 135.082 114.006C135.329 113.491 135.673 113.091 136.113 112.804C136.556 112.514 137.073 112.369 137.664 112.369C138.005 112.369 138.342 112.426 138.674 112.54C139.006 112.653 139.309 112.838 139.582 113.094C139.854 113.347 140.072 113.682 140.234 114.099C140.396 114.517 140.477 115.031 140.477 115.642V116.068H135.431V115.199H139.454C139.454 114.83 139.38 114.5 139.232 114.21C139.087 113.92 138.88 113.692 138.61 113.524C138.343 113.357 138.028 113.273 137.664 113.273C137.263 113.273 136.917 113.372 136.624 113.571C136.335 113.767 136.112 114.023 135.955 114.338C135.799 114.653 135.721 114.991 135.721 115.352V115.932C135.721 116.426 135.806 116.845 135.977 117.189C136.15 117.53 136.39 117.79 136.697 117.969C137.004 118.145 137.36 118.233 137.766 118.233C138.031 118.233 138.269 118.196 138.482 118.122C138.698 118.045 138.884 117.932 139.04 117.781C139.197 117.628 139.317 117.437 139.403 117.21L140.374 117.483C140.272 117.812 140.1 118.102 139.859 118.352C139.617 118.599 139.319 118.793 138.964 118.932C138.609 119.068 138.21 119.136 137.766 119.136ZM142.944 116.614L142.927 115.369H143.131L145.995 112.455H147.239L144.188 115.54H144.103L142.944 116.614ZM142.006 119V110.273H143.012V119H142.006ZM146.165 119L143.609 115.761L144.325 115.062L147.444 119H146.165Z" fill="white"/>
<path d="M271.303 112.545V122H270.158V113.746H270.102L267.794 115.278V114.115L270.158 112.545H271.303ZM277.032 112.416C277.419 112.419 277.807 112.493 278.195 112.638C278.583 112.782 278.937 113.022 279.257 113.358C279.577 113.69 279.834 114.144 280.028 114.72C280.222 115.295 280.319 116.017 280.319 116.885C280.319 117.725 280.239 118.471 280.078 119.124C279.922 119.773 279.694 120.321 279.395 120.767C279.1 121.214 278.74 121.552 278.315 121.783C277.893 122.014 277.416 122.129 276.884 122.129C276.355 122.129 275.882 122.025 275.467 121.815C275.054 121.603 274.716 121.309 274.451 120.934C274.189 120.555 274.022 120.116 273.948 119.618H275.074C275.176 120.052 275.377 120.41 275.679 120.694C275.984 120.974 276.385 121.114 276.884 121.114C277.613 121.114 278.189 120.795 278.61 120.158C279.035 119.521 279.248 118.621 279.248 117.457H279.174C279.001 117.716 278.797 117.939 278.56 118.127C278.323 118.315 278.06 118.459 277.77 118.561C277.481 118.662 277.173 118.713 276.847 118.713C276.305 118.713 275.808 118.579 275.356 118.311C274.906 118.041 274.546 117.67 274.276 117.199C274.008 116.725 273.874 116.183 273.874 115.574C273.874 114.995 274.003 114.466 274.262 113.986C274.523 113.503 274.89 113.118 275.36 112.832C275.834 112.545 276.391 112.407 277.032 112.416ZM277.032 113.432C276.644 113.432 276.295 113.529 275.984 113.723C275.676 113.913 275.431 114.172 275.25 114.498C275.071 114.821 274.982 115.18 274.982 115.574C274.982 115.968 275.068 116.326 275.24 116.65C275.416 116.97 275.654 117.225 275.956 117.416C276.261 117.604 276.607 117.697 276.995 117.697C277.287 117.697 277.559 117.641 277.812 117.527C278.064 117.41 278.284 117.251 278.472 117.051C278.663 116.848 278.812 116.619 278.92 116.363C279.027 116.105 279.081 115.835 279.081 115.555C279.081 115.186 278.992 114.84 278.814 114.517C278.638 114.194 278.395 113.932 278.084 113.732C277.776 113.532 277.426 113.432 277.032 113.432ZM281.912 120.061V119.119L286.067 112.545H286.75V114.004H286.289L283.15 118.972V119.045H288.745V120.061H281.912ZM286.363 122V119.775V119.336V112.545H287.452V122H286.363Z" fill="white"/>
</g>
<defs>
<clipPath id="clip0_2_2">
<rect width="317" height="154" fill="white"/>
</clipPath>
</defs>
</svg>
