<svg width="1920" height="1566" viewBox="0 0 1920 1566" fill="none" xmlns="http://www.w3.org/2000/svg">
<g opacity="0.48" filter="url(#filter0_f_2010_1718)">
<path d="M689.607 1128.12C635.166 1302.55 588.995 1276.07 426.553 1235.36C284.363 1215.69 137.121 1239.25 191.562 1064.82C246.004 890.388 728.528 622.917 870.718 642.587C1012.91 662.257 744.048 953.688 689.607 1128.12Z" fill="#FFDE38"/>
</g>
<g opacity="0.7" filter="url(#filter1_f_2010_1718)">
<path d="M1691.28 521.392C1748.55 576.203 1741.38 794.354 1521.13 931.587C945.553 1091.73 1467.13 633.071 963.695 960.436C906.425 905.624 937.198 794.128 1157.44 656.896C1377.69 519.663 1634.01 466.58 1691.28 521.392Z" fill="url(#paint0_linear_2010_1718)"/>
</g>
<defs>
<filter id="filter0_f_2010_1718" x="-120.029" y="341.561" width="1331.76" height="1223.88" filterUnits="userSpaceOnUse" color-interpolation-filters="sRGB">
<feFlood flood-opacity="0" result="BackgroundImageFix"/>
<feBlend mode="normal" in="SourceGraphic" in2="BackgroundImageFix" result="shape"/>
<feGaussianBlur stdDeviation="150" result="effect1_foregroundBlur_2010_1718"/>
</filter>
<filter id="filter1_f_2010_1718" x="438.522" y="0.101562" width="1783.07" height="1466.59" filterUnits="userSpaceOnUse" color-interpolation-filters="sRGB">
<feFlood flood-opacity="0" result="BackgroundImageFix"/>
<feBlend mode="normal" in="SourceGraphic" in2="BackgroundImageFix" result="shape"/>
<feGaussianBlur stdDeviation="250" result="effect1_foregroundBlur_2010_1718"/>
</filter>
<linearGradient id="paint0_linear_2010_1718" x1="1201.48" y1="629.457" x2="1600.37" y2="1251.07" gradientUnits="userSpaceOnUse">
<stop stop-color="#79F152"/>
<stop offset="1" stop-color="#E5DB26"/>
</linearGradient>
</defs>
</svg>
