<svg width="64" height="64" viewBox="0 0 64 64" fill="none" xmlns="http://www.w3.org/2000/svg">
<rect width="64" height="64" rx="10" fill="#4583EC"/>
<g clip-path="url(#clip0_874_7807)">
<path d="M45.9557 18.6007C45.858 18.2566 45.5551 18 45.1797 18H41.8984C41.445 18 41.0781 18.3669 41.0781 18.8203C41.0781 19.2737 41.445 19.6406 41.8984 19.6406H43.8169L39.8995 24.0636C34.6179 30.0381 26.8455 33.196 18.8907 32.5047C18.4541 32.459 18.0423 32.7995 18.0031 33.2513C17.9639 33.7023 18.298 34.0997 18.7497 34.1389C19.5172 34.2054 20.1647 34.2382 20.9298 34.2382C28.5954 34.2382 36.0134 30.9353 41.1284 25.1498L44.3593 21.5033V22.1016C44.3593 22.555 44.7262 22.9219 45.1797 22.9219C45.6331 22.9219 46 22.555 46 22.1016V19.6298L45.9557 18.6007Z" fill="white"/>
<path d="M45.1797 44.3591H44.3047V25.9163C44.3047 25.5718 44.0892 25.2642 43.7656 25.1456C43.4428 25.0295 43.0799 25.124 42.8572 25.3876L42.3533 25.986C41.5202 26.9745 40.6125 27.9142 39.6544 28.7769C39.4814 28.9324 39.3828 29.1542 39.3828 29.3865V44.3591H37.7422V31.9461C37.7422 31.6433 37.5747 31.3645 37.308 31.2219C37.0413 31.0809 36.7152 31.0954 36.4645 31.2652C35.4463 31.9493 34.3728 32.5742 33.2737 33.1237C32.9957 33.2622 32.8203 33.5466 32.8203 33.8575V44.3591H31.1797V35.2561C31.1797 34.9894 31.0499 34.7395 30.832 34.5856C30.6149 34.4326 30.3345 34.3957 30.0838 34.4839C29.0432 34.8548 27.9697 35.1696 26.8931 35.418C26.5214 35.5045 26.2578 35.8353 26.2578 36.2174V44.3591H24.6172V36.783C24.6172 36.5491 24.5171 36.3264 24.3432 36.171C24.1678 36.0156 23.9298 35.9363 23.704 35.9683C22.6513 36.0885 21.5787 36.1502 20.5149 36.1518C20.0623 36.1526 19.6954 36.5195 19.6954 36.9721V44.3591H18.8203C18.3669 44.3591 18 44.726 18 45.1794C18 45.6328 18.3669 45.9997 18.8203 45.9997H45.1797C45.6331 45.9997 46 45.6328 46 45.1794C46 44.726 45.6331 44.3591 45.1797 44.3591Z" fill="white"/>
</g>
<defs>
<clipPath id="clip0_874_7807">
<rect width="28" height="28" fill="white" transform="translate(18 18)"/>
</clipPath>
</defs>
</svg>
