<svg width="64" height="64" viewBox="0 0 64 64" fill="none" xmlns="http://www.w3.org/2000/svg">
<rect width="64" height="64" rx="10" fill="#5BD732"/>
<g clip-path="url(#clip0_874_7820)">
<path d="M31.9877 45.9998C28.3661 45.9998 24.7832 44.5972 22.0849 41.8989C17.7372 37.5512 16.7431 30.7422 19.6673 25.3406C20.304 24.1595 21.1177 23.0696 22.0849 22.1024C22.3451 21.8422 22.7667 21.8422 23.0269 22.1024C23.2872 22.3626 23.2872 22.7842 23.0269 23.0444C22.1512 23.9201 21.4152 24.9055 20.8397 25.9738C18.1931 30.8619 19.0931 37.023 23.0269 40.9569C27.1135 45.0435 33.4459 45.845 38.4255 42.9078C38.7421 42.7226 39.1502 42.8262 39.3376 43.1433C39.5245 43.46 39.4191 43.8685 39.102 44.0554C36.8865 45.3623 34.4283 45.9998 31.9877 45.9998Z" fill="white"/>
<path d="M41.4103 42.0943C41.2398 42.0943 41.0694 42.0292 40.9393 41.899C40.679 41.6393 40.679 41.2172 40.9393 40.957C41.8232 40.0727 42.5653 39.072 43.1452 37.9834C45.8036 33.0246 44.9166 27.0219 40.9393 23.0446C36.8562 18.9633 30.5367 18.154 25.5676 21.0808C25.2518 21.2677 24.8433 21.1623 24.6555 20.8444C24.4691 20.5274 24.5748 20.1192 24.8919 19.9323C30.3828 16.6988 37.3688 17.591 41.8813 22.1026C46.2771 26.4984 47.2573 33.1327 44.3205 38.6115C43.6795 39.8146 42.8584 40.9215 41.8813 41.8991C41.7512 42.0292 41.5807 42.0943 41.4103 42.0943Z" fill="white"/>
<path d="M41.4106 42.094C41.2601 42.094 41.1135 42.0433 40.9946 41.9482C40.8567 41.8381 40.7682 41.6772 40.7483 41.5015L40.4495 38.8245C40.4087 38.4588 40.6724 38.1297 41.038 38.0884C41.3967 38.0516 41.7328 38.311 41.774 38.677L41.9987 40.6917L44.0134 40.4665C44.3804 40.4236 44.7091 40.6886 44.7495 41.0543C44.7907 41.4199 44.5274 41.7495 44.1617 41.7903L41.4848 42.0896C41.46 42.0926 41.4353 42.094 41.4106 42.094Z" fill="white"/>
<path d="M22.8102 25.9216C22.4706 25.9216 22.1804 25.6631 22.1479 25.3183L21.9562 23.2997L19.9381 23.4914C19.5746 23.5231 19.2463 23.2576 19.212 22.8912C19.1773 22.5251 19.4458 22.1999 19.8123 22.1651L22.4935 21.9105C22.6709 21.8927 22.8448 21.9482 22.9811 22.0601C23.1172 22.1729 23.2031 22.3347 23.2196 22.5107L23.4742 25.1924C23.509 25.5585 23.2404 25.8838 22.874 25.9185C22.8527 25.9207 22.8314 25.9216 22.8102 25.9216Z" fill="white"/>
<path d="M31.9886 23.9951C27.5739 23.9951 23.9941 27.5748 23.9941 31.9896C23.9941 36.4043 27.5739 39.984 31.9886 39.984C36.4033 39.984 39.983 36.4043 39.983 31.9896C39.983 27.5748 36.4033 23.9951 31.9886 23.9951ZM33.7118 33.7128C33.5875 33.846 33.4187 33.9082 33.2411 33.9082C33.0723 33.9082 32.9035 33.846 32.7702 33.7128L31.5177 32.4603C31.3934 32.336 31.3223 32.1672 31.3223 31.9895V28.0011C31.3223 27.6369 31.6243 27.3349 31.9885 27.3349C32.3527 27.3349 32.6547 27.6369 32.6547 28.0011V31.7141L33.7117 32.7711C33.9782 33.0375 33.9782 33.4552 33.7118 33.7128Z" fill="white"/>
</g>
<defs>
<clipPath id="clip0_874_7820">
<rect width="28" height="28" fill="white" transform="translate(18 18)"/>
</clipPath>
</defs>
</svg>
