<svg width="64" height="64" viewBox="0 0 64 64" fill="none" xmlns="http://www.w3.org/2000/svg">
<rect width="64" height="64" rx="10" fill="#E38CEB"/>
<g clip-path="url(#clip0_874_7789)">
<path d="M26.2601 21.0461C26.2601 19.3665 24.8936 18 23.214 18C19.1729 18.1673 19.174 23.9255 23.214 24.0922C24.8936 24.0922 26.2601 22.7257 26.2601 21.0461Z" fill="white"/>
<path d="M28.4271 30.2428V29.3058C28.1399 22.3876 18.2846 22.3929 18 29.3058V30.2427C18 30.6958 18.3673 31.063 18.8203 31.063H27.6068C28.0598 31.0631 28.4271 30.6958 28.4271 30.2428Z" fill="white"/>
<path d="M43.8323 21.0461C43.8323 19.3665 42.4659 18 40.7862 18C36.7452 18.1673 36.7463 23.9255 40.7862 24.0922C42.4659 24.0922 43.8323 22.7257 43.8323 21.0461Z" fill="white"/>
<path d="M40.7868 24.0918C37.912 24.0918 35.5732 26.4306 35.5732 29.3053V30.2423C35.5732 30.6953 35.9405 31.0626 36.3936 31.0626H45.18C45.633 31.0626 46.0003 30.6953 46.0003 30.2423V29.3053C46.0003 26.4306 43.6615 24.0918 40.7868 24.0918Z" fill="white"/>
<path d="M23.1549 32.8791C23.1549 32.8206 23.156 32.7623 23.1571 32.7041H21.5165C21.4512 36.2205 23.1558 39.3974 25.7954 41.332C26.0312 40.8314 26.3259 40.3639 26.6704 39.9382C24.535 38.3235 23.1549 35.7626 23.1549 32.8791Z" fill="white"/>
<path d="M28.3796 24.8068C30.5614 23.785 33.4379 23.785 35.6197 24.8068C36.0088 24.3606 36.4545 23.9651 36.9456 23.6316C34.042 21.9965 29.9573 21.9965 27.0537 23.6316C27.5448 23.9651 27.9905 24.3606 28.3796 24.8068Z" fill="white"/>
<path d="M40.8424 32.7041C40.9062 35.6347 39.5081 38.2968 37.3291 39.9382C37.6736 40.3639 37.9682 40.8314 38.2041 41.332C40.8436 39.3976 42.5484 36.2204 42.4831 32.7041H40.8424Z" fill="white"/>
<path d="M35.0462 35.9826C35.0462 34.303 33.6797 32.9365 32.0001 32.9365C27.959 33.1039 27.9602 38.862 32.0001 39.0287C33.6797 39.0287 35.0462 37.6623 35.0462 35.9826Z" fill="white"/>
<path d="M31.9997 39.0293C29.1249 39.0293 26.7861 41.3681 26.7861 44.2428V45.1798C26.7861 45.6329 27.1534 46.0001 27.6064 46.0001H36.3929C36.846 46.0001 37.2132 45.6329 37.2132 45.1798V44.2429C37.2132 41.3681 34.8744 39.0293 31.9997 39.0293Z" fill="white"/>
</g>
<defs>
<clipPath id="clip0_874_7789">
<rect width="28" height="28" fill="white" transform="translate(18 18)"/>
</clipPath>
</defs>
</svg>
