<svg width="26" height="29" viewBox="0 0 26 29" fill="none" xmlns="http://www.w3.org/2000/svg">
<path d="M16.2324 2.82832C16.2557 4.67326 16.3959 6.5182 16.6995 8.33978C16.7228 8.40984 16.7228 8.4799 16.7462 8.54997C16.9797 9.81106 17.6336 10.7219 18.7546 11.3524C19.5019 11.7728 20.2726 12.1464 21.1367 12.2866C22.4445 12.5201 23.7756 12.777 25.0834 13.0339C25.4571 13.1039 25.714 13.3375 25.7607 13.6644C25.8074 13.968 25.6206 14.2716 25.2936 14.4351C25.1068 14.5051 24.8966 14.5519 24.7098 14.6219C23.6121 14.9022 22.5145 15.2291 21.487 15.7429C19.8289 16.5603 18.6145 17.8214 17.9139 19.5262C17.0965 21.4879 16.536 23.5197 16.2557 25.6215C16.1857 26.2287 16.0923 26.8359 16.0222 27.4431C15.9755 27.8401 15.7653 28.0736 15.4384 28.097C15.1114 28.1437 14.8545 27.9802 14.691 27.6299C14.621 27.4664 14.5743 27.303 14.5276 27.1395C14.0138 25.4347 13.2898 23.8233 12.379 22.2819C12.1689 21.955 11.9587 21.6047 11.7018 21.3244C10.5341 20.0867 9.273 18.9423 7.82507 18.0315C6.63404 17.2842 5.32623 16.8639 3.97172 16.5603C2.8741 16.3267 1.77648 16.1166 0.678855 15.9064C0.258489 15.8363 0.0249526 15.6028 0.00159894 15.2758C-0.0217547 14.9255 0.211782 14.6453 0.632148 14.5519C0.748916 14.5285 0.889038 14.5051 1.02916 14.5051C1.68306 14.5752 2.29026 14.3884 2.89745 14.295C4.1352 14.0848 5.32623 13.7111 6.51727 13.3375C7.12446 13.1506 7.7083 12.9171 8.3155 12.7069C10.2772 12.0063 11.4682 10.5817 12.2156 8.71344C12.4024 8.22301 12.5425 7.70923 12.7527 7.24216C13.0563 6.54155 13.3832 5.84094 13.6868 5.14033C13.8737 4.74332 14.0839 4.32295 14.2006 3.90259C14.4809 2.89838 14.7378 1.89417 15.018 0.866614C15.0647 0.703138 15.1348 0.539662 15.2048 0.352833C15.2982 0.119297 15.4617 -0.0208253 15.7186 0.00252831C15.9989 0.025882 16.1623 0.212711 16.209 0.469601C16.2324 0.679784 16.2324 0.866614 16.2324 1.0768C16.2324 1.66064 16.2324 2.24448 16.2324 2.82832Z" fill="#D1F56E"/>
</svg>
