<svg width="382" height="407" viewBox="0 0 382 407" fill="none" xmlns="http://www.w3.org/2000/svg">
<rect width="382" height="407" rx="12" fill="white" fill-opacity="0.03"/>
<path d="M74.3636 371.145C73.8836 371.145 73.4719 371.012 73.1286 370.745C72.7853 370.478 72.5536 370.122 72.4336 369.675L73.1686 369.5C73.2286 369.763 73.3669 369.987 73.5836 370.17C73.8036 370.35 74.0619 370.44 74.3586 370.44C74.5453 370.44 74.7336 370.395 74.9236 370.305C75.1169 370.215 75.2686 370.067 75.3786 369.86C75.4519 369.717 75.4936 369.562 75.5036 369.395C75.5169 369.225 75.5236 369.022 75.5236 368.785V363.8H76.2636V368.785C76.2636 368.985 76.2619 369.167 76.2586 369.33C76.2553 369.49 76.2369 369.645 76.2036 369.795C76.1736 369.942 76.1153 370.09 76.0286 370.24C75.8553 370.543 75.6219 370.77 75.3286 370.92C75.0386 371.07 74.7169 371.145 74.3636 371.145ZM79.3173 371.15C78.9106 371.15 78.5689 371.077 78.2923 370.93C78.0189 370.783 77.8139 370.588 77.6773 370.345C77.5406 370.102 77.4723 369.837 77.4723 369.55C77.4723 369.257 77.5306 369.007 77.6473 368.8C77.7673 368.59 77.9289 368.418 78.1323 368.285C78.3389 368.152 78.5773 368.05 78.8473 367.98C79.1206 367.913 79.4223 367.855 79.7523 367.805C80.0856 367.752 80.4106 367.707 80.7273 367.67C81.0473 367.63 81.3273 367.592 81.5673 367.555L81.3073 367.715C81.3173 367.182 81.2139 366.787 80.9973 366.53C80.7806 366.273 80.4039 366.145 79.8673 366.145C79.4973 366.145 79.1839 366.228 78.9273 366.395C78.6739 366.562 78.4956 366.825 78.3923 367.185L77.6773 366.975C77.8006 366.492 78.0489 366.117 78.4223 365.85C78.7956 365.583 79.2806 365.45 79.8773 365.45C80.3706 365.45 80.7889 365.543 81.1323 365.73C81.4789 365.913 81.7239 366.18 81.8673 366.53C81.9339 366.687 81.9773 366.862 81.9973 367.055C82.0173 367.248 82.0273 367.445 82.0273 367.645V371H81.3723V369.645L81.5623 369.725C81.3789 370.188 81.0939 370.542 80.7073 370.785C80.3206 371.028 79.8573 371.15 79.3173 371.15ZM79.4023 370.515C79.7456 370.515 80.0456 370.453 80.3023 370.33C80.5589 370.207 80.7656 370.038 80.9223 369.825C81.0789 369.608 81.1806 369.365 81.2273 369.095C81.2673 368.922 81.2889 368.732 81.2923 368.525C81.2956 368.315 81.2973 368.158 81.2973 368.055L81.5773 368.2C81.3273 368.233 81.0556 368.267 80.7623 368.3C80.4723 368.333 80.1856 368.372 79.9023 368.415C79.6223 368.458 79.3689 368.51 79.1423 368.57C78.9889 368.613 78.8406 368.675 78.6973 368.755C78.5539 368.832 78.4356 368.935 78.3423 369.065C78.2523 369.195 78.2073 369.357 78.2073 369.55C78.2073 369.707 78.2456 369.858 78.3223 370.005C78.4023 370.152 78.5289 370.273 78.7023 370.37C78.8789 370.467 79.1123 370.515 79.4023 370.515ZM87.2289 371V368.245C87.2289 367.945 87.2006 367.67 87.1439 367.42C87.0872 367.167 86.9956 366.947 86.8689 366.76C86.7456 366.57 86.5839 366.423 86.3839 366.32C86.1872 366.217 85.9472 366.165 85.6639 366.165C85.4039 366.165 85.1739 366.21 84.9739 366.3C84.7772 366.39 84.6106 366.52 84.4739 366.69C84.3406 366.857 84.2389 367.06 84.1689 367.3C84.0989 367.54 84.0639 367.813 84.0639 368.12L83.5439 368.005C83.5439 367.452 83.6406 366.987 83.8339 366.61C84.0272 366.233 84.2939 365.948 84.6339 365.755C84.9739 365.562 85.3639 365.465 85.8039 365.465C86.1272 365.465 86.4089 365.515 86.6489 365.615C86.8922 365.715 87.0972 365.85 87.2639 366.02C87.4339 366.19 87.5706 366.385 87.6739 366.605C87.7772 366.822 87.8522 367.053 87.8989 367.3C87.9456 367.543 87.9689 367.787 87.9689 368.03V371H87.2289ZM83.3239 371V365.6H83.9889V366.93H84.0639V371H83.3239Z" fill="white"/>
<path d="M124.67 371V363.8H128.805V364.535H125.405V367.035H128.205V367.765H125.405V371H124.67ZM131.847 371.15C131.321 371.15 130.864 371.033 130.477 370.8C130.094 370.567 129.796 370.238 129.582 369.815C129.369 369.392 129.262 368.895 129.262 368.325C129.262 367.735 129.367 367.225 129.577 366.795C129.787 366.365 130.082 366.033 130.462 365.8C130.846 365.567 131.297 365.45 131.817 365.45C132.351 365.45 132.806 365.573 133.182 365.82C133.559 366.063 133.844 366.413 134.037 366.87C134.231 367.327 134.319 367.872 134.302 368.505H133.552V368.245C133.539 367.545 133.387 367.017 133.097 366.66C132.811 366.303 132.391 366.125 131.837 366.125C131.257 366.125 130.812 366.313 130.502 366.69C130.196 367.067 130.042 367.603 130.042 368.3C130.042 368.98 130.196 369.508 130.502 369.885C130.812 370.258 131.251 370.445 131.817 370.445C132.204 370.445 132.541 370.357 132.827 370.18C133.117 370 133.346 369.742 133.512 369.405L134.197 369.67C133.984 370.14 133.669 370.505 133.252 370.765C132.839 371.022 132.371 371.15 131.847 371.15ZM129.782 368.505V367.89H133.907V368.505H129.782ZM137.837 371.15C137.34 371.15 136.92 371.025 136.577 370.775C136.234 370.522 135.974 370.18 135.797 369.75C135.62 369.317 135.532 368.832 135.532 368.295C135.532 367.748 135.62 367.262 135.797 366.835C135.977 366.405 136.24 366.067 136.587 365.82C136.934 365.573 137.36 365.45 137.867 365.45C138.36 365.45 138.784 365.575 139.137 365.825C139.49 366.075 139.76 366.415 139.947 366.845C140.137 367.275 140.232 367.758 140.232 368.295C140.232 368.835 140.137 369.32 139.947 369.75C139.757 370.18 139.484 370.522 139.127 370.775C138.77 371.025 138.34 371.15 137.837 371.15ZM135.407 371V363.8H136.147V366.935H136.067V371H135.407ZM137.762 370.465C138.139 370.465 138.452 370.37 138.702 370.18C138.952 369.99 139.139 369.732 139.262 369.405C139.389 369.075 139.452 368.705 139.452 368.295C139.452 367.888 139.39 367.522 139.267 367.195C139.144 366.868 138.955 366.61 138.702 366.42C138.452 366.23 138.134 366.135 137.747 366.135C137.37 366.135 137.057 366.227 136.807 366.41C136.56 366.593 136.375 366.848 136.252 367.175C136.129 367.498 136.067 367.872 136.067 368.295C136.067 368.712 136.129 369.085 136.252 369.415C136.375 369.742 136.562 369.998 136.812 370.185C137.062 370.372 137.379 370.465 137.762 370.465Z" fill="white"/>
<path d="M176.515 371V363.8H177.19L180.02 369.855L182.835 363.8H183.52V370.995H182.82V365.44L180.255 371H179.78L177.22 365.44V371H176.515ZM186.469 371.15C186.062 371.15 185.72 371.077 185.444 370.93C185.17 370.783 184.965 370.588 184.829 370.345C184.692 370.102 184.624 369.837 184.624 369.55C184.624 369.257 184.682 369.007 184.799 368.8C184.919 368.59 185.08 368.418 185.284 368.285C185.49 368.152 185.729 368.05 185.999 367.98C186.272 367.913 186.574 367.855 186.904 367.805C187.237 367.752 187.562 367.707 187.879 367.67C188.199 367.63 188.479 367.592 188.719 367.555L188.459 367.715C188.469 367.182 188.365 366.787 188.149 366.53C187.932 366.273 187.555 366.145 187.019 366.145C186.649 366.145 186.335 366.228 186.079 366.395C185.825 366.562 185.647 366.825 185.544 367.185L184.829 366.975C184.952 366.492 185.2 366.117 185.574 365.85C185.947 365.583 186.432 365.45 187.029 365.45C187.522 365.45 187.94 365.543 188.284 365.73C188.63 365.913 188.875 366.18 189.019 366.53C189.085 366.687 189.129 366.862 189.149 367.055C189.169 367.248 189.179 367.445 189.179 367.645V371H188.524V369.645L188.714 369.725C188.53 370.188 188.245 370.542 187.859 370.785C187.472 371.028 187.009 371.15 186.469 371.15ZM186.554 370.515C186.897 370.515 187.197 370.453 187.454 370.33C187.71 370.207 187.917 370.038 188.074 369.825C188.23 369.608 188.332 369.365 188.379 369.095C188.419 368.922 188.44 368.732 188.444 368.525C188.447 368.315 188.449 368.158 188.449 368.055L188.729 368.2C188.479 368.233 188.207 368.267 187.914 368.3C187.624 368.333 187.337 368.372 187.054 368.415C186.774 368.458 186.52 368.51 186.294 368.57C186.14 368.613 185.992 368.675 185.849 368.755C185.705 368.832 185.587 368.935 185.494 369.065C185.404 369.195 185.359 369.357 185.359 369.55C185.359 369.707 185.397 369.858 185.474 370.005C185.554 370.152 185.68 370.273 185.854 370.37C186.03 370.467 186.264 370.515 186.554 370.515ZM190.48 371V365.6H191.14V366.9L191.01 366.73C191.07 366.57 191.149 366.423 191.245 366.29C191.342 366.153 191.447 366.042 191.56 365.955C191.7 365.832 191.864 365.738 192.05 365.675C192.237 365.608 192.425 365.57 192.615 365.56C192.805 365.547 192.979 365.56 193.135 365.6V366.29C192.939 366.24 192.724 366.228 192.49 366.255C192.257 366.282 192.042 366.375 191.845 366.535C191.665 366.675 191.53 366.843 191.44 367.04C191.35 367.233 191.29 367.44 191.26 367.66C191.23 367.877 191.215 368.092 191.215 368.305V371H190.48Z" fill="white"/>
<path d="M228.671 371L231.151 363.8H232.126L234.606 371H233.841L231.486 364.21H231.776L229.436 371H228.671ZM229.776 369.255V368.565H233.496V369.255H229.776ZM237.934 371.15C237.437 371.15 237.017 371.025 236.674 370.775C236.33 370.522 236.07 370.18 235.894 369.75C235.717 369.317 235.629 368.832 235.629 368.295C235.629 367.748 235.717 367.262 235.894 366.835C236.074 366.405 236.337 366.067 236.684 365.82C237.03 365.573 237.457 365.45 237.964 365.45C238.457 365.45 238.88 365.575 239.234 365.825C239.587 366.075 239.857 366.415 240.044 366.845C240.234 367.275 240.329 367.758 240.329 368.295C240.329 368.835 240.234 369.32 240.044 369.75C239.854 370.18 239.58 370.522 239.224 370.775C238.867 371.025 238.437 371.15 237.934 371.15ZM235.504 373.4V365.6H236.164V369.665H236.244V373.4H235.504ZM237.859 370.465C238.235 370.465 238.549 370.37 238.799 370.18C239.049 369.99 239.235 369.732 239.359 369.405C239.485 369.075 239.549 368.705 239.549 368.295C239.549 367.888 239.487 367.522 239.364 367.195C239.24 366.868 239.052 366.61 238.799 366.42C238.549 366.23 238.23 366.135 237.844 366.135C237.467 366.135 237.154 366.227 236.904 366.41C236.657 366.593 236.472 366.848 236.349 367.175C236.225 367.498 236.164 367.872 236.164 368.295C236.164 368.712 236.225 369.085 236.349 369.415C236.472 369.742 236.659 369.998 236.909 370.185C237.159 370.372 237.475 370.465 237.859 370.465ZM241.427 371V365.6H242.087V366.9L241.957 366.73C242.017 366.57 242.095 366.423 242.192 366.29C242.288 366.153 242.393 366.042 242.507 365.955C242.647 365.832 242.81 365.738 242.997 365.675C243.183 365.608 243.372 365.57 243.562 365.56C243.752 365.547 243.925 365.56 244.082 365.6V366.29C243.885 366.24 243.67 366.228 243.437 366.255C243.203 366.282 242.988 366.375 242.792 366.535C242.612 366.675 242.477 366.843 242.387 367.04C242.297 367.233 242.237 367.44 242.207 367.66C242.177 367.877 242.162 368.092 242.162 368.305V371H241.427Z" fill="white"/>
<path d="M279.932 371V363.8H280.607L283.437 369.855L286.252 363.8H286.937V370.995H286.237V365.44L283.672 371H283.197L280.637 365.44V371H279.932ZM289.886 371.15C289.479 371.15 289.137 371.077 288.861 370.93C288.587 370.783 288.382 370.588 288.246 370.345C288.109 370.102 288.041 369.837 288.041 369.55C288.041 369.257 288.099 369.007 288.216 368.8C288.336 368.59 288.497 368.418 288.701 368.285C288.907 368.152 289.146 368.05 289.416 367.98C289.689 367.913 289.991 367.855 290.321 367.805C290.654 367.752 290.979 367.707 291.296 367.67C291.616 367.63 291.896 367.592 292.136 367.555L291.876 367.715C291.886 367.182 291.782 366.787 291.566 366.53C291.349 366.273 290.972 366.145 290.436 366.145C290.066 366.145 289.752 366.228 289.496 366.395C289.242 366.562 289.064 366.825 288.961 367.185L288.246 366.975C288.369 366.492 288.617 366.117 288.991 365.85C289.364 365.583 289.849 365.45 290.446 365.45C290.939 365.45 291.357 365.543 291.701 365.73C292.047 365.913 292.292 366.18 292.436 366.53C292.502 366.687 292.546 366.862 292.566 367.055C292.586 367.248 292.596 367.445 292.596 367.645V371H291.941V369.645L292.131 369.725C291.947 370.188 291.662 370.542 291.276 370.785C290.889 371.028 290.426 371.15 289.886 371.15ZM289.971 370.515C290.314 370.515 290.614 370.453 290.871 370.33C291.127 370.207 291.334 370.038 291.491 369.825C291.647 369.608 291.749 369.365 291.796 369.095C291.836 368.922 291.857 368.732 291.861 368.525C291.864 368.315 291.866 368.158 291.866 368.055L292.146 368.2C291.896 368.233 291.624 368.267 291.331 368.3C291.041 368.333 290.754 368.372 290.471 368.415C290.191 368.458 289.937 368.51 289.711 368.57C289.557 368.613 289.409 368.675 289.266 368.755C289.122 368.832 289.004 368.935 288.911 369.065C288.821 369.195 288.776 369.357 288.776 369.55C288.776 369.707 288.814 369.858 288.891 370.005C288.971 370.152 289.097 370.273 289.271 370.37C289.447 370.467 289.681 370.515 289.971 370.515ZM294.365 373.4L295.41 370.565L295.425 371.405L293.06 365.6H293.84L295.78 370.455H295.46L297.25 365.6H298L295.1 373.4H294.365Z" fill="white"/>
<path d="M335.173 371.145C334.693 371.145 334.281 371.012 333.938 370.745C333.595 370.478 333.363 370.122 333.243 369.675L333.978 369.5C334.038 369.763 334.176 369.987 334.393 370.17C334.613 370.35 334.871 370.44 335.168 370.44C335.355 370.44 335.543 370.395 335.733 370.305C335.926 370.215 336.078 370.067 336.188 369.86C336.261 369.717 336.303 369.562 336.313 369.395C336.326 369.225 336.333 369.022 336.333 368.785V363.8H337.073V368.785C337.073 368.985 337.071 369.167 337.068 369.33C337.065 369.49 337.046 369.645 337.013 369.795C336.983 369.942 336.925 370.09 336.838 370.24C336.665 370.543 336.431 370.77 336.138 370.92C335.848 371.07 335.526 371.145 335.173 371.145ZM340.647 371.135C340.324 371.135 340.04 371.085 339.797 370.985C339.557 370.885 339.352 370.75 339.182 370.58C339.015 370.41 338.88 370.217 338.777 370C338.674 369.78 338.599 369.548 338.552 369.305C338.505 369.058 338.482 368.813 338.482 368.57V365.6H339.222V368.355C339.222 368.652 339.25 368.927 339.307 369.18C339.364 369.433 339.454 369.655 339.577 369.845C339.704 370.032 339.865 370.177 340.062 370.28C340.262 370.383 340.504 370.435 340.787 370.435C341.047 370.435 341.275 370.39 341.472 370.3C341.672 370.21 341.839 370.082 341.972 369.915C342.109 369.745 342.212 369.54 342.282 369.3C342.352 369.057 342.387 368.783 342.387 368.48L342.907 368.595C342.907 369.148 342.81 369.613 342.617 369.99C342.424 370.367 342.157 370.652 341.817 370.845C341.477 371.038 341.087 371.135 340.647 371.135ZM342.462 371V369.67H342.387V365.6H343.122V371H342.462ZM348.419 371V368.245C348.419 367.945 348.391 367.67 348.334 367.42C348.278 367.167 348.186 366.947 348.059 366.76C347.936 366.57 347.774 366.423 347.574 366.32C347.378 366.217 347.138 366.165 346.854 366.165C346.594 366.165 346.364 366.21 346.164 366.3C345.968 366.39 345.801 366.52 345.664 366.69C345.531 366.857 345.429 367.06 345.359 367.3C345.289 367.54 345.254 367.813 345.254 368.12L344.734 368.005C344.734 367.452 344.831 366.987 345.024 366.61C345.218 366.233 345.484 365.948 345.824 365.755C346.164 365.562 346.554 365.465 346.994 365.465C347.318 365.465 347.599 365.515 347.839 365.615C348.083 365.715 348.288 365.85 348.454 366.02C348.624 366.19 348.761 366.385 348.864 366.605C348.968 366.822 349.043 367.053 349.089 367.3C349.136 367.543 349.159 367.787 349.159 368.03V371H348.419ZM344.514 371V365.6H345.179V366.93H345.254V371H344.514Z" fill="white"/>
<path d="M34.05 337.759C33.6067 337.759 33.2067 337.656 32.85 337.449C32.4967 337.243 32.2167 336.963 32.01 336.609C31.8033 336.253 31.7 335.853 31.7 335.409V332.609C31.7 332.166 31.8033 331.768 32.01 331.414C32.2167 331.058 32.4967 330.776 32.85 330.569C33.2067 330.363 33.6067 330.259 34.05 330.259C34.4933 330.259 34.8917 330.363 35.245 330.569C35.6017 330.776 35.8833 331.058 36.09 331.414C36.2967 331.768 36.4 332.166 36.4 332.609V335.409C36.4 335.853 36.2967 336.253 36.09 336.609C35.8833 336.963 35.6017 337.243 35.245 337.449C34.8917 337.656 34.4933 337.759 34.05 337.759ZM34.05 337.049C34.3467 337.049 34.6167 336.978 34.86 336.834C35.1033 336.688 35.2967 336.493 35.44 336.249C35.5833 336.006 35.655 335.738 35.655 335.444V332.574C35.655 332.278 35.5833 332.008 35.44 331.764C35.2967 331.521 35.1033 331.328 34.86 331.184C34.6167 331.038 34.3467 330.964 34.05 330.964C33.7533 330.964 33.4833 331.038 33.24 331.184C32.9967 331.328 32.8033 331.521 32.66 331.764C32.5167 332.008 32.445 332.278 32.445 332.574V335.444C32.445 335.738 32.5167 336.006 32.66 336.249C32.8033 336.493 32.9967 336.688 33.24 336.834C33.4833 336.978 33.7533 337.049 34.05 337.049Z" fill="white"/>
<path d="M33.825 286.865C33.4517 286.865 33.1067 286.788 32.79 286.635C32.4733 286.482 32.2033 286.27 31.98 286C31.7567 285.73 31.5967 285.42 31.5 285.07L32.205 284.88C32.2683 285.14 32.3833 285.365 32.55 285.555C32.7167 285.742 32.9117 285.887 33.135 285.99C33.3617 286.093 33.5983 286.145 33.845 286.145C34.165 286.145 34.4517 286.068 34.705 285.915C34.9617 285.758 35.165 285.552 35.315 285.295C35.465 285.038 35.54 284.757 35.54 284.45C35.54 284.133 35.4617 283.848 35.305 283.595C35.1483 283.338 34.9417 283.135 34.685 282.985C34.4283 282.835 34.1483 282.76 33.845 282.76C33.505 282.76 33.2117 282.835 32.965 282.985C32.7183 283.132 32.5217 283.317 32.375 283.54L31.705 283.26L31.925 279.515H35.77V280.22H32.25L32.615 279.875L32.42 283.07L32.235 282.825C32.4417 282.588 32.6917 282.403 32.985 282.27C33.2783 282.137 33.5867 282.07 33.91 282.07C34.3533 282.07 34.7533 282.177 35.11 282.39C35.4667 282.6 35.75 282.885 35.96 283.245C36.17 283.605 36.275 284.007 36.275 284.45C36.275 284.89 36.1633 285.293 35.94 285.66C35.7167 286.023 35.42 286.315 35.05 286.535C34.68 286.755 34.2717 286.865 33.825 286.865ZM39.8215 286.865C39.3782 286.865 38.9782 286.762 38.6215 286.555C38.2682 286.348 37.9882 286.068 37.7815 285.715C37.5748 285.358 37.4715 284.958 37.4715 284.515V281.715C37.4715 281.272 37.5748 280.873 37.7815 280.52C37.9882 280.163 38.2682 279.882 38.6215 279.675C38.9782 279.468 39.3782 279.365 39.8215 279.365C40.2648 279.365 40.6632 279.468 41.0165 279.675C41.3732 279.882 41.6548 280.163 41.8615 280.52C42.0682 280.873 42.1715 281.272 42.1715 281.715V284.515C42.1715 284.958 42.0682 285.358 41.8615 285.715C41.6548 286.068 41.3732 286.348 41.0165 286.555C40.6632 286.762 40.2648 286.865 39.8215 286.865ZM39.8215 286.155C40.1182 286.155 40.3882 286.083 40.6315 285.94C40.8748 285.793 41.0682 285.598 41.2115 285.355C41.3548 285.112 41.4265 284.843 41.4265 284.55V281.68C41.4265 281.383 41.3548 281.113 41.2115 280.87C41.0682 280.627 40.8748 280.433 40.6315 280.29C40.3882 280.143 40.1182 280.07 39.8215 280.07C39.5248 280.07 39.2548 280.143 39.0115 280.29C38.7682 280.433 38.5748 280.627 38.4315 280.87C38.2882 281.113 38.2165 281.383 38.2165 281.68V284.55C38.2165 284.843 38.2882 285.112 38.4315 285.355C38.5748 285.598 38.7682 285.793 39.0115 285.94C39.2548 286.083 39.5248 286.155 39.8215 286.155ZM43.57 286.715L43.575 279.515H44.315V283.915L46.725 281.315H47.705L45.175 284.015L48.035 286.715H46.965L44.315 284.115V286.715H43.57Z" fill="white"/>
<path d="M32.955 239.656V233.276L31.6 234.091V233.266L32.955 232.456H33.7V239.656H32.955ZM37.9465 239.806C37.5032 239.806 37.1032 239.703 36.7465 239.496C36.3932 239.29 36.1132 239.01 35.9065 238.656C35.6998 238.3 35.5965 237.9 35.5965 237.456V234.656C35.5965 234.213 35.6998 233.815 35.9065 233.461C36.1132 233.105 36.3932 232.823 36.7465 232.616C37.1032 232.41 37.5032 232.306 37.9465 232.306C38.3898 232.306 38.7882 232.41 39.1415 232.616C39.4982 232.823 39.7798 233.105 39.9865 233.461C40.1932 233.815 40.2965 234.213 40.2965 234.656V237.456C40.2965 237.9 40.1932 238.3 39.9865 238.656C39.7798 239.01 39.4982 239.29 39.1415 239.496C38.7882 239.703 38.3898 239.806 37.9465 239.806ZM37.9465 239.096C38.2432 239.096 38.5132 239.025 38.7565 238.881C38.9998 238.735 39.1932 238.54 39.3365 238.296C39.4798 238.053 39.5515 237.785 39.5515 237.491V234.621C39.5515 234.325 39.4798 234.055 39.3365 233.811C39.1932 233.568 38.9998 233.375 38.7565 233.231C38.5132 233.085 38.2432 233.011 37.9465 233.011C37.6498 233.011 37.3798 233.085 37.1365 233.231C36.8932 233.375 36.6998 233.568 36.5565 233.811C36.4132 234.055 36.3415 234.325 36.3415 234.621V237.491C36.3415 237.785 36.4132 238.053 36.5565 238.296C36.6998 238.54 36.8932 238.735 37.1365 238.881C37.3798 239.025 37.6498 239.096 37.9465 239.096ZM44.05 239.806C43.6067 239.806 43.2067 239.703 42.85 239.496C42.4967 239.29 42.2167 239.01 42.01 238.656C41.8033 238.3 41.7 237.9 41.7 237.456V234.656C41.7 234.213 41.8033 233.815 42.01 233.461C42.2167 233.105 42.4967 232.823 42.85 232.616C43.2067 232.41 43.6067 232.306 44.05 232.306C44.4933 232.306 44.8917 232.41 45.245 232.616C45.6017 232.823 45.8833 233.105 46.09 233.461C46.2967 233.815 46.4 234.213 46.4 234.656V237.456C46.4 237.9 46.2967 238.3 46.09 238.656C45.8833 239.01 45.6017 239.29 45.245 239.496C44.8917 239.703 44.4933 239.806 44.05 239.806ZM44.05 239.096C44.3467 239.096 44.6167 239.025 44.86 238.881C45.1033 238.735 45.2967 238.54 45.44 238.296C45.5833 238.053 45.655 237.785 45.655 237.491V234.621C45.655 234.325 45.5833 234.055 45.44 233.811C45.2967 233.568 45.1033 233.375 44.86 233.231C44.6167 233.085 44.3467 233.011 44.05 233.011C43.7533 233.011 43.4833 233.085 43.24 233.231C42.9967 233.375 42.8033 233.568 42.66 233.811C42.5167 234.055 42.445 234.325 42.445 234.621V237.491C42.445 237.785 42.5167 238.053 42.66 238.296C42.8033 238.54 42.9967 238.735 43.24 238.881C43.4833 239.025 43.7533 239.096 44.05 239.096ZM47.7985 239.656L47.8035 232.456H48.5435V236.856L50.9535 234.256H51.9335L49.4035 236.956L52.2635 239.656H51.1935L48.5435 237.056V239.656H47.7985Z" fill="white"/>
<path d="M33.635 191.145C33.2783 191.145 32.95 191.082 32.65 190.955C32.35 190.828 32.0917 190.648 31.875 190.415C31.6583 190.178 31.5 189.897 31.4 189.57L32.1 189.36C32.22 189.717 32.4167 189.987 32.69 190.17C32.9667 190.353 33.2783 190.442 33.625 190.435C33.945 190.428 34.22 190.357 34.45 190.22C34.6833 190.083 34.8617 189.893 34.985 189.65C35.1083 189.407 35.17 189.125 35.17 188.805C35.17 188.315 35.0267 187.922 34.74 187.625C34.4567 187.325 34.0817 187.175 33.615 187.175C33.485 187.175 33.3483 187.193 33.205 187.23C33.0617 187.263 32.9283 187.312 32.805 187.375L32.435 186.79L35.235 184.205L35.355 184.505H31.685V183.8H35.845V184.515L33.405 186.845L33.395 186.555C33.895 186.492 34.335 186.548 34.715 186.725C35.095 186.902 35.3917 187.172 35.605 187.535C35.8217 187.895 35.93 188.318 35.93 188.805C35.93 189.265 35.83 189.672 35.63 190.025C35.4333 190.375 35.1617 190.65 34.815 190.85C34.4683 191.047 34.075 191.145 33.635 191.145ZM39.5773 191.15C39.134 191.15 38.734 191.047 38.3773 190.84C38.024 190.633 37.744 190.353 37.5373 190C37.3307 189.643 37.2273 189.243 37.2273 188.8V186C37.2273 185.557 37.3307 185.158 37.5373 184.805C37.744 184.448 38.024 184.167 38.3773 183.96C38.734 183.753 39.134 183.65 39.5773 183.65C40.0207 183.65 40.419 183.753 40.7723 183.96C41.129 184.167 41.4107 184.448 41.6173 184.805C41.824 185.158 41.9273 185.557 41.9273 186V188.8C41.9273 189.243 41.824 189.643 41.6173 190C41.4107 190.353 41.129 190.633 40.7723 190.84C40.419 191.047 40.0207 191.15 39.5773 191.15ZM39.5773 190.44C39.874 190.44 40.144 190.368 40.3873 190.225C40.6307 190.078 40.824 189.883 40.9673 189.64C41.1107 189.397 41.1823 189.128 41.1823 188.835V185.965C41.1823 185.668 41.1107 185.398 40.9673 185.155C40.824 184.912 40.6307 184.718 40.3873 184.575C40.144 184.428 39.874 184.355 39.5773 184.355C39.2807 184.355 39.0107 184.428 38.7673 184.575C38.524 184.718 38.3307 184.912 38.1873 185.155C38.044 185.398 37.9723 185.668 37.9723 185.965V188.835C37.9723 189.128 38.044 189.397 38.1873 189.64C38.3307 189.883 38.524 190.078 38.7673 190.225C39.0107 190.368 39.2807 190.44 39.5773 190.44ZM45.6809 191.15C45.2375 191.15 44.8375 191.047 44.4809 190.84C44.1275 190.633 43.8475 190.353 43.6409 190C43.4342 189.643 43.3309 189.243 43.3309 188.8V186C43.3309 185.557 43.4342 185.158 43.6409 184.805C43.8475 184.448 44.1275 184.167 44.4809 183.96C44.8375 183.753 45.2375 183.65 45.6809 183.65C46.1242 183.65 46.5225 183.753 46.8759 183.96C47.2325 184.167 47.5142 184.448 47.7209 184.805C47.9275 185.158 48.0309 185.557 48.0309 186V188.8C48.0309 189.243 47.9275 189.643 47.7209 190C47.5142 190.353 47.2325 190.633 46.8759 190.84C46.5225 191.047 46.1242 191.15 45.6809 191.15ZM45.6809 190.44C45.9775 190.44 46.2475 190.368 46.4909 190.225C46.7342 190.078 46.9275 189.883 47.0709 189.64C47.2142 189.397 47.2859 189.128 47.2859 188.835V185.965C47.2859 185.668 47.2142 185.398 47.0709 185.155C46.9275 184.912 46.7342 184.718 46.4909 184.575C46.2475 184.428 45.9775 184.355 45.6809 184.355C45.3842 184.355 45.1142 184.428 44.8709 184.575C44.6275 184.718 44.4342 184.912 44.2909 185.155C44.1475 185.398 44.0759 185.668 44.0759 185.965V188.835C44.0759 189.128 44.1475 189.397 44.2909 189.64C44.4342 189.883 44.6275 190.078 44.8709 190.225C45.1142 190.368 45.3842 190.44 45.6809 190.44ZM49.4344 191V183.8H50.1694V187.2L53.4544 183.8H54.3944L51.0394 187.275L54.6694 191H53.7094L50.1694 187.4V191H49.4344Z" fill="white"/>
<path d="M33.825 141.15C33.4517 141.15 33.1067 141.073 32.79 140.92C32.4733 140.767 32.2033 140.555 31.98 140.285C31.7567 140.015 31.5967 139.705 31.5 139.355L32.205 139.165C32.2683 139.425 32.3833 139.65 32.55 139.84C32.7167 140.027 32.9117 140.172 33.135 140.275C33.3617 140.378 33.5983 140.43 33.845 140.43C34.165 140.43 34.4517 140.353 34.705 140.2C34.9617 140.043 35.165 139.837 35.315 139.58C35.465 139.323 35.54 139.042 35.54 138.735C35.54 138.418 35.4617 138.133 35.305 137.88C35.1483 137.623 34.9417 137.42 34.685 137.27C34.4283 137.12 34.1483 137.045 33.845 137.045C33.505 137.045 33.2117 137.12 32.965 137.27C32.7183 137.417 32.5217 137.602 32.375 137.825L31.705 137.545L31.925 133.8H35.77V134.505H32.25L32.615 134.16L32.42 137.355L32.235 137.11C32.4417 136.873 32.6917 136.688 32.985 136.555C33.2783 136.422 33.5867 136.355 33.91 136.355C34.3533 136.355 34.7533 136.462 35.11 136.675C35.4667 136.885 35.75 137.17 35.96 137.53C36.17 137.89 36.275 138.292 36.275 138.735C36.275 139.175 36.1633 139.578 35.94 139.945C35.7167 140.308 35.42 140.6 35.05 140.82C34.68 141.04 34.2717 141.15 33.825 141.15ZM39.8215 141.15C39.3782 141.15 38.9782 141.047 38.6215 140.84C38.2682 140.633 37.9882 140.353 37.7815 140C37.5748 139.643 37.4715 139.243 37.4715 138.8V136C37.4715 135.557 37.5748 135.158 37.7815 134.805C37.9882 134.448 38.2682 134.167 38.6215 133.96C38.9782 133.753 39.3782 133.65 39.8215 133.65C40.2648 133.65 40.6632 133.753 41.0165 133.96C41.3732 134.167 41.6548 134.448 41.8615 134.805C42.0682 135.158 42.1715 135.557 42.1715 136V138.8C42.1715 139.243 42.0682 139.643 41.8615 140C41.6548 140.353 41.3732 140.633 41.0165 140.84C40.6632 141.047 40.2648 141.15 39.8215 141.15ZM39.8215 140.44C40.1182 140.44 40.3882 140.368 40.6315 140.225C40.8748 140.078 41.0682 139.883 41.2115 139.64C41.3548 139.397 41.4265 139.128 41.4265 138.835V135.965C41.4265 135.668 41.3548 135.398 41.2115 135.155C41.0682 134.912 40.8748 134.718 40.6315 134.575C40.3882 134.428 40.1182 134.355 39.8215 134.355C39.5248 134.355 39.2548 134.428 39.0115 134.575C38.7682 134.718 38.5748 134.912 38.4315 135.155C38.2882 135.398 38.2165 135.668 38.2165 135.965V138.835C38.2165 139.128 38.2882 139.397 38.4315 139.64C38.5748 139.883 38.7682 140.078 39.0115 140.225C39.2548 140.368 39.5248 140.44 39.8215 140.44ZM45.925 141.15C45.4817 141.15 45.0817 141.047 44.725 140.84C44.3717 140.633 44.0917 140.353 43.885 140C43.6783 139.643 43.575 139.243 43.575 138.8V136C43.575 135.557 43.6783 135.158 43.885 134.805C44.0917 134.448 44.3717 134.167 44.725 133.96C45.0817 133.753 45.4817 133.65 45.925 133.65C46.3683 133.65 46.7667 133.753 47.12 133.96C47.4767 134.167 47.7583 134.448 47.965 134.805C48.1717 135.158 48.275 135.557 48.275 136V138.8C48.275 139.243 48.1717 139.643 47.965 140C47.7583 140.353 47.4767 140.633 47.12 140.84C46.7667 141.047 46.3683 141.15 45.925 141.15ZM45.925 140.44C46.2217 140.44 46.4917 140.368 46.735 140.225C46.9783 140.078 47.1717 139.883 47.315 139.64C47.4583 139.397 47.53 139.128 47.53 138.835V135.965C47.53 135.668 47.4583 135.398 47.315 135.155C47.1717 134.912 46.9783 134.718 46.735 134.575C46.4917 134.428 46.2217 134.355 45.925 134.355C45.6283 134.355 45.3583 134.428 45.115 134.575C44.8717 134.718 44.6783 134.912 44.535 135.155C44.3917 135.398 44.32 135.668 44.32 135.965V138.835C44.32 139.128 44.3917 139.397 44.535 139.64C44.6783 139.883 44.8717 140.078 45.115 140.225C45.3583 140.368 45.6283 140.44 45.925 140.44ZM49.6785 141V133.8H50.4135V137.2L53.6985 133.8H54.6385L51.2835 137.275L54.9135 141H53.9535L50.4135 137.4V141H49.6785Z" fill="white"/>
<path d="M75.4023 254.383C78.5503 250.259 97.0343 244.039 114.331 257.236C135.952 273.733 171.678 352.784 203.304 263.599C215.439 229.381 233.558 156.42 346.905 285.96" stroke="#007BFF" stroke-width="2.35294" stroke-linecap="round"/>
<path d="M75.7734 286.358C84.8449 270.769 140.192 230.804 154.946 271.883C169.7 312.962 243.11 320.154 257.298 274.348C268.556 238.003 311.511 282.191 325.513 292.049C339.515 301.907 340.756 303.315 350 303.315" stroke="#FF8F20" stroke-width="2.35294" stroke-linecap="round"/>
<line x1="76.2779" y1="136.824" x2="349.608" y2="136.824" stroke="white" stroke-opacity="0.04" stroke-width="0.784314" stroke-linecap="round"/>
<line x1="0.392157" y1="-0.392157" x2="273.869" y2="-0.392157" transform="matrix(0.999998 0.00187192 -0.00150214 0.999999 75.7393 187.704)" stroke="white" stroke-opacity="0.04" stroke-width="0.784314" stroke-linecap="round"/>
<line x1="0.392157" y1="-0.392157" x2="273.869" y2="-0.392157" transform="matrix(0.999999 0.0011505 -0.000923229 1 75.7393 237.902)" stroke="white" stroke-opacity="0.04" stroke-width="0.784314" stroke-linecap="round"/>
<line x1="0.392157" y1="-0.392157" x2="273.869" y2="-0.392157" transform="matrix(1 0.000433679 -0.000348008 1 75.7393 288.098)" stroke="white" stroke-opacity="0.04" stroke-width="0.784314" stroke-linecap="round"/>
<line x1="0.392157" y1="-0.392157" x2="273.869" y2="-0.392157" transform="matrix(1 0.000433679 -0.000348008 1 75.7393 338)" stroke="white" stroke-opacity="0.04" stroke-width="0.784314" stroke-linecap="round"/>
<line x1="235.392" y1="138.392" x2="235.392" y2="337.608" stroke="#BFDEFF" stroke-width="0.784314" stroke-linecap="round" stroke-dasharray="6.27 6.27"/>
<g filter="url(#filter0_d_874_8093)">
<circle cx="235.312" cy="141.409" r="7.40943" fill="#007BFF"/>
<circle cx="235.312" cy="141.409" r="6.62511" stroke="white" stroke-width="1.56863"/>
</g>
<line x1="31.9023" y1="104.824" x2="349.902" y2="104.824" stroke="white" stroke-opacity="0.04" stroke-width="0.784314"/>
<path d="M34.028 47V44.2865L31.8545 40.52H32.6195L34.361 43.5305L36.0935 40.52H36.8585L34.694 44.2865V47H34.028ZM38.7943 47.135C38.3113 47.135 37.8988 47.0255 37.5568 46.8065C37.2148 46.5875 36.9523 46.2845 36.7693 45.8975C36.5863 45.5105 36.4948 45.0665 36.4948 44.5655C36.4948 44.0555 36.5878 43.6085 36.7738 43.2245C36.9598 42.8405 37.2238 42.542 37.5658 42.329C37.9108 42.113 38.3203 42.005 38.7943 42.005C39.2803 42.005 39.6943 42.1145 40.0363 42.3335C40.3813 42.5495 40.6438 42.851 40.8238 43.238C41.0068 43.622 41.0983 44.0645 41.0983 44.5655C41.0983 45.0755 41.0068 45.524 40.8238 45.911C40.6408 46.295 40.3768 46.595 40.0318 46.811C39.6868 47.027 39.2743 47.135 38.7943 47.135ZM38.7943 46.5005C39.3343 46.5005 39.7363 46.322 40.0003 45.965C40.2643 45.605 40.3963 45.1385 40.3963 44.5655C40.3963 43.9775 40.2628 43.5095 39.9958 43.1615C39.7318 42.8135 39.3313 42.6395 38.7943 42.6395C38.4313 42.6395 38.1313 42.722 37.8943 42.887C37.6603 43.049 37.4848 43.2755 37.3678 43.5665C37.2538 43.8545 37.1968 44.1875 37.1968 44.5655C37.1968 45.1505 37.3318 45.62 37.6018 45.974C37.8718 46.325 38.2693 46.5005 38.7943 46.5005ZM43.9494 47.1215C43.6584 47.1215 43.4034 47.0765 43.1844 46.9865C42.9684 46.8965 42.7839 46.775 42.6309 46.622C42.4809 46.469 42.3594 46.295 42.2664 46.1C42.1734 45.902 42.1059 45.6935 42.0639 45.4745C42.0219 45.2525 42.0009 45.032 42.0009 44.813V42.14H42.6669V44.6195C42.6669 44.8865 42.6924 45.134 42.7434 45.362C42.7944 45.59 42.8754 45.7895 42.9864 45.9605C43.1004 46.1285 43.2459 46.259 43.4229 46.352C43.6029 46.445 43.8204 46.4915 44.0754 46.4915C44.3094 46.4915 44.5149 46.451 44.6919 46.37C44.8719 46.289 45.0219 46.1735 45.1419 46.0235C45.2649 45.8705 45.3579 45.686 45.4209 45.47C45.4839 45.251 45.5154 45.005 45.5154 44.732L45.9834 44.8355C45.9834 45.3335 45.8964 45.752 45.7224 46.091C45.5484 46.43 45.3084 46.6865 45.0024 46.8605C44.6964 47.0345 44.3454 47.1215 43.9494 47.1215ZM45.5829 47V45.803H45.5154V42.14H46.1769V47H45.5829ZM47.4347 47V42.14H48.0287V43.31L47.9117 43.157C47.9657 43.013 48.0362 42.881 48.1232 42.761C48.2102 42.638 48.3047 42.5375 48.4067 42.4595C48.5327 42.3485 48.6797 42.2645 48.8477 42.2075C49.0157 42.1475 49.1852 42.113 49.3562 42.104C49.5272 42.092 49.6832 42.104 49.8242 42.14V42.761C49.6472 42.716 49.4537 42.7055 49.2437 42.7295C49.0337 42.7535 48.8402 42.8375 48.6632 42.9815C48.5012 43.1075 48.3797 43.259 48.2987 43.436C48.2177 43.61 48.1637 43.796 48.1367 43.994C48.1097 44.189 48.0962 44.3825 48.0962 44.5745V47H47.4347ZM52.0296 47L54.2616 40.52H55.1391L57.3711 47H56.6826L54.5631 40.889H54.8241L52.7181 47H52.0296ZM53.0241 45.4295V44.8085H56.3721V45.4295H53.0241ZM60.1997 47.135C59.7107 47.135 59.2967 47.0255 58.9577 46.8065C58.6187 46.5875 58.3607 46.286 58.1837 45.902C58.0097 45.515 57.9197 45.071 57.9137 44.57C57.9197 44.06 58.0127 43.613 58.1927 43.229C58.3727 42.842 58.6322 42.542 58.9712 42.329C59.3102 42.113 59.7212 42.005 60.2042 42.005C60.6962 42.005 61.1237 42.125 61.4867 42.365C61.8527 42.605 62.1032 42.9335 62.2382 43.3505L61.5902 43.5575C61.4762 43.2665 61.2947 43.0415 61.0457 42.8825C60.7997 42.7205 60.5177 42.6395 60.1997 42.6395C59.8427 42.6395 59.5472 42.722 59.3132 42.887C59.0792 43.049 58.9052 43.2755 58.7912 43.5665C58.6772 43.8575 58.6187 44.192 58.6157 44.57C58.6217 45.152 58.7567 45.62 59.0207 45.974C59.2847 46.325 59.6777 46.5005 60.1997 46.5005C60.5297 46.5005 60.8102 46.4255 61.0412 46.2755C61.2752 46.1225 61.4522 45.9005 61.5722 45.6095L62.2382 45.8075C62.0582 46.2395 61.7942 46.5695 61.4462 46.7975C61.0982 47.0225 60.6827 47.135 60.1997 47.135ZM65.8131 47C65.5401 47.057 65.2701 47.0795 65.0031 47.0675C64.7391 47.0555 64.5021 46.9985 64.2921 46.8965C64.0851 46.7945 63.9276 46.6355 63.8196 46.4195C63.7326 46.2395 63.6846 46.058 63.6756 45.875C63.6696 45.689 63.6666 45.4775 63.6666 45.2405V40.79H64.3236V45.2135C64.3236 45.4175 64.3251 45.5885 64.3281 45.7265C64.3341 45.8615 64.3656 45.9815 64.4226 46.0865C64.5306 46.2875 64.7016 46.4075 64.9356 46.4465C65.1726 46.4855 65.4651 46.4765 65.8131 46.4195V47ZM62.6271 42.707V42.14H65.8131V42.707H62.6271ZM66.8606 41.2175V40.475H67.5221V41.2175H66.8606ZM66.8606 47V42.14H67.5221V47H66.8606ZM70.1852 47L68.4212 42.14H69.0917L70.5272 46.136L71.9537 42.14H72.6332L70.8692 47H70.1852ZM73.5315 41.2175V40.475H74.193V41.2175H73.5315ZM73.5315 47V42.14H74.193V47H73.5315ZM78.1881 47C77.9151 47.057 77.6451 47.0795 77.3781 47.0675C77.1141 47.0555 76.8771 46.9985 76.6671 46.8965C76.4601 46.7945 76.3026 46.6355 76.1946 46.4195C76.1076 46.2395 76.0596 46.058 76.0506 45.875C76.0446 45.689 76.0416 45.4775 76.0416 45.2405V40.79H76.6986V45.2135C76.6986 45.4175 76.7001 45.5885 76.7031 45.7265C76.7091 45.8615 76.7406 45.9815 76.7976 46.0865C76.9056 46.2875 77.0766 46.4075 77.3106 46.4465C77.5476 46.4855 77.8401 46.4765 78.1881 46.4195V47ZM75.0021 42.707V42.14H78.1881V42.707H75.0021ZM79.7068 49.16L80.6473 46.6085L80.6608 47.3645L78.5323 42.14H79.2343L80.9803 46.5095H80.6923L82.3033 42.14H82.9783L80.3683 49.16H79.7068Z" fill="#DADADA"/>
<path d="M35.9425 75V64.832H32.0145V63.48H41.2945V64.832H37.3665V75H35.9425ZM44.967 75.24C44.1083 75.24 43.367 75.0453 42.743 74.656C42.1243 74.2667 41.647 73.728 41.311 73.04C40.975 72.352 40.807 71.5627 40.807 70.672C40.807 69.7653 40.9777 68.9707 41.319 68.288C41.6603 67.6053 42.143 67.0747 42.767 66.696C43.391 66.312 44.1243 66.12 44.967 66.12C45.831 66.12 46.575 66.3147 47.199 66.704C47.823 67.088 48.3003 67.624 48.631 68.312C48.967 68.9947 49.135 69.7813 49.135 70.672C49.135 71.5733 48.967 72.368 48.631 73.056C48.295 73.7387 47.815 74.2747 47.191 74.664C46.567 75.048 45.8257 75.24 44.967 75.24ZM44.967 73.888C45.863 73.888 46.5297 73.5893 46.967 72.992C47.4043 72.3947 47.623 71.6213 47.623 70.672C47.623 69.696 47.4017 68.92 46.959 68.344C46.5163 67.7627 45.8523 67.472 44.967 67.472C44.3643 67.472 43.8683 67.608 43.479 67.88C43.0897 68.152 42.799 68.528 42.607 69.008C42.415 69.488 42.319 70.0427 42.319 70.672C42.319 71.6427 42.543 72.4213 42.991 73.008C43.439 73.5947 44.0977 73.888 44.967 73.888ZM55.7204 75C55.2084 75.1013 54.7017 75.1413 54.2004 75.12C53.7044 75.104 53.2617 75.0053 52.8724 74.824C52.483 74.6373 52.187 74.3493 51.9844 73.96C51.8137 73.6187 51.7204 73.2747 51.7044 72.928C51.6937 72.576 51.6884 72.1787 51.6884 71.736V63.96H53.1124V71.672C53.1124 72.024 53.115 72.3253 53.1204 72.576C53.131 72.8267 53.187 73.0427 53.2884 73.224C53.4804 73.5653 53.7844 73.7653 54.2004 73.824C54.6217 73.8827 55.1284 73.8667 55.7204 73.776V75ZM49.9364 67.536V66.36H55.7204V67.536H49.9364ZM59.9305 75.24C59.2852 75.24 58.7438 75.1227 58.3065 74.888C57.8745 74.648 57.5465 74.3333 57.3225 73.944C57.1038 73.5547 56.9945 73.128 56.9945 72.664C56.9945 72.2107 57.0798 71.8187 57.2505 71.488C57.4265 71.152 57.6718 70.8747 57.9865 70.656C58.3012 70.432 58.6772 70.256 59.1145 70.128C59.5252 70.016 59.9838 69.92 60.4905 69.84C61.0025 69.7547 61.5198 69.6773 62.0425 69.608C62.5652 69.5387 63.0532 69.472 63.5065 69.408L62.9945 69.704C63.0105 68.936 62.8558 68.368 62.5305 68C62.2105 67.632 61.6558 67.448 60.8665 67.448C60.3438 67.448 59.8852 67.568 59.4905 67.808C59.1012 68.0427 58.8265 68.4267 58.6665 68.96L57.3145 68.552C57.5225 67.7947 57.9252 67.2 58.5225 66.768C59.1198 66.336 59.9065 66.12 60.8825 66.12C61.6665 66.12 62.3385 66.2613 62.8985 66.544C63.4638 66.8213 63.8692 67.2427 64.1145 67.808C64.2372 68.0747 64.3145 68.3653 64.3465 68.68C64.3785 68.9893 64.3945 69.3147 64.3945 69.656V75H63.1305V72.928L63.4265 73.12C63.1012 73.8187 62.6452 74.3467 62.0585 74.704C61.4772 75.0613 60.7678 75.24 59.9305 75.24ZM60.1465 74.048C60.6585 74.048 61.1012 73.9573 61.4745 73.776C61.8532 73.5893 62.1572 73.3467 62.3865 73.048C62.6158 72.744 62.7652 72.4133 62.8345 72.056C62.9145 71.7893 62.9572 71.4933 62.9625 71.168C62.9732 70.8373 62.9785 70.584 62.9785 70.408L63.4745 70.624C63.0105 70.688 62.5545 70.7493 62.1065 70.808C61.6585 70.8667 61.2345 70.9307 60.8345 71C60.4345 71.064 60.0745 71.1413 59.7545 71.232C59.5198 71.3067 59.2985 71.4027 59.0905 71.52C58.8878 71.6373 58.7225 71.7893 58.5945 71.976C58.4718 72.1573 58.4105 72.384 58.4105 72.656C58.4105 72.8907 58.4692 73.1147 58.5865 73.328C58.7092 73.5413 58.8958 73.7147 59.1465 73.848C59.4025 73.9813 59.7358 74.048 60.1465 74.048ZM66.6345 75V63.24H68.0585V75H66.6345ZM73.822 75V63.48H75.246V75H73.822ZM83.7984 75V70.672C83.7984 70.2613 83.761 69.8667 83.6864 69.488C83.617 69.1093 83.4917 68.7707 83.3104 68.472C83.1344 68.168 82.8944 67.928 82.5904 67.752C82.2917 67.576 81.913 67.488 81.4544 67.488C81.097 67.488 80.7717 67.5493 80.4784 67.672C80.1904 67.7893 79.9424 67.9707 79.7344 68.216C79.5264 68.4613 79.3637 68.7707 79.2464 69.144C79.1344 69.512 79.0784 69.9467 79.0784 70.448L78.1424 70.16C78.1424 69.3227 78.2917 68.6053 78.5904 68.008C78.8944 67.4053 79.3184 66.944 79.8624 66.624C80.4117 66.2987 81.057 66.136 81.7984 66.136C82.3584 66.136 82.8357 66.224 83.2304 66.4C83.625 66.576 83.953 66.8107 84.2144 67.104C84.4757 67.392 84.681 67.7173 84.8304 68.08C84.9797 68.4373 85.0837 68.8027 85.1424 69.176C85.2064 69.544 85.2384 69.8933 85.2384 70.224V75H83.7984ZM77.6384 75V66.36H78.9184V68.672H79.0784V75H77.6384ZM90.8801 75.24C90.0055 75.24 89.2615 75.0453 88.6481 74.656C88.0401 74.2613 87.5761 73.72 87.2561 73.032C86.9361 72.344 86.7708 71.56 86.7601 70.68C86.7708 69.7787 86.9388 68.9867 87.2641 68.304C87.5948 67.616 88.0668 67.08 88.6801 66.696C89.2935 66.312 90.0321 66.12 90.8961 66.12C91.8081 66.12 92.5921 66.344 93.2481 66.792C93.9095 67.24 94.3521 67.8533 94.5761 68.632L93.1681 69.056C92.9868 68.5547 92.6908 68.1653 92.2801 67.888C91.8748 67.6107 91.4081 67.472 90.8801 67.472C90.2881 67.472 89.8001 67.6107 89.4161 67.888C89.0321 68.16 88.7468 68.5387 88.5601 69.024C88.3735 69.504 88.2775 70.056 88.2721 70.68C88.2828 71.64 88.5041 72.416 88.9361 73.008C89.3735 73.5947 90.0215 73.888 90.8801 73.888C91.4455 73.888 91.9148 73.76 92.2881 73.504C92.6615 73.2427 92.9441 72.8667 93.1361 72.376L94.5761 72.752C94.2775 73.5573 93.8108 74.1733 93.1761 74.6C92.5415 75.0267 91.7761 75.24 90.8801 75.24ZM99.6545 75.24C98.7958 75.24 98.0545 75.0453 97.4305 74.656C96.8118 74.2667 96.3345 73.728 95.9985 73.04C95.6625 72.352 95.4945 71.5627 95.4945 70.672C95.4945 69.7653 95.6652 68.9707 96.0065 68.288C96.3478 67.6053 96.8305 67.0747 97.4545 66.696C98.0785 66.312 98.8118 66.12 99.6545 66.12C100.518 66.12 101.262 66.3147 101.886 66.704C102.51 67.088 102.988 67.624 103.318 68.312C103.654 68.9947 103.822 69.7813 103.822 70.672C103.822 71.5733 103.654 72.368 103.318 73.056C102.982 73.7387 102.502 74.2747 101.878 74.664C101.254 75.048 100.513 75.24 99.6545 75.24ZM99.6545 73.888C100.55 73.888 101.217 73.5893 101.654 72.992C102.092 72.3947 102.31 71.6213 102.31 70.672C102.31 69.696 102.089 68.92 101.646 68.344C101.204 67.7627 100.54 67.472 99.6545 67.472C99.0518 67.472 98.5558 67.608 98.1665 67.88C97.7772 68.152 97.4865 68.528 97.2945 69.008C97.1025 69.488 97.0065 70.0427 97.0065 70.672C97.0065 71.6427 97.2305 72.4213 97.6785 73.008C98.1265 73.5947 98.7852 73.888 99.6545 73.888ZM115.912 75L115.92 69.472C115.92 68.8267 115.747 68.3227 115.4 67.96C115.059 67.592 114.613 67.408 114.064 67.408C113.744 67.408 113.44 67.4827 113.152 67.632C112.864 67.776 112.629 68.0053 112.448 68.32C112.267 68.6293 112.176 69.0267 112.176 69.512L111.424 69.208C111.413 68.5947 111.539 68.0587 111.8 67.6C112.067 67.136 112.429 66.776 112.888 66.52C113.347 66.264 113.864 66.136 114.44 66.136C115.341 66.136 116.051 66.4107 116.568 66.96C117.085 67.504 117.344 68.2373 117.344 69.16L117.336 75H115.912ZM105.576 75V66.36H106.848V68.672H107.008V75H105.576ZM110.752 75L110.76 69.528C110.76 68.8667 110.589 68.3493 110.248 67.976C109.907 67.5973 109.453 67.408 108.888 67.408C108.328 67.408 107.875 67.6 107.528 67.984C107.181 68.368 107.008 68.8773 107.008 69.512L106.256 69.064C106.256 68.504 106.389 68.0027 106.656 67.56C106.923 67.1173 107.285 66.7707 107.744 66.52C108.203 66.264 108.723 66.136 109.304 66.136C109.885 66.136 110.392 66.2587 110.824 66.504C111.256 66.7493 111.589 67.1013 111.824 67.56C112.059 68.0133 112.176 68.5547 112.176 69.184L112.168 75H110.752ZM123.093 75.24C122.245 75.24 121.504 75.0533 120.869 74.68C120.24 74.3013 119.749 73.776 119.397 73.104C119.045 72.4267 118.869 71.6373 118.869 70.736C118.869 69.792 119.043 68.976 119.389 68.288C119.736 67.5947 120.219 67.0613 120.837 66.688C121.461 66.3093 122.192 66.12 123.029 66.12C123.899 66.12 124.637 66.32 125.245 66.72C125.859 67.12 126.317 67.6907 126.621 68.432C126.931 69.1733 127.064 70.056 127.021 71.08H125.581V70.568C125.565 69.5067 125.349 68.7147 124.933 68.192C124.517 67.664 123.899 67.4 123.077 67.4C122.197 67.4 121.528 67.6827 121.069 68.248C120.611 68.8133 120.381 69.624 120.381 70.68C120.381 71.6987 120.611 72.488 121.069 73.048C121.528 73.608 122.181 73.888 123.029 73.888C123.6 73.888 124.096 73.7573 124.517 73.496C124.939 73.2347 125.269 72.8587 125.509 72.368L126.877 72.84C126.541 73.6027 126.035 74.1947 125.357 74.616C124.685 75.032 123.931 75.24 123.093 75.24ZM119.901 71.08V69.936H126.285V71.08H119.901Z" fill="white"/>
<rect x="201.854" y="53.8623" width="6.27451" height="6.27451" rx="3.13725" fill="#FF8F20"/>
<path d="M215.103 61V53.8H217.883C217.953 53.8 218.032 53.8033 218.118 53.81C218.208 53.8133 218.298 53.8233 218.388 53.84C218.765 53.8967 219.083 54.0283 219.343 54.235C219.607 54.4383 219.805 54.695 219.938 55.005C220.075 55.315 220.143 55.6583 220.143 56.035C220.143 56.4083 220.075 56.75 219.938 57.06C219.802 57.37 219.602 57.6283 219.338 57.835C219.078 58.0383 218.762 58.1683 218.388 58.225C218.298 58.2383 218.208 58.2483 218.118 58.255C218.032 58.2617 217.953 58.265 217.883 58.265H215.838V61H215.103ZM215.838 57.565H217.863C217.923 57.565 217.993 57.5617 218.073 57.555C218.153 57.5483 218.232 57.5367 218.308 57.52C218.555 57.4667 218.757 57.365 218.913 57.215C219.073 57.065 219.192 56.8867 219.268 56.68C219.348 56.4733 219.388 56.2583 219.388 56.035C219.388 55.8117 219.348 55.5967 219.268 55.39C219.192 55.18 219.073 55 218.913 54.85C218.757 54.7 218.555 54.5983 218.308 54.545C218.232 54.5283 218.153 54.5183 218.073 54.515C217.993 54.5083 217.923 54.505 217.863 54.505H215.838V57.565ZM221.138 61V55.6H221.798V56.9L221.668 56.73C221.728 56.57 221.807 56.4233 221.903 56.29C222 56.1533 222.105 56.0417 222.218 55.955C222.358 55.8317 222.522 55.7383 222.708 55.675C222.895 55.6083 223.083 55.57 223.273 55.56C223.463 55.5467 223.637 55.56 223.793 55.6V56.29C223.597 56.24 223.382 56.2283 223.148 56.255C222.915 56.2817 222.7 56.375 222.503 56.535C222.323 56.675 222.188 56.8433 222.098 57.04C222.008 57.2333 221.948 57.44 221.918 57.66C221.888 57.8767 221.873 58.0917 221.873 58.305V61H221.138ZM226.899 61.15C226.363 61.15 225.904 61.0283 225.524 60.785C225.144 60.5417 224.853 60.205 224.649 59.775C224.446 59.345 224.344 58.8517 224.344 58.295C224.344 57.7283 224.448 57.2317 224.654 56.805C224.861 56.3783 225.154 56.0467 225.534 55.81C225.918 55.57 226.373 55.45 226.899 55.45C227.439 55.45 227.899 55.5717 228.279 55.815C228.663 56.055 228.954 56.39 229.154 56.82C229.358 57.2467 229.459 57.7383 229.459 58.295C229.459 58.8617 229.358 59.36 229.154 59.79C228.951 60.2167 228.658 60.55 228.274 60.79C227.891 61.03 227.433 61.15 226.899 61.15ZM226.899 60.445C227.499 60.445 227.946 60.2467 228.239 59.85C228.533 59.45 228.679 58.9317 228.679 58.295C228.679 57.6417 228.531 57.1217 228.234 56.735C227.941 56.3483 227.496 56.155 226.899 56.155C226.496 56.155 226.163 56.2467 225.899 56.43C225.639 56.61 225.444 56.8617 225.314 57.185C225.188 57.505 225.124 57.875 225.124 58.295C225.124 58.945 225.274 59.4667 225.574 59.86C225.874 60.25 226.316 60.445 226.899 60.445ZM232.657 61.15C232.154 61.15 231.724 61.025 231.367 60.775C231.011 60.5217 230.737 60.18 230.547 59.75C230.357 59.32 230.262 58.835 230.262 58.295C230.262 57.7583 230.356 57.275 230.542 56.845C230.732 56.415 231.004 56.075 231.357 55.825C231.711 55.575 232.134 55.45 232.627 55.45C233.134 55.45 233.561 55.5733 233.907 55.82C234.254 56.0667 234.516 56.405 234.692 56.835C234.872 57.2617 234.962 57.7483 234.962 58.295C234.962 58.8317 234.874 59.3167 234.697 59.75C234.521 60.18 234.261 60.5217 233.917 60.775C233.574 61.025 233.154 61.15 232.657 61.15ZM232.732 60.465C233.116 60.465 233.432 60.3717 233.682 60.185C233.932 59.9983 234.119 59.7417 234.242 59.415C234.366 59.085 234.427 58.7117 234.427 58.295C234.427 57.8717 234.366 57.4983 234.242 57.175C234.119 56.8483 233.932 56.5933 233.682 56.41C233.436 56.2267 233.124 56.135 232.747 56.135C232.361 56.135 232.041 56.23 231.787 56.42C231.534 56.61 231.346 56.8683 231.222 57.195C231.102 57.5217 231.042 57.8883 231.042 58.295C231.042 58.705 231.104 59.075 231.227 59.405C231.354 59.7317 231.542 59.99 231.792 60.18C232.042 60.37 232.356 60.465 232.732 60.465ZM234.427 61V56.935H234.347V53.8H235.087V61H234.427ZM238.555 61.135C238.232 61.135 237.948 61.085 237.705 60.985C237.465 60.885 237.26 60.75 237.09 60.58C236.923 60.41 236.788 60.2167 236.685 60C236.582 59.78 236.507 59.5483 236.46 59.305C236.413 59.0583 236.39 58.8133 236.39 58.57V55.6H237.13V58.355C237.13 58.6517 237.158 58.9267 237.215 59.18C237.272 59.4333 237.362 59.655 237.485 59.845C237.612 60.0317 237.773 60.1767 237.97 60.28C238.17 60.3833 238.412 60.435 238.695 60.435C238.955 60.435 239.183 60.39 239.38 60.3C239.58 60.21 239.747 60.0817 239.88 59.915C240.017 59.745 240.12 59.54 240.19 59.3C240.26 59.0567 240.295 58.7833 240.295 58.48L240.815 58.595C240.815 59.1483 240.718 59.6133 240.525 59.99C240.332 60.3667 240.065 60.6517 239.725 60.845C239.385 61.0383 238.995 61.135 238.555 61.135ZM240.37 61V59.67H240.295V55.6H241.03V61H240.37ZM244.668 61.15C244.124 61.15 243.664 61.0283 243.288 60.785C242.911 60.5417 242.624 60.2067 242.428 59.78C242.234 59.35 242.134 58.8567 242.128 58.3C242.134 57.7333 242.238 57.2367 242.438 56.81C242.638 56.38 242.926 56.0467 243.303 55.81C243.679 55.57 244.136 55.45 244.673 55.45C245.219 55.45 245.694 55.5833 246.098 55.85C246.504 56.1167 246.783 56.4817 246.933 56.945L246.213 57.175C246.086 56.8517 245.884 56.6017 245.608 56.425C245.334 56.245 245.021 56.155 244.668 56.155C244.271 56.155 243.943 56.2467 243.683 56.43C243.423 56.61 243.229 56.8617 243.103 57.185C242.976 57.5083 242.911 57.88 242.908 58.3C242.914 58.9467 243.064 59.4667 243.358 59.86C243.651 60.25 244.088 60.445 244.668 60.445C245.034 60.445 245.346 60.3617 245.603 60.195C245.863 60.025 246.059 59.7783 246.193 59.455L246.933 59.675C246.733 60.155 246.439 60.5217 246.053 60.775C245.666 61.025 245.204 61.15 244.668 61.15ZM250.905 61C250.601 61.0633 250.301 61.0883 250.005 61.075C249.711 61.0617 249.448 60.9983 249.215 60.885C248.985 60.7717 248.81 60.595 248.69 60.355C248.593 60.155 248.54 59.9533 248.53 59.75C248.523 59.5433 248.52 59.3083 248.52 59.045V54.1H249.25V59.015C249.25 59.2417 249.251 59.4317 249.255 59.585C249.261 59.735 249.296 59.8683 249.36 59.985C249.48 60.2083 249.67 60.3417 249.93 60.385C250.193 60.4283 250.518 60.4183 250.905 60.355V61ZM247.365 56.23V55.6H250.905V56.23H247.365Z" fill="#DADADA"/>
<rect x="268.403" y="53.8623" width="6.27451" height="6.27451" rx="3.13725" fill="#007BFF"/>
<path d="M284.936 61.15C284.433 61.15 283.98 61.0667 283.576 60.9C283.176 60.73 282.845 60.49 282.581 60.18C282.321 59.87 282.151 59.5017 282.071 59.075L282.821 58.95C282.941 59.4167 283.195 59.7833 283.581 60.05C283.968 60.3133 284.43 60.445 284.966 60.445C285.32 60.445 285.636 60.39 285.916 60.28C286.196 60.1667 286.416 60.0067 286.576 59.8C286.736 59.5933 286.816 59.3483 286.816 59.065C286.816 58.8783 286.783 58.72 286.716 58.59C286.65 58.4567 286.561 58.3467 286.451 58.26C286.341 58.1733 286.221 58.1017 286.091 58.045C285.961 57.985 285.835 57.9367 285.711 57.9L283.886 57.355C283.666 57.2917 283.463 57.2117 283.276 57.115C283.09 57.015 282.926 56.8967 282.786 56.76C282.65 56.62 282.543 56.4567 282.466 56.27C282.39 56.0833 282.351 55.87 282.351 55.63C282.351 55.2233 282.458 54.8717 282.671 54.575C282.885 54.2783 283.176 54.05 283.546 53.89C283.916 53.73 284.338 53.6517 284.811 53.655C285.291 53.655 285.72 53.74 286.096 53.91C286.476 54.08 286.79 54.3233 287.036 54.64C287.283 54.9533 287.446 55.325 287.526 55.755L286.756 55.895C286.706 55.5817 286.591 55.31 286.411 55.08C286.231 54.85 286.001 54.6733 285.721 54.55C285.445 54.4233 285.14 54.3583 284.806 54.355C284.483 54.355 284.195 54.41 283.941 54.52C283.691 54.6267 283.493 54.7733 283.346 54.96C283.2 55.1467 283.126 55.36 283.126 55.6C283.126 55.8433 283.193 56.0383 283.326 56.185C283.463 56.3317 283.63 56.4467 283.826 56.53C284.026 56.6133 284.22 56.6817 284.406 56.735L285.816 57.15C285.963 57.19 286.135 57.2483 286.331 57.325C286.531 57.3983 286.725 57.505 286.911 57.645C287.101 57.7817 287.258 57.9617 287.381 58.185C287.505 58.4083 287.566 58.6917 287.566 59.035C287.566 59.3683 287.5 59.6667 287.366 59.93C287.236 60.1933 287.051 60.415 286.811 60.595C286.575 60.775 286.296 60.9117 285.976 61.005C285.66 61.1017 285.313 61.15 284.936 61.15ZM290.663 61.135C290.34 61.135 290.057 61.085 289.813 60.985C289.573 60.885 289.368 60.75 289.198 60.58C289.032 60.41 288.897 60.2167 288.793 60C288.69 59.78 288.615 59.5483 288.568 59.305C288.522 59.0583 288.498 58.8133 288.498 58.57V55.6H289.238V58.355C289.238 58.6517 289.267 58.9267 289.323 59.18C289.38 59.4333 289.47 59.655 289.593 59.845C289.72 60.0317 289.882 60.1767 290.078 60.28C290.278 60.3833 290.52 60.435 290.803 60.435C291.063 60.435 291.292 60.39 291.488 60.3C291.688 60.21 291.855 60.0817 291.988 59.915C292.125 59.745 292.228 59.54 292.298 59.3C292.368 59.0567 292.403 58.7833 292.403 58.48L292.923 58.595C292.923 59.1483 292.827 59.6133 292.633 59.99C292.44 60.3667 292.173 60.6517 291.833 60.845C291.493 61.0383 291.103 61.135 290.663 61.135ZM292.478 61V59.67H292.403V55.6H293.138V61H292.478ZM296.961 61.15C296.464 61.15 296.044 61.025 295.701 60.775C295.358 60.5217 295.098 60.18 294.921 59.75C294.744 59.3167 294.656 58.8317 294.656 58.295C294.656 57.7483 294.744 57.2617 294.921 56.835C295.101 56.405 295.364 56.0667 295.711 55.82C296.058 55.5733 296.484 55.45 296.991 55.45C297.484 55.45 297.908 55.575 298.261 55.825C298.614 56.075 298.884 56.415 299.071 56.845C299.261 57.275 299.356 57.7583 299.356 58.295C299.356 58.835 299.261 59.32 299.071 59.75C298.881 60.18 298.608 60.5217 298.251 60.775C297.894 61.025 297.464 61.15 296.961 61.15ZM294.531 61V53.8H295.271V56.935H295.191V61H294.531ZM296.886 60.465C297.263 60.465 297.576 60.37 297.826 60.18C298.076 59.99 298.263 59.7317 298.386 59.405C298.513 59.075 298.576 58.705 298.576 58.295C298.576 57.8883 298.514 57.5217 298.391 57.195C298.268 56.8683 298.079 56.61 297.826 56.42C297.576 56.23 297.258 56.135 296.871 56.135C296.494 56.135 296.181 56.2267 295.931 56.41C295.684 56.5933 295.499 56.8483 295.376 57.175C295.253 57.4983 295.191 57.8717 295.191 58.295C295.191 58.7117 295.253 59.085 295.376 59.415C295.499 59.7417 295.686 59.9983 295.936 60.185C296.186 60.3717 296.503 60.465 296.886 60.465ZM302.42 61.145C301.787 61.145 301.265 61.0083 300.855 60.735C300.448 60.4617 300.198 60.0817 300.105 59.595L300.855 59.47C300.935 59.7767 301.117 60.0217 301.4 60.205C301.687 60.385 302.04 60.475 302.46 60.475C302.87 60.475 303.193 60.39 303.43 60.22C303.667 60.0467 303.785 59.8117 303.785 59.515C303.785 59.3483 303.747 59.2133 303.67 59.11C303.597 59.0033 303.445 58.905 303.215 58.815C302.985 58.725 302.642 58.6183 302.185 58.495C301.695 58.3617 301.312 58.2283 301.035 58.095C300.758 57.9617 300.562 57.8083 300.445 57.635C300.328 57.4583 300.27 57.2433 300.27 56.99C300.27 56.6833 300.357 56.415 300.53 56.185C300.703 55.9517 300.943 55.7717 301.25 55.645C301.557 55.515 301.913 55.45 302.32 55.45C302.727 55.45 303.09 55.5167 303.41 55.65C303.733 55.78 303.993 55.9633 304.19 56.2C304.387 56.4367 304.503 56.7117 304.54 57.025L303.79 57.16C303.74 56.8433 303.582 56.5933 303.315 56.41C303.052 56.2233 302.717 56.1267 302.31 56.12C301.927 56.11 301.615 56.1833 301.375 56.34C301.135 56.4933 301.015 56.6983 301.015 56.955C301.015 57.0983 301.058 57.2217 301.145 57.325C301.232 57.425 301.388 57.52 301.615 57.61C301.845 57.7 302.172 57.7983 302.595 57.905C303.092 58.0317 303.482 58.165 303.765 58.305C304.048 58.445 304.25 58.61 304.37 58.8C304.49 58.99 304.55 59.225 304.55 59.505C304.55 60.015 304.36 60.4167 303.98 60.71C303.603 61 303.083 61.145 302.42 61.145ZM307.899 61.15C307.356 61.15 306.896 61.0283 306.519 60.785C306.142 60.5417 305.856 60.2067 305.659 59.78C305.466 59.35 305.366 58.8567 305.359 58.3C305.366 57.7333 305.469 57.2367 305.669 56.81C305.869 56.38 306.157 56.0467 306.534 55.81C306.911 55.57 307.367 55.45 307.904 55.45C308.451 55.45 308.926 55.5833 309.329 55.85C309.736 56.1167 310.014 56.4817 310.164 56.945L309.444 57.175C309.317 56.8517 309.116 56.6017 308.839 56.425C308.566 56.245 308.252 56.155 307.899 56.155C307.502 56.155 307.174 56.2467 306.914 56.43C306.654 56.61 306.461 56.8617 306.334 57.185C306.207 57.5083 306.142 57.88 306.139 58.3C306.146 58.9467 306.296 59.4667 306.589 59.86C306.882 60.25 307.319 60.445 307.899 60.445C308.266 60.445 308.577 60.3617 308.834 60.195C309.094 60.025 309.291 59.7783 309.424 59.455L310.164 59.675C309.964 60.155 309.671 60.5217 309.284 60.775C308.897 61.025 308.436 61.15 307.899 61.15ZM311.196 61V55.6H311.856V56.9L311.726 56.73C311.786 56.57 311.864 56.4233 311.961 56.29C312.058 56.1533 312.163 56.0417 312.276 55.955C312.416 55.8317 312.579 55.7383 312.766 55.675C312.953 55.6083 313.141 55.57 313.331 55.56C313.521 55.5467 313.694 55.56 313.851 55.6V56.29C313.654 56.24 313.439 56.2283 313.206 56.255C312.973 56.2817 312.758 56.375 312.561 56.535C312.381 56.675 312.246 56.8433 312.156 57.04C312.066 57.2333 312.006 57.44 311.976 57.66C311.946 57.8767 311.931 58.0917 311.931 58.305V61H311.196ZM314.9 54.575V53.75H315.635V54.575H314.9ZM314.9 61V55.6H315.635V61H314.9ZM319.559 61.15C319.062 61.15 318.642 61.025 318.299 60.775C317.955 60.5217 317.695 60.18 317.519 59.75C317.342 59.3167 317.254 58.8317 317.254 58.295C317.254 57.7483 317.342 57.2617 317.519 56.835C317.699 56.405 317.962 56.0667 318.309 55.82C318.655 55.5733 319.082 55.45 319.589 55.45C320.082 55.45 320.505 55.575 320.859 55.825C321.212 56.075 321.482 56.415 321.669 56.845C321.859 57.275 321.954 57.7583 321.954 58.295C321.954 58.835 321.859 59.32 321.669 59.75C321.479 60.18 321.205 60.5217 320.849 60.775C320.492 61.025 320.062 61.15 319.559 61.15ZM317.129 63.4V55.6H317.789V59.665H317.869V63.4H317.129ZM319.484 60.465C319.86 60.465 320.174 60.37 320.424 60.18C320.674 59.99 320.86 59.7317 320.984 59.405C321.11 59.075 321.174 58.705 321.174 58.295C321.174 57.8883 321.112 57.5217 320.989 57.195C320.865 56.8683 320.677 56.61 320.424 56.42C320.174 56.23 319.855 56.135 319.469 56.135C319.092 56.135 318.779 56.2267 318.529 56.41C318.282 56.5933 318.097 56.8483 317.974 57.175C317.85 57.4983 317.789 57.8717 317.789 58.295C317.789 58.7117 317.85 59.085 317.974 59.415C318.097 59.7417 318.284 59.9983 318.534 60.185C318.784 60.3717 319.1 60.465 319.484 60.465ZM325.992 61C325.688 61.0633 325.388 61.0883 325.092 61.075C324.798 61.0617 324.535 60.9983 324.302 60.885C324.072 60.7717 323.897 60.595 323.777 60.355C323.68 60.155 323.627 59.9533 323.617 59.75C323.61 59.5433 323.607 59.3083 323.607 59.045V54.1H324.337V59.015C324.337 59.2417 324.338 59.4317 324.342 59.585C324.348 59.735 324.383 59.8683 324.447 59.985C324.567 60.2083 324.757 60.3417 325.017 60.385C325.28 60.4283 325.605 60.4183 325.992 60.355V61ZM322.452 56.23V55.6H325.992V56.23H322.452ZM327.155 54.575V53.75H327.89V54.575H327.155ZM327.155 61V55.6H327.89V61H327.155ZM331.644 61.15C331.108 61.15 330.649 61.0283 330.269 60.785C329.889 60.5417 329.598 60.205 329.394 59.775C329.191 59.345 329.089 58.8517 329.089 58.295C329.089 57.7283 329.193 57.2317 329.399 56.805C329.606 56.3783 329.899 56.0467 330.279 55.81C330.663 55.57 331.118 55.45 331.644 55.45C332.184 55.45 332.644 55.5717 333.024 55.815C333.408 56.055 333.699 56.39 333.899 56.82C334.103 57.2467 334.204 57.7383 334.204 58.295C334.204 58.8617 334.103 59.36 333.899 59.79C333.696 60.2167 333.403 60.55 333.019 60.79C332.636 61.03 332.178 61.15 331.644 61.15ZM331.644 60.445C332.244 60.445 332.691 60.2467 332.984 59.85C333.278 59.45 333.424 58.9317 333.424 58.295C333.424 57.6417 333.276 57.1217 332.979 56.735C332.686 56.3483 332.241 56.155 331.644 56.155C331.241 56.155 330.908 56.2467 330.644 56.43C330.384 56.61 330.189 56.8617 330.059 57.185C329.933 57.505 329.869 57.875 329.869 58.295C329.869 58.945 330.019 59.4667 330.319 59.86C330.619 60.25 331.061 60.445 331.644 60.445ZM339.207 61V58.245C339.207 57.945 339.179 57.67 339.122 57.42C339.066 57.1667 338.974 56.9467 338.847 56.76C338.724 56.57 338.562 56.4233 338.362 56.32C338.166 56.2167 337.926 56.165 337.642 56.165C337.382 56.165 337.152 56.21 336.952 56.3C336.756 56.39 336.589 56.52 336.452 56.69C336.319 56.8567 336.217 57.06 336.147 57.3C336.077 57.54 336.042 57.8133 336.042 58.12L335.522 58.005C335.522 57.4517 335.619 56.9867 335.812 56.61C336.006 56.2333 336.272 55.9483 336.612 55.755C336.952 55.5617 337.342 55.465 337.782 55.465C338.106 55.465 338.387 55.515 338.627 55.615C338.871 55.715 339.076 55.85 339.242 56.02C339.412 56.19 339.549 56.385 339.652 56.605C339.756 56.8217 339.831 57.0533 339.877 57.3C339.924 57.5433 339.947 57.7867 339.947 58.03V61H339.207ZM335.302 61V55.6H335.967V56.93H336.042V61H335.302ZM343.26 61.145C342.627 61.145 342.105 61.0083 341.695 60.735C341.288 60.4617 341.038 60.0817 340.945 59.595L341.695 59.47C341.775 59.7767 341.957 60.0217 342.24 60.205C342.527 60.385 342.88 60.475 343.3 60.475C343.71 60.475 344.033 60.39 344.27 60.22C344.507 60.0467 344.625 59.8117 344.625 59.515C344.625 59.3483 344.587 59.2133 344.51 59.11C344.437 59.0033 344.285 58.905 344.055 58.815C343.825 58.725 343.482 58.6183 343.025 58.495C342.535 58.3617 342.152 58.2283 341.875 58.095C341.598 57.9617 341.402 57.8083 341.285 57.635C341.168 57.4583 341.11 57.2433 341.11 56.99C341.11 56.6833 341.197 56.415 341.37 56.185C341.543 55.9517 341.783 55.7717 342.09 55.645C342.397 55.515 342.753 55.45 343.16 55.45C343.567 55.45 343.93 55.5167 344.25 55.65C344.573 55.78 344.833 55.9633 345.03 56.2C345.227 56.4367 345.343 56.7117 345.38 57.025L344.63 57.16C344.58 56.8433 344.422 56.5933 344.155 56.41C343.892 56.2233 343.557 56.1267 343.15 56.12C342.767 56.11 342.455 56.1833 342.215 56.34C341.975 56.4933 341.855 56.6983 341.855 56.955C341.855 57.0983 341.898 57.2217 341.985 57.325C342.072 57.425 342.228 57.52 342.455 57.61C342.685 57.7 343.012 57.7983 343.435 57.905C343.932 58.0317 344.322 58.165 344.605 58.305C344.888 58.445 345.09 58.61 345.21 58.8C345.33 58.99 345.39 59.225 345.39 59.505C345.39 60.015 345.2 60.4167 344.82 60.71C344.443 61 343.923 61.145 343.26 61.145Z" fill="#DADADA"/>
<defs>
<filter id="filter0_d_874_8093" x="221.628" y="134" width="27.3684" height="27.3684" filterUnits="userSpaceOnUse" color-interpolation-filters="sRGB">
<feFlood flood-opacity="0" result="BackgroundImageFix"/>
<feColorMatrix in="SourceAlpha" type="matrix" values="0 0 0 0 0 0 0 0 0 0 0 0 0 0 0 0 0 0 127 0" result="hardAlpha"/>
<feOffset dy="6.27451"/>
<feGaussianBlur stdDeviation="3.13725"/>
<feComposite in2="hardAlpha" operator="out"/>
<feColorMatrix type="matrix" values="0 0 0 0 0.0509804 0 0 0 0 0.0392157 0 0 0 0 0.172549 0 0 0 0.08 0"/>
<feBlend mode="normal" in2="BackgroundImageFix" result="effect1_dropShadow_874_8093"/>
<feBlend mode="normal" in="SourceGraphic" in2="effect1_dropShadow_874_8093" result="shape"/>
</filter>
</defs>
</svg>
