<svg width="54" height="62" viewBox="0 0 54 62" fill="none" xmlns="http://www.w3.org/2000/svg">
<path d="M19.8514 44.2134C18.8961 44.2134 17.8877 44.1603 16.9323 44.2134C15.0747 44.3195 13.7478 45.2218 13.1109 47.0263C12.1025 49.7862 12.0495 52.7053 12.3679 55.5713C12.4741 56.6859 12.7394 57.7474 12.8987 58.8089C12.9517 59.2335 13.0579 59.6581 13.0579 60.0827C13.0579 60.8257 12.6864 61.3034 12.1556 61.4626C11.4656 61.6218 10.988 61.3034 10.6164 60.7727C10.4041 60.5073 10.2449 60.1888 10.1388 59.8704C8.44038 55.0937 8.22808 50.2108 9.97954 45.4341C11.041 42.515 13.3232 40.9758 16.3485 40.6574C17.41 40.5512 18.5776 40.5512 19.6391 40.6043C24.3097 40.8166 28.7149 39.6489 32.9609 37.7382C35.4554 36.6237 37.3661 34.7661 38.746 32.3777C40.2321 29.777 41.3467 27.0172 42.302 24.2573C44.4781 18.2068 46.6541 12.1032 48.9364 6.10574C49.5732 4.46042 50.4755 2.86818 51.2716 1.32902C51.4839 0.90442 51.8555 0.479823 52.227 0.161375C52.3862 0.0021505 52.8108 -0.0509242 53.0231 0.0552252C53.2354 0.161375 53.3946 0.532897 53.3946 0.798271C53.3416 1.38209 53.2885 1.96591 53.0762 2.54974C52.0678 6.05266 51.0063 9.55559 49.9448 13.0054C48.6179 17.1983 47.238 21.3912 45.858 25.5841C44.9558 28.344 43.8412 30.9978 42.4612 33.5453C40.4975 37.2606 37.5784 39.9674 33.7039 41.5596C29.2457 43.3111 24.6812 44.4787 19.8514 44.2134Z" fill="#FF543E"/>
<path d="M3.71761 51.113C3.71761 52.5991 3.71761 54.0852 3.71761 55.5712C3.71761 56.6327 3.34609 57.2696 2.54997 57.4289C1.80692 57.5881 1.06388 57.1635 0.692356 56.2612C0.533132 55.8366 0.373908 55.3589 0.320834 54.9343C-0.262988 49.6269 -0.156839 44.3725 1.54155 39.2242C2.54997 36.2521 4.03606 33.5453 6.2652 31.3692C8.97201 28.7155 12.2096 27.707 15.9248 28.3439C17.517 28.6093 19.1093 28.9808 20.7015 29.087C22.1876 29.1931 23.6737 29.1931 25.1067 28.9808C28.0258 28.5562 30.1488 26.8578 31.3695 24.151C31.9533 22.7711 32.3779 21.3912 32.8556 19.9581C34.554 14.3853 36.0932 8.81245 38.2162 3.45191C38.3754 3.08039 38.4815 2.70887 38.6938 2.39042C38.8531 2.17812 39.1715 1.96582 39.3838 1.96582C39.5961 1.96582 39.9145 2.28427 39.9676 2.49657C40.1268 3.13346 40.233 3.77036 40.1799 4.35418C39.9676 6.31794 39.8084 8.22863 39.3838 10.0332C38.3754 14.1199 37.2608 18.1536 36.1462 22.1873C35.9339 23.0365 35.6155 23.8857 35.297 24.7349C33.1741 30.0954 29.0342 32.643 23.4083 32.9614C20.9669 33.0676 18.5785 32.5368 16.2432 32.1122C15.7656 32.0061 15.2348 31.953 14.7571 31.8469C12.6872 31.5284 10.8827 32.1653 9.34353 33.5453C7.64514 35.0313 6.4775 36.889 5.6283 38.9589C4.40758 42.0903 3.77069 45.3278 3.66454 48.6185C3.66454 49.4677 3.66454 50.2638 3.71761 51.113C3.66454 51.113 3.66454 51.113 3.71761 51.113Z" fill="#FF543E"/>
</svg>
